<svg width="43" height="37" viewBox="0 0 43 37" fill="none" xmlns="http://www.w3.org/2000/svg">
<g clip-path="url(#clip0_1079_4446)">
<path d="M21.4708 36.9772C14.7562 36.9772 8.0404 36.9556 1.32584 36.9987C0.210601 37.0059 -0.333626 36.0678 0.216688 35.1356C6.969 23.6861 13.686 12.2162 20.4127 0.752354C21.0044 -0.255289 21.9651 -0.250496 22.5592 0.763137C29.2799 12.2162 35.9993 23.6693 42.7187 35.1236C43.1351 35.8329 43.101 36.4128 42.5592 36.7483C42.3096 36.9029 41.9639 36.9688 41.6619 36.9688C34.9315 36.9807 28.2024 36.9784 21.472 36.9784L21.4708 36.9772ZM2.978 34.8037H39.9866C33.8114 24.2792 27.6642 13.8026 21.4817 3.26487C15.287 13.8241 9.14712 24.29 2.97922 34.8049L2.978 34.8037Z" fill="#fff"/>
<path d="M21.4826 30.5193C18.5362 30.5193 15.5898 30.4833 12.6447 30.5385C11.5915 30.5576 11.029 29.6231 11.5708 28.7101C14.5379 23.7114 17.4648 18.6912 20.4063 13.6781C21.0004 12.6669 21.9598 12.6621 22.5528 13.6709C25.4955 18.684 28.4236 23.7054 31.3882 28.7065C31.9483 29.6518 31.342 30.5576 30.3205 30.5385C27.3753 30.4845 24.4289 30.5193 21.4826 30.5193ZM28.622 28.3578C26.2309 24.2793 23.8774 20.2679 21.4814 16.1823C19.0816 20.2739 16.7245 24.2949 14.3419 28.3578H28.622Z" fill="#fff"/>
</g>
<defs>
<clipPath id="clip0_1079_4446">
<rect width="43" height="37" fill="white"/>
</clipPath>
</defs>
</svg>
