<svg width="49" height="33" viewBox="0 0 49 33" fill="none" xmlns="http://www.w3.org/2000/svg">
<g clip-path="url(#clip0_1079_4439)">
<path d="M48.9997 18.1198C48.8386 18.613 48.7274 19.1291 48.5075 19.5956C47.4184 21.8934 45.5558 23.0289 43.0299 23.0506C39.9043 23.0773 36.7788 23.0569 33.6545 23.0569C33.464 23.0569 33.2736 23.0569 33.0435 23.0569V25.384C33.7657 25.384 34.479 25.3815 35.1924 25.384C36.0565 25.3879 36.4055 25.7307 36.4106 26.6011C36.417 27.7137 36.4221 28.8263 36.4106 29.9388C36.3889 31.8212 35.1949 32.9962 33.317 32.9975C27.6246 32.9975 21.9321 32.9987 16.2397 32.9975C14.4181 32.9975 13.2126 31.8161 13.1909 29.9987C13.1768 28.839 13.1819 27.678 13.1909 26.517C13.1973 25.7421 13.5603 25.3917 14.3414 25.384C14.8796 25.3789 15.4165 25.384 15.9789 25.384V23.0569C15.7757 23.0569 15.5903 23.0569 15.405 23.0569C12.2641 23.0569 9.12192 23.076 5.98104 23.0506C3.47549 23.0302 1.59378 21.9189 0.534037 19.6338C0.217009 18.9495 0.0431545 18.1402 0.0329277 17.3845C-0.0169275 13.5077 0.00224762 9.6283 0.011196 5.74894C0.0175877 2.76933 2.52057 0.146564 5.50933 0.114703C10.3721 0.063726 15.2362 0.0968611 20.099 0.100684C20.742 0.100684 21.1588 0.507226 21.1511 1.08199C21.1434 1.67333 20.7369 2.02252 20.0198 2.02379C15.396 2.02762 10.771 2.02889 6.14722 2.02379C5.04274 2.02252 4.03668 2.26466 3.19809 3.03187C2.36462 3.79525 1.93765 4.74979 1.93254 5.86237C1.91592 9.66143 1.90569 13.4605 1.93254 17.2608C1.94916 19.4732 3.62122 21.093 5.83914 21.093C18.2761 21.0981 30.7143 21.0981 43.1513 21.093C45.3756 21.093 47.0502 19.4885 47.0681 17.2723C47.1001 13.4732 47.0911 9.67418 47.0707 5.87384C47.0592 3.82711 45.4881 1.99831 42.9148 2.01615C38.3703 2.04801 33.8258 2.02507 29.2813 2.02507C29.1062 2.02507 28.9298 2.03017 28.7559 2.01487C28.219 1.97027 27.8636 1.60323 27.8521 1.09346C27.8406 0.569673 28.2088 0.158034 28.7483 0.103233C28.9068 0.0879401 29.0666 0.0968611 29.2264 0.0968611C33.7708 0.0968611 38.3166 0.145289 42.8598 0.0802936C46.2001 0.0331398 48.5523 2.36279 48.9268 4.92949C48.9332 4.97154 48.9741 5.00978 48.9984 5.04928V18.1185L48.9997 18.1198ZM15.1199 27.3479C15.1199 28.1763 15.1199 28.9524 15.1199 29.7273C15.1199 30.7978 15.405 31.0833 16.4788 31.0833C22.0229 31.0833 27.5671 31.0833 33.1125 31.0807C33.349 31.0807 33.6289 31.1062 33.8105 30.9941C34.061 30.8398 34.4011 30.5773 34.4164 30.3428C34.4842 29.3539 34.4445 28.356 34.4445 27.3479H15.1199ZM31.0186 23.0862H17.9885V25.356H31.0186V23.0862Z" fill="#003857"/>
<path d="M20.5857 11.5412C20.6023 15.6309 17.2352 19.0247 13.1394 19.0476C8.98094 19.0718 5.58695 15.7214 5.5665 11.5718C5.54605 7.49621 8.90552 4.09604 12.9655 4.0833C17.1981 4.06928 20.5704 7.36877 20.5857 11.5412ZM13.078 17.1079C16.146 17.1041 18.6337 14.6241 18.6362 11.5655C18.6388 8.49281 16.1153 5.97582 13.0499 5.99366C9.99722 6.0115 7.51341 8.51575 7.51597 11.5706C7.51852 14.6241 10.0177 17.1118 13.0793 17.1079H13.078Z" fill="#003857"/>
<path d="M25.4594 0.948113C25.4632 1.49994 25.0555 1.90903 24.5019 1.90776C23.9484 1.90776 23.5445 1.49612 23.5509 0.943016C23.5572 0.417952 23.9612 0.0101355 24.484 -5.99261e-05C25.0286 -0.0102553 25.4556 0.403933 25.4594 0.948113Z" fill="#003857"/>
<path d="M16.6247 11.5553C16.6247 13.5128 15.0485 15.102 13.0901 15.1161C11.1509 15.1313 9.53633 13.5294 9.52738 11.5821C9.51843 9.59779 11.11 7.99838 13.0863 8.0022C15.0447 8.0073 16.6234 9.59141 16.6247 11.554V11.5553ZM13.053 13.1624C13.9734 13.17 14.7047 12.4589 14.7047 11.5566C14.7047 10.681 13.9849 9.95717 13.0991 9.94316C12.1978 9.92914 11.4474 10.6632 11.4487 11.5579C11.4487 12.4423 12.162 13.1534 13.0543 13.1611L13.053 13.1624Z" fill="#003857"/>
<path d="M43.4334 11.5412C43.45 15.6309 40.0828 19.0247 35.987 19.0476C31.8286 19.0718 28.4346 15.7214 28.4142 11.5718C28.3937 7.49621 31.7532 4.09604 35.8132 4.0833C40.0458 4.06928 43.418 7.36877 43.4334 11.5412ZM35.9257 17.1079C38.9937 17.1041 41.4813 14.6241 41.4839 11.5655C41.4864 8.49281 38.963 5.97582 35.8975 5.99366C32.8449 6.0115 30.3611 8.51575 30.3636 11.5706C30.3662 14.6241 32.8653 17.1118 35.927 17.1079H35.9257Z" fill="#003857"/>
<path d="M39.4724 11.5553C39.4724 13.5128 37.8962 15.102 35.9378 15.1161C33.9985 15.1313 32.384 13.5294 32.375 11.5821C32.3661 9.59779 33.9576 7.99838 35.9339 8.0022C37.8923 8.0073 39.4711 9.59141 39.4724 11.554V11.5553ZM35.9007 13.1624C36.8211 13.17 37.5523 12.4589 37.5523 11.5566C37.5523 10.681 36.8326 9.95717 35.9467 9.94316C35.0455 9.92914 34.2951 10.6632 34.2964 11.5579C34.2964 12.4423 35.0097 13.1534 35.902 13.1611L35.9007 13.1624Z" fill="#003857"/>
</g>
<defs>
<clipPath id="clip0_1079_4439">
<rect width="49" height="33" fill="white"/>
</clipPath>
</defs>
</svg>
