<svg width="40" height="40" viewBox="0 0 40 40" fill="none" xmlns="http://www.w3.org/2000/svg">
<g clip-path="url(#clip0_335_5486)">
<path d="M20.1393 10.8085C21.9629 10.8085 23.7853 10.7973 25.6089 10.8122C27.4661 10.8271 28.9053 11.9164 29.3357 13.6288C29.4265 13.9919 29.4638 14.3786 29.4651 14.7541C29.475 18.2484 29.4738 21.7439 29.47 25.2382C29.4663 27.5921 27.8815 29.1826 25.523 29.1876C21.9069 29.1963 18.2908 29.1938 14.6747 29.1876C12.2813 29.1838 10.7065 27.6046 10.7065 25.2195C10.7053 21.7252 10.704 18.2297 10.7065 14.7355C10.7078 12.4101 12.2888 10.8209 14.6249 10.8097C16.4634 10.7998 18.302 10.8072 20.1405 10.8085H20.1393ZM20.0497 27.7588C21.9194 27.7588 23.7877 27.7612 25.6574 27.7588C27.0581 27.7563 28.0345 26.7826 28.0358 25.3812C28.0395 21.7949 28.0395 18.2074 28.0358 14.6211C28.0345 13.2172 27.0593 12.2447 25.6574 12.2435C21.9492 12.241 18.241 12.241 14.5329 12.2435C13.1123 12.2435 12.142 13.1886 12.1395 14.5974C12.1321 18.1999 12.1321 21.8011 12.1395 25.4036C12.142 26.8112 13.1148 27.7575 14.5329 27.76C16.3714 27.7625 18.2112 27.76 20.0497 27.76V27.7588Z" fill="white"/>
<path d="M23.3191 7.08177C23.3191 7.02084 23.3142 6.95991 23.3191 6.90022C23.3975 6.16406 23.3042 5.6393 22.477 5.2364C21.3002 4.66314 20.881 3.15352 21.3189 1.91374C21.7704 0.634168 22.9858 -0.113182 24.3989 0.0198739C25.6615 0.139251 26.6939 1.17385 26.9029 2.53052C27.0883 3.73797 26.3332 5.0449 25.134 5.51495C24.8255 5.63557 24.7235 5.77981 24.7347 6.10313C24.7596 6.80074 24.7459 7.49959 24.741 8.19844C24.7372 8.68092 24.4735 8.99802 24.0717 9.02165C23.6625 9.04527 23.3453 8.71823 23.3241 8.22082C23.3079 7.84155 23.3204 7.46228 23.3204 7.08177H23.3191ZM25.4886 2.86378C25.4886 2.06918 24.8454 1.41012 24.0568 1.3952C23.2744 1.38027 22.5641 2.08286 22.5666 2.87C22.569 3.65714 23.2258 4.31371 24.017 4.31993C24.8504 4.32739 25.4886 3.69445 25.4886 2.86378Z" fill="white"/>
<path d="M7.08462 16.6843C7.02367 16.6843 6.96271 16.6905 6.90301 16.6843C6.1666 16.6047 5.64165 16.7017 5.23986 17.5261C4.67387 18.6876 3.18986 19.1091 1.95836 18.6975C0.692034 18.2747 -0.090402 17.0611 0.0165765 15.6882C0.119823 14.3776 1.11497 13.3392 2.49325 13.1042C3.67997 12.9015 4.99854 13.6116 5.48119 14.7867C5.64663 15.1883 5.85437 15.2841 6.24745 15.2654C6.89927 15.2356 7.55234 15.253 8.20541 15.2592C8.68681 15.263 9.00401 15.5291 9.0264 15.9307C9.04879 16.3386 8.7204 16.6457 8.22282 16.6818C8.19297 16.6843 8.16187 16.683 8.13201 16.683C7.78247 16.683 7.43417 16.683 7.08462 16.683V16.6843ZM2.86892 14.5119C2.07405 14.5119 1.41352 15.1573 1.40108 15.9444C1.38864 16.7303 2.08649 17.4354 2.87514 17.4341C3.66628 17.4329 4.31811 16.78 4.32433 15.9842C4.33179 15.151 3.69863 14.5119 2.86892 14.5119Z" fill="white"/>
<path d="M32.9098 23.3134C32.9558 23.3134 33.0006 23.3096 33.0466 23.3134C33.8017 23.3768 34.3702 23.3308 34.7919 22.4454C35.3454 21.2815 36.8543 20.8835 38.0809 21.3113C39.3621 21.759 40.1134 22.9739 39.9841 24.3853C39.8671 25.6487 38.8384 26.682 37.4813 26.8972C36.2946 27.0849 34.9884 26.3575 34.5133 25.1774C34.364 24.8056 34.1774 24.7173 33.8166 24.731C33.1499 24.7558 32.4807 24.7421 31.8127 24.7372C31.3089 24.7334 30.9792 24.4474 30.9805 24.0309C30.9805 23.6367 31.2952 23.3407 31.7729 23.3183C32.151 23.2997 32.5317 23.3146 32.9111 23.3146V23.3121L32.9098 23.3134ZM37.1355 25.4858C37.9341 25.4858 38.5884 24.8478 38.6058 24.0557C38.622 23.2711 37.9266 22.5648 37.1342 22.5635C36.3493 22.5623 35.6888 23.2213 35.6813 24.0122C35.6738 24.8454 36.3058 25.4858 37.1355 25.4858Z" fill="white"/>
<path d="M16.686 32.9158C16.686 32.9618 16.691 33.0078 16.686 33.0526C16.5989 33.8223 16.7022 34.3707 17.5617 34.791C18.7074 35.3518 19.1079 36.8229 18.7024 38.0415C18.2919 39.2763 17.104 40.0722 15.7879 39.9951C14.4954 39.9192 13.4231 38.9978 13.1594 37.7356C12.8883 36.4362 13.4692 35.1205 14.6721 34.5933C15.1995 34.362 15.3052 34.0785 15.2729 33.5761C15.2343 32.9867 15.2604 32.3923 15.2654 31.8004C15.2692 31.3166 15.5316 31.0008 15.9334 30.9772C16.3427 30.9523 16.6611 31.2793 16.6823 31.7767C16.6984 32.156 16.686 32.5353 16.686 32.9158ZM16.0242 35.6789C15.2094 35.659 14.5439 36.2671 14.5178 37.0542C14.4892 37.901 15.136 38.5961 15.9595 38.6036C16.7333 38.6098 17.4112 37.9495 17.4373 37.1649C17.4635 36.3852 16.8104 35.6975 16.023 35.6789H16.0242Z" fill="white"/>
<path d="M24.9173 32.907C24.9173 33.0127 24.9272 33.1209 24.916 33.2253C24.8377 33.908 24.9608 34.3656 25.7097 34.7275C26.8951 35.2995 27.3467 36.7656 26.9349 38.0228C26.5207 39.2874 25.3402 40.0783 23.993 39.9925C22.7155 39.9117 21.6034 38.9405 21.3795 37.7107C21.1332 36.359 21.7689 35.057 23.0054 34.5298C23.3997 34.3619 23.5116 34.1642 23.4917 33.765C23.4594 33.1296 23.478 32.4904 23.4843 31.8525C23.4892 31.3203 23.7803 30.9746 24.2033 30.9771C24.6274 30.9796 24.9086 31.3252 24.916 31.8587C24.921 32.2081 24.916 32.5576 24.916 32.9057L24.9173 32.907ZM24.1883 35.6788C23.3947 35.6825 22.7404 36.3329 22.7367 37.1225C22.7317 37.9258 23.4171 38.6135 24.2132 38.6035C25.0006 38.5936 25.6562 37.9333 25.6636 37.1436C25.6699 36.3304 25.0106 35.675 24.1896 35.6788H24.1883Z" fill="white"/>
<path d="M0.000267373 24.3256C-0.00719624 22.8707 0.923268 21.6807 2.20825 21.3885C3.57285 21.0788 4.96233 21.7541 5.491 23.0485C5.64525 23.4266 5.84303 23.4975 6.19756 23.485C6.84938 23.4626 7.50244 23.4738 8.15551 23.48C8.68418 23.485 9.03249 23.7822 9.02502 24.2063C9.01756 24.6303 8.67299 24.9076 8.13561 24.9113C7.45269 24.9163 6.76852 24.9287 6.08684 24.9051C5.78332 24.8952 5.644 24.9884 5.52583 25.2794C5.06309 26.4297 3.87762 27.1745 2.72946 27.0788C1.4084 26.9681 0.399571 26.1374 0.0798793 24.8852C0.0239022 24.6664 0.0139507 24.4363 -0.000976562 24.3256H0.000267373ZM4.32419 24.21C4.32916 23.3905 3.67237 22.7277 2.86132 22.7327C2.08013 22.7377 1.40965 23.4042 1.40094 24.1839C1.39223 24.9822 2.0764 25.6636 2.88247 25.6587C3.67859 25.6549 4.32046 25.0096 4.32543 24.2087L4.32419 24.21Z" fill="white"/>
<path d="M15.0894 7.06574C15.0894 6.98989 15.0844 6.91404 15.0894 6.83818C15.1354 6.14803 15.1093 5.63073 14.2759 5.25146C13.0904 4.71302 12.655 3.20091 13.0755 1.94994C13.4972 0.696484 14.6864 -0.0844408 16.0385 0.00757892C17.3123 0.0946247 18.4182 1.077 18.6296 2.31056C18.8635 3.67096 18.2154 4.9667 16.9789 5.47778C16.5946 5.63695 16.4963 5.82845 16.5149 6.21145C16.546 6.86305 16.5299 7.51714 16.5212 8.16998C16.5149 8.67485 16.2326 9.00811 15.8221 9.02054C15.3991 9.03298 15.0981 8.68355 15.0894 8.15755C15.0832 7.7932 15.0894 7.42885 15.0894 7.0645V7.06574ZM15.786 4.32007C16.6082 4.32753 17.2713 3.67718 17.27 2.86392C17.2688 2.07927 16.6107 1.41026 15.8271 1.39534C15.0334 1.38041 14.343 2.06559 14.3443 2.8689C14.3443 3.6635 14.9911 4.31261 15.7872 4.32007H15.786Z" fill="white"/>
<path d="M32.9044 15.0862C33.0101 15.0862 33.1184 15.0763 33.2228 15.0875C33.902 15.1609 34.366 15.0539 34.7268 14.2966C35.2928 13.1103 36.7618 12.6552 38.0195 13.0643C39.302 13.4809 40.0906 14.6746 39.9911 16.0475C39.9003 17.3009 38.9313 18.3977 37.7184 18.6215C36.3513 18.874 35.0353 18.2174 34.5165 16.9577C34.3635 16.5872 34.1769 16.4976 33.8162 16.5113C33.1644 16.5349 32.5113 16.5225 31.8582 16.5163C31.3258 16.5113 30.9788 16.2228 30.9775 15.8C30.9775 15.376 31.3234 15.0912 31.8558 15.085C32.2053 15.0813 32.5536 15.085 32.9032 15.085L32.9044 15.0862ZM35.6809 15.7926C35.6771 16.6133 36.3352 17.2736 37.1475 17.2661C37.9324 17.2587 38.5966 16.5959 38.6041 15.8125C38.6116 15.0129 37.9299 14.3352 37.1213 14.3401C36.3314 14.3439 35.6833 14.998 35.6809 15.7926Z" fill="white"/>
<path d="M18.1812 15.5264C18.7024 15.5313 19.088 15.7539 19.292 16.2091C20.3096 18.4772 21.3171 20.7504 22.316 23.0272C22.5113 23.4736 22.3272 23.8803 21.9167 24.0432C21.5336 24.1949 21.1691 24.0258 20.9552 23.5943C20.9278 23.5395 20.8979 23.4848 20.8855 23.4264C20.6728 22.403 20.0595 22.071 19.0308 22.1953C18.1924 22.296 17.3316 22.2289 16.4807 22.209C16.1722 22.2015 16.0068 22.3134 15.9023 22.5957C15.7754 22.9364 15.6261 23.2685 15.4694 23.5967C15.2604 24.0357 14.8947 24.1974 14.5103 24.0394C14.1036 23.8728 13.9257 23.4674 14.1222 23.0185C15.1199 20.7416 16.1287 18.4698 17.145 16.2016C17.3415 15.7639 17.7135 15.545 18.1812 15.5264ZM18.2322 20.9282C18.6116 20.9282 18.991 20.922 19.3704 20.9307C19.6727 20.9369 19.756 20.8125 19.6378 20.5402C19.2448 19.6387 18.8554 18.7346 18.4549 17.8368C18.4126 17.7423 18.3068 17.6453 18.2098 17.618C18.1625 17.6043 18.0394 17.7286 18.0008 17.8132C17.5953 18.7259 17.2022 19.6449 16.8029 20.5601C16.691 20.8175 16.7755 20.9307 17.0492 20.9294C17.4435 20.9269 17.8379 20.9294 18.2322 20.9294V20.9282Z" fill="white"/>
<path d="M23.7998 19.7706C23.7998 18.7372 23.7998 17.7038 23.7998 16.6705C23.7998 16.5188 23.7974 16.3658 23.816 16.2154C23.8683 15.7888 24.1705 15.5227 24.5786 15.5302C24.9691 15.5376 25.2689 15.7926 25.3038 16.2029C25.3374 16.5959 25.3262 16.9926 25.3262 17.3867C25.3274 19.2097 25.3262 21.034 25.3262 22.8569C25.3262 22.9788 25.3299 23.1007 25.3237 23.2213C25.3 23.7734 25.0027 24.1054 24.545 24.0942C24.1034 24.0843 23.8185 23.7635 23.8011 23.2337C23.7899 22.8843 23.7974 22.5349 23.7974 22.1855C23.7974 21.3797 23.7974 20.5751 23.7974 19.7693L23.7998 19.7706Z" fill="white"/>
</g>
<defs>
<clipPath id="clip0_335_5486">
<rect width="40" height="40" fill="white"/>
</clipPath>
</defs>
</svg>
