<svg width="76" height="105" viewBox="0 0 76 105" fill="none" xmlns="http://www.w3.org/2000/svg">
<g clip-path="url(#clip0_1364_372)">
<path d="M17.3241 72.812L26.6786 67.4428C28.4114 66.4491 28.4305 64.7339 26.7018 63.7346L17.4037 58.3632C15.802 57.438 13.1874 57.439 11.5738 58.3651L2.21863 63.7342C0.486452 64.7286 0.47924 66.4406 2.2042 67.4375L11.5023 72.8089C13.1027 73.7331 15.7135 73.7365 17.3241 72.812ZM17.0942 58.8919L26.3923 64.2632C27.7036 65.0207 27.6977 66.1517 26.3709 66.9129L17.0161 72.2824C15.5775 73.1078 13.2423 73.1066 11.8121 72.2802L2.51401 66.9088C1.20234 66.1501 1.20421 65.0226 2.52687 64.2636L11.882 58.8944C13.3238 58.0671 15.6615 58.0646 17.0945 58.8919H17.0942Z" fill="#F8D0C5"/>
<path d="M64.5701 72.812L73.9246 67.4428C75.674 66.4394 75.6602 64.7233 73.9478 63.7346L64.6497 58.3632C63.0483 57.438 60.4337 57.439 58.8198 58.3651L49.465 63.7342C47.7322 64.729 47.7259 66.4413 49.4505 67.4375L58.7486 72.8089C60.3491 73.7337 62.9589 73.7359 64.5701 72.812ZM64.3402 58.8919L73.6383 64.2632C74.9522 65.0223 74.9412 66.1529 73.617 66.9129L64.2621 72.2824C62.8235 73.1075 60.4886 73.1069 59.0584 72.2802L49.7604 66.9088C48.443 66.1476 48.4559 65.0198 49.7732 64.2636L59.128 58.8944C60.5698 58.0671 62.9075 58.0646 64.3405 58.8919H64.3402Z" fill="#F8D0C5"/>
<path d="M17.3241 100.458L26.6786 95.0891C28.4246 94.0869 28.4174 92.3718 26.7018 91.3806L17.4037 86.0092C15.802 85.084 13.1874 85.085 11.5738 86.0111L2.21867 91.3802C0.486498 92.3746 0.479286 94.0866 2.20425 95.0835L11.5023 100.455C13.1012 101.379 15.7133 101.383 17.3241 100.458ZM17.0942 86.5379L26.3923 91.9092C27.7034 92.6667 27.698 93.7977 26.3707 94.5595L17.0162 99.9284C15.5775 100.754 13.2426 100.753 11.8121 99.9265L2.51406 94.5545C1.20238 93.7958 1.20426 92.6683 2.52691 91.9092L11.882 86.5401C13.3238 85.7128 15.6615 85.7103 17.0946 86.5376L17.0942 86.5379Z" fill="#F8D0C5"/>
<path d="M64.5701 100.458L73.9246 95.0891C75.6743 94.0848 75.6599 92.3697 73.9478 91.3806L64.6497 86.0092C63.0483 85.084 60.4337 85.085 58.8198 86.0111L49.465 91.3802C47.7322 92.375 47.7259 94.0873 49.4505 95.0835L58.7486 100.455C60.3594 101.386 62.9718 101.376 64.5701 100.458ZM64.3402 86.5379L73.6383 91.9092C74.9493 92.6667 74.944 93.7977 73.6167 94.5595L64.2621 99.9284C62.8238 100.753 60.4889 100.753 59.0584 99.9265L49.7604 94.5545C48.443 93.7933 48.4559 92.6655 49.7732 91.9092L59.128 86.5401C60.5698 85.7128 62.9075 85.7103 64.3405 86.5376L64.3402 86.5379Z" fill="#F8D0C5"/>
<path d="M64.5466 64.5935L64.5601 70.2313L73.9199 64.8631C74.6903 64.4236 75.0723 63.8375 75.0723 63.2646L75.0588 57.6199C75.0588 58.1994 74.6769 58.7789 73.9064 59.2249L64.5466 64.5932V64.5935Z" fill="#CBCBCB"/>
<path d="M48.6013 57.6401L48.6147 63.278C48.6213 63.8506 48.9967 64.4236 49.7471 64.8566L59.0464 70.2316C60.5672 71.1107 63.0394 71.1107 64.5605 70.2316L64.5471 64.5938C63.0262 65.4663 60.554 65.4663 59.0332 64.5938L49.7405 59.2187C48.9835 58.7857 48.6082 58.2131 48.6016 57.6401H48.6013Z" fill="#DFDFDF"/>
<path d="M49.7506 56.0456C48.2279 56.9197 48.2198 58.3436 49.7368 59.2202L59.0355 64.5922C60.5526 65.4687 63.0257 65.4687 64.5484 64.5946L73.908 59.2227C75.4351 58.3461 75.4432 56.9222 73.9258 56.0456L64.6271 50.6737C63.1101 49.7971 60.6369 49.7971 59.1098 50.6737L49.7503 56.0456H49.7506Z" fill="#EFEFEF"/>
<path d="M17.3005 64.6065L17.314 70.2444L26.6738 64.8762C27.4442 64.4366 27.8262 63.8571 27.8262 63.2776L27.8127 57.6329C27.8127 58.2124 27.4308 58.7919 26.6603 59.238L17.3005 64.6062V64.6065Z" fill="#CBCBCB"/>
<path d="M1.36207 57.6597L1.37555 63.2975C1.37555 63.8702 1.75059 64.4366 2.50097 64.8692L11.8003 70.244C13.3211 71.123 15.7933 71.123 17.3145 70.244L17.301 64.6061C15.7801 65.4787 13.3079 65.4787 11.7871 64.6061L2.49438 59.2314C1.73742 58.7984 1.36207 58.2258 1.36207 57.6597Z" fill="#DFDFDF"/>
<path d="M2.50861 56.0612C0.985903 56.9353 0.977747 58.3592 2.49074 59.2333L11.7894 64.6052C13.3065 65.4818 15.7796 65.4818 17.3023 64.6077L26.6619 59.2358C28.189 58.3592 28.1971 56.9353 26.6797 56.0587L17.3811 50.6867C15.8681 49.8127 13.3952 49.8127 11.8681 50.6892L2.50861 56.0612Z" fill="#EFEFEF"/>
<path d="M25.7204 62.651C25.7204 63.0186 25.5972 63.4222 25.3798 63.7823C25.177 64.1426 24.8869 64.4525 24.568 64.6398L20.2765 67.0972C19.6446 67.4703 19.1238 67.1579 19.1238 66.4413C19.1238 65.6685 19.6791 64.8007 20.2692 64.4594L24.5608 62.0017C24.7928 61.872 25.0101 61.8215 25.1914 61.8577C25.5103 61.901 25.7207 62.1891 25.7207 62.6504L25.7204 62.651Z" fill="#303030"/>
<path d="M25.2927 62.3265C25.2927 62.6941 25.1622 63.0903 24.9518 63.4506C24.7489 63.811 24.4589 64.128 24.14 64.3153C19.9001 66.6779 19.706 67.0127 19.225 66.917C19.1598 66.7945 19.1237 66.6358 19.1237 66.4413C19.1237 65.6685 19.6791 64.8007 20.2692 64.4594L24.5608 62.0017C24.7928 61.872 25.0101 61.8215 25.1914 61.8577C25.2566 61.9802 25.293 62.1389 25.293 62.3262L25.2927 62.3265Z" fill="black"/>
<path d="M37.3594 68.8403C37.1493 68.725 36.8592 68.7393 36.5403 68.9267L32.2488 71.384C31.6037 71.7484 31.0961 72.654 31.0961 73.366C31.0961 73.7263 31.2265 73.9857 31.4366 74.101L19.4635 67.1845C19.2531 67.062 19.1229 66.8098 19.1229 66.4422C19.1229 65.7459 19.6262 64.8344 20.2756 64.4678L24.5672 62.0033C24.8861 61.8231 25.1761 61.8016 25.3862 61.9241L37.3594 68.8406V68.8403Z" fill="#E6E6E6"/>
<path d="M36.5384 68.9239C37.1771 68.5573 37.697 68.8519 37.6992 69.5763C37.7002 69.941 37.5716 70.3432 37.3593 70.7035C37.1564 71.0636 36.8651 71.379 36.5459 71.5623L32.2553 74.0249C31.6212 74.389 31.101 74.0941 31.0991 73.3647C31.0969 72.6474 31.6121 71.7518 32.2478 71.3868L36.5384 68.9242V68.9239Z" fill="url(#paint0_linear_1364_372)"/>
<path d="M51.1263 63.0448C51.1263 63.7913 51.6466 64.6623 52.2787 65.0339L56.5703 67.4912C57.0344 67.7649 57.4401 67.6714 57.6214 67.311C57.6866 67.1885 57.7227 67.0299 57.7227 66.8353C57.7227 66.0626 57.1673 65.1947 56.5772 64.8534L52.2856 62.3958C52.0536 62.2661 51.8363 62.2156 51.655 62.2517C51.3361 62.2951 51.1257 62.5831 51.1257 63.0445L51.1263 63.0448Z" fill="#303030"/>
<path d="M52.7064 64.7093L56.998 67.1666C57.23 67.2963 57.4401 67.3468 57.6214 67.3107C57.6866 67.1882 57.7227 67.0295 57.7227 66.835C57.7227 66.0622 57.1673 65.1944 56.5772 64.853L52.2856 62.3954C52.0536 62.2657 51.8363 62.2152 51.655 62.2514C51.2991 62.9194 51.9015 64.2361 52.7061 64.7087L52.7064 64.7093Z" fill="black"/>
<path d="M42.7746 67.3336C42.9847 67.2183 43.2748 67.2326 43.5937 67.42L47.8853 69.8773C48.5303 70.2417 49.0379 71.1472 49.0379 71.8592C49.0379 72.2196 48.9075 72.4789 48.6974 72.5943L57.3821 67.5786C57.5925 67.4561 57.7227 67.2039 57.7227 66.8364C57.7227 66.14 57.2194 65.2285 56.57 64.8619L52.2784 62.3975C51.9595 62.2173 51.6694 62.1958 51.4594 62.3183L42.7746 67.3339V67.3336Z" fill="#E6E6E6"/>
<path d="M43.5959 67.417C42.9572 67.0505 42.4373 67.345 42.4351 68.0695C42.4332 68.7765 42.9387 69.6824 43.5884 70.0555L47.879 72.5181C48.513 72.8822 49.0333 72.5873 49.0351 71.8579C49.0373 71.1406 48.5221 70.245 47.8865 69.88L43.5959 67.4174V67.417Z" fill="#E6E6E6"/>
<path d="M40.8571 78.2164L40.8706 83.8542L50.2304 78.486C51.0009 78.0465 51.3828 77.4605 51.3828 76.8875L51.3693 71.2428C51.3693 71.8223 50.9874 72.4018 50.2169 72.8479L40.8571 78.2161V78.2164Z" fill="#F6C0B3"/>
<path d="M24.9118 71.2631L24.9253 76.9009C24.9319 77.4735 25.3072 78.0465 26.0576 78.4795L35.3569 83.8545C36.8777 84.7336 39.35 84.7336 40.8711 83.8545L40.8576 78.2167C39.3368 79.0892 36.8646 79.0892 35.3437 78.2167L26.051 72.8416C25.2941 72.4086 24.9187 71.836 24.9121 71.2631H24.9118Z" fill="#F8D0C5"/>
<path d="M26.0612 69.6683C24.5385 70.5424 24.5303 71.9663 26.0474 72.8429L35.3461 78.2148C36.8631 79.0914 39.3363 79.0914 40.859 78.2173L50.2185 72.8454C51.7456 71.9688 51.7538 70.5449 50.2364 69.6683L40.9377 64.2963C39.4206 63.4198 36.9475 63.4198 35.4204 64.2963L26.0609 69.6683H26.0612Z" fill="#FDEEEA"/>
<path d="M40.8571 78.2164L40.8706 83.8542L50.2304 78.486C51.0009 78.0465 51.3828 77.4605 51.3828 76.8875L51.3693 71.2428C51.3693 71.8223 50.9874 72.4018 50.2169 72.8479L40.8571 78.2161V78.2164Z" fill="#CBCBCB"/>
<path d="M24.9118 71.2631L24.9253 76.9009C24.9319 77.4735 25.3072 78.0465 26.0576 78.4795L35.3569 83.8545C36.8777 84.7336 39.35 84.7336 40.8711 83.8545L40.8576 78.2167C39.3368 79.0892 36.8646 79.0892 35.3437 78.2167L26.051 72.8416C25.2941 72.4086 24.9187 71.836 24.9121 71.2631H24.9118Z" fill="#DFDFDF"/>
<path d="M26.0612 69.6683C24.5385 70.5424 24.5303 71.9663 26.0474 72.8429L35.3461 78.2148C36.8631 79.0914 39.3363 79.0914 40.859 78.2173L50.2185 72.8454C51.7456 71.9688 51.7538 70.5449 50.2364 69.6683L40.9377 64.2963C39.4206 63.4198 36.9475 63.4198 35.4204 64.2963L26.0609 69.6683H26.0612Z" fill="#EFEFEF"/>
<path d="M31.1071 72.0817C31.1723 72.1305 32.9835 73.1814 36.5407 75.2342C37.4083 75.7373 38.8235 75.7373 39.6911 75.2342L45.0419 72.1637C45.083 72.1431 45.1244 72.1123 45.1658 72.0814C45.9199 71.5783 45.8786 70.8286 45.0523 70.346L39.7426 67.2755C38.8749 66.7724 37.4598 66.7724 36.5921 67.2755L31.2413 70.346C30.4047 70.8286 30.3633 71.5786 31.1071 72.0817Z" fill="#CBCBCB"/>
<path d="M31.1053 72.0816C31.1706 72.1305 32.9818 73.1813 36.5389 75.2341C37.4066 75.7372 38.8217 75.7372 39.6894 75.2341L45.0402 72.1636C45.0813 72.143 45.1227 72.1122 45.1641 72.0813C45.133 72.0402 45.0919 72.0196 45.0505 71.9993L39.7408 68.9289C38.8732 68.4257 37.458 68.4257 36.5904 68.9289C32.888 71.052 31.1884 72.0193 31.1053 72.0813V72.0816Z" fill="#DFDFDF"/>
<path d="M27.2806 76.8025C27.2806 77.549 27.8009 78.42 28.433 78.7916L32.7246 81.2489C33.1887 81.5229 33.5944 81.4291 33.7757 81.0687C33.8409 80.9462 33.877 80.7875 33.877 80.593C33.877 79.8203 33.3216 78.9524 32.7315 78.6111L28.4399 76.1534C28.2079 76.0238 27.9906 75.9733 27.8093 76.0094C27.4904 76.0528 27.28 76.3408 27.28 76.8021L27.2806 76.8025Z" fill="#303030"/>
<path d="M28.8607 78.4674L33.1523 80.9247C33.3843 81.0544 33.5944 81.1049 33.7757 81.0687C33.8409 80.9462 33.877 80.7875 33.877 80.593C33.877 79.8203 33.3216 78.9524 32.7315 78.6111L28.4399 76.1534C28.2079 76.0238 27.9906 75.9733 27.8093 76.0094C27.4534 76.6775 28.0558 77.9942 28.8604 78.4668L28.8607 78.4674Z" fill="black"/>
<path d="M18.9289 81.0914C19.139 80.9761 19.4291 80.9904 19.748 81.1778L24.0395 83.6351C24.6846 83.9995 25.1922 84.9051 25.1922 85.617C25.1922 85.9774 25.0618 86.2367 24.8517 86.3521L33.5364 81.3364C33.7468 81.2139 33.877 80.9617 33.877 80.5942C33.877 79.8978 33.3737 78.9864 32.7243 78.6198L28.4327 76.1553C28.1138 75.9751 27.8237 75.9536 27.6137 76.0761L18.9289 81.0917V81.0914Z" fill="#E6E6E6"/>
<path d="M19.7502 81.1747C18.7229 80.5852 18.1993 81.7159 18.9293 82.954C19.1322 83.3141 19.4235 83.6295 19.7427 83.8128L24.0333 86.2755C24.6673 86.6395 25.1876 86.3447 25.1894 85.6152C25.1916 84.8979 24.6764 84.0024 24.0408 83.6373L19.7502 81.1747Z" fill="#E6E6E6"/>
<path d="M49.722 76.474C49.722 77.2205 49.2018 78.0915 48.5696 78.4631L44.2781 80.9204C43.814 81.1944 43.4082 81.1006 43.227 80.7402C43.1618 80.6177 43.1257 80.4591 43.1257 80.2645C43.1257 79.4918 43.6811 78.6239 44.2712 78.2826L48.5628 75.825C48.7948 75.6953 49.0121 75.6448 49.1933 75.6809C49.5122 75.7243 49.7227 76.0123 49.7227 76.4737L49.722 76.474Z" fill="#303030"/>
<path d="M48.1409 78.1384L43.8493 80.5957C43.6173 80.7254 43.4072 80.7759 43.2259 80.7397C43.1607 80.6172 43.1246 80.4586 43.1246 80.2641C43.1246 79.4913 43.68 78.6234 44.2701 78.2821L48.5617 75.8245C48.7937 75.6948 49.011 75.6443 49.1923 75.6805C49.5482 76.3485 48.9458 77.6652 48.1412 78.1378L48.1409 78.1384Z" fill="black"/>
<path d="M58.0723 80.7624C57.8622 80.6471 57.5721 80.6614 57.2532 80.8488L52.9617 83.3061C52.3166 83.6705 51.809 84.5761 51.809 85.2881C51.809 85.6484 51.9394 85.9078 52.1495 86.0231L43.4648 81.0075C43.2544 80.885 43.1243 80.6328 43.1243 80.2652C43.1243 79.5688 43.6275 78.6574 44.2769 78.2908L48.5685 75.8263C48.8874 75.6461 49.1775 75.6246 49.3876 75.7471L58.0723 80.7628V80.7624Z" fill="#E6E6E6"/>
<path d="M57.2513 80.846C57.89 80.4794 58.4099 80.774 58.4121 81.4984C58.414 82.2054 57.9085 83.1113 57.2588 83.4844L52.9682 85.9471C52.3341 86.3111 51.8139 86.0163 51.812 85.2868C51.8098 84.5695 52.325 83.674 52.9606 83.3089L57.2513 80.8463V80.846Z" fill="#E6E6E6"/>
<path d="M17.1663 91.8278L17.1798 97.4654L26.539 92.0975C27.3095 91.6579 27.6914 91.0719 27.6914 90.4924L27.6779 84.8549C27.6779 85.4344 27.296 86.0135 26.5255 86.4599L17.1663 91.8278Z" fill="#CBCBCB"/>
<path d="M1.22166 84.8748L1.23514 90.5124C1.23514 91.085 1.61707 91.6579 2.37404 92.0906L11.6661 97.4651C13.187 98.3376 15.6523 98.3441 17.1797 97.4651L17.1662 91.8275C15.6454 92.7066 13.1735 92.7 11.6592 91.8275L2.36024 86.4528C1.60328 86.0198 1.22793 85.4471 1.22134 84.8745L1.22166 84.8748Z" fill="#DFDFDF"/>
<path d="M2.37211 83.2797C0.845011 84.1563 0.841249 85.5774 2.35831 86.454L11.6564 91.8256C13.1734 92.7022 15.6419 92.7047 17.169 91.8281L26.5235 86.459C28.0547 85.5803 28.0628 84.1563 26.5457 83.2797L17.2477 77.9081C15.7306 77.0315 13.2578 77.0315 11.7266 77.9106L2.37211 83.2797Z" fill="#EFEFEF"/>
<path d="M7.95355 85.723L8.08431 85.7997L12.9459 88.6062C13.7612 89.0803 15.0923 89.0803 15.9152 88.614L20.8154 85.7997L20.9461 85.723C21.7693 85.2489 21.7693 84.4842 20.954 84.0176L15.9537 81.127C15.1381 80.6528 13.8073 80.6528 12.9842 81.127L7.95323 84.0101C7.13794 84.4842 7.13794 85.2492 7.95323 85.723H7.95355Z" fill="#CBCBCB"/>
<path d="M8.0834 85.7998L12.945 88.6062C13.7603 89.0803 15.0914 89.0803 15.9143 88.614L20.8145 85.7998L15.9525 82.9933C15.1369 82.5192 13.8061 82.5192 12.983 82.9933L8.08278 85.7998H8.0834Z" fill="white"/>
<path d="M7.95355 58.5158L8.08431 58.5924L12.9459 61.3989C13.7612 61.873 15.0923 61.873 15.9152 61.4067L20.8154 58.5924L20.9461 58.5158C21.7693 58.0416 21.7693 57.277 20.954 56.8103L15.9537 53.9197C15.1381 53.4456 13.8073 53.4456 12.9842 53.9197L7.95323 56.8028C7.13794 57.277 7.13794 58.0419 7.95323 58.5158H7.95355Z" fill="#CBCBCB"/>
<path d="M8.0834 58.5925L12.945 61.3989C13.7603 61.8731 15.0914 61.8731 15.9143 61.4067L20.8145 58.5925L15.9525 55.786C15.1369 55.3119 13.8061 55.3119 12.983 55.786L8.08278 58.5925H8.0834Z" fill="white"/>
<path d="M64.4118 91.8275L64.4253 97.4654L73.7851 92.0906C74.549 91.6511 74.9375 91.0716 74.9375 90.4921L74.924 84.8542C74.924 85.4337 74.5421 86.0132 73.7716 86.4528L64.4118 91.8278V91.8275Z" fill="#CBCBCB"/>
<path d="M48.4734 84.8739L48.48 90.5118C48.4866 91.0844 48.8619 91.6573 49.6189 92.0969L58.9116 97.4651C60.4324 98.3441 62.8981 98.3376 64.4258 97.4651L64.4123 91.8272C62.8846 92.6997 60.4258 92.7063 58.905 91.8272L49.6054 86.459C48.8484 86.0195 48.4731 85.4465 48.4731 84.8739H48.4734Z" fill="#DFDFDF"/>
<path d="M49.6162 83.2791C48.0935 84.1531 48.0853 85.5771 49.6068 86.4562L58.9011 91.8256C60.4225 92.7047 62.8869 92.6997 64.4099 91.8256L73.7694 86.4537C75.2965 85.5771 75.3132 84.1581 73.7917 83.2791L64.4974 77.9096C62.976 77.0305 60.5031 77.0305 58.976 77.9071L49.6165 83.2791H49.6162Z" fill="#EFEFEF"/>
<path d="M36.4348 72.9669C37.3679 73.5062 38.886 73.5062 39.8251 72.9672C40.7649 72.428 40.7699 71.5539 39.8361 71.0143C38.9032 70.4753 37.3849 70.4753 36.4457 71.0146C35.506 71.5536 35.5016 72.428 36.4348 72.9669Z" fill="url(#paint1_linear_1364_372)"/>
<path d="M55.3325 85.723L55.4632 85.7997L60.3248 88.6062C61.1401 89.0803 62.4713 89.0803 63.2941 88.614L68.1943 85.7997L68.325 85.723C69.1482 85.2489 69.1482 84.4842 68.3329 84.0176L63.3326 81.127C62.517 80.6528 61.1862 80.6528 60.3631 81.127L55.3321 84.0101C54.5169 84.4842 54.5169 85.2492 55.3321 85.723H55.3325Z" fill="#CBCBCB"/>
<path d="M55.4623 85.7998L60.3239 88.6062C61.1392 89.0803 62.4703 89.0803 63.2932 88.614L68.1934 85.7998L63.3314 82.9933C62.5158 82.5192 61.185 82.5192 60.3619 82.9933L55.4617 85.7998H55.4623Z" fill="white"/>
<path d="M55.3325 58.5158L55.4632 58.5924L60.3248 61.3989C61.1401 61.873 62.4713 61.873 63.2941 61.4067L68.1943 58.5924L68.325 58.5158C69.1482 58.0416 69.1482 57.277 68.3329 56.8103L63.3326 53.9197C62.517 53.4456 61.1862 53.4456 60.3631 53.9197L55.3321 56.8028C54.5169 57.277 54.5169 58.0419 55.3321 58.5158H55.3325Z" fill="#CBCBCB"/>
<path d="M55.4623 58.5924L60.3239 61.3988C61.1392 61.8729 62.4703 61.8729 63.2932 61.4066L68.1934 58.5924L63.3314 55.7859C62.5158 55.3118 61.185 55.3118 60.3619 55.7859L55.4617 58.5924H55.4623Z" fill="white"/>
<path d="M48.3715 99.49C48.4575 99.3444 48.4079 99.1568 48.2612 99.0717L46.4851 98.0402L50.215 95.7138C50.3593 95.6237 50.4025 95.4351 50.3122 95.2923C50.2222 95.1489 50.0319 95.1056 49.8883 95.1957L45.7278 97.7905C45.5309 97.913 45.5375 98.1988 45.736 98.3135L47.9507 99.5994C48.0984 99.6851 48.2866 99.6343 48.3715 99.4897V99.49Z" fill="#F8D0C5"/>
<path d="M45.3804 104.827L50.8661 101.564L54.2618 102.856C54.3467 102.888 54.4414 102.882 54.5201 102.838L58.7371 100.53C58.8857 100.449 58.9403 100.262 58.8584 100.115C58.7766 99.9669 58.59 99.9124 58.4404 99.994L54.3483 102.234L50.9464 100.939C50.8579 100.906 50.7588 100.915 50.6783 100.963L45.0644 104.302C44.9185 104.389 44.8712 104.576 44.9584 104.722C45.0455 104.867 45.2356 104.913 45.3804 104.827V104.827Z" fill="#F8D0C5"/>
<path d="M47.6704 99.7591C48.0354 99.9682 48.624 99.9682 48.9886 99.7591C49.3502 99.5499 49.3471 99.2098 48.9821 99.0006C48.6171 98.7915 48.0285 98.7915 47.6669 99.0006C47.3054 99.2098 47.3054 99.5499 47.6701 99.7591H47.6704Z" fill="#541038"/>
<path d="M44.5649 104.843C44.9299 105.052 45.5185 105.052 45.8832 104.843C46.2447 104.634 46.2416 104.294 45.8766 104.084C45.5116 103.875 44.923 103.875 44.5615 104.084C44.1999 104.294 44.1999 104.634 44.5646 104.843H44.5649Z" fill="#F45F4B"/>
<path d="M27.8222 99.5998L30.0369 98.3139C30.237 98.1986 30.2408 97.9124 30.0451 97.7908L25.8852 95.196C25.7413 95.106 25.5519 95.1493 25.4613 95.2927C25.3713 95.4358 25.4143 95.6243 25.5585 95.7141L29.2881 98.0405L27.5121 99.072C27.3653 99.1571 27.3158 99.3445 27.4017 99.4904C27.4867 99.6353 27.6748 99.6858 27.8225 99.6001L27.8222 99.5998Z" fill="#F8D0C5"/>
<path d="M30.8157 104.721C30.9029 104.576 30.8555 104.388 30.7097 104.302L25.0958 100.962C25.0146 100.914 24.9161 100.906 24.8277 100.939L21.4258 102.234L17.3336 99.9938C17.1841 99.9121 16.9978 99.9667 16.9156 100.114C16.8338 100.262 16.8884 100.448 17.037 100.53L21.2539 102.838C21.3329 102.881 21.4273 102.888 21.5123 102.855L24.908 101.563L30.3936 104.826C30.5385 104.913 30.7285 104.866 30.8157 104.721V104.721Z" fill="#F8D0C5"/>
<path d="M28.1027 99.7591C27.7377 99.9682 27.1492 99.9682 26.7845 99.7591C26.4229 99.5499 26.4261 99.2098 26.7911 99.0006C27.1561 98.7915 27.7446 98.7915 28.1062 99.0006C28.4677 99.2098 28.4677 99.5499 28.103 99.7591H28.1027Z" fill="#EB6F50"/>
<path d="M31.2082 104.843C30.8432 105.052 30.2547 105.052 29.89 104.843C29.5284 104.634 29.5316 104.294 29.8966 104.084C30.2616 103.875 30.8501 103.875 31.2117 104.084C31.5732 104.294 31.5732 104.634 31.2082 104.843Z" fill="#F45F4B"/>
<path d="M6.41113 77.3161C6.71373 77.3161 6.83446 76.9243 6.58234 76.7563L0.878143 72.9532L6.32835 69.6349C6.47322 69.5464 6.51838 69.3581 6.42964 69.2141C6.3409 69.0701 6.15087 69.0261 6.00663 69.1128L0.146889 72.6808C-0.0456448 72.798 -0.0490966 73.0726 0.136225 73.1958L6.2393 77.2644C6.29198 77.2996 6.35124 77.3164 6.41051 77.3164L6.41113 77.3161Z" fill="#F8D0C5"/>
<path d="M7.06757 77.2893C6.70258 77.4985 6.114 77.4985 5.74931 77.2893C5.38776 77.0802 5.3909 76.7401 5.7559 76.5309C6.1209 76.3217 6.70948 76.3217 7.07103 76.5309C7.43258 76.7401 7.43257 77.0802 7.06789 77.2893H7.06757Z" fill="#F45F4B"/>
<path d="M69.7607 77.2644L75.8638 73.1958C76.0504 73.0717 76.0438 72.7971 75.8531 72.6808L69.9934 69.1128C69.8473 69.0255 69.6591 69.0707 69.5701 69.2141C69.4813 69.3581 69.5268 69.5464 69.672 69.6349L75.1225 72.9532L69.418 76.7563C69.2769 76.8504 69.2393 77.0399 69.334 77.1805C69.4274 77.3192 69.6181 77.3592 69.7607 77.2641V77.2644Z" fill="#F8D0C5"/>
<path d="M68.9321 77.2893C69.2971 77.4985 69.8857 77.4985 70.2504 77.2893C70.6119 77.0802 70.6088 76.7401 70.2438 76.5309C69.8788 76.3217 69.2902 76.3217 68.9286 76.5309C68.5671 76.7401 68.5671 77.0802 68.9318 77.2893H68.9321Z" fill="#F45F4B"/>
<path d="M11.5555 94.7889C11.5675 94.7471 11.5781 94.6614 11.5781 94.5713C11.5781 93.9226 11.1332 93.1695 10.5788 92.8518L5.38161 89.873C4.63531 89.45 3.93479 89.8823 3.93479 90.7C3.93479 91.3481 4.35216 92.0706 4.92443 92.406L10.125 95.3924C10.8001 95.7733 11.4417 95.4594 11.5559 94.7882L11.5555 94.7889Z" fill="white"/>
<path d="M4.38271 90.7003C4.38271 91.1791 4.70914 91.763 5.1519 92.0223L10.3491 95.0065C10.7335 95.224 11.0486 95.0915 11.1129 94.7144C11.1236 94.672 11.1289 94.624 11.1289 94.571C11.1289 94.0881 10.7727 93.4774 10.3544 93.2384L5.15723 90.2595C4.70192 90.0008 4.38271 90.2421 4.38271 90.7003Z" fill="#E44118"/>
<path d="M5.34412 91.6934L10.5413 94.6775C10.7708 94.805 10.974 94.8156 11.1129 94.7146C11.1236 94.6722 11.1289 94.6242 11.1289 94.5712C11.1289 94.0884 10.7727 93.4777 10.3544 93.2386L5.15723 90.2598C4.93302 90.1323 4.72983 90.1217 4.59091 90.2174C4.49559 90.6463 4.81606 91.3838 5.34412 91.6934Z" fill="#EB6F50"/>
<path d="M58.911 94.789C58.9229 94.7472 58.9336 94.6615 58.9336 94.5714C58.9336 93.9227 58.4886 93.1696 57.9342 92.8519L52.7371 89.8731C51.9814 89.4445 51.2903 89.8918 51.2903 90.7001C51.2903 91.3482 51.7076 92.0707 52.2799 92.4061L57.4805 95.3925C58.1556 95.7734 58.7972 95.4595 58.9113 94.7883L58.911 94.789Z" fill="white"/>
<path d="M51.7382 90.7004C51.7382 91.1792 52.0646 91.7631 52.5074 92.0224L57.7045 95.0066C58.089 95.2242 58.4041 95.0917 58.4684 94.7145C58.479 94.6721 58.4844 94.6241 58.4844 94.5711C58.4844 94.0882 58.1282 93.4776 57.7098 93.2385L52.5127 90.2596C52.0574 90.0009 51.7382 90.2422 51.7382 90.7004Z" fill="#E44118"/>
<path d="M52.6996 91.6935L57.8967 94.6776C58.1263 94.8051 58.3295 94.8157 58.4684 94.7147C58.479 94.6723 58.4844 94.6243 58.4844 94.5713C58.4844 94.0885 58.1282 93.4778 57.7098 93.2387L52.5127 90.2599C52.2885 90.1324 52.0853 90.1218 51.9464 90.2175C51.8511 90.6464 52.1715 91.384 52.6996 91.6935Z" fill="#EB6F50"/>
<path d="M11.5556 67.4192C11.6964 66.9298 11.3035 65.8973 10.5789 65.4824L5.38171 62.5036C4.63541 62.0806 3.93489 62.5129 3.93489 63.3306C3.93489 63.9787 4.35225 64.7012 4.92452 65.0367L10.1251 68.023C10.8002 68.4039 11.4418 68.09 11.556 67.4189L11.5556 67.4192Z" fill="white"/>
<path d="M4.60731 64.0847C4.74623 64.3238 4.94378 64.5308 5.15231 64.653L10.3495 67.6371C10.7339 67.8547 11.049 67.7222 11.1133 67.345C11.2149 66.9414 10.8637 66.1599 10.3548 65.869L5.15764 62.8902C4.45774 62.4927 4.13194 63.2664 4.60763 64.085L4.60731 64.0847Z" fill="#E44118"/>
<path d="M5.34452 64.3238L10.5417 67.3079C10.7712 67.4354 10.9744 67.446 11.1133 67.345C11.2149 66.9413 10.8637 66.1598 10.3548 65.869L5.15764 62.8901C4.93343 62.7626 4.73023 62.752 4.59132 62.8477C4.496 63.2767 4.81647 64.0142 5.34452 64.3238Z" fill="#EB6F50"/>
</g>
<path d="M40.6345 6C42.2564 6.20854 43.8868 6.36388 45.498 6.63413C54.0749 8.06836 61.5535 11.7454 67.9702 17.5611C68.0281 17.6122 68.0688 17.6824 68.1568 17.7909C66.6894 19.4677 65.2199 21.1488 63.6945 22.8937C56.4562 16.2843 47.9458 12.8201 38.131 12.8115C28.3097 12.803 19.7907 16.2439 12.4944 22.8959C10.9884 21.1765 9.50601 19.4848 8 17.7654C10.6194 15.3183 13.4555 13.2627 16.5405 11.5603C22.2642 8.39606 28.3912 6.55752 34.9366 6.1298C35.1425 6.11704 35.3442 6.04469 35.548 6C37.2428 6 38.9376 6 40.6345 6Z" fill="url(#paint2_linear_1364_372)"/>
<path d="M58.5045 28.8158C57.0156 30.516 55.5611 32.1801 54.0594 33.8952C49.5842 29.6499 44.2832 27.3879 38.1025 27.3858C31.9154 27.3858 26.6122 29.6436 22.1263 33.8952C20.6225 32.1758 19.1529 30.4947 17.6855 28.82C28.721 17.9995 47.1364 17.759 58.5066 28.8158H58.5045Z" fill="url(#paint3_linear_1364_372)"/>
<path d="M31.7709 44.9159C30.2777 43.2093 28.791 41.5112 27.3086 39.8173C32.8457 33.6037 43.244 33.5335 48.8797 39.8152C47.3973 41.509 45.9106 43.2093 44.4175 44.9159C41.0493 40.9217 35.1883 40.8898 31.773 44.9159H31.7709Z" fill="url(#paint4_linear_1364_372)"/>
<circle cx="37.8971" cy="51.3605" r="4.12367" fill="url(#paint5_linear_1364_372)"/>
<defs>
<linearGradient id="paint0_linear_1364_372" x1="31.0991" y1="71.4735" x2="37.6992" y2="71.4735" gradientUnits="userSpaceOnUse">
<stop offset="0.31" stop-color="#F6DE5E"/>
<stop offset="0.53" stop-color="#F4D65C"/>
<stop offset="0.86" stop-color="#F1C058"/>
<stop offset="1" stop-color="#F0B657"/>
</linearGradient>
<linearGradient id="paint1_linear_1364_372" x1="36.0431" y1="73.3716" x2="39.475" y2="70.8383" gradientUnits="userSpaceOnUse">
<stop stop-color="#700005"/>
<stop offset="0.566666" stop-color="#B5070E" stop-opacity="0.9855"/>
<stop offset="1" stop-color="#FF0F18" stop-opacity="0.97"/>
</linearGradient>
<linearGradient id="paint2_linear_1364_372" x1="64.328" y1="22.8971" x2="44.1136" y2="-7.69498" gradientUnits="userSpaceOnUse">
<stop stop-color="#700005"/>
<stop offset="0.566666" stop-color="#B5070E" stop-opacity="0.9855"/>
<stop offset="1" stop-color="#FF0F18" stop-opacity="0.97"/>
</linearGradient>
<linearGradient id="paint3_linear_1364_372" x1="55.9085" y1="33.8962" x2="39.2338" y2="12.1122" gradientUnits="userSpaceOnUse">
<stop stop-color="#700005"/>
<stop offset="0.566666" stop-color="#B5070E" stop-opacity="0.9855"/>
<stop offset="1" stop-color="#FF0F18" stop-opacity="0.97"/>
</linearGradient>
<linearGradient id="paint4_linear_1364_372" x1="47.5068" y1="44.9166" x2="34.8069" y2="33.0168" gradientUnits="userSpaceOnUse">
<stop stop-color="#700005"/>
<stop offset="0.566666" stop-color="#B5070E" stop-opacity="0.9855"/>
<stop offset="1" stop-color="#FF0F18" stop-opacity="0.97"/>
</linearGradient>
<linearGradient id="paint5_linear_1364_372" x1="41.4959" y1="55.4848" x2="33.7726" y2="52.202" gradientUnits="userSpaceOnUse">
<stop stop-color="#700005"/>
<stop offset="0.566666" stop-color="#B5070E" stop-opacity="0.9855"/>
<stop offset="1" stop-color="#FF0F18" stop-opacity="0.97"/>
</linearGradient>
<clipPath id="clip0_1364_372">
<rect width="76" height="105" fill="white" transform="matrix(-1 0 0 1 76 0)"/>
</clipPath>
</defs>
</svg>
