<svg width="105" height="94" viewBox="0 0 105 94" fill="none" xmlns="http://www.w3.org/2000/svg">
<g id="Frame" clip-path="url(#clip0_1079_3913)">
<g id="Group">
<g id="Isolation Mode">
<g id="Group_2">
<g id="Group_3">
<g id="Group_4" opacity="0.2">
<path id="Vector" d="M3.67196 54.5795L43.8603 31.3774C48.7338 28.561 56.6002 28.561 61.4471 31.3774L101.371 54.5795C106.209 57.3958 106.182 61.9515 101.318 64.7679L61.1293 87.9699C56.2558 90.7863 48.3806 90.7863 43.5425 87.9699L3.61016 64.7679C-1.22798 61.9515 -1.2015 57.3958 3.66313 54.5795H3.67196Z" fill="url(#paint0_linear_1079_3913)"/>
<path id="Vector_2" d="M0.00882872 59.9297C0.00882872 59.9915 0.00882872 60.0533 0.0264862 60.1151C0.0264862 60.1681 0.0353149 60.221 0.0441436 60.274C0.0441436 60.3358 0.0618011 60.3976 0.0706298 60.4594C0.0794585 60.5124 0.0882872 60.5654 0.105945 60.6272C0.123602 60.689 0.132431 60.7508 0.150088 60.8126C0.167746 60.8655 0.185403 60.9185 0.194232 60.9803C0.211889 61.0421 0.229547 61.1039 0.256033 61.1569C0.27369 61.2099 0.291348 61.2628 0.317834 61.3158C0.34432 61.3776 0.370806 61.4394 0.397293 61.5012C0.423779 61.5542 0.441436 61.6072 0.467922 61.6601C0.494408 61.7219 0.529723 61.7837 0.565038 61.8455C0.591524 61.8985 0.618011 61.9427 0.644497 61.9956C0.68864 62.0663 0.732784 62.1457 0.776928 62.2164C0.803414 62.2605 0.8299 62.3046 0.865215 62.3488C0.918187 62.4282 0.979988 62.5077 1.04179 62.5872C1.06828 62.6225 1.09476 62.6578 1.12125 62.6931C1.21836 62.8167 1.33314 62.9491 1.44791 63.0727C1.4744 63.1081 1.50971 63.1345 1.5362 63.1699C1.62449 63.267 1.7216 63.3553 1.81872 63.4524C1.86286 63.4965 1.907 63.5407 1.95115 63.576C2.01295 63.629 2.06592 63.6819 2.12772 63.7349C2.18069 63.779 2.2425 63.832 2.29547 63.8762C2.35727 63.9291 2.4279 63.9821 2.4897 64.0262C2.5515 64.0704 2.6133 64.1145 2.6751 64.1675C2.74573 64.2205 2.81636 64.2646 2.88699 64.3176C2.94879 64.3617 3.01942 64.4059 3.08122 64.45C3.15185 64.4942 3.23131 64.5472 3.31077 64.5913C3.40789 64.6531 3.49617 64.7061 3.60212 64.7679L43.5256 87.9699C43.7993 88.1288 44.073 88.2701 44.3643 88.4113C44.4438 88.4467 44.5144 88.482 44.5939 88.5173C44.8499 88.6409 45.1148 88.7557 45.3885 88.8616C45.4238 88.8793 45.4591 88.8881 45.4944 88.9057C45.7858 89.0205 46.0859 89.1176 46.3861 89.2148C46.598 89.2766 46.8099 89.3384 47.0218 89.4002C47.1807 89.4443 47.3484 89.4885 47.5074 89.5326C47.7369 89.5856 47.9664 89.6297 48.196 89.6827C48.3637 89.718 48.5315 89.7533 48.6992 89.7886C48.7699 89.7975 48.8405 89.8063 48.9111 89.8239C49.1936 89.8681 49.485 89.9122 49.7763 89.9475C49.8558 89.9564 49.9441 89.9652 50.0235 89.974C50.359 90.0093 50.6945 90.0358 51.03 90.0623C51.0918 90.0623 51.1536 90.0623 51.2154 90.0711C51.445 90.08 51.6745 90.0888 51.8952 90.0888C52.1248 90.0888 52.3455 90.0888 52.575 90.0888C52.7693 90.0888 52.9547 90.0888 53.1489 90.0711C53.3608 90.0711 53.5727 90.0535 53.7757 90.0358C53.97 90.0182 54.1554 90.0093 54.3496 89.9917C54.5615 89.974 54.7646 89.9475 54.9676 89.9211C55.153 89.8946 55.3384 89.8681 55.5238 89.8416C55.7446 89.8063 55.9653 89.771 56.186 89.7268C56.4155 89.6827 56.6451 89.6385 56.8658 89.5856C56.9188 89.5767 56.9717 89.5591 57.0247 89.5502C57.3426 89.4708 57.6516 89.3913 57.9606 89.303C58.0489 89.2766 58.1371 89.2501 58.2254 89.2236C58.4815 89.1441 58.7375 89.0558 58.9847 88.9675C59.0553 88.9411 59.126 88.9146 59.1966 88.8881C59.4261 88.7998 59.638 88.7027 59.8587 88.6056C59.9647 88.5614 60.0795 88.5173 60.1766 88.4643C60.4944 88.3142 60.7946 88.1553 61.0859 87.9876L101.274 64.7855C103.729 63.3729 104.947 61.51 104.947 59.656L104.965 63.5848C104.965 65.4389 103.746 67.3017 101.292 68.7143L61.1036 91.9164C60.8122 92.0841 60.5032 92.243 60.1942 92.3931C60.0883 92.4461 59.9823 92.4814 59.8764 92.5344C59.691 92.6138 59.5056 92.7021 59.3202 92.7816C59.2849 92.7904 59.2496 92.8081 59.2231 92.8169C59.1524 92.8434 59.0818 92.8699 59.0024 92.8964C58.7552 92.9846 58.4991 93.0729 58.2431 93.1524C58.1548 93.1789 58.0665 93.2054 57.9782 93.2318C57.9164 93.2495 57.8634 93.2672 57.8017 93.2848C57.5544 93.3555 57.2984 93.4173 57.0424 93.4791C56.9894 93.4879 56.9364 93.5055 56.8835 93.5144C56.7599 93.5409 56.6363 93.5762 56.5127 93.6027C56.4067 93.6203 56.3096 93.638 56.2036 93.6556C55.9829 93.6998 55.7622 93.7351 55.5415 93.7704C55.4532 93.7881 55.3649 93.8057 55.2766 93.8146C55.1795 93.8322 55.0824 93.8322 54.9853 93.8499C54.7822 93.8764 54.5703 93.9028 54.3673 93.9205C54.2702 93.9293 54.173 93.947 54.0671 93.9558C53.9788 93.9558 53.8817 93.9558 53.7846 93.9735C53.5727 93.9911 53.3608 94 53.1577 94.0088C53.0518 94.0088 52.9459 94.0264 52.8399 94.0264C52.7516 94.0264 52.6722 94.0264 52.5839 94.0264C52.3543 94.0264 52.1248 94.0264 51.9041 94.0264C51.7893 94.0264 51.6745 94.0264 51.5686 94.0264C51.4538 94.0264 51.339 94.0176 51.2243 94.0088C51.1624 94.0088 51.1007 94.0088 51.0388 94C50.7563 93.9823 50.4738 93.9646 50.1913 93.9382C50.1383 93.9382 50.0853 93.9205 50.0324 93.9205C49.9441 93.9117 49.8646 93.9028 49.7763 93.894C49.485 93.8587 49.2025 93.8145 48.9111 93.7704C48.8405 93.7616 48.7699 93.7527 48.6992 93.7351C48.6639 93.7351 48.6286 93.7263 48.6021 93.7174C48.4697 93.6909 48.3373 93.6556 48.2048 93.6291C47.9753 93.585 47.7457 93.5409 47.5162 93.4791C47.3484 93.4349 47.1895 93.3908 47.0306 93.3466C46.8187 93.2848 46.598 93.2318 46.3861 93.1612C46.342 93.1436 46.2978 93.1347 46.2449 93.1259C45.9888 93.0464 45.7416 92.9493 45.4856 92.861C45.4503 92.8434 45.415 92.8346 45.3796 92.8169C45.1059 92.7109 44.8411 92.5962 44.585 92.4814C44.5056 92.4461 44.435 92.4108 44.3555 92.3755C44.0642 92.2342 43.7905 92.0929 43.5168 91.934L3.63743 68.6967C3.58446 68.6702 3.53149 68.6349 3.48735 68.6084C3.4432 68.5819 3.39906 68.5466 3.35491 68.5201C3.27546 68.476 3.20483 68.423 3.12537 68.3788C3.05474 68.3347 2.99294 68.2906 2.93114 68.2464C2.86051 68.1934 2.78988 68.1493 2.71925 68.0963C2.65745 68.0522 2.59564 68.008 2.53384 67.9551C2.47204 67.9021 2.40141 67.8579 2.33961 67.805C2.27781 67.7608 2.22484 67.7079 2.17187 67.6637C2.11006 67.6107 2.04826 67.5578 1.99529 67.5048C1.96881 67.4871 1.94232 67.4606 1.92466 67.443C1.907 67.4253 1.88052 67.3988 1.86286 67.3812C1.76574 67.2929 1.66863 67.1958 1.58034 67.0987C1.55386 67.0634 1.51854 67.0369 1.49205 67.0015C1.37728 66.8779 1.27134 66.7543 1.16539 66.6219C1.16539 66.6219 1.15656 66.6131 1.14773 66.6043C1.12125 66.5778 1.10359 66.5424 1.08593 66.516C1.02413 66.4365 0.962331 66.357 0.909358 66.2776C0.882872 66.2334 0.847557 66.1893 0.821071 66.1452C0.776928 66.0745 0.723955 65.9951 0.68864 65.9244C0.679812 65.9068 0.662154 65.8803 0.653325 65.8626C0.635668 65.8361 0.626839 65.8008 0.609182 65.7743C0.573867 65.7125 0.547381 65.6507 0.512066 65.5889C0.48558 65.536 0.459094 65.483 0.441436 65.43C0.41495 65.3682 0.388464 65.3064 0.361978 65.2446C0.353149 65.2181 0.335491 65.1917 0.326663 65.1563C0.317834 65.1299 0.309005 65.1034 0.300177 65.0769C0.282519 65.0151 0.256033 64.9533 0.238376 64.9003C0.220718 64.8473 0.203061 64.7944 0.194232 64.7326C0.176574 64.6708 0.167746 64.609 0.150088 64.556C0.150088 64.5207 0.132431 64.4942 0.123602 64.4589C0.123602 64.4324 0.123602 64.4147 0.114773 64.3882C0.105945 64.3264 0.0971159 64.2646 0.0882872 64.2028C0.0882872 64.1499 0.0706298 64.0969 0.0706298 64.0439C0.0706298 63.9821 0.0618011 63.9203 0.0529723 63.8585C0.0529723 63.8232 0.0529723 63.7879 0.0529723 63.7526C0.0529723 63.7172 0.0529723 63.6819 0.0529723 63.6466L0 59.709C0 59.7796 0 59.8591 0.00882872 59.9297Z" fill="url(#paint1_linear_1079_3913)"/>
</g>
<g id="Group_5">
<g id="Group_6">
<path id="Vector_3" d="M3.67196 50.6595L43.8603 27.4575C48.7338 24.6411 56.6002 24.6411 61.4471 27.4575L101.371 50.6595C106.209 53.4759 106.182 58.0316 101.318 60.8479L61.1293 84.05C56.2558 86.8663 48.3806 86.8663 43.5425 84.05L3.61016 60.8479C-1.22798 58.0316 -1.2015 53.4759 3.66313 50.6595H3.67196Z" fill="url(#paint2_linear_1079_3913)"/>
<path id="Vector_4" d="M0.00882872 56.0098C0.00882872 56.0716 0.00882872 56.1334 0.0264862 56.1952C0.0264862 56.2482 0.0353149 56.3011 0.0441436 56.3541C0.0441436 56.4159 0.0618011 56.4777 0.0706298 56.5395C0.0794585 56.5925 0.0882872 56.6455 0.105945 56.7073C0.123602 56.7691 0.132431 56.8309 0.150088 56.8927C0.167746 56.9456 0.185403 56.9986 0.194232 57.0604C0.211889 57.1222 0.229547 57.184 0.256033 57.237C0.27369 57.2899 0.291348 57.3429 0.317834 57.3959C0.34432 57.4577 0.370806 57.5195 0.397293 57.5813C0.423779 57.6343 0.441436 57.6872 0.467922 57.7402C0.494408 57.802 0.529723 57.8638 0.565038 57.9256C0.591524 57.9786 0.618011 58.0227 0.644497 58.0757C0.68864 58.1463 0.732784 58.2258 0.776928 58.2964C0.803414 58.3406 0.8299 58.3847 0.865215 58.4289C0.918187 58.5083 0.979988 58.5878 1.04179 58.6672C1.06828 58.7025 1.09476 58.7379 1.12125 58.7732C1.21836 58.8968 1.33314 59.0292 1.44791 59.1528C1.4744 59.1881 1.50971 59.2146 1.5362 59.2499C1.62449 59.3471 1.7216 59.4353 1.81872 59.5325C1.86286 59.5766 1.907 59.6207 1.95115 59.6561C2.01295 59.709 2.06592 59.762 2.12772 59.815C2.18069 59.8591 2.2425 59.9121 2.29547 59.9562C2.35727 60.0092 2.4279 60.0622 2.4897 60.1063C2.5515 60.1505 2.6133 60.1946 2.6751 60.2476C2.74573 60.3006 2.81636 60.3447 2.88699 60.3977C2.94879 60.4418 3.01942 60.486 3.08122 60.5301C3.15185 60.5743 3.23131 60.6272 3.31077 60.6714C3.40789 60.7332 3.49617 60.7861 3.60212 60.8479L43.5256 84.05C43.7993 84.2089 44.073 84.3502 44.3643 84.4914C44.4438 84.5267 44.5144 84.562 44.5939 84.5974C44.8499 84.721 45.1148 84.8357 45.3885 84.9417C45.4238 84.9593 45.4591 84.9682 45.4944 84.9858C45.7858 85.1006 46.0859 85.1977 46.3861 85.2948C46.598 85.3566 46.8099 85.4184 47.0218 85.4802C47.1807 85.5244 47.3484 85.5685 47.5074 85.6127C47.7369 85.6656 47.9664 85.7098 48.196 85.7628C48.3637 85.7981 48.5315 85.8334 48.6992 85.8687C48.7699 85.8775 48.8405 85.8864 48.9111 85.904C49.1936 85.9482 49.485 85.9923 49.7763 86.0276C49.8558 86.0365 49.9441 86.0453 50.0235 86.0541C50.359 86.0894 50.6945 86.1159 51.03 86.1424C51.0918 86.1424 51.1536 86.1424 51.2154 86.1512C51.445 86.1601 51.6745 86.1689 51.8952 86.1689C52.1248 86.1689 52.3455 86.1689 52.575 86.1689C52.7693 86.1689 52.9547 86.1689 53.1489 86.1512C53.3608 86.1512 53.5727 86.1336 53.7757 86.1159C53.97 86.0983 54.1554 86.0894 54.3496 86.0718C54.5615 86.0541 54.7646 86.0276 54.9676 86.0011C55.153 85.9747 55.3384 85.9482 55.5238 85.9217C55.7446 85.8864 55.9653 85.851 56.186 85.8069C56.4155 85.7628 56.6451 85.7186 56.8658 85.6656C56.9188 85.6568 56.9717 85.6392 57.0247 85.6303C57.3426 85.5509 57.6516 85.4714 57.9606 85.3831C58.0489 85.3566 58.1371 85.3302 58.2254 85.3037C58.4815 85.2242 58.7375 85.1359 58.9847 85.0476C59.0553 85.0211 59.126 84.9947 59.1966 84.9682C59.4261 84.8799 59.638 84.7828 59.8587 84.6856C59.9647 84.6415 60.0795 84.5974 60.1766 84.5444C60.4944 84.3943 60.7946 84.2354 61.0859 84.0676L101.274 60.8656C103.729 59.453 104.947 57.5901 104.947 55.7361L104.965 59.6649C104.965 61.5189 103.746 63.3818 101.292 64.7944L61.1036 87.9964C60.8122 88.1642 60.5032 88.3231 60.1942 88.4732C60.0883 88.5262 59.9823 88.5615 59.8764 88.6145C59.691 88.6939 59.5056 88.7822 59.3202 88.8617C59.2849 88.8705 59.2496 88.8881 59.2231 88.897C59.1524 88.9235 59.0818 88.9499 59.0024 88.9764C58.7552 89.0647 58.4991 89.153 58.2431 89.2325C58.1548 89.259 58.0665 89.2854 57.9782 89.3119C57.9164 89.3296 57.8634 89.3472 57.8017 89.3649C57.5544 89.4355 57.2984 89.4973 57.0424 89.5591C56.9894 89.568 56.9364 89.5856 56.8835 89.5945C56.7599 89.6209 56.6363 89.6562 56.5127 89.6827C56.4067 89.7004 56.3096 89.7181 56.2036 89.7357C55.9829 89.7799 55.7622 89.8152 55.5415 89.8505C55.4532 89.8681 55.3649 89.8858 55.2766 89.8946C55.1795 89.9123 55.0824 89.9123 54.9853 89.9299C54.7822 89.9564 54.5703 89.9829 54.3673 90.0006C54.2702 90.0094 54.173 90.0271 54.0671 90.0359C53.9788 90.0359 53.8817 90.0359 53.7846 90.0535C53.5727 90.0712 53.3608 90.08 53.1577 90.0889C53.0518 90.0889 52.9459 90.1065 52.8399 90.1065C52.7516 90.1065 52.6722 90.1065 52.5839 90.1065C52.3543 90.1065 52.1248 90.1065 51.9041 90.1065C51.7893 90.1065 51.6745 90.1065 51.5686 90.1065C51.4538 90.1065 51.339 90.0977 51.2243 90.0889C51.1624 90.0889 51.1007 90.0889 51.0388 90.08C50.7563 90.0624 50.4738 90.0447 50.1913 90.0182C50.1383 90.0182 50.0853 90.0006 50.0324 90.0006C49.9441 89.9917 49.8646 89.9829 49.7763 89.9741C49.485 89.9388 49.2025 89.8946 48.9111 89.8505C48.8405 89.8417 48.7699 89.8328 48.6992 89.8152C48.6639 89.8152 48.6286 89.8063 48.6021 89.7975C48.4697 89.771 48.3373 89.7357 48.2048 89.7092C47.9753 89.6651 47.7457 89.6209 47.5162 89.5591C47.3484 89.515 47.1895 89.4708 47.0306 89.4267C46.8187 89.3649 46.598 89.3119 46.3861 89.2413C46.342 89.2236 46.2978 89.2148 46.2449 89.206C45.9888 89.1265 45.7416 89.0294 45.4856 88.9411C45.4503 88.9235 45.415 88.9146 45.3796 88.897C45.1059 88.791 44.8411 88.6763 44.585 88.5615C44.5056 88.5262 44.435 88.4909 44.3555 88.4555C44.0642 88.3143 43.7905 88.173 43.5168 88.0141L3.63743 64.7768C3.58446 64.7503 3.53149 64.7149 3.48735 64.6885C3.4432 64.662 3.39906 64.6267 3.35491 64.6002C3.27546 64.556 3.20483 64.5031 3.12537 64.4589C3.05474 64.4148 2.99294 64.3706 2.93114 64.3265C2.86051 64.2735 2.78988 64.2294 2.71925 64.1764C2.65745 64.1323 2.59564 64.0881 2.53384 64.0351C2.47204 63.9822 2.40141 63.938 2.33961 63.885C2.27781 63.8409 2.22484 63.7879 2.17187 63.7438C2.11006 63.6908 2.04826 63.6378 1.99529 63.5849C1.96881 63.5672 1.94232 63.5407 1.92466 63.5231C1.907 63.5054 1.88052 63.4789 1.86286 63.4613C1.76574 63.373 1.66863 63.2759 1.58034 63.1787C1.55386 63.1434 1.51854 63.1169 1.49205 63.0816C1.37728 62.958 1.27134 62.8344 1.16539 62.702C1.16539 62.702 1.15656 62.6932 1.14773 62.6843C1.12125 62.6578 1.10359 62.6225 1.08593 62.596C1.02413 62.5166 0.962331 62.4371 0.909358 62.3577C0.882872 62.3135 0.847557 62.2694 0.821071 62.2252C0.776928 62.1546 0.723955 62.0751 0.68864 62.0045C0.679812 61.9869 0.662154 61.9604 0.653325 61.9427C0.635668 61.9162 0.626839 61.8809 0.609182 61.8544C0.573867 61.7926 0.547381 61.7308 0.512066 61.669C0.48558 61.616 0.459094 61.5631 0.441436 61.5101C0.41495 61.4483 0.388464 61.3865 0.361978 61.3247C0.353149 61.2982 0.335491 61.2717 0.326663 61.2364C0.317834 61.2099 0.309005 61.1834 0.300177 61.1569C0.282519 61.0951 0.256033 61.0333 0.238376 60.9804C0.220718 60.9274 0.203061 60.8744 0.194232 60.8126C0.176574 60.7508 0.167746 60.689 0.150088 60.6361C0.150088 60.6007 0.132431 60.5743 0.123602 60.5389C0.123602 60.5213 0.123602 60.4948 0.114773 60.4683C0.105945 60.4065 0.0971159 60.3447 0.0882872 60.2829C0.0882872 60.2299 0.0706298 60.177 0.0706298 60.1152C0.0706298 60.0534 0.0618011 59.9916 0.0529723 59.9298C0.0529723 59.8944 0.0529723 59.8591 0.0529723 59.8238C0.0529723 59.7885 0.0529723 59.7532 0.0529723 59.7179L0 55.7891C0 55.8597 0 55.9391 0.00882872 56.0098Z" fill="url(#paint3_linear_1079_3913)"/>
</g>
<g id="Group_7">
<path id="Vector_5" d="M93.0381 55.7272L59.6655 75.0005C55.6219 77.3401 49.0799 77.3401 45.0628 75.0005L11.8933 55.7272C7.87622 53.3876 7.89387 49.6001 11.9374 47.2693L45.31 27.9961C49.3536 25.6564 55.8956 25.6564 59.9127 27.9961L64.8833 30.8831L71.2929 34.6088L71.8491 34.9266L78.3118 38.6789L88.4736 44.5853L93.0734 47.2604C93.8238 47.7019 94.4418 48.1875 94.9098 48.7084C96.9492 50.9685 96.3135 53.8202 93.0293 55.7184L93.0381 55.7272Z" fill="white"/>
<path id="Vector_6" d="M8.89945 51.7014C8.89945 51.7543 8.89945 51.8073 8.90828 51.8603C8.90828 51.9044 8.91711 51.9486 8.92594 51.9927C8.92594 52.0457 8.9436 52.0986 8.95243 52.1516C8.95243 52.1958 8.97008 52.2399 8.97891 52.2841C8.98774 52.337 9.0054 52.3812 9.01423 52.4341C9.02306 52.4783 9.04071 52.5224 9.05837 52.5666C9.07603 52.6195 9.09369 52.6637 9.11134 52.7167C9.129 52.7608 9.14666 52.8049 9.16432 52.8491C9.18197 52.9021 9.20846 52.955 9.22612 53.008C9.24377 53.0522 9.26143 53.0963 9.28792 53.1404C9.3144 53.1934 9.34089 53.2464 9.36738 53.2994C9.39386 53.3435 9.41152 53.3788 9.43801 53.423C9.47332 53.4848 9.50864 53.5466 9.55278 53.6084C9.57927 53.6437 9.59692 53.679 9.62341 53.7231C9.66755 53.7938 9.72053 53.8556 9.76467 53.9262C9.79116 53.9527 9.80881 53.988 9.82647 54.0145C9.90593 54.1204 10.003 54.2264 10.0913 54.3235C10.1178 54.35 10.1443 54.3765 10.1708 54.403C10.2414 54.4824 10.3209 54.5619 10.4003 54.6325C10.4357 54.6678 10.471 54.7031 10.5151 54.7385C10.5593 54.7826 10.6122 54.8267 10.6652 54.8709C10.7093 54.9062 10.7623 54.9503 10.8065 54.9857C10.8594 55.0298 10.9124 55.0739 10.9654 55.1093C11.0183 55.1446 11.0625 55.1887 11.1155 55.224C11.1684 55.2682 11.2302 55.3035 11.292 55.3476C11.345 55.3829 11.398 55.4183 11.4598 55.4624C11.5216 55.5066 11.5834 55.5419 11.6452 55.586C11.7246 55.639 11.8041 55.6831 11.8836 55.7361L45.0442 75.0093C45.265 75.1418 45.5033 75.2565 45.7417 75.3713C45.8035 75.3978 45.8653 75.4331 45.9271 75.4596C46.139 75.5567 46.3597 75.6538 46.5893 75.7421C46.6158 75.7509 46.6511 75.7686 46.6776 75.7774C46.9159 75.8657 47.172 75.954 47.4192 76.0335C47.5957 76.0864 47.7723 76.1394 47.9489 76.1836C48.0813 76.2189 48.2138 76.263 48.355 76.2895C48.5404 76.3336 48.7346 76.369 48.9289 76.4131C49.0701 76.4396 49.2026 76.4749 49.3438 76.5014C49.4056 76.5102 49.4586 76.519 49.5204 76.5279C49.7588 76.5632 49.9972 76.5985 50.2355 76.625C50.3062 76.625 50.3768 76.6426 50.4474 76.6515C50.7299 76.678 51.0036 76.7045 51.2862 76.7221C51.3391 76.7221 51.3921 76.7221 51.4451 76.7221C51.6305 76.7309 51.8247 76.7309 52.0101 76.7398C52.1955 76.7398 52.3897 76.7398 52.5751 76.7398C52.7341 76.7398 52.893 76.7398 53.0519 76.7309C53.2285 76.7309 53.405 76.7133 53.5728 76.7044C53.7317 76.6956 53.8906 76.678 54.0495 76.6603C54.2261 76.6426 54.3939 76.625 54.5616 76.5985C54.7205 76.5808 54.8706 76.5544 55.0207 76.5367C55.2061 76.5102 55.3827 76.4749 55.5681 76.4396C55.7623 76.4043 55.9477 76.369 56.1331 76.3248C56.1773 76.316 56.2214 76.3072 56.2656 76.2983C56.5304 76.2365 56.7864 76.1659 57.0425 76.0864C57.1131 76.0688 57.1837 76.0423 57.2632 76.0158C57.4751 75.9452 57.687 75.8745 57.89 75.8039C57.9518 75.7863 58.0136 75.7598 58.0666 75.7421C58.252 75.6715 58.4374 75.592 58.614 75.5126C58.7023 75.4772 58.7906 75.4419 58.8789 75.3978C59.1349 75.2742 59.3909 75.1418 59.6381 75.0005L93.0107 55.7273C95.0501 54.553 96.0654 53.008 96.0566 51.4718L96.0743 54.7385C96.0743 56.2835 95.059 57.8197 93.0284 58.9939L59.6558 78.2671C59.4086 78.4084 59.1614 78.5408 58.8965 78.6644C58.8082 78.7086 58.7199 78.7439 58.6317 78.7792C58.4816 78.8498 58.3226 78.9205 58.1637 78.9823C58.1372 78.9911 58.1108 78.9999 58.0843 79.0088C58.0225 79.0352 57.9607 79.0529 57.9077 79.0706C57.7046 79.15 57.4927 79.2207 57.2809 79.2825C57.2102 79.3089 57.1396 79.3266 57.0601 79.3531C57.0072 79.3707 56.963 79.3884 56.91 79.3972C56.6982 79.459 56.4951 79.512 56.2744 79.565C56.2302 79.5738 56.1861 79.5826 56.1419 79.5915C56.036 79.6179 55.9389 79.6444 55.8329 79.6621C55.7447 79.6798 55.6652 79.6886 55.5769 79.7062C55.3915 79.7415 55.2149 79.7769 55.0295 79.8033C54.9589 79.8122 54.8883 79.8298 54.8088 79.8387C54.7294 79.8475 54.6499 79.8563 54.5704 79.8652C54.4027 79.8828 54.2261 79.9093 54.0584 79.927C53.9789 79.927 53.8995 79.9446 53.8112 79.9534C53.7317 79.9534 53.6611 79.9534 53.5816 79.9623C53.405 79.9711 53.2285 79.9799 53.0607 79.9888C52.9724 79.9888 52.8842 79.9976 52.7959 80.0064C52.7252 80.0064 52.6546 80.0064 52.584 80.0064C52.3986 80.0064 52.2043 80.0064 52.0189 80.0064C51.9218 80.0064 51.8335 80.0064 51.7364 80.0064C51.6393 80.0064 51.5422 79.9976 51.4539 79.9888C51.4009 79.9888 51.348 79.9888 51.295 79.9888C51.0566 79.9711 50.8271 79.9623 50.5887 79.9358C50.5445 79.9358 50.5004 79.927 50.4563 79.9181C50.3856 79.9181 50.315 79.9005 50.2444 79.8916C50.006 79.8652 49.7676 79.8298 49.5292 79.7945C49.4674 79.7857 49.4145 79.7769 49.3527 79.768C49.3262 79.768 49.2997 79.768 49.2644 79.7504C49.1496 79.7327 49.0437 79.6974 48.9289 79.6797C48.7346 79.6444 48.5492 79.6003 48.355 79.5561C48.2138 79.5208 48.0813 79.4855 47.9489 79.4502C47.7723 79.3972 47.5957 79.3531 47.4192 79.3001C47.3839 79.2913 47.3397 79.2825 47.3044 79.2648C47.0925 79.1942 46.8806 79.1235 46.6776 79.0441C46.6511 79.0352 46.6158 79.0176 46.5893 79.0088C46.3597 78.9205 46.1478 78.8234 45.9271 78.7262C45.8653 78.6998 45.8035 78.6644 45.7417 78.638C45.5033 78.5232 45.265 78.3996 45.0442 78.276L11.8836 59.0028C11.8836 59.0028 11.7953 58.9498 11.76 58.9321C11.7246 58.9056 11.6893 58.888 11.6452 58.8615C11.5834 58.8262 11.5216 58.782 11.4598 58.7467C11.4068 58.7114 11.345 58.6761 11.292 58.6319C11.2302 58.5878 11.1773 58.5525 11.1155 58.5083C11.0625 58.473 11.0095 58.4289 10.9654 58.3936C10.9124 58.3494 10.8594 58.3053 10.8065 58.27C10.7623 58.2346 10.7093 58.1905 10.6652 58.1552C10.6122 58.111 10.5681 58.0669 10.5151 58.0228C10.4975 58.0051 10.471 57.9874 10.4533 57.9698C10.4357 57.9521 10.418 57.9345 10.4003 57.9168C10.3209 57.8373 10.2414 57.7579 10.162 57.6873C10.1355 57.6608 10.109 57.6343 10.0825 57.6078C9.98539 57.5019 9.8971 57.4047 9.81764 57.2988C9.81764 57.2988 9.81764 57.29 9.80881 57.2811C9.79115 57.2546 9.7735 57.2282 9.75584 57.2105C9.70287 57.1487 9.65872 57.0781 9.61458 57.0074C9.58809 56.9721 9.57044 56.9368 9.54395 56.8927C9.50864 56.8309 9.46449 56.7691 9.42918 56.7073C9.42035 56.6896 9.41152 56.672 9.39386 56.6543C9.37621 56.6278 9.36738 56.6013 9.35855 56.5837C9.33206 56.5307 9.30558 56.4777 9.27909 56.4247C9.26143 56.3806 9.23495 56.3365 9.21729 56.2923C9.1908 56.2393 9.17314 56.1864 9.15549 56.1334C9.14666 56.1069 9.13783 56.0893 9.129 56.0628C9.129 56.0451 9.11134 56.0186 9.11134 56.001C9.09369 55.948 9.07603 55.9038 9.05837 55.8509C9.04071 55.8067 9.03188 55.7626 9.01423 55.7184C8.99657 55.6655 8.98774 55.6213 8.97891 55.5684C8.97891 55.5419 8.96125 55.5154 8.96125 55.4889C8.96125 55.4712 8.96125 55.4536 8.96125 55.4359C8.95243 55.383 8.9436 55.33 8.93477 55.2858C8.93477 55.2417 8.92594 55.1975 8.91711 55.1534C8.91711 55.1004 8.91711 55.0475 8.90828 54.9945C8.90828 54.968 8.90828 54.9327 8.90828 54.9062C8.90828 54.8797 8.90828 54.8444 8.90828 54.8179L8.89062 51.5513C8.89062 51.6131 8.89062 51.6749 8.89062 51.7367L8.89945 51.7014Z" fill="url(#paint4_linear_1079_3913)"/>
</g>
<g id="Group_8">
<g id="Group_9">
<path id="Vector_7" d="M70.5137 80.4831L71.529 79.8916L72.3324 80.3507L71.3171 80.9422L70.5137 80.4831Z" fill="url(#paint5_linear_1079_3913)"/>
<path id="Vector_8" d="M63.8135 73.7998L63.8047 74.8946L71.3179 79.203V80.9423L70.5145 80.4832V81.5691L72.2714 82.5756V78.6645L63.8135 73.7998Z" fill="#660004"/>
<path id="Vector_9" d="M72.2715 78.6644V82.5756L73.2868 81.9929V78.0729L72.2715 78.6644Z" fill="url(#paint6_linear_1079_3913)"/>
<path id="Vector_10" d="M64.8209 73.2083L63.8145 73.7998L72.2724 78.6644L73.2877 78.0729L64.8209 73.2083Z" fill="url(#paint7_linear_1079_3913)"/>
</g>
<g id="Group_10">
<path id="Vector_11" d="M75.7676 77.4372L76.7829 76.8457L77.5863 77.3136L76.571 77.9052L75.7676 77.4372Z" fill="url(#paint8_linear_1079_3913)"/>
<path id="Vector_12" d="M69.0586 70.7627V71.8486L76.5718 76.1659V77.9052L75.7684 77.4372V78.5232L77.5253 79.5385V75.6274L69.0586 70.7627Z" fill="#660004"/>
<path id="Vector_13" d="M77.5254 75.6273V79.5384L78.5407 78.9469V75.0358L77.5254 75.6273Z" fill="url(#paint9_linear_1079_3913)"/>
<path id="Vector_14" d="M70.0739 70.1711L69.0586 70.7627L77.5253 75.6273L78.5406 75.0358L70.0739 70.1711Z" fill="url(#paint10_linear_1079_3913)"/>
</g>
<g id="Group_11">
<path id="Vector_15" d="M81.0195 74.4001L82.0348 73.8086L82.8383 74.2677L81.8229 74.8592L81.0195 74.4001Z" fill="url(#paint11_linear_1079_3913)"/>
<path id="Vector_16" d="M74.3105 67.7168V68.8116L81.8238 73.12V74.8593L81.0204 74.4002V75.4861L82.7773 76.4926V72.5815L74.3105 67.7168Z" fill="#660004"/>
<path id="Vector_17" d="M82.7773 72.5814V76.4925L83.7926 75.9098V71.9899L82.7773 72.5814Z" fill="url(#paint12_linear_1079_3913)"/>
<path id="Vector_18" d="M75.3259 67.1252L74.3105 67.7168L82.7773 72.5814L83.7926 71.9899L75.3259 67.1252Z" fill="url(#paint13_linear_1079_3913)"/>
</g>
<g id="Group_12">
<path id="Vector_19" d="M86.2734 71.3542L87.2887 70.7627L88.0922 71.2306L87.0768 71.8133L86.2734 71.3542Z" fill="url(#paint14_linear_1079_3913)"/>
<path id="Vector_20" d="M79.5645 64.6797V65.7656L87.0777 70.0829V71.8133L86.2743 71.3542V72.4402L88.0224 73.4555V69.5355L79.5645 64.6797Z" fill="#660004"/>
<path id="Vector_21" d="M88.0215 69.5355V73.4554L89.0456 72.8639V68.9528L88.0215 69.5355Z" fill="url(#paint15_linear_1079_3913)"/>
<path id="Vector_22" d="M80.5798 64.0881L79.5645 64.6797L88.0224 69.5355L89.0465 68.9528L80.5798 64.0881Z" fill="url(#paint16_linear_1079_3913)"/>
</g>
<g id="Group_13">
<path id="Vector_23" d="M91.5254 68.3083L92.5407 67.7256L93.3353 68.1847L92.3288 68.7762L91.5254 68.3083Z" fill="url(#paint17_linear_1079_3913)"/>
<path id="Vector_24" d="M84.8164 61.6338V62.7286L92.3297 67.037V68.7763L91.5262 68.3083L91.5174 69.4031L93.2743 70.4096V66.4984L84.8164 61.6338Z" fill="#660004"/>
<path id="Vector_25" d="M93.2734 66.4984V70.4095L94.2976 69.8268V65.9069L93.2734 66.4984Z" fill="url(#paint18_linear_1079_3913)"/>
<path id="Vector_26" d="M85.8317 61.0422L84.8164 61.6338L93.2743 66.4984L94.2985 65.9069L85.8317 61.0422Z" fill="url(#paint19_linear_1079_3913)"/>
</g>
<g id="Group_14">
<path id="Vector_27" d="M96.7793 65.2712L97.7946 64.6797L98.5892 65.1476L97.5827 65.7303L96.7793 65.2712Z" fill="url(#paint20_linear_1079_3913)"/>
<path id="Vector_28" d="M90.0703 58.5967V59.6826L97.5836 63.9999V65.7303L96.7801 65.2712L96.7713 66.3572L98.5282 67.3725V63.4525L90.0703 58.5967Z" fill="#660004"/>
<path id="Vector_29" d="M98.5273 63.4525V67.3724L99.5515 66.7809V62.8698L98.5273 63.4525Z" fill="url(#paint21_linear_1079_3913)"/>
<path id="Vector_30" d="M91.0856 58.0051L90.0703 58.5967L98.5282 63.4525L99.5524 62.8698L91.0856 58.0051Z" fill="url(#paint22_linear_1079_3913)"/>
</g>
</g>
<g id="Group_15">
<path id="Vector_31" style="mix-blend-mode:multiply" opacity="0.5" d="M34.6159 81.5691L36.0727 79.7062L41.8643 76.3954L41.3257 74.8945L40.4076 75.4154L40.4517 75.5743L34.6159 78.8587L33.8125 79.821V80.0152L34.6159 80.4831V81.5691Z" fill="url(#paint23_linear_1079_3913)"/>
<path id="Vector_32" style="mix-blend-mode:multiply" opacity="0.5" d="M29.362 78.5231L30.8187 76.669L36.6104 73.3494L36.0718 71.8485L35.1537 72.3782L35.1978 72.5283L29.362 75.8215L28.5586 76.7838V76.9692L29.362 77.4371V78.5231Z" fill="url(#paint24_linear_1079_3913)"/>
<path id="Vector_33" style="mix-blend-mode:multiply" opacity="0.5" d="M24.1101 75.486L25.5668 73.6231L31.3584 70.3123L30.8199 68.8114L29.9017 69.3323L29.9458 69.4912L24.1101 72.7755L23.3066 73.7379V73.9321L24.1101 74.4V75.486Z" fill="url(#paint25_linear_1079_3913)"/>
<path id="Vector_34" style="mix-blend-mode:multiply" opacity="0.5" d="M18.8561 72.4401L20.3129 70.586L26.1045 67.2664L25.566 65.7655L24.6566 66.2864L24.6919 66.4453L18.8561 69.7385L18.0527 70.7008V70.8862L18.8561 71.3541V72.4401Z" fill="url(#paint26_linear_1079_3913)"/>
<path id="Vector_35" style="mix-blend-mode:multiply" opacity="0.5" d="M13.613 69.4029L15.0609 67.5401L20.8526 64.2293L20.314 62.7284L19.4047 63.2493L19.44 63.4082L13.613 66.6925L12.8008 67.6548V67.8491L13.6042 68.3082L13.613 69.4029Z" fill="url(#paint27_linear_1079_3913)"/>
<path id="Vector_36" style="mix-blend-mode:multiply" opacity="0.5" d="M8.35912 66.3571L9.80703 64.4942L15.5987 61.1834L15.0601 59.6825L14.1508 60.2034L14.1861 60.3623L8.35912 63.6554L7.54688 64.6178V64.8032L8.35029 65.2711L8.35912 66.3571Z" fill="url(#paint28_linear_1079_3913)"/>
</g>
<g id="Group_16">
<g id="Group_17">
<path id="Vector_37" d="M34.6156 80.4831L33.6003 79.8916L32.7969 80.3507L33.8122 80.9422L34.6156 80.4831Z" fill="url(#paint29_linear_1079_3913)"/>
<path id="Vector_38" d="M41.3173 73.7998L41.3261 74.8946L33.804 79.203L33.8129 80.9423L34.6163 80.4832V81.5691L32.8594 82.5756V78.6645L41.3173 73.7998Z" fill="#660004"/>
<path id="Vector_39" d="M32.8591 78.6644V82.5756L31.8438 81.9929V78.0729L32.8591 78.6644Z" fill="url(#paint30_linear_1079_3913)"/>
<path id="Vector_40" d="M40.3105 73.2083L41.317 73.7998L32.8591 78.6644L31.8438 78.0729L40.3105 73.2083Z" fill="url(#paint31_linear_1079_3913)"/>
</g>
<g id="Group_18">
<path id="Vector_41" d="M29.3617 77.4372L28.3464 76.8457L27.543 77.3136L28.5583 77.9052L29.3617 77.4372Z" fill="url(#paint32_linear_1079_3913)"/>
<path id="Vector_42" d="M36.0634 70.7627L36.0722 71.8486L28.559 76.1659V77.9052L29.3624 77.4372V78.5232L27.6055 79.5385V75.6274L36.0634 70.7627Z" fill="#660004"/>
<path id="Vector_43" d="M27.6051 75.6273V79.5384L26.5898 78.9469V75.0358L27.6051 75.6273Z" fill="url(#paint33_linear_1079_3913)"/>
<path id="Vector_44" d="M35.0566 70.1711L36.0631 70.7627L27.6051 75.6273L26.5898 75.0358L35.0566 70.1711Z" fill="url(#paint34_linear_1079_3913)"/>
</g>
<g id="Group_19">
<path id="Vector_45" d="M24.1097 74.4001L23.0944 73.8086L22.291 74.2677L23.3063 74.8592L24.1097 74.4001Z" fill="url(#paint35_linear_1079_3913)"/>
<path id="Vector_46" d="M30.8203 67.7168V68.8116L23.307 73.12V74.8593L24.1104 74.4002V75.4861L22.3535 76.4926V72.5815L30.8203 67.7168Z" fill="#660004"/>
<path id="Vector_47" d="M22.3532 72.5814V76.4925L21.3379 75.9098V71.9899L22.3532 72.5814Z" fill="url(#paint36_linear_1079_3913)"/>
<path id="Vector_48" d="M29.8046 67.1252L30.8199 67.7168L22.3532 72.5814L21.3379 71.9899L29.8046 67.1252Z" fill="url(#paint37_linear_1079_3913)"/>
</g>
<g id="Group_20">
<path id="Vector_49" d="M18.8558 71.3542L17.8405 70.7627L17.0371 71.2306L18.0524 71.8133L18.8558 71.3542Z" fill="url(#paint38_linear_1079_3913)"/>
<path id="Vector_50" d="M25.5664 64.6797V65.7656L18.0531 70.0829V71.8133L18.8565 71.3542V72.4402L17.0996 73.4555V69.5355L25.5664 64.6797Z" fill="#660004"/>
<path id="Vector_51" d="M17.0993 69.5355V73.4554L16.084 72.8639V68.9528L17.0993 69.5355Z" fill="url(#paint39_linear_1079_3913)"/>
<path id="Vector_52" d="M24.5507 64.0881L25.566 64.6797L17.0993 69.5355L16.084 68.9528L24.5507 64.0881Z" fill="url(#paint40_linear_1079_3913)"/>
</g>
<g id="Group_21">
<path id="Vector_53" d="M13.6039 68.3083L12.5886 67.7256L11.7852 68.1847L12.8005 68.7762L13.6039 68.3083Z" fill="url(#paint41_linear_1079_3913)"/>
<path id="Vector_54" d="M20.3134 61.6338V62.7286L12.8001 67.037V68.7763L13.6036 68.3083V69.4031L11.8555 70.4096V66.4984L20.3134 61.6338Z" fill="#660004"/>
<path id="Vector_55" d="M11.8562 66.4984V70.4095L10.832 69.8268V65.9069L11.8562 66.4984Z" fill="url(#paint42_linear_1079_3913)"/>
<path id="Vector_56" d="M19.2988 61.0422L20.3141 61.6338L11.8562 66.4984L10.832 65.9069L19.2988 61.0422Z" fill="url(#paint43_linear_1079_3913)"/>
</g>
<g id="Group_22">
<path id="Vector_57" d="M8.3509 65.2712L7.3356 64.6797L6.54102 65.1476L7.54749 65.7303L8.3509 65.2712Z" fill="url(#paint44_linear_1079_3913)"/>
<path id="Vector_58" d="M15.0595 58.5967V59.6826L7.54624 63.9999V65.7303L8.34965 65.2712L8.35848 66.3572L6.60156 67.3725V63.4525L15.0595 58.5967Z" fill="#660004"/>
<path id="Vector_59" d="M6.60226 63.4525V67.3724L5.57812 66.7809V62.8698L6.60226 63.4525Z" fill="url(#paint45_linear_1079_3913)"/>
<path id="Vector_60" d="M14.0449 58.0051L15.0602 58.5967L6.60226 63.4525L5.57812 62.8698L14.0449 58.0051Z" fill="url(#paint46_linear_1079_3913)"/>
</g>
</g>
</g>
</g>
<path id="Vector_61" style="mix-blend-mode:multiply" d="M71.8643 34.9267L60.5459 44.0909L55.5224 41.1863L71.3169 34.6L64.9073 30.8743L31.1992 44.0115L38.2622 48.0904L48.7949 43.8791L55.8755 47.9668L48.5741 54.0498L55.7078 58.164L78.3269 38.6701L71.8643 34.9178V34.9267ZM93.0886 47.2605L88.4888 44.5854L60.4223 60.8921L67.2028 64.8121L94.9161 48.7084C94.4482 48.1875 93.839 47.7019 93.0797 47.2605H93.0886Z" fill="url(#paint47_linear_1079_3913)"/>
<g id="Group_23">
<g id="Group_24">
<g id="Group_25">
<g id="Group_26">
<path id="Vector_62" d="M38.2539 48.108L44.7254 44.347L46.4028 35.0326L39.9314 38.7937L38.2539 48.108Z" fill="url(#paint48_linear_1079_3913)"/>
<path id="Vector_63" d="M43.5603 16.6687L41 32.843L47.4715 29.082L50.0318 12.8988L43.5603 16.6687Z" fill="url(#paint49_linear_1079_3913)"/>
</g>
<path id="Vector_64" d="M45.4412 0L38.9609 3.76106L48.2929 9.14661L54.7643 5.38555L45.4412 0Z" fill="url(#paint50_linear_1079_3913)"/>
<path id="Vector_65" d="M47.4715 29.082L41 32.8431L46.0235 35.7389L52.495 31.9779L47.4715 29.082Z" fill="url(#paint51_linear_1079_3913)"/>
<path id="Vector_66" d="M48.2926 9.14666L38.9695 3.76111L31.1914 44.0292L38.2544 48.1081L39.9318 38.7937L47.0125 42.8814L48.5663 54.0675L55.6999 58.1817L48.2926 9.14666ZM41.0001 32.8431L43.5604 16.6688L46.0237 35.7478L41.0001 32.8431Z" fill="url(#paint52_linear_1079_3913)"/>
<path id="Vector_67" d="M54.7644 5.3855L48.293 9.14656L55.6914 58.1816L62.1717 54.4205L54.7644 5.3855Z" fill="url(#paint53_linear_1079_3913)"/>
</g>
<g id="Group_27">
<path id="Vector_68" d="M60.5371 16.2185V60.901L67.2205 64.8209V20.1297L60.5371 16.2185Z" fill="#E0E0E7"/>
<path id="Vector_69" d="M67.2207 20.1296V64.8209L73.7893 61.051V16.3685L67.2207 20.1296Z" fill="url(#paint54_linear_1079_3913)"/>
<path id="Vector_70" d="M67.2205 12.4574L60.5371 16.2185L67.2205 20.1296L73.789 16.3685L67.2205 12.4574Z" fill="url(#paint55_linear_1079_3913)"/>
</g>
</g>
<g id="Group_28">
<path id="Vector_71" d="M48.2926 9.14666L38.9695 3.76111L31.1914 44.0292L38.2544 48.1081L39.9318 38.7937L47.0125 42.8814L48.5663 54.0675L55.6999 58.1817L48.2926 9.14666ZM47.5863 42.493L39.4816 37.8137L37.8041 47.1281L31.8889 43.7113L39.4109 4.73227L47.7276 9.53513L54.8965 57.0075L49.1402 53.6878L47.5863 42.5018V42.493Z" fill="url(#paint56_linear_1079_3913)"/>
<path id="Vector_72" d="M42.9513 16.5717L40.3203 33.1698L46.8006 36.9132L44.1785 16.5981L42.9513 16.5805V16.5717ZM41.0001 32.8431L43.5605 16.6688L46.0237 35.7478L41.0001 32.8431Z" fill="url(#paint57_linear_1079_3913)"/>
</g>
<path id="Vector_73" style="mix-blend-mode:multiply" d="M61.2975 60.4153V17.3838L61.1562 17.2955V60.5477L66.6036 63.7349V63.5142L61.2975 60.4153Z" fill="url(#paint58_linear_1079_3913)"/>
<path id="Vector_74" style="mix-blend-mode:multiply" d="M46.978 36.7983L46.7749 36.6835L44.1793 16.5804L43.111 16.5627L43.1287 16.4568L44.3558 16.4745L46.978 36.7895V36.7983ZM49.3176 53.573L47.7637 42.3869L39.659 37.7077L39.6236 37.8931L47.5872 42.4929L49.141 53.6789L54.8973 56.9985L54.862 56.7778L49.3176 53.573ZM32.0663 43.6141L39.553 4.81164L39.4118 4.73218L31.8809 43.7201L37.7961 47.1368L37.8314 46.9514L32.0574 43.6141H32.0663Z" fill="url(#paint59_linear_1079_3913)"/>
</g>
</g>
</g>
</g>
</g>
<defs>
<linearGradient id="paint0_linear_1079_3913" x1="-1.93428" y1="59.6737" x2="114.005" y2="59.6737" gradientUnits="userSpaceOnUse">
<stop stop-color="white"/>
<stop offset="0.13" stop-color="#FBFBFB"/>
<stop offset="1" stop-color="#E8E8EA"/>
</linearGradient>
<linearGradient id="paint1_linear_1079_3913" x1="41.857" y1="76.8192" x2="70.9211" y2="76.8192" gradientUnits="userSpaceOnUse">
<stop stop-color="#D4D4DC"/>
<stop offset="0.63" stop-color="#ADACBB"/>
<stop offset="1" stop-color="#9B9AAC"/>
</linearGradient>
<linearGradient id="paint2_linear_1079_3913" x1="145.346" y1="55.7537" x2="144.464" y2="55.7537" gradientUnits="userSpaceOnUse">
<stop stop-color="white"/>
<stop offset="0.13" stop-color="#FBFBFB"/>
<stop offset="1" stop-color="#E8E8EA"/>
</linearGradient>
<linearGradient id="paint3_linear_1079_3913" x1="145.347" y1="72.8992" x2="144.464" y2="72.8992" gradientUnits="userSpaceOnUse">
<stop stop-color="#D4D4DC"/>
<stop offset="0.63" stop-color="#ADACBB"/>
<stop offset="1" stop-color="#9B9AAC"/>
</linearGradient>
<linearGradient id="paint4_linear_1079_3913" x1="43.6581" y1="65.7303" x2="67.7959" y2="65.7303" gradientUnits="userSpaceOnUse">
<stop stop-color="#D4D4DC"/>
<stop offset="0.63" stop-color="#ADACBB"/>
<stop offset="1" stop-color="#9B9AAC"/>
</linearGradient>
<linearGradient id="paint5_linear_1079_3913" x1="70.5137" y1="80.4125" x2="72.3324" y2="80.4125" gradientUnits="userSpaceOnUse">
<stop stop-color="#FF9ABB"/>
<stop offset="0.05" stop-color="#FF96B7"/>
<stop offset="0.68" stop-color="#FF6690"/>
<stop offset="1" stop-color="#FF5481"/>
</linearGradient>
<linearGradient id="paint6_linear_1079_3913" x1="73.2222" y1="82.5759" x2="72.1098" y2="82.4693" gradientUnits="userSpaceOnUse">
<stop stop-color="#700005"/>
<stop offset="0.566666" stop-color="#B5070E" stop-opacity="0.9855"/>
<stop offset="1" stop-color="#FF0F18" stop-opacity="0.97"/>
</linearGradient>
<linearGradient id="paint7_linear_1079_3913" x1="72.6847" y1="78.6648" x2="65.9038" y2="73.6606" gradientUnits="userSpaceOnUse">
<stop stop-color="#700005"/>
<stop offset="0.566666" stop-color="#B5070E" stop-opacity="0.9855"/>
<stop offset="1" stop-color="#FF0F18" stop-opacity="0.97"/>
</linearGradient>
<linearGradient id="paint8_linear_1079_3913" x1="75.7676" y1="77.3754" x2="77.5775" y2="77.3754" gradientUnits="userSpaceOnUse">
<stop stop-color="#FF9ABB"/>
<stop offset="0.05" stop-color="#FF96B7"/>
<stop offset="0.68" stop-color="#FF6690"/>
<stop offset="1" stop-color="#FF5481"/>
</linearGradient>
<linearGradient id="paint9_linear_1079_3913" x1="78.4761" y1="79.5388" x2="77.3637" y2="79.4322" gradientUnits="userSpaceOnUse">
<stop stop-color="#700005"/>
<stop offset="0.566666" stop-color="#B5070E" stop-opacity="0.9855"/>
<stop offset="1" stop-color="#FF0F18" stop-opacity="0.97"/>
</linearGradient>
<linearGradient id="paint10_linear_1079_3913" x1="77.9371" y1="75.6277" x2="71.1544" y2="70.6174" gradientUnits="userSpaceOnUse">
<stop stop-color="#700005"/>
<stop offset="0.566666" stop-color="#B5070E" stop-opacity="0.9855"/>
<stop offset="1" stop-color="#FF0F18" stop-opacity="0.97"/>
</linearGradient>
<linearGradient id="paint11_linear_1079_3913" x1="81.0195" y1="74.3295" x2="82.8294" y2="74.3295" gradientUnits="userSpaceOnUse">
<stop stop-color="#FF9ABB"/>
<stop offset="0.05" stop-color="#FF96B7"/>
<stop offset="0.68" stop-color="#FF6690"/>
<stop offset="1" stop-color="#FF5481"/>
</linearGradient>
<linearGradient id="paint12_linear_1079_3913" x1="83.728" y1="76.4929" x2="82.6157" y2="76.3863" gradientUnits="userSpaceOnUse">
<stop stop-color="#700005"/>
<stop offset="0.566666" stop-color="#B5070E" stop-opacity="0.9855"/>
<stop offset="1" stop-color="#FF0F18" stop-opacity="0.97"/>
</linearGradient>
<linearGradient id="paint13_linear_1079_3913" x1="83.1891" y1="72.5818" x2="76.4063" y2="67.5715" gradientUnits="userSpaceOnUse">
<stop stop-color="#700005"/>
<stop offset="0.566666" stop-color="#B5070E" stop-opacity="0.9855"/>
<stop offset="1" stop-color="#FF0F18" stop-opacity="0.97"/>
</linearGradient>
<linearGradient id="paint14_linear_1079_3913" x1="86.2734" y1="71.2924" x2="88.0833" y2="71.2924" gradientUnits="userSpaceOnUse">
<stop stop-color="#FF9ABB"/>
<stop offset="0.05" stop-color="#FF96B7"/>
<stop offset="0.68" stop-color="#FF6690"/>
<stop offset="1" stop-color="#FF5481"/>
</linearGradient>
<linearGradient id="paint15_linear_1079_3913" x1="88.9804" y1="73.4558" x2="87.8586" y2="73.3473" gradientUnits="userSpaceOnUse">
<stop stop-color="#700005"/>
<stop offset="0.566666" stop-color="#B5070E" stop-opacity="0.9855"/>
<stop offset="1" stop-color="#FF0F18" stop-opacity="0.97"/>
</linearGradient>
<linearGradient id="paint16_linear_1079_3913" x1="88.443" y1="69.5359" x2="81.668" y2="64.5232" gradientUnits="userSpaceOnUse">
<stop stop-color="#700005"/>
<stop offset="0.566666" stop-color="#B5070E" stop-opacity="0.9855"/>
<stop offset="1" stop-color="#FF0F18" stop-opacity="0.97"/>
</linearGradient>
<linearGradient id="paint17_linear_1079_3913" x1="91.5166" y1="68.2465" x2="93.3353" y2="68.2465" gradientUnits="userSpaceOnUse">
<stop stop-color="#FF9ABB"/>
<stop offset="0.05" stop-color="#FF96B7"/>
<stop offset="0.68" stop-color="#FF6690"/>
<stop offset="1" stop-color="#FF5481"/>
</linearGradient>
<linearGradient id="paint18_linear_1079_3913" x1="94.2324" y1="70.4099" x2="93.1105" y2="70.3014" gradientUnits="userSpaceOnUse">
<stop stop-color="#700005"/>
<stop offset="0.566666" stop-color="#B5070E" stop-opacity="0.9855"/>
<stop offset="1" stop-color="#FF0F18" stop-opacity="0.97"/>
</linearGradient>
<linearGradient id="paint19_linear_1079_3913" x1="93.6949" y1="66.4988" x2="86.9122" y2="61.4885" gradientUnits="userSpaceOnUse">
<stop stop-color="#700005"/>
<stop offset="0.566666" stop-color="#B5070E" stop-opacity="0.9855"/>
<stop offset="1" stop-color="#FF0F18" stop-opacity="0.97"/>
</linearGradient>
<linearGradient id="paint20_linear_1079_3913" x1="96.7705" y1="65.2094" x2="98.5892" y2="65.2094" gradientUnits="userSpaceOnUse">
<stop stop-color="#FF9ABB"/>
<stop offset="0.05" stop-color="#FF96B7"/>
<stop offset="0.68" stop-color="#FF6690"/>
<stop offset="1" stop-color="#FF5481"/>
</linearGradient>
<linearGradient id="paint21_linear_1079_3913" x1="99.4863" y1="67.3728" x2="98.3645" y2="67.2643" gradientUnits="userSpaceOnUse">
<stop stop-color="#700005"/>
<stop offset="0.566666" stop-color="#B5070E" stop-opacity="0.9855"/>
<stop offset="1" stop-color="#FF0F18" stop-opacity="0.97"/>
</linearGradient>
<linearGradient id="paint22_linear_1079_3913" x1="98.9489" y1="63.4529" x2="92.1739" y2="58.4402" gradientUnits="userSpaceOnUse">
<stop stop-color="#700005"/>
<stop offset="0.566666" stop-color="#B5070E" stop-opacity="0.9855"/>
<stop offset="1" stop-color="#FF0F18" stop-opacity="0.97"/>
</linearGradient>
<linearGradient id="paint23_linear_1079_3913" x1="38.1209" y1="78.4967" x2="34.6159" y2="72.4666" gradientUnits="userSpaceOnUse">
<stop stop-color="#D4D4DC"/>
<stop offset="0.63" stop-color="#ADACBB"/>
<stop offset="1" stop-color="#9B9AAC"/>
</linearGradient>
<linearGradient id="paint24_linear_1079_3913" x1="32.867" y1="75.4595" x2="29.362" y2="69.4206" gradientUnits="userSpaceOnUse">
<stop stop-color="#D4D4DC"/>
<stop offset="0.63" stop-color="#ADACBB"/>
<stop offset="1" stop-color="#9B9AAC"/>
</linearGradient>
<linearGradient id="paint25_linear_1079_3913" x1="27.6151" y1="72.4135" x2="24.11" y2="66.3835" gradientUnits="userSpaceOnUse">
<stop stop-color="#D4D4DC"/>
<stop offset="0.63" stop-color="#ADACBB"/>
<stop offset="1" stop-color="#9B9AAC"/>
</linearGradient>
<linearGradient id="paint26_linear_1079_3913" x1="22.3612" y1="69.3765" x2="18.8561" y2="63.3376" gradientUnits="userSpaceOnUse">
<stop stop-color="#D4D4DC"/>
<stop offset="0.63" stop-color="#ADACBB"/>
<stop offset="1" stop-color="#9B9AAC"/>
</linearGradient>
<linearGradient id="paint27_linear_1079_3913" x1="17.118" y1="66.3305" x2="13.6042" y2="60.3005" gradientUnits="userSpaceOnUse">
<stop stop-color="#D4D4DC"/>
<stop offset="0.63" stop-color="#ADACBB"/>
<stop offset="1" stop-color="#9B9AAC"/>
</linearGradient>
<linearGradient id="paint28_linear_1079_3913" x1="11.8641" y1="63.2846" x2="8.35025" y2="57.2546" gradientUnits="userSpaceOnUse">
<stop stop-color="#D4D4DC"/>
<stop offset="0.63" stop-color="#ADACBB"/>
<stop offset="1" stop-color="#9B9AAC"/>
</linearGradient>
<linearGradient id="paint29_linear_1079_3913" x1="34.6068" y1="-0.000179623" x2="32.7969" y2="-0.000179623" gradientUnits="userSpaceOnUse">
<stop stop-color="#FF9ABB"/>
<stop offset="0.05" stop-color="#FF96B7"/>
<stop offset="0.68" stop-color="#FF6690"/>
<stop offset="1" stop-color="#FF5481"/>
</linearGradient>
<linearGradient id="paint30_linear_1079_3913" x1="32.7944" y1="82.5759" x2="31.6821" y2="82.4693" gradientUnits="userSpaceOnUse">
<stop stop-color="#700005"/>
<stop offset="0.566666" stop-color="#B5070E" stop-opacity="0.9855"/>
<stop offset="1" stop-color="#FF0F18" stop-opacity="0.97"/>
</linearGradient>
<linearGradient id="paint31_linear_1079_3913" x1="40.714" y1="78.6648" x2="33.9331" y2="73.6606" gradientUnits="userSpaceOnUse">
<stop stop-color="#700005"/>
<stop offset="0.566666" stop-color="#B5070E" stop-opacity="0.9855"/>
<stop offset="1" stop-color="#FF0F18" stop-opacity="0.97"/>
</linearGradient>
<linearGradient id="paint32_linear_1079_3913" x1="29.3529" y1="77.3754" x2="27.543" y2="77.3754" gradientUnits="userSpaceOnUse">
<stop stop-color="#FF9ABB"/>
<stop offset="0.05" stop-color="#FF96B7"/>
<stop offset="0.68" stop-color="#FF6690"/>
<stop offset="1" stop-color="#FF5481"/>
</linearGradient>
<linearGradient id="paint33_linear_1079_3913" x1="27.5405" y1="79.5388" x2="26.4282" y2="79.4322" gradientUnits="userSpaceOnUse">
<stop stop-color="#700005"/>
<stop offset="0.566666" stop-color="#B5070E" stop-opacity="0.9855"/>
<stop offset="1" stop-color="#FF0F18" stop-opacity="0.97"/>
</linearGradient>
<linearGradient id="paint34_linear_1079_3913" x1="35.4601" y1="75.6277" x2="28.6792" y2="70.6235" gradientUnits="userSpaceOnUse">
<stop stop-color="#700005"/>
<stop offset="0.566666" stop-color="#B5070E" stop-opacity="0.9855"/>
<stop offset="1" stop-color="#FF0F18" stop-opacity="0.97"/>
</linearGradient>
<linearGradient id="paint35_linear_1079_3913" x1="24.1009" y1="74.3295" x2="22.291" y2="74.3295" gradientUnits="userSpaceOnUse">
<stop stop-color="#FF9ABB"/>
<stop offset="0.05" stop-color="#FF96B7"/>
<stop offset="0.68" stop-color="#FF6690"/>
<stop offset="1" stop-color="#FF5481"/>
</linearGradient>
<linearGradient id="paint36_linear_1079_3913" x1="22.2886" y1="76.4929" x2="21.1762" y2="76.3863" gradientUnits="userSpaceOnUse">
<stop stop-color="#700005"/>
<stop offset="0.566666" stop-color="#B5070E" stop-opacity="0.9855"/>
<stop offset="1" stop-color="#FF0F18" stop-opacity="0.97"/>
</linearGradient>
<linearGradient id="paint37_linear_1079_3913" x1="30.2164" y1="72.5818" x2="23.4337" y2="67.5715" gradientUnits="userSpaceOnUse">
<stop stop-color="#700005"/>
<stop offset="0.566666" stop-color="#B5070E" stop-opacity="0.9855"/>
<stop offset="1" stop-color="#FF0F18" stop-opacity="0.97"/>
</linearGradient>
<linearGradient id="paint38_linear_1079_3913" x1="18.8558" y1="71.2924" x2="17.0371" y2="71.2924" gradientUnits="userSpaceOnUse">
<stop stop-color="#FF9ABB"/>
<stop offset="0.05" stop-color="#FF96B7"/>
<stop offset="0.68" stop-color="#FF6690"/>
<stop offset="1" stop-color="#FF5481"/>
</linearGradient>
<linearGradient id="paint39_linear_1079_3913" x1="17.0347" y1="73.4558" x2="15.9223" y2="73.3491" gradientUnits="userSpaceOnUse">
<stop stop-color="#700005"/>
<stop offset="0.566666" stop-color="#B5070E" stop-opacity="0.9855"/>
<stop offset="1" stop-color="#FF0F18" stop-opacity="0.97"/>
</linearGradient>
<linearGradient id="paint40_linear_1079_3913" x1="24.9625" y1="69.5359" x2="18.1875" y2="64.5232" gradientUnits="userSpaceOnUse">
<stop stop-color="#700005"/>
<stop offset="0.566666" stop-color="#B5070E" stop-opacity="0.9855"/>
<stop offset="1" stop-color="#FF0F18" stop-opacity="0.97"/>
</linearGradient>
<linearGradient id="paint41_linear_1079_3913" x1="13.6039" y1="68.2465" x2="11.7852" y2="68.2465" gradientUnits="userSpaceOnUse">
<stop stop-color="#FF9ABB"/>
<stop offset="0.05" stop-color="#FF96B7"/>
<stop offset="0.68" stop-color="#FF6690"/>
<stop offset="1" stop-color="#FF5481"/>
</linearGradient>
<linearGradient id="paint42_linear_1079_3913" x1="11.791" y1="70.4099" x2="10.6691" y2="70.3014" gradientUnits="userSpaceOnUse">
<stop stop-color="#700005"/>
<stop offset="0.566666" stop-color="#B5070E" stop-opacity="0.9855"/>
<stop offset="1" stop-color="#FF0F18" stop-opacity="0.97"/>
</linearGradient>
<linearGradient id="paint43_linear_1079_3913" x1="19.7106" y1="66.4988" x2="12.9278" y2="61.4885" gradientUnits="userSpaceOnUse">
<stop stop-color="#700005"/>
<stop offset="0.566666" stop-color="#B5070E" stop-opacity="0.9855"/>
<stop offset="1" stop-color="#FF0F18" stop-opacity="0.97"/>
</linearGradient>
<linearGradient id="paint44_linear_1079_3913" x1="8.3509" y1="65.2094" x2="6.53219" y2="65.2094" gradientUnits="userSpaceOnUse">
<stop stop-color="#FF9ABB"/>
<stop offset="0.05" stop-color="#FF96B7"/>
<stop offset="0.68" stop-color="#FF6690"/>
<stop offset="1" stop-color="#FF5481"/>
</linearGradient>
<linearGradient id="paint45_linear_1079_3913" x1="6.53707" y1="67.3728" x2="5.41524" y2="67.2643" gradientUnits="userSpaceOnUse">
<stop stop-color="#700005"/>
<stop offset="0.566666" stop-color="#B5070E" stop-opacity="0.9855"/>
<stop offset="1" stop-color="#FF0F18" stop-opacity="0.97"/>
</linearGradient>
<linearGradient id="paint46_linear_1079_3913" x1="14.4567" y1="63.4529" x2="7.68168" y2="58.4402" gradientUnits="userSpaceOnUse">
<stop stop-color="#700005"/>
<stop offset="0.566666" stop-color="#B5070E" stop-opacity="0.9855"/>
<stop offset="1" stop-color="#FF0F18" stop-opacity="0.97"/>
</linearGradient>
<linearGradient id="paint47_linear_1079_3913" x1="75.0427" y1="34.8825" x2="58.4181" y2="50.8095" gradientUnits="userSpaceOnUse">
<stop stop-color="white"/>
<stop offset="0.13" stop-color="#FBFBFB"/>
<stop offset="1" stop-color="#E8E8EA"/>
</linearGradient>
<linearGradient id="paint48_linear_1079_3913" x1="45.8842" y1="48.109" x2="37.4652" y2="45.8787" gradientUnits="userSpaceOnUse">
<stop stop-color="#700005"/>
<stop offset="0.566666" stop-color="#B5070E" stop-opacity="0.9855"/>
<stop offset="1" stop-color="#FF0F18" stop-opacity="0.97"/>
</linearGradient>
<linearGradient id="paint49_linear_1079_3913" x1="49.4569" y1="32.8445" x2="39.8278" y2="30.991" gradientUnits="userSpaceOnUse">
<stop stop-color="#700005"/>
<stop offset="0.566666" stop-color="#B5070E" stop-opacity="0.9855"/>
<stop offset="1" stop-color="#FF0F18" stop-opacity="0.97"/>
</linearGradient>
<linearGradient id="paint50_linear_1079_3913" x1="53.7585" y1="9.14728" x2="42.4077" y2="0.811181" gradientUnits="userSpaceOnUse">
<stop stop-color="#700005"/>
<stop offset="0.566666" stop-color="#B5070E" stop-opacity="0.9855"/>
<stop offset="1" stop-color="#FF0F18" stop-opacity="0.97"/>
</linearGradient>
<linearGradient id="paint51_linear_1079_3913" x1="40.4703" y1="27.1927" x2="47.2596" y2="32.8342" gradientUnits="userSpaceOnUse">
<stop stop-color="white"/>
<stop offset="0.13" stop-color="#FBFBFB"/>
<stop offset="1" stop-color="#E8E8EA"/>
</linearGradient>
<linearGradient id="paint52_linear_1079_3913" x1="51.6476" y1="30.9714" x2="-66.4278" y2="30.9714" gradientUnits="userSpaceOnUse">
<stop stop-color="#E4E4EA"/>
<stop offset="0.63" stop-color="#BCBCC9"/>
<stop offset="1" stop-color="#AAAABA"/>
</linearGradient>
<linearGradient id="paint53_linear_1079_3913" x1="61.2884" y1="58.1854" x2="46.1327" y2="56.492" gradientUnits="userSpaceOnUse">
<stop stop-color="#700005"/>
<stop offset="0.566666" stop-color="#B5070E" stop-opacity="0.9855"/>
<stop offset="1" stop-color="#FF0F18" stop-opacity="0.97"/>
</linearGradient>
<linearGradient id="paint54_linear_1079_3913" x1="73.3712" y1="64.8244" x2="66.1328" y2="64.4073" gradientUnits="userSpaceOnUse">
<stop stop-color="#700005"/>
<stop offset="0.566666" stop-color="#B5070E" stop-opacity="0.9855"/>
<stop offset="1" stop-color="#FF0F18" stop-opacity="0.97"/>
</linearGradient>
<linearGradient id="paint55_linear_1079_3913" x1="72.9456" y1="20.1302" x2="63.4253" y2="13.1406" gradientUnits="userSpaceOnUse">
<stop stop-color="#700005"/>
<stop offset="0.566666" stop-color="#B5070E" stop-opacity="0.9855"/>
<stop offset="1" stop-color="#FF0F18" stop-opacity="0.97"/>
</linearGradient>
<linearGradient id="paint56_linear_1079_3913" x1="57.6599" y1="25.4799" x2="16.6592" y2="47.2603" gradientUnits="userSpaceOnUse">
<stop stop-color="white"/>
<stop offset="0.13" stop-color="#FBFBFB"/>
<stop offset="1" stop-color="#E8E8EA"/>
</linearGradient>
<linearGradient id="paint57_linear_1079_3913" x1="55.3645" y1="21.1626" x2="14.3638" y2="42.943" gradientUnits="userSpaceOnUse">
<stop stop-color="white"/>
<stop offset="0.13" stop-color="#FBFBFB"/>
<stop offset="1" stop-color="#E8E8EA"/>
</linearGradient>
<linearGradient id="paint58_linear_1079_3913" x1="65.0056" y1="11.9541" x2="61.7831" y2="93.5585" gradientUnits="userSpaceOnUse">
<stop stop-color="#E4E4EA"/>
<stop offset="0.24" stop-color="#DDDDE4"/>
<stop offset="0.56" stop-color="#CCCCD6"/>
<stop offset="0.94" stop-color="#AFAFBE"/>
<stop offset="1" stop-color="#AAAABA"/>
</linearGradient>
<linearGradient id="paint59_linear_1079_3913" x1="78.1787" y1="5.05884" x2="5.4473" y2="65.5532" gradientUnits="userSpaceOnUse">
<stop stop-color="#E4E4EA"/>
<stop offset="0.24" stop-color="#DDDDE4"/>
<stop offset="0.56" stop-color="#CCCCD6"/>
<stop offset="0.94" stop-color="#AFAFBE"/>
<stop offset="1" stop-color="#AAAABA"/>
</linearGradient>
<clipPath id="clip0_1079_3913">
<rect width="105" height="94" fill="white"/>
</clipPath>
</defs>
</svg>
