<svg width="116" height="99" viewBox="0 0 116 99" fill="none" xmlns="http://www.w3.org/2000/svg">
<circle cx="35" cy="35" r="35" fill="#DEE2E6"/>
<circle cx="81" cy="64" r="35" fill="#EFEFEF"/>
<g clip-path="url(#clip0_1364_371)">
<path d="M71.9412 73.9672C71.7968 73.9672 71.6523 73.9758 71.5107 73.9902C71.3373 72.7233 70.2481 71.7472 68.9305 71.7472C68.4191 71.7472 67.9424 71.8969 67.5378 72.1503C67.09 71.3384 66.2232 70.7855 65.2264 70.7855C64.3162 70.7855 63.5159 71.2433 63.042 71.9401C62.6375 71.776 62.1954 71.6839 61.7331 71.6839C59.8695 71.6839 58.3526 73.1466 58.2601 74.9807C56.3907 75.4183 54.998 77.0883 54.998 79.0837C54.998 81.413 56.8935 83.3019 59.231 83.3019C60.4156 83.3019 61.4846 82.8153 62.2532 82.035C62.9871 83.2932 64.3509 84.1426 65.914 84.1426C67.587 84.1426 69.0288 83.1723 69.7164 81.7701C70.3636 82.1674 71.1206 82.4006 71.9383 82.4006C74.2758 82.4006 76.1712 80.5118 76.1712 78.1825C76.1712 75.8531 74.2758 73.9643 71.9383 73.9643L71.9412 73.9672Z" fill="white"/>
<path d="M105.934 72.9565C95.3357 80.9581 80.834 75.568 76.1533 66.2679C71.5997 57.9957 73.4315 45.8709 82.4723 40C81.2039 42.1077 79.7361 44.8084 79.3836 46.4842C79.3258 46.7376 79.2767 46.9852 79.2391 47.2242C76.9247 56.9447 83.917 71.7789 97.6356 73.6447C98.2164 73.7282 99.1005 73.8088 99.7998 73.8203C101.441 73.8808 103.822 73.4978 105.934 72.9536V72.9565Z" fill="url(#paint0_linear_1364_371)"/>
<path d="M105.933 72.9565C104.084 75.8041 101.57 78.1939 98.8658 79.7977C92.7086 83.5552 84.8351 84.0073 78.0711 80.7508C77.996 80.7133 77.918 80.6759 77.8429 80.6385C77.5886 80.5118 77.3401 80.3822 77.0945 80.2526C77.0136 80.2095 76.9356 80.1634 76.8576 80.1202C76.5484 79.9446 76.2451 79.766 75.9446 79.5789C75.8781 79.5357 75.8116 79.4954 75.751 79.4522C75.699 79.4205 75.647 79.3831 75.5949 79.3514C75.5227 79.3025 75.4476 79.2564 75.3782 79.2075C75.1615 79.0635 74.9477 78.9138 74.7397 78.764C74.7224 78.7496 74.705 78.7353 74.6848 78.7237C74.6155 78.6748 74.5519 78.6258 74.4883 78.5769C74.4248 78.5279 74.3554 78.4819 74.2947 78.43C73.9885 78.1968 73.6909 77.9578 73.4048 77.7102C73.3441 77.6613 73.2835 77.6123 73.2228 77.5547C69.0361 73.9902 66.349 68.4216 65.9214 63.9644C65.9214 63.9385 65.9156 63.9155 65.9127 63.8924C65.0286 57.152 67.4267 49.7982 73.2199 44.7566C73.2286 44.7479 73.2343 44.7422 73.2459 44.7335C74.7137 43.4811 76.2826 42.3898 78.0942 41.5462C79.302 40.9444 81.0472 40.3512 82.018 40.1094C82.1711 40.0662 82.3271 40.0288 82.4803 39.9913C70.6368 48.2924 70.9922 66.2823 83.4713 73.7512C83.5118 73.78 83.5522 73.803 83.5956 73.826C83.792 73.947 83.9972 74.065 84.2081 74.1831C92.0209 78.2515 100.108 77.1545 105.942 72.9478L105.933 72.9565Z" fill="url(#paint1_linear_1364_371)"/>
<path d="M103.543 82.2221C103.543 80.5751 102.203 79.2391 100.55 79.2391C100.512 79.2391 100.475 79.2391 100.437 79.242C100.46 79.075 100.475 78.908 100.475 78.7353C100.475 76.7457 98.8568 75.1333 96.8603 75.1333C96.216 75.1333 95.6121 75.3031 95.0891 75.5968C94.4274 74.7503 93.3959 74.2032 92.2344 74.2032C90.2379 74.2032 88.6198 75.8157 88.6198 77.8053C88.6198 77.8369 88.6198 77.8657 88.6198 77.8945C88.1807 77.6181 87.6606 77.454 87.1 77.454C85.534 77.454 84.2627 78.7209 84.2627 80.2815C84.2627 80.9063 84.4678 81.4821 84.8117 81.9515C84.5487 81.8132 84.2482 81.7355 83.9275 81.7355C82.8758 81.7355 82.0234 82.5849 82.0234 83.633C82.0234 84.681 82.8758 85.5304 83.9275 85.5304C84.4649 85.5304 84.9475 85.3087 85.2942 84.9517C85.1815 85.2339 85.1179 85.5391 85.1179 85.8587C85.1179 87.2062 86.2159 88.3003 87.5681 88.3003C88.3338 88.3003 89.0157 87.9519 89.4635 87.4049C90.2408 88.3752 91.437 88.9971 92.7776 88.9971C94.3003 88.9971 95.6352 88.1967 96.3835 86.9931C96.8718 87.6438 97.652 88.0671 98.5332 88.0671C100.015 88.0671 101.215 86.8693 101.215 85.3951C101.215 85.3058 101.209 85.2166 101.2 85.1302C102.541 84.8365 103.546 83.6445 103.546 82.2163L103.543 82.2221Z" fill="white"/>
<path d="M105.046 66.1008C105.063 66.0375 105.078 65.9713 105.089 65.9022C105.202 65.0758 104.621 64.3128 103.792 64.2005C103.33 64.1371 102.888 64.2898 102.567 64.5806C102.411 64.212 102.073 63.9356 101.645 63.878C101.125 63.8089 100.637 64.0882 100.426 64.5403C100.368 64.5259 100.31 64.5115 100.253 64.5028C99.6516 64.4222 99.0882 64.7447 98.8397 65.2601C97.8545 65.1795 96.9674 65.8791 96.8316 66.8667C96.6929 67.8889 97.4095 68.8275 98.4352 68.9657C98.7242 69.0061 99.0044 68.9744 99.2616 68.8909C99.458 69.5819 100.05 70.129 100.81 70.2326C101.689 70.3507 102.506 69.8411 102.81 69.0492C103.087 69.3257 103.454 69.5157 103.873 69.5733C104.899 69.7115 105.841 68.9974 105.979 67.9753C106.086 67.195 105.69 66.4636 105.043 66.1008H105.046Z" fill="white"/>
</g>
<g clip-path="url(#clip1_1364_371)">
<path d="M38.5199 46.0189C38.5199 44.3719 37.1793 43.0359 35.5265 43.0359C35.489 43.0359 35.4514 43.0359 35.4139 43.0388C35.437 42.8718 35.4514 42.7048 35.4514 42.532C35.4514 40.5424 33.8334 38.93 31.8368 38.93C31.1925 38.93 30.5886 39.0999 30.0657 39.3936C29.404 38.5471 28.3725 38 27.211 38C25.2144 38 23.5964 39.6124 23.5964 41.602C23.5964 41.6337 23.5964 41.6625 23.5964 41.6913C23.1572 41.4149 22.6371 41.2507 22.0766 41.2507C20.5106 41.2507 19.2392 42.5176 19.2392 44.0782C19.2392 44.703 19.4444 45.2789 19.7882 45.7482C19.5253 45.61 19.2248 45.5323 18.9041 45.5323C17.8524 45.5323 17 46.3817 17 47.4297C17 48.4778 17.8524 49.3272 18.9041 49.3272C19.4415 49.3272 19.924 49.1055 20.2707 48.7484C20.1581 49.0306 20.0945 49.3358 20.0945 49.6554C20.0945 51.0029 21.1925 52.0971 22.5447 52.0971C23.3104 52.0971 23.9922 51.7487 24.4401 51.2016C25.2173 52.1719 26.4135 52.7939 27.7542 52.7939C29.2769 52.7939 30.6117 51.9934 31.3601 50.7899C31.8484 51.4406 32.6285 51.8639 33.5098 51.8639C34.992 51.8639 36.1911 50.6661 36.1911 49.1919C36.1911 49.1026 36.1853 49.0133 36.1766 48.927C37.5173 48.6333 38.5228 47.4412 38.5228 46.0131L38.5199 46.0189Z" fill="white"/>
<path d="M50.9974 25.0465C50.9974 23.5993 49.8139 22.4253 48.3549 22.4253C48.3218 22.4253 48.2886 22.4253 48.2555 22.4278C48.2759 22.281 48.2886 22.1343 48.2886 21.9825C48.2886 20.2341 46.8602 18.8172 45.0977 18.8172C44.5289 18.8172 43.9958 18.9665 43.5342 19.2246C42.9501 18.4807 42.0395 18 41.0141 18C39.2516 18 37.8232 19.4169 37.8232 21.1652C37.8232 21.1931 37.8232 21.2184 37.8232 21.2437C37.4355 21.0008 36.9764 20.8566 36.4815 20.8566C35.0991 20.8566 33.9768 21.9698 33.9768 23.3412C33.9768 23.8902 34.1579 24.3963 34.4614 24.8087C34.2293 24.6872 33.964 24.6189 33.6809 24.6189C32.7525 24.6189 32 25.3653 32 26.2863C32 27.2073 32.7525 27.9537 33.6809 27.9537C34.1553 27.9537 34.5813 27.7589 34.8874 27.4451C34.7879 27.6931 34.7318 27.9613 34.7318 28.2421C34.7318 29.4262 35.701 30.3877 36.8948 30.3877C37.5707 30.3877 38.1726 30.0815 38.568 29.6008C39.2541 30.4535 40.3101 31 41.4936 31C42.8378 31 44.0162 30.2966 44.6769 29.239C45.1079 29.8108 45.7966 30.1828 46.5746 30.1828C47.8831 30.1828 48.9416 29.1302 48.9416 27.8348C48.9416 27.7563 48.9365 27.6779 48.9288 27.602C50.1124 27.3439 51 26.2964 51 25.0415L50.9974 25.0465Z" fill="white"/>
<path d="M50.5766 44.3307L45.9363 44.4689L46.4092 49.0343L42.0007 47.5953L40.8653 52.045L37.2205 49.2022L34.6136 53L32.1724 49.0966L28.4092 51.7841L27.4654 47.2907L22.999 48.5437L23.6676 44.002L19.0369 43.6693L21.2361 39.6277L17 37.7499L20.4653 34.6954L17.1342 31.4982L21.4471 29.7998L19.4234 25.6693L24.0637 25.5311L23.5908 20.9657L27.9993 22.4047L29.1347 17.955L32.7795 20.7978L35.3864 17L37.8276 20.9034L41.5908 18.2164L42.5346 22.7098L47.001 21.4568L46.3324 25.998L50.9631 26.3307L48.7639 30.3723L53 32.2506L49.5347 35.3051L52.8658 38.5018L48.5529 40.2007L50.5766 44.3307Z" fill="#FE646B"/>
<path d="M35.0009 48.1718C42.3601 48.1718 48.326 42.2746 48.326 35C48.326 27.7255 42.3601 21.8282 35.0009 21.8282C27.6416 21.8282 21.6758 27.7255 21.6758 35C21.6758 42.2746 27.6416 48.1718 35.0009 48.1718Z" fill="url(#paint2_linear_1364_371)"/>
</g>
<defs>
<linearGradient id="paint0_linear_1364_371" x1="103.886" y1="76.8493" x2="72.6154" y2="65.2411" gradientUnits="userSpaceOnUse">
<stop stop-color="#700005"/>
<stop offset="0.566666" stop-color="#B5070E" stop-opacity="0.9855"/>
<stop offset="1" stop-color="#FF0F18" stop-opacity="0.97"/>
</linearGradient>
<linearGradient id="paint1_linear_1364_371" x1="103.383" y1="82.9339" x2="65.0069" y2="67.66" gradientUnits="userSpaceOnUse">
<stop stop-color="#700005"/>
<stop offset="0.566666" stop-color="#B5070E" stop-opacity="0.9855"/>
<stop offset="1" stop-color="#FF0F18" stop-opacity="0.97"/>
</linearGradient>
<linearGradient id="paint2_linear_1364_371" x1="46.6297" y1="48.1737" x2="21.7622" y2="37.4807" gradientUnits="userSpaceOnUse">
<stop stop-color="#700005"/>
<stop offset="0.566666" stop-color="#B5070E" stop-opacity="0.9855"/>
<stop offset="1" stop-color="#FF0F18" stop-opacity="0.97"/>
</linearGradient>
<clipPath id="clip0_1364_371">
<rect width="51" height="49" fill="white" transform="translate(55 40)"/>
</clipPath>
<clipPath id="clip1_1364_371">
<rect width="36" height="36" fill="white" transform="translate(17 17)"/>
</clipPath>
</defs>
</svg>
