<svg width="104" height="103" viewBox="0 0 104 103" fill="none" xmlns="http://www.w3.org/2000/svg">
<g style="mix-blend-mode:multiply" opacity="0.05">
<path d="M84.7456 49.7376C80.9299 47.5369 74.6904 47.5369 70.8747 49.7376L11.8618 83.8102C8.04607 86.0134 8.04607 89.6162 11.8618 91.8194L27.439 100.815C31.2522 103.018 37.4942 103.018 41.3099 100.815L100.325 66.7422C104.141 64.5415 104.141 60.9362 100.325 58.733L84.7482 49.7376H84.7456Z" fill="black"/>
</g>
<path d="M96.5234 63.6321L96.2901 64.4358L95.4712 64.7578L91.1484 61.7965L94.6092 60.8127L96.3383 62.0601L96.5234 63.6321Z" fill="#343433"/>
<path d="M52.9159 91.9926L52.1807 92.7988L50.7837 92.3957L46.7246 87.1146L51.1437 85.8114L53.063 88.4659L52.9159 91.9926Z" fill="#343433"/>
<path d="M50.4785 88.509L46.891 86.4579C46.0112 86.0802 44.8627 86.2069 43.6052 86.9321C40.8442 88.5268 38.6055 92.4008 38.6055 95.5903C38.6055 97.185 39.1658 98.3031 40.0709 98.8254L43.3212 100.694C43.3846 100.735 43.4505 100.773 43.519 100.808L43.5494 100.823C44.4419 101.264 45.636 101.16 46.9493 100.402C49.7103 98.8077 51.949 94.9311 51.949 91.7442C51.949 90.1494 51.3862 89.0288 50.4811 88.5065L50.4785 88.509Z" fill="#3B4447"/>
<path d="M51.9442 91.7468C51.9442 94.9337 49.7055 98.8103 46.9445 100.405C44.1835 101.997 41.9473 100.707 41.9473 97.5198C41.9473 94.3328 44.186 90.4563 46.9445 88.8615C49.7055 87.2668 51.9442 88.5598 51.9442 91.7468Z" fill="#555E61"/>
<path d="M51.5525 91.9724C51.5525 94.9109 49.4888 98.4858 46.9433 99.9537C44.3978 101.424 42.334 100.233 42.334 97.2916C42.334 94.3506 44.3978 90.7783 46.9433 89.3103C49.4888 87.8398 51.5525 89.0314 51.5525 91.9699V91.9724Z" fill="#3B4447"/>
<path d="M50.8256 92.5402C50.8256 94.964 49.1244 97.9101 47.0251 99.122C44.9258 100.334 43.2246 99.3527 43.2246 96.9289C43.2246 94.5051 44.9258 91.559 47.0251 90.3471C49.1244 89.1352 50.8256 90.119 50.8256 92.5402Z" fill="#CDCCCB"/>
<path d="M50.6558 92.6391C50.6558 94.9539 49.0306 97.7681 47.0252 98.9268C45.0197 100.083 43.3945 99.1474 43.3945 96.83C43.3945 94.5127 45.0197 91.701 47.0252 90.5424C49.0306 89.3837 50.6558 90.3218 50.6558 92.6366V92.6391Z" fill="url(#paint0_linear_1364_369)"/>
<path d="M47.0252 90.5449C45.0197 91.701 43.3945 94.5153 43.3945 96.8326C43.3945 97.2965 43.4604 97.7047 43.5821 98.0495C44.2489 98.5591 45.2327 98.5566 46.3355 97.9202C48.3385 96.7616 49.9636 93.9473 49.9636 91.6326C49.9636 91.1686 49.8977 90.7629 49.776 90.4156C49.1118 89.906 48.1255 89.9085 47.0252 90.5449Z" fill="url(#paint1_linear_1364_369)"/>
<path d="M43.4062 96.5894C43.9564 97.1725 44.8641 97.2384 45.8884 96.6451C47.5642 95.6766 48.9232 93.3238 48.9232 91.3894C48.9232 90.8493 48.8192 90.4006 48.6291 90.0532C48.1448 90.0558 47.6023 90.2155 47.0267 90.5476C45.0923 91.6632 43.5153 94.3253 43.4062 96.5919V96.5894Z" fill="#343433"/>
<path d="M48.3346 95.0172C48.867 94.9184 49.156 95.2708 49.156 95.2708C49.156 95.2708 50.16 94.4468 50.3958 93.1107C50.5099 92.4565 50.1296 91.8126 49.9623 91.6452C49.9623 91.6452 49.8989 93.7141 48.2078 93.5974C48.2078 93.5974 48.4157 91.9419 48.5602 91.5261C48.6971 91.1331 48.9481 90.3928 49.4577 90.2204C48.9608 89.9871 48.3346 89.9871 47.645 90.2457C47.645 90.6818 47.574 91.7213 46.9427 92.1675C46.3925 92.5554 45.7891 92.1523 45.4595 91.8557C45.0918 92.2715 44.7572 92.7354 44.4682 93.2273C44.747 93.2425 45.0462 93.3515 44.9879 93.7673C44.8966 94.3961 44.2425 95.3316 43.4642 95.9503C43.416 96.2469 43.3906 96.5435 43.3906 96.83C43.3906 97.5044 43.5301 98.0622 43.776 98.4831C43.8647 97.9304 44.0067 97.2281 44.2019 96.8503C44.5544 96.1632 45.4772 95.9097 45.4772 96.579C45.4772 97.2484 45.3327 98.8583 45.3327 98.8583C45.3327 98.8583 46.6055 98.947 47.3863 98.2625C48.0709 97.6616 47.3813 97.7377 47.1937 97.6667C46.8539 97.5425 46.4812 97.0506 46.7246 96.3635C46.968 95.6764 47.7996 95.1161 48.3346 95.0172Z" fill="#D0D2D4"/>
<path d="M46.3026 97.5578C45.9908 96.9924 46.0262 96.3129 45.504 95.9783C45.2885 95.8388 44.8727 96.0062 44.4746 96.4955C44.8904 96.1025 45.4811 96.0467 45.4811 96.5817C45.4811 97.251 45.3366 98.861 45.3366 98.861C45.3366 98.861 46.4471 98.9345 47.228 98.3869C46.9415 98.2753 46.5713 98.042 46.3026 97.5603V97.5578Z" fill="url(#paint2_linear_1364_369)"/>
<path d="M45.8777 93.0853C45.8194 92.8039 45.1678 92.8445 44.6633 92.9205C44.5974 93.022 44.534 93.1259 44.4706 93.2324C44.7495 93.2476 45.0487 93.3566 44.9903 93.7724C44.8991 94.4012 44.2449 95.3367 43.4666 95.9554C43.4641 95.9756 43.4615 95.9959 43.459 96.0162C45.1754 95.6993 45.9715 93.5316 45.8777 93.0853Z" fill="url(#paint3_linear_1364_369)"/>
<path d="M48.3382 95.0172C48.8706 94.9183 49.1596 95.2707 49.1596 95.2707C49.1596 95.2707 50.1636 94.4467 50.3994 93.1106C50.4096 93.0472 50.4146 92.9864 50.4172 92.923C49.9152 93.8763 48.901 94.6318 48.4472 94.8777C48.3331 94.9386 48.2292 95.007 48.1328 95.073C48.2038 95.0476 48.2723 95.0273 48.3382 95.0172Z" fill="url(#paint4_linear_1364_369)"/>
<path d="M48.209 93.5974C48.209 93.5974 48.2267 94.6394 48.4777 94.86C48.9442 94.5963 49.9254 93.856 50.4147 92.923C50.4401 92.3373 50.113 91.7973 49.9635 91.6451C49.9635 91.6451 49.9001 93.714 48.209 93.5974Z" fill="url(#paint5_linear_1364_369)"/>
<path d="M48.3559 90.0708C48.1302 90.0987 47.8944 90.157 47.646 90.2483C47.646 90.6844 47.575 91.7239 46.9437 92.1701C46.3935 92.558 45.7901 92.1549 45.4605 91.8582C45.4478 91.8734 45.4351 91.8912 45.4199 91.9064C45.7191 92.2056 46.2743 92.6493 46.9031 92.6366C47.8057 92.6188 48.5764 91.1002 48.3508 90.0708H48.3559Z" fill="url(#paint6_linear_1364_369)"/>
<path d="M48.0114 93.0651C48.0114 93.2984 47.8466 93.5823 47.6463 93.6989C47.446 93.8156 47.2812 93.7218 47.2812 93.4885C47.2812 93.2553 47.446 92.9713 47.6463 92.8547C47.8492 92.738 48.0114 92.8319 48.0114 93.0651Z" fill="url(#paint7_linear_1364_369)"/>
<path d="M47.2832 93.4455C47.3263 93.4531 47.3795 93.4429 47.4353 93.41C47.5874 93.3212 47.7117 93.1083 47.7117 92.9333C47.7117 92.8928 47.7041 92.8598 47.6939 92.8319C47.6787 92.837 47.6635 92.8446 47.6483 92.8522C47.4581 92.9612 47.3035 93.2198 47.2857 93.4455H47.2832Z" fill="#B7B9BB"/>
<path d="M46.8474 93.3465C46.8474 93.5797 46.6851 93.8637 46.4823 93.9803C46.2795 94.0969 46.1172 94.0031 46.1172 93.7699C46.1172 93.5366 46.282 93.2527 46.4823 93.136C46.6851 93.0194 46.8474 93.1132 46.8474 93.3465Z" fill="url(#paint8_linear_1364_369)"/>
<path d="M46.1191 93.7268C46.1622 93.7344 46.2129 93.7243 46.2713 93.6913C46.4234 93.6026 46.5476 93.3896 46.5476 93.2147C46.5476 93.1741 46.54 93.1412 46.5299 93.1133C46.5147 93.1209 46.4994 93.126 46.4842 93.1336C46.2941 93.2451 46.1394 93.5012 46.1217 93.7268H46.1191Z" fill="#B7B9BB"/>
<path d="M46.0857 94.746C46.0857 94.9793 45.9209 95.2632 45.7206 95.3798C45.5177 95.4965 45.3555 95.4027 45.3555 95.1694C45.3555 94.9362 45.5177 94.6522 45.7206 94.5356C45.9234 94.419 46.0857 94.5128 46.0857 94.746Z" fill="url(#paint9_linear_1364_369)"/>
<path d="M45.358 95.1264C45.4011 95.134 45.4543 95.1264 45.5101 95.0934C45.6622 95.0047 45.7865 94.7917 45.7865 94.6142C45.7865 94.5762 45.7789 94.5407 45.7662 94.5128C45.751 94.5204 45.7358 94.5255 45.718 94.5331C45.5279 94.6421 45.3732 94.9007 45.3555 95.1238L45.358 95.1264Z" fill="#B7B9BB"/>
<path d="M46.8474 95.5066C46.8474 95.7399 46.6851 96.0238 46.4823 96.1405C46.2795 96.2571 46.1172 96.1633 46.1172 95.93C46.1172 95.6968 46.282 95.4128 46.4823 95.2962C46.6851 95.1796 46.8474 95.2734 46.8474 95.5066Z" fill="url(#paint10_linear_1364_369)"/>
<path d="M46.1191 95.8896C46.1622 95.8997 46.2129 95.8896 46.2713 95.8566C46.4234 95.7679 46.5476 95.5549 46.5476 95.3774C46.5476 95.3368 46.54 95.3039 46.5299 95.276C46.5147 95.2836 46.4994 95.2887 46.4842 95.2963C46.2941 95.4053 46.1394 95.6639 46.1217 95.8896H46.1191Z" fill="#B7B9BB"/>
<path d="M47.9665 94.4469C47.9665 94.6802 47.8017 94.9642 47.6014 95.0808C47.3986 95.1974 47.2363 95.1036 47.2363 94.8703C47.2363 94.6371 47.4011 94.3531 47.6014 94.2365C47.8042 94.1199 47.9665 94.2137 47.9665 94.4469Z" fill="url(#paint11_linear_1364_369)"/>
<path d="M47.2126 94.2719C47.2126 94.5051 47.0478 94.7891 46.8475 94.9057C46.6447 95.0224 46.4824 94.9285 46.4824 94.6953C46.4824 94.462 46.6447 94.1781 46.8475 94.0615C47.0503 93.9448 47.2126 94.0386 47.2126 94.2719Z" fill="url(#paint12_linear_1364_369)"/>
<path d="M47.2383 94.8271C47.2814 94.8347 47.3346 94.8245 47.3904 94.7916C47.5425 94.7028 47.6668 94.4899 47.6668 94.3149C47.6668 94.2743 47.6591 94.2414 47.649 94.2135C47.6338 94.2211 47.6186 94.2262 47.6034 94.2338C47.4132 94.3428 47.2586 94.6014 47.2408 94.8271H47.2383Z" fill="#B7B9BB"/>
<path d="M94.5059 63.0336L90.9184 60.9825C90.0386 60.6047 88.8901 60.7315 87.63 61.4591C84.8715 63.0513 82.6328 66.9279 82.6328 70.1148C82.6328 71.7096 83.1931 72.8277 84.0957 73.3499L87.346 75.2185C87.4094 75.2591 87.4753 75.2971 87.5438 75.3326L87.5717 75.3478C88.4641 75.789 89.6583 75.685 90.9716 74.9269C93.7326 73.3322 95.9713 69.4556 95.9713 66.2687C95.9713 64.674 95.411 63.5533 94.5059 63.031V63.0336Z" fill="#3B4447"/>
<path d="M95.9715 66.2712C95.9715 69.4581 93.7353 73.3347 90.9718 74.9294C88.2133 76.5216 85.9746 75.2311 85.9746 72.0442C85.9746 68.8573 88.2133 64.9807 90.9718 63.386C93.7328 61.7912 95.9715 63.0843 95.9715 66.2712Z" fill="#555E61"/>
<path d="M95.5813 66.4969C95.5813 69.4354 93.5175 73.0103 90.972 74.4782C88.4265 75.9487 86.3652 74.7571 86.3652 71.8186C86.3652 68.8802 88.429 65.3053 90.972 63.8373C93.5175 62.3668 95.5813 63.5585 95.5813 66.4995V66.4969Z" fill="#3B4447"/>
<path d="M94.853 67.0673C94.853 69.4911 93.1517 72.4372 91.0525 73.6491C88.9532 74.861 87.252 73.8798 87.252 71.456C87.252 69.0322 88.9532 66.0861 91.0525 64.8742C93.1517 63.6623 94.853 64.6461 94.853 67.0673Z" fill="#CDCCCB"/>
<path d="M94.6826 67.1663C94.6826 69.481 93.0574 72.2953 91.0519 73.4539C89.0465 74.6101 87.4238 73.6745 87.4238 71.3572C87.4238 69.0399 89.049 66.2282 91.0519 65.0721C93.0574 63.9134 94.6826 64.854 94.6826 67.1663Z" fill="url(#paint13_linear_1364_369)"/>
<path d="M91.0519 65.0695C89.0465 66.2257 87.4238 69.0399 87.4238 71.3547C87.4238 71.8187 87.4898 72.2269 87.6114 72.5742C88.2757 73.0838 89.262 73.0813 90.3623 72.4449C92.3678 71.2862 93.9929 68.472 93.9929 66.1572C93.9929 65.6932 93.9245 65.2851 93.8053 64.9402C93.1385 64.4306 92.1548 64.4332 91.0519 65.0695Z" fill="url(#paint14_linear_1364_369)"/>
<path d="M87.4336 71.1138C87.9838 71.697 88.8889 71.7604 89.9157 71.1696C91.5916 70.2011 92.9505 67.8483 92.9505 65.9113C92.9505 65.3713 92.844 64.9225 92.6539 64.5726C92.1722 64.5777 91.6271 64.7349 91.0516 65.067C89.1171 66.1826 87.5401 68.8447 87.4336 71.1113V71.1138Z" fill="#343433"/>
<path d="M92.3627 69.5418C92.8951 69.4429 93.1842 69.7953 93.1842 69.7953C93.1842 69.7953 94.1882 68.9739 94.4239 67.6352C94.538 66.9811 94.1577 66.3371 93.9904 66.1698C93.9904 66.1698 93.927 68.2412 92.2359 68.122C92.2359 68.122 92.4438 66.4664 92.5909 66.0532C92.7278 65.6602 92.9788 64.9173 93.4884 64.7475C92.9915 64.5142 92.3652 64.5142 91.6756 64.7728C91.6756 65.2089 91.6021 66.2484 90.9733 66.6946C90.4232 67.0825 89.8197 66.6794 89.4927 66.3828C89.1251 66.7986 88.7904 67.26 88.5039 67.7544C88.7828 67.7696 89.082 67.8786 89.0211 68.2919C88.9298 68.9206 88.2757 69.8562 87.4974 70.4748C87.4492 70.774 87.4238 71.0681 87.4238 71.3546C87.4238 72.029 87.5633 72.5868 87.8092 73.0102C87.8979 72.4575 88.0399 71.7552 88.2351 71.3774C88.5876 70.6903 89.5104 70.4368 89.5104 71.1061C89.5104 71.7755 89.3659 73.3854 89.3659 73.3854C89.3659 73.3854 90.6387 73.4741 91.417 72.7896C92.1016 72.1887 91.4145 72.2648 91.2269 72.1938C90.8871 72.067 90.5144 71.5777 90.7578 70.8906C91.0012 70.2035 91.8353 69.6432 92.3678 69.5443L92.3627 69.5418Z" fill="#D0D2D4"/>
<path d="M90.3299 72.0822C90.0181 71.5168 90.0561 70.8373 89.5313 70.5027C89.3158 70.3632 88.9 70.5306 88.502 71.0199C88.9203 70.6269 89.5085 70.5711 89.5085 71.1061C89.5085 71.7754 89.364 73.3854 89.364 73.3854C89.364 73.3854 90.4745 73.4614 91.2579 72.9113C90.9689 72.7997 90.5987 72.5665 90.3325 72.0847L90.3299 72.0822Z" fill="url(#paint15_linear_1364_369)"/>
<path d="M89.9051 67.61C89.8467 67.3286 89.1952 67.3691 88.6906 67.4452C88.6247 67.5466 88.5613 67.6506 88.5005 67.757C88.7794 67.7723 89.0785 67.8813 89.0177 68.2945C88.9264 68.9233 88.2723 69.8589 87.4939 70.4775C87.4914 70.4978 87.4889 70.518 87.4863 70.5383C89.2028 70.2214 89.9989 68.0562 89.9051 67.61Z" fill="url(#paint16_linear_1364_369)"/>
<path d="M92.3655 69.5418C92.8979 69.443 93.187 69.7954 93.187 69.7954C93.187 69.7954 94.191 68.9739 94.4268 67.6352C94.4369 67.5719 94.442 67.511 94.4445 67.4476C93.9425 68.4009 92.9284 69.1565 92.4745 69.4024C92.363 69.4632 92.2565 69.5317 92.1602 69.5976C92.2311 69.5723 92.2996 69.5545 92.3655 69.5418Z" fill="url(#paint17_linear_1364_369)"/>
<path d="M92.2363 68.122C92.2363 68.122 92.2541 69.1641 92.5051 69.3846C92.9716 69.1235 93.9502 68.3806 94.4446 67.4476C94.4674 66.862 94.1429 66.3219 93.9933 66.1698C93.9933 66.1698 93.9299 68.2412 92.2389 68.122H92.2363Z" fill="url(#paint18_linear_1364_369)"/>
<path d="M92.384 64.5953C92.1584 64.6232 91.9226 64.6815 91.6766 64.7728C91.6766 65.2089 91.6031 66.2484 90.9743 66.6946C90.4242 67.0825 89.8208 66.6794 89.4937 66.3828C89.481 66.398 89.4683 66.4157 89.4531 66.4309C89.7523 66.7276 90.3075 67.1738 90.9363 67.1611C91.8414 67.1434 92.6096 65.6272 92.384 64.5953Z" fill="url(#paint19_linear_1364_369)"/>
<path d="M92.0388 67.5895C92.0388 67.8228 91.874 68.1067 91.6737 68.2234C91.4709 68.34 91.3086 68.2462 91.3086 68.0129C91.3086 67.7797 91.4709 67.4957 91.6737 67.3791C91.874 67.2625 92.0388 67.3563 92.0388 67.5895Z" fill="url(#paint20_linear_1364_369)"/>
<path d="M91.3105 67.9699C91.3536 67.9775 91.4044 67.9699 91.4627 67.9344C91.6148 67.8456 91.739 67.6327 91.739 67.4577C91.739 67.4172 91.7314 67.3842 91.7213 67.3563C91.7061 67.3639 91.6909 67.369 91.6756 67.3791C91.4855 67.4882 91.3308 67.7468 91.3131 67.9724L91.3105 67.9699Z" fill="#B7B9BB"/>
<path d="M90.8747 67.871C90.8747 68.1043 90.7099 68.3882 90.5096 68.5048C90.3093 68.6215 90.1445 68.5277 90.1445 68.2944C90.1445 68.0612 90.3093 67.7772 90.5096 67.6606C90.7125 67.544 90.8747 67.6378 90.8747 67.871Z" fill="url(#paint21_linear_1364_369)"/>
<path d="M90.1465 68.2514C90.1896 68.259 90.2403 68.2488 90.2986 68.2159C90.4507 68.1271 90.575 67.9142 90.575 67.7392C90.575 67.6987 90.5673 67.6657 90.5547 67.6378C90.5395 67.6454 90.5243 67.6505 90.509 67.6606C90.3189 67.7697 90.1642 68.0283 90.1465 68.2539V68.2514Z" fill="#B7B9BB"/>
<path d="M90.113 69.2704C90.113 69.5037 89.9482 69.7876 89.7479 69.9043C89.5476 70.0209 89.3828 69.9271 89.3828 69.6938C89.3828 69.4606 89.5476 69.1766 89.7479 69.06C89.9507 68.9434 90.113 69.0372 90.113 69.2704Z" fill="url(#paint22_linear_1364_369)"/>
<path d="M89.3848 69.6508C89.4279 69.6584 89.4811 69.6508 89.5369 69.6153C89.689 69.5265 89.8132 69.3136 89.8132 69.1361C89.8132 69.0955 89.8056 69.0626 89.7955 69.0347C89.7803 69.0423 89.7651 69.0473 89.7499 69.0575C89.5597 69.1665 89.4051 69.4251 89.3873 69.6508H89.3848Z" fill="#B7B9BB"/>
<path d="M90.8747 70.0336C90.8747 70.2669 90.7099 70.5508 90.5096 70.6674C90.3093 70.7841 90.1445 70.6903 90.1445 70.457C90.1445 70.2238 90.3093 69.9398 90.5096 69.8232C90.7125 69.7065 90.8747 69.8004 90.8747 70.0336Z" fill="url(#paint23_linear_1364_369)"/>
<path d="M90.1465 70.414C90.1896 70.4216 90.2403 70.414 90.2986 70.3785C90.4507 70.2897 90.575 70.0768 90.575 69.9018C90.575 69.8613 90.5673 69.8283 90.5547 69.8004C90.5395 69.808 90.5243 69.8131 90.509 69.8232C90.3189 69.9323 90.1642 70.1909 90.1465 70.4165V70.414Z" fill="#B7B9BB"/>
<path d="M91.9925 68.9714C91.9925 69.2046 91.8277 69.4886 91.6249 69.6052C91.422 69.7218 91.2598 69.628 91.2598 69.3948C91.2598 69.1615 91.422 68.8775 91.6249 68.7609C91.8277 68.6443 91.9925 68.7381 91.9925 68.9714Z" fill="url(#paint24_linear_1364_369)"/>
<path d="M91.2405 68.799C91.2405 69.0322 91.0757 69.3162 90.8729 69.4328C90.6726 69.5495 90.5078 69.4556 90.5078 69.2224C90.5078 68.9891 90.6701 68.7052 90.8729 68.5886C91.0757 68.4719 91.2405 68.5657 91.2405 68.799Z" fill="url(#paint25_linear_1364_369)"/>
<path d="M91.2656 69.3517C91.3087 69.3593 91.362 69.3517 91.4177 69.3162C91.5699 69.2275 91.6941 69.0145 91.6941 68.8396C91.6941 68.799 91.6865 68.766 91.6764 68.7382C91.6611 68.7458 91.6459 68.7508 91.6282 68.7584C91.438 68.8675 91.2834 69.1261 91.2656 69.3517Z" fill="#B7B9BB"/>
<path d="M97.5774 55.0753C97.5774 55.0753 97.7143 50.3925 97.5774 49.6268C97.4405 48.8637 96.5404 45.5702 94.0304 43.4532C91.5204 41.3362 86.4396 37.8323 82.1345 36.1438C79.9896 35.3021 77.3047 35.1068 76.3286 35.0029C76.1435 34.9826 75.8088 35.0713 75.5933 35.2082L74.4346 35.9486L73.0047 36.732C73.0047 36.732 68.5374 36.6331 66.7728 37.1047C65.0082 37.5763 59.2656 40.2409 56.8951 41.4351C54.5245 42.6318 49.8189 45.5297 47.428 46.9799C45.0372 48.4301 41.8629 50.7627 39.7662 52.3701C37.6695 53.9775 33.7473 57.7222 30.0456 61.2286C30.0456 61.2286 28.7121 62.4304 28.1036 63.0186C27.4951 63.6068 19.7775 69.7347 18.4844 70.7336C17.1914 71.7326 14.9172 73.6341 14.6814 74.0448C14.4481 74.4555 12.899 77.7693 12.899 77.7693C12.899 77.7693 11.8012 79.1028 11.5071 81.4354C11.213 83.7679 12.1739 85.1395 12.1739 85.1395C12.1739 85.1395 12.1739 86.6303 13.9183 88.4507C13.9183 88.4507 14.0552 89.5105 16.0327 90.9785C18.0129 92.449 25.4212 96.8174 26.5976 97.4461C27.774 98.0749 30.2814 99.6595 34.5535 99.799C38.8256 99.9359 40.6282 99.0358 40.6282 99.0358L40.7448 98.9724C41.1378 93.349 44.1904 89.2848 48.0188 87.2489C50.8203 85.7582 53.0033 86.9498 52.7168 90.124C52.6382 90.9835 52.4582 91.8963 52.1818 92.8014L52.5419 92.6062L82.9281 73.8724L84.5127 72.7898C85.0451 68.7738 87.2788 64.844 91.6269 62.2174C94.1115 60.7165 96.3249 61.4745 96.2894 64.4358C96.9055 63.6499 97.8157 62.3061 98.1656 60.8584C98.7157 58.5842 98.343 55.666 97.5774 55.0778V55.0753Z" fill="#EFEFEF"/>
<g style="mix-blend-mode:multiply" opacity="0.15">
<path d="M53.8645 80.0791C53.8645 80.0791 40.0037 88.5243 39.233 88.9021C38.4597 89.2773 33.1279 90.1748 27.4411 87.7713C23.1386 85.9509 19.3127 83.8238 17.254 81.3898C17.0106 81.4076 16.8788 81.6358 16.894 82.12C16.9193 82.8882 17.0867 84.1711 17.4695 84.554C17.8549 84.9393 19.7361 86.169 20.7502 86.7952C21.7619 87.4214 23.9271 88.6764 25.0806 89.2038C26.181 89.7058 26.645 89.4878 26.9771 89.2038C26.9974 89.1886 27.0176 89.1683 27.0379 89.1506C26.9593 89.2342 26.8833 89.3103 26.8123 89.3711C26.4802 89.6551 26.0162 89.8731 24.9158 89.3711C23.7623 88.8438 21.5971 87.5888 20.5855 86.9625C19.5738 86.3363 17.6901 85.1041 17.3047 84.7213C16.9193 84.3384 16.7545 83.0556 16.7292 82.2873C16.7114 81.7397 16.9219 81.4101 17.254 81.3898C16.5948 80.6089 16.1131 79.7951 15.8621 78.9508C15.3525 77.2369 14.6096 76.134 13.9885 75.452C13.4814 76.5143 12.8932 77.7744 12.8932 77.7744C12.8932 77.7744 11.7954 79.108 11.5013 81.4405C11.2072 83.7731 12.1681 85.1447 12.1681 85.1447C12.1681 85.1447 12.1681 85.1548 12.1681 85.1675C12.8425 85.9585 14.1102 87.1172 14.6882 87.6699C15.8646 88.7981 23.3084 92.9865 24.8981 93.8815C26.2114 94.6218 29.2082 96.1963 32.92 96.5766C33.5842 96.6451 33.8732 97.3195 33.891 97.8189C33.9113 98.3184 33.891 98.7393 33.2927 98.6759C29.3578 98.2601 26.3027 96.7439 24.8981 95.9504C23.3084 95.0554 15.2333 90.7884 13.9124 88.4533C13.9124 88.4533 14.0493 89.5131 16.0269 90.9811C18.007 92.4516 25.4153 96.82 26.5917 97.4488C27.7681 98.0775 30.2756 99.6621 34.5477 99.8016C36.723 99.87 38.2569 99.6723 39.2406 99.4593C39.2279 99.2768 39.2254 99.0815 39.2406 98.8711C39.6336 93.2426 42.6481 88.4026 47.3081 85.9256C48.3222 85.3855 49.3085 85.1117 50.2415 85.1117C51.3824 85.1117 52.4042 85.5427 53.1191 86.3236C53.5907 86.8408 54.0268 87.9767 53.9507 89.4497L83.158 71.7073H83.1606C84.0074 67.2654 86.7151 63.4243 90.8427 60.932C91.4309 60.5771 92.0242 60.321 92.6073 60.1588L97.3078 57.0048L97.569 55.0754C97.569 55.0754 97.6273 53.0623 97.6298 51.46L53.8569 80.0791H53.8645Z" fill="black"/>
</g>
<g style="mix-blend-mode:multiply" opacity="0.08">
<path d="M93.6069 47.3323L92.3747 46.8379L84.1526 47.3729C81.5893 47.2359 74.1861 51.5841 68.5348 55.0271C62.8835 58.4701 59.8841 61.7382 59.8841 61.7382L52.0854 74.595C52.0854 74.595 51.1676 76.5294 50.0622 77.8884C48.9568 79.2473 42.4941 85.1091 42.4941 85.1091L55.2774 76.7652L75.9608 63.2112C75.9608 63.2112 90.3033 53.5566 90.9549 53.1104C91.6065 52.6641 92.8209 51.8985 93.5461 50.1136C94.2737 48.3287 93.6094 47.3348 93.6094 47.3348L93.6069 47.3323Z" fill="black"/>
</g>
<g style="mix-blend-mode:multiply" opacity="0.15">
<path d="M98.3866 57.5929C97.3979 59.0279 95.7499 59.611 95.7499 59.611C96.9009 58.8022 97.2888 57.2075 97.2888 57.2075V57.1821L92.9863 60.0699C93.3134 60.004 93.6379 59.966 93.9498 59.966C95.0704 59.966 96.0668 60.402 96.7589 61.1956C97.0632 61.5455 97.2863 62.0754 97.3674 62.8258C97.6996 62.2275 97.9987 61.5556 98.1661 60.8584C98.4196 59.8113 98.4754 58.6247 98.3892 57.5929H98.3866Z" fill="black"/>
</g>
<g style="mix-blend-mode:multiply" opacity="0.15">
<path d="M53.9064 89.9593C53.8759 90.1951 53.8328 90.4385 53.7745 90.687C53.6706 91.1307 53.5666 91.582 53.4551 92.0383L82.9007 73.8827C82.926 73.3959 82.9742 72.9141 83.0401 72.4375L53.9038 89.9593H53.9064Z" fill="black"/>
</g>
<g style="mix-blend-mode:multiply" opacity="0.1">
<path d="M14.2707 86.1308C14.4304 86.2804 14.5851 86.4224 14.7321 86.5619C15.2595 87.0664 17.4424 88.547 24.8609 92.7278L24.9293 92.7659C28.5067 94.7815 32.0055 95.7018 35.3294 95.5041C37.383 95.3798 38.96 94.9868 40.0908 94.5812C40.2353 94.1552 40.395 93.7369 40.5725 93.3287C39.424 93.7927 37.6948 94.282 35.3344 94.424C30.535 94.713 26.486 92.5732 24.8964 91.6782C23.3067 90.7832 15.8629 86.5923 14.6865 85.4641C13.7155 84.5336 11.999 82.916 11.6035 80.8142C11.5629 81.012 11.5274 81.2173 11.4996 81.4354C11.4488 81.836 11.4387 82.2087 11.4488 82.5509C12.1435 84.1583 13.3047 85.2359 14.2682 86.1308H14.2707Z" fill="black"/>
</g>
<g style="mix-blend-mode:screen" opacity="0.3">
<path d="M28.1861 88.0653C28.5284 88.1921 28.8656 88.3087 29.2003 88.4152C30.6099 87.4518 37.0624 83.0682 41.0759 80.7382C37.2399 82.7664 30.0014 86.6582 28.1836 88.0679L28.1861 88.0653Z" fill="url(#paint26_linear_1364_369)"/>
</g>
<g style="mix-blend-mode:multiply" opacity="0.15">
<path d="M16.8317 80.8522C18.0714 76.6131 24.3186 69.4406 24.3186 69.4406C19.3696 74.4403 17.25 78.5906 16.5781 80.4744C16.6593 80.6012 16.7429 80.728 16.8342 80.8522H16.8317Z" fill="black"/>
</g>
<path style="mix-blend-mode:multiply" opacity="0.3" d="M96.7542 61.1931C96.0645 60.3996 95.0681 59.9635 93.945 59.9635C92.9638 59.9635 91.8913 60.2982 90.8442 60.9295C86.7167 63.4217 84.0089 67.2653 83.1621 71.7047L84.1332 71.7783L83.0379 72.4375C82.9694 72.9141 82.9238 73.3958 82.8984 73.8826L82.9213 73.8699L84.5059 72.7873C85.0383 68.7713 87.2719 64.8415 91.6201 62.2149C94.1047 60.714 96.3181 61.472 96.2826 64.4333C96.602 64.0251 97.0001 63.4674 97.3576 62.8208C97.2764 62.0704 97.0533 61.5405 96.7491 61.1906L96.7542 61.1931Z" fill="url(#paint27_linear_1364_369)"/>
<path style="mix-blend-mode:multiply" opacity="0.3" d="M52.9769 90.5195L53.953 89.447C54.0291 87.974 53.5955 86.8381 53.1214 86.3209C52.4065 85.5375 51.3847 85.109 50.2438 85.109C49.3108 85.109 48.3245 85.3828 47.3104 85.9229C42.653 88.3999 39.6359 93.2399 39.2429 98.8684C39.2277 99.0788 39.2302 99.274 39.2429 99.4566C40.1886 99.2512 40.6247 99.0357 40.6247 99.0357L40.7413 98.9723C41.1343 93.3489 44.1868 89.2847 48.0152 87.2488C50.8168 85.7581 52.9997 86.9497 52.7132 90.1239C52.6346 90.9834 52.4546 91.8962 52.1783 92.8013L52.5383 92.6061L53.4561 92.0407C53.5677 91.5843 53.6741 91.1305 53.7756 90.6893C53.8339 90.4409 53.877 90.1975 53.9074 89.9617L52.9769 90.522V90.5195Z" fill="url(#paint28_linear_1364_369)"/>
<g style="mix-blend-mode:multiply" opacity="0.1">
<path d="M13.1992 87.599C13.397 87.8703 13.6328 88.1568 13.9142 88.4509C13.7088 88.0883 13.4629 87.8272 13.1992 87.599Z" fill="black"/>
</g>
<g style="mix-blend-mode:multiply" opacity="0.1">
<path d="M39.2424 98.866C39.3413 97.4284 39.6151 96.0466 40.041 94.7384C38.9052 95.1365 37.3485 95.5142 35.338 95.6359C35.0388 95.6537 34.7371 95.6613 34.4328 95.6613C31.3549 95.6613 28.1401 94.7283 24.8644 92.88L24.7959 92.842C17.3674 88.6536 15.1717 87.1678 14.6393 86.6582C14.4948 86.5188 14.3401 86.3768 14.1804 86.2272C13.2702 85.3829 12.1876 84.3789 11.4727 82.9186C11.607 84.3358 12.1648 85.137 12.1648 85.137C12.1648 85.137 12.1648 85.1472 12.1648 85.1598C12.8392 85.9509 14.1069 87.1095 14.685 87.6622C15.8614 88.7905 23.3052 92.9789 24.8948 93.8739C26.2081 94.6142 29.2049 96.1886 32.9167 96.5689C33.581 96.6374 33.87 97.3118 33.8877 97.8113C33.908 98.3107 33.8877 98.7316 33.2894 98.6682C29.3545 98.2524 26.2994 96.7363 24.8948 95.9427C23.3052 95.0477 15.2301 90.7807 13.9091 88.4457C13.9091 88.4457 14.046 89.5054 16.0236 90.9734C18.0037 92.4439 25.412 96.8123 26.5884 97.4411C27.7648 98.0699 30.2723 99.6545 34.5444 99.7939C36.7197 99.8624 38.2536 99.6646 39.2373 99.4516C39.2247 99.2691 39.2221 99.0739 39.2373 98.8634L39.2424 98.866Z" fill="black"/>
</g>
<g style="mix-blend-mode:multiply" opacity="0.3">
<path d="M32.9203 96.5714C31.3586 96.4117 29.9261 96.039 28.6888 95.6054L28.7319 95.9198L29.6573 96.5207L28.7826 96.2672C26.8101 95.6536 25.2965 94.8778 24.4193 94.3834C22.8296 93.4884 14.7545 89.2189 13.4336 86.8864V87.2033C14.7545 89.5383 22.8296 93.8053 24.4193 94.7003C25.3016 95.1972 26.8355 95.9807 28.8283 96.5993L28.8993 97.1089C28.8993 97.1089 31.9848 98.0723 33.1561 98.014C33.4426 97.9988 33.6885 97.8695 33.8838 97.6895C33.8255 97.2078 33.5314 96.6373 32.9229 96.5739L32.9203 96.5714Z" fill="black"/>
</g>
<path style="mix-blend-mode:multiply" opacity="0.2" d="M27.4423 87.7687C23.1398 85.9483 19.3139 83.8211 17.2552 81.3872C17.0118 81.4049 16.88 81.6331 16.8952 82.1174C16.9206 82.8856 17.0879 84.1685 17.4707 84.5513C17.8561 84.9367 19.7373 86.1663 20.7515 86.7926C21.7631 87.4188 23.9283 88.6738 25.0819 89.2011C26.1822 89.7031 26.6462 89.4851 26.9783 89.2011C26.9986 89.1859 27.0189 89.1656 27.0392 89.1479C26.9606 89.2316 26.8845 89.3076 26.8135 89.3685C26.4814 89.6524 26.0174 89.8705 24.9171 89.3685C23.7635 88.8411 21.5983 87.5861 20.5867 86.9599C19.5751 86.3337 17.6913 85.1015 17.3059 84.7186C16.9206 84.3358 16.7558 83.0529 16.7304 82.2847C16.7127 81.7371 16.9231 81.4075 17.2552 81.3872C16.596 80.6063 16.1143 79.7924 15.8633 78.9482C15.7188 78.4664 15.5565 78.0329 15.3841 77.6425L14.6895 77.9949L15.3182 81.2705L15.5337 83.134C15.5337 83.134 15.1915 84.1938 16.5022 85.1091C17.813 86.0243 21.8696 88.6662 23.6671 89.6068C25.4622 90.5474 27.64 91.3942 29.8813 90.9708C31.0653 90.7477 31.8918 89.9009 32.4065 89.153C30.8625 88.9248 29.1714 88.4988 27.4448 87.7712L27.4423 87.7687Z" fill="url(#paint29_linear_1364_369)"/>
<g style="mix-blend-mode:multiply" opacity="0.2">
<path d="M36.2709 92.2208C35.9667 92.2208 35.6345 92.2132 35.2618 92.2005C33.4009 92.1346 31.1622 91.7442 28.604 91.0393L28.5178 91.0165C28.2592 90.9455 28.1147 90.8289 28.0817 90.6666C28.0361 90.4258 28.2871 90.228 28.315 90.2077L28.4164 90.1291C29.0629 89.6297 30.574 88.4609 32.0546 87.9665C32.7138 87.7459 33.8953 87.6191 35.2948 87.6191C36.7906 87.6191 38.1724 87.7586 38.7327 87.9665C39.3514 88.1972 40.0283 88.8665 39.7418 90.7503C39.5542 91.9723 38.2181 92.2208 36.2709 92.2208Z" fill="black"/>
</g>
<path d="M97.637 51.3154L97.4012 51.8605L97.2871 57.2051L97.5761 55.0754C97.5761 55.0754 97.6395 52.9381 97.637 51.3154Z" fill="#B01120"/>
<path d="M28.4032 90.3268C28.4032 90.3268 27.9138 90.697 28.5553 90.8719C29.1967 91.0469 32.3659 91.9494 35.2638 92.0509C38.1617 92.1548 39.4142 91.8709 39.5892 90.7274C39.7438 89.7183 39.7058 88.4912 38.6764 88.1084C37.6471 87.7255 33.6437 87.5937 32.0997 88.1084C30.5557 88.6231 28.9407 89.911 28.4006 90.3268H28.4032Z" fill="url(#paint30_linear_1364_369)"/>
<path d="M38.679 88.1085C37.86 87.8043 35.1599 87.6572 33.3116 87.8702L31.116 88.9452C30.9411 89.0288 30.832 89.2342 30.832 89.541C30.832 90.1495 31.263 90.9278 31.7929 91.2752C32.0566 91.4501 32.2975 91.4831 32.4724 91.4019L38.93 88.2353C38.8539 88.1871 38.7702 88.144 38.679 88.111V88.1085Z" fill="url(#paint31_linear_1364_369)"/>
<path d="M30.832 89.5409C30.832 90.1494 31.263 90.9277 31.7929 91.2751C32.0566 91.45 32.2975 91.483 32.4724 91.4018C32.6499 91.3182 32.7589 91.1128 32.7589 90.806C32.7589 90.1975 32.3279 89.4217 31.798 89.0718C31.5343 88.8969 31.2935 88.8639 31.1185 88.9476C30.9436 89.0313 30.8346 89.2366 30.8346 89.5434L30.832 89.5409Z" fill="white"/>
<path d="M38.678 88.1085C38.2318 87.9411 37.2304 87.8245 36.1148 87.7839L33.6961 89.0592C33.5211 89.1429 33.4121 89.3483 33.4121 89.655C33.4121 90.2635 33.8406 91.0393 34.373 91.3892C34.6367 91.5616 34.8775 91.5971 35.0525 91.5134L39.6212 89.3863C39.5299 88.8158 39.2662 88.324 38.6806 88.1085H38.678Z" fill="url(#paint32_linear_1364_369)"/>
<path d="M33.4082 89.655C33.4082 90.2635 33.8367 91.0393 34.3691 91.3892C34.6328 91.5616 34.8736 91.5971 35.0486 91.5134C35.2261 91.4297 35.3351 91.2244 35.3351 90.9176C35.3351 90.3091 34.9041 89.5333 34.3742 89.1834C34.1105 89.011 33.8696 88.9755 33.6947 89.0592C33.5198 89.1429 33.4107 89.3482 33.4107 89.655H33.4082Z" fill="white"/>
<path d="M36.9967 90.0556C36.9967 90.4232 37.2553 90.8897 37.5747 91.1001C37.7345 91.2041 37.879 91.2269 37.9829 91.1762L39.6309 90.3852C39.6943 89.7488 39.6487 89.0769 39.3216 88.6053L37.1665 89.6981C37.0601 89.7488 36.9941 89.873 36.9941 90.0581L36.9967 90.0556Z" fill="url(#paint33_linear_1364_369)"/>
<path d="M36.998 90.0556C36.998 90.4232 37.2567 90.8897 37.5761 91.1002C37.7358 91.2041 37.8804 91.2269 37.9843 91.1762C38.0908 91.1255 38.1567 91.0013 38.1567 90.8162C38.1567 90.4511 37.8981 89.9821 37.5786 89.7716C37.4189 89.6677 37.2744 89.6474 37.1705 89.6956C37.064 89.7463 36.998 89.8705 36.998 90.0556Z" fill="#F09041"/>
<path d="M28.4032 90.3268C28.4032 90.3268 27.9138 90.697 28.5553 90.8719C29.1967 91.0469 32.3659 91.9494 35.2638 92.0509C38.1617 92.1548 39.4142 91.8709 39.5892 90.7274C39.7438 89.7183 39.7058 88.4912 38.6764 88.1084C37.6471 87.7255 33.6437 87.5937 32.0997 88.1084C30.5557 88.6231 28.9407 89.911 28.4006 90.3268H28.4032Z" fill="url(#paint34_linear_1364_369)"/>
<path d="M14.7129 73.9941C14.7002 74.0119 14.6875 74.0296 14.6774 74.0448C14.4441 74.4556 12.895 77.7693 12.895 77.7693C12.895 77.7693 12.8748 77.7946 12.8418 77.8403C12.8418 77.8403 12.9888 79.1764 13.6658 80.543C14.3427 81.9121 15.5343 83.1341 15.5343 83.1341C15.5343 83.1341 15.9172 79.8812 15.8589 77.9696C15.8082 76.2861 15.2656 74.0778 14.7129 73.9941Z" fill="url(#paint35_linear_1364_369)"/>
<path d="M15.8568 77.9696C15.834 77.2369 15.7199 76.4027 15.5501 75.6903L14.0111 76.4484C13.8362 76.532 13.7271 76.7374 13.7246 77.0442C13.7246 77.6527 14.1556 78.431 14.6855 78.7784C14.9492 78.9508 15.19 78.9863 15.3624 78.9026L15.8568 78.6617C15.8594 78.4183 15.8568 78.1851 15.8518 77.9696H15.8568Z" fill="url(#paint36_linear_1364_369)"/>
<path d="M13.7238 77.0443C13.7238 77.6528 14.1548 78.4311 14.6847 78.7785C14.9484 78.9509 15.1893 78.9864 15.3617 78.9027C15.5366 78.819 15.6482 78.6137 15.6482 78.3069C15.6482 77.6984 15.2197 76.92 14.6847 76.5727C14.421 76.4003 14.1802 76.3648 14.0052 76.4485C13.8303 76.5321 13.7213 76.7375 13.7188 77.0443H13.7238Z" fill="white"/>
<path d="M15.8547 77.9697C15.8547 77.9367 15.8547 77.9012 15.8522 77.8683L14.4095 78.5731C14.2321 78.6568 14.123 78.8647 14.123 79.1689C14.123 79.7774 14.5541 80.5532 15.0839 80.9031C15.3349 81.0679 15.5631 81.1059 15.733 81.04C15.8141 80.0335 15.8826 78.8571 15.8547 77.9722V77.9697Z" fill="url(#paint37_linear_1364_369)"/>
<path d="M15.0871 78.6972C14.8209 78.5248 14.5825 78.4893 14.4076 78.573C14.2301 78.6566 14.1211 78.8645 14.1211 79.1688C14.1211 79.7773 14.5521 80.5531 15.082 80.903C15.333 81.0678 15.5612 81.1058 15.731 81.0399C15.7691 80.5759 15.802 80.079 15.8274 79.5871C15.6499 79.2271 15.3837 78.895 15.0845 78.6997L15.0871 78.6972Z" fill="white"/>
<path d="M14.7129 73.9941C14.7002 74.0119 14.6875 74.0296 14.6774 74.0448C14.4441 74.4556 12.895 77.7693 12.895 77.7693C12.895 77.7693 12.8748 77.7946 12.8418 77.8403C12.8418 77.8403 12.9888 79.1764 13.6658 80.543C14.3427 81.9121 15.5343 83.1341 15.5343 83.1341C15.5343 83.1341 15.9172 79.8812 15.8589 77.9696C15.8082 76.2861 15.2656 74.0778 14.7129 73.9941Z" fill="url(#paint38_linear_1364_369)"/>
<path d="M90.5403 52.5755C89.9039 52.2992 86.57 50.6411 84.3591 50.6208C82.1458 50.6005 79.1515 51.6045 75.9063 53.1688C75.711 53.2626 75.5031 53.3869 75.2648 53.4933C74.8718 53.6734 74.6132 54.0258 74.6893 54.7636L75.8403 63.1302L73.8425 64.4562L72.5013 55.7752C72.448 55.3213 72.1311 55.3011 71.8345 55.4912C69.2738 57.1189 66.4545 58.9418 65.2426 59.8267C62.2103 62.0375 60.7955 64.6033 59.1678 67.3617C57.6466 69.9402 55.1873 75.2923 55.0504 76.1822C55.0504 76.1822 54.8121 77.1507 55.5828 76.598C56.237 76.129 69.7783 67.3846 73.8856 64.7351L75.8809 63.4167L90.9587 53.1156C90.9587 53.1156 91.3364 52.928 90.5429 52.5831L90.5403 52.5755Z" fill="#141C1E"/>
<path d="M56.4168 67.6507C55.4788 69.4153 52.3273 74.8181 51.6884 75.5863C51.0495 76.3571 48.9857 77.2014 46.5467 76.8058C44.1077 76.4129 39.6328 74.1437 34.9551 71.2585C30.2748 68.3732 28.5685 66.8749 28.2744 65.1964C27.9803 63.518 29.7703 62.1921 30.7895 61.2083C31.8087 60.2246 38.8671 53.3716 41.8259 51.3864C41.8259 51.3864 42.0921 51.0771 42.7766 51.6069C43.4612 52.1368 47.4113 55.0271 49.7945 56.4393C52.1803 57.8515 59.8827 61.7357 59.8827 61.7357L56.4194 67.6456L56.4168 67.6507Z" fill="#141C1E"/>
<path d="M37.9895 70.1657C34.6682 67.8686 32.9873 66.966 31.0908 65.28C29.1944 63.594 30.064 62.2604 30.5026 61.8218C30.6598 61.6646 30.8221 61.5277 30.964 61.3908L31.1212 61.2387C36.2984 56.2415 39.5589 53.2523 41.3768 52.0328L41.4046 52.0125L41.4148 51.9998C41.4148 51.9998 41.4477 51.9846 41.4908 51.9846C41.5669 51.9846 42.0436 52.0404 42.3351 52.266C42.9664 52.7554 46.8683 55.6127 49.282 57.0427C51.4092 58.3027 57.9326 61.6545 59.251 62.3213L56.201 67.5238C55.4961 68.8473 53.4374 72.3816 52.2636 74.2805C51.792 75.0411 49.7612 75.5736 48.3693 75.1781C46.9799 74.78 41.1131 72.3334 37.987 70.1682L37.9895 70.1657Z" fill="#303E42"/>
<path d="M84.7837 47.4186C84.7837 47.4186 83.2625 47.4465 82.4765 46.7163C81.546 45.8542 77.9382 43.0223 74.8476 41.1892C71.757 39.3561 68.9327 38.4535 68.3799 38.2304C67.8298 38.0099 66.4683 37.4597 67.9261 37.1656C69.3865 36.8715 73.0323 36.8132 73.0323 36.8132C73.0323 36.8132 75.5575 36.3543 78.4428 37.2138C81.328 38.0758 84.5175 39.5995 87.0655 41.2475C89.6161 42.8955 92.3619 45.4207 92.8867 46.1154C93.4115 46.8126 94.2051 47.738 92.8943 47.6975C91.5835 47.6569 84.7837 47.416 84.7837 47.416V47.4186Z" fill="#141C1E"/>
<path d="M92.903 47.4488C91.6074 47.4083 84.8609 47.17 84.7949 47.1674H84.7645C84.6175 47.1674 83.3143 47.1497 82.6475 46.531C81.6207 45.5803 77.985 42.7584 74.9755 40.9735C72.3134 39.394 69.882 38.5117 68.8425 38.1365C68.6751 38.0756 68.5509 38.03 68.4723 37.9996C67.8714 37.7587 67.6433 37.6167 67.5571 37.5381C67.4582 37.4494 67.6838 37.3556 67.9196 37.31C69.3394 37.0235 72.9193 36.9449 72.9548 36.9449H72.9751L72.9954 36.9398C73.0005 36.9398 73.7433 36.8713 74.7524 36.8713C76.0099 36.8713 77.2294 37.1147 78.3703 37.4545C81.1212 38.2734 84.3208 39.7718 86.9297 41.4578C89.5158 43.1286 92.1982 45.6183 92.685 46.2674L92.7914 46.4068C92.9638 46.635 93.4227 47.2359 93.3543 47.3753C93.3467 47.3905 93.2579 47.4488 92.974 47.4488C92.9486 47.4488 92.9258 47.4488 92.9005 47.4488H92.903Z" fill="#39464A"/>
<path d="M89.6527 53.6961L76.0709 62.9755L74.9375 54.7279C74.8666 54.0434 75.1302 53.8279 75.3686 53.7189C75.5105 53.653 75.6398 53.5845 75.7641 53.5186C75.8503 53.4729 75.9339 53.4298 76.0125 53.3918C79.4885 51.7185 82.2749 50.8691 84.2955 50.8691H84.3564C85.9308 50.8844 88.1036 51.7844 89.422 52.3422C89.7973 52.5019 90.5452 53.085 89.6527 53.6961Z" fill="#303E42"/>
<path d="M58.1676 74.595C62.4295 71.8239 70.4539 66.6441 73.6105 64.6057L72.249 55.8004C72.2363 55.6838 72.2059 55.6255 72.1602 55.6255C72.1374 55.6255 72.069 55.6331 71.965 55.699C69.668 57.1594 66.661 59.0964 65.3858 60.0243C62.5512 62.0906 61.1314 64.5068 59.628 67.0625L59.3795 67.4833C58.7989 68.4696 58.0687 69.8843 57.3867 71.294L58.1651 74.5925L58.1676 74.595Z" fill="#303E42"/>
<path d="M26.9772 87.0004C26.4271 86.7063 23.8892 85.4361 22.6595 84.6933C21.4299 83.9504 18.3697 81.912 17.7916 81.5672C17.6344 81.4734 17.4975 81.4151 17.3784 81.3948C17.3277 81.5139 17.3023 81.6813 17.3099 81.9018C17.3353 82.6701 17.5026 83.9504 17.8854 84.3358C18.2683 84.7186 20.1521 85.9508 21.1662 86.577C22.1778 87.2058 24.343 88.4583 25.4966 88.9856C26.1761 89.2949 26.6121 89.3304 26.924 89.2442C26.9417 89.229 26.9595 89.2163 26.9747 89.2011C27.317 88.9096 27.8215 88.2554 27.8773 87.9005C27.9609 87.3934 26.9747 86.9979 26.9747 86.9979L26.9772 87.0004Z" fill="#1B2628"/>
<path d="M25.496 88.9857C24.3424 88.4583 22.1772 87.2033 21.1656 86.5771C20.154 85.9483 18.2702 84.7187 17.8849 84.3358C17.4995 83.9504 17.3347 82.6701 17.3093 81.9019C17.3017 81.6813 17.3271 81.514 17.3778 81.3948C17.0558 81.339 16.8758 81.5571 16.8961 82.1174C16.9214 82.8856 17.0888 84.1685 17.4716 84.5513C17.857 84.9367 19.7382 86.1663 20.7524 86.7926C21.764 87.4188 23.9292 88.6738 25.0827 89.2012C26.1248 89.6778 26.5989 89.5054 26.9259 89.2443C26.6141 89.3279 26.1755 89.295 25.4985 88.9857H25.496Z" fill="#5A6567"/>
<path d="M57.122 73.9002C57.122 73.9002 56.7823 73.6821 56.5491 73.7024C56.3133 73.7252 56.189 74.2196 56.2397 74.7318C56.2879 75.2439 56.871 75.2895 56.871 75.2895C56.871 75.2895 58.448 76.1389 58.6585 76.2124C58.8714 76.2834 59.4115 76.2327 59.5763 76.1617C59.7411 76.0907 59.8273 75.6394 59.8273 75.2794C59.8273 74.9194 59.7892 74.7774 59.5129 74.605C59.2365 74.4326 57.761 73.6695 57.761 73.6695C57.761 73.6695 57.2868 73.5173 57.1246 73.8976L57.122 73.9002Z" fill="#EFEFEF"/>
<path d="M56.8939 74.5823C56.9471 74.1234 57.122 73.9003 57.122 73.9003C57.122 73.9003 56.7823 73.6822 56.5491 73.7025C56.3133 73.7253 56.189 74.2197 56.2397 74.7319C56.2879 75.244 56.871 75.2896 56.871 75.2896C56.871 75.2896 56.8381 75.0386 56.8939 74.5797V74.5823Z" fill="#414E52"/>
<path d="M56.8719 75.2921C56.8719 75.2921 56.844 75.0538 56.8896 74.6228C56.6564 74.5518 56.413 74.42 56.238 74.3135C56.2253 74.4453 56.2253 74.5898 56.238 74.7343C56.2862 75.2465 56.8693 75.2921 56.8693 75.2921H56.8719Z" fill="#283539"/>
<g style="mix-blend-mode:multiply" opacity="0.15">
<path d="M59.5772 76.1618C59.742 76.0908 59.8282 75.6395 59.8282 75.2795C59.8282 75.102 59.8181 74.9778 59.7775 74.8763C59.4758 75.0056 58.8876 75.2693 58.7761 75.4113C58.6848 75.5305 58.558 75.893 58.5834 76.1795C58.6163 76.1947 58.6442 76.2074 58.662 76.2125C58.8749 76.2835 59.415 76.2328 59.5798 76.1618H59.5772Z" fill="black"/>
</g>
<g style="mix-blend-mode:multiply" opacity="0.25">
<path d="M58.7567 75.4418C58.1381 75.2187 57.271 74.7725 56.8958 74.5747C56.8958 74.5772 56.8958 74.5798 56.8958 74.5849C56.84 75.0437 56.873 75.2948 56.873 75.2948C56.873 75.2948 58.2065 76.0148 58.5843 76.1847C58.5615 75.9159 58.668 75.5863 58.7567 75.4443V75.4418Z" fill="black"/>
</g>
<path d="M31.2352 60.0979C31.5724 59.7784 31.9071 59.4615 32.2418 59.1446C32.2291 58.9595 32.1911 58.5564 32.1328 58.4524C32.0542 58.3155 30.6496 57.385 30.6496 57.385C30.6496 57.385 30.4848 57.2202 30.2135 57.4814C29.9422 57.7425 29.9219 58.6248 29.96 58.8581C29.9904 59.0381 30.8549 59.7784 31.2352 60.0953V60.0979Z" fill="#EFEFEF"/>
<g style="mix-blend-mode:multiply" opacity="0.15">
<path d="M31.2605 58.8605C31.1794 58.6957 30.3782 58.1278 30.0233 57.8818C29.9345 58.2419 29.9345 58.7008 29.9599 58.8605C29.9903 59.0405 30.8549 59.7808 31.2352 60.0977C31.2656 60.0673 31.296 60.0394 31.3265 60.0115C31.3315 59.5907 31.3265 58.9949 31.258 58.8605H31.2605Z" fill="black"/>
</g>
<path d="M32.1847 59.2003C32.0427 59.147 31.8272 59.0862 31.7182 59.1648C31.5965 59.2561 31.5787 59.5958 31.5762 59.7733C31.779 59.5806 31.9818 59.3904 32.1821 59.2003H32.1847Z" fill="#414E52"/>
<path d="M72.4666 69.9021L74.9791 68.3961C74.9791 68.3961 75.1059 68.3277 75.1135 68.5305C75.1236 68.7333 75.1135 69.7399 75.1135 69.7399L74.4822 70.0847V69.532L72.5173 70.6678C72.5173 70.6678 72.2612 70.787 72.2739 70.4219C72.2866 70.0593 72.3829 69.9528 72.4691 69.9021H72.4666Z" fill="#2E383B"/>
<path d="M72.4648 70.0213L74.9773 68.5153C74.9773 68.5153 75.1041 68.4468 75.1117 68.6497C75.1117 68.6522 75.1117 68.6573 75.1142 68.6624C75.1142 68.6066 75.1142 68.5609 75.1117 68.5305C75.1015 68.3251 74.9773 68.3961 74.9773 68.3961L72.4648 69.9021C72.3811 69.9528 72.2822 70.0593 72.2695 70.4219C72.2695 70.4523 72.2695 70.4777 72.2695 70.5005C72.2873 70.1709 72.3811 70.0695 72.4622 70.0188L72.4648 70.0213Z" fill="#485255"/>
<path style="mix-blend-mode:screen" opacity="0.3" d="M74.4834 69.5318L72.5185 70.6677C72.5185 70.6677 72.5135 70.6677 72.5059 70.6727V71.119L74.4834 69.9578V69.5293V69.5318Z" fill="url(#paint39_linear_1364_369)"/>
<g style="mix-blend-mode:multiply" opacity="0.2">
<path d="M75.0726 76.9047C75.0371 76.4661 75.3692 75.1274 75.7216 73.7102C76.0056 72.5591 76.3022 71.365 76.358 70.7844C76.4772 69.5699 76.3682 66.0027 76.358 65.739L74.8824 63.9693V63.9592C74.8672 63.8882 73.5894 56.9058 73.45 55.808C73.3105 54.7305 72.7654 54.2995 72.7578 54.2969L72.8136 54.226C72.8364 54.2437 73.3942 54.6798 73.5387 55.7979C73.6756 56.8729 74.9078 63.6118 74.9661 63.9338L76.4468 65.7086V65.7238C76.4468 65.7618 76.571 69.5344 76.4468 70.7945C76.3884 71.3827 76.0943 72.5794 75.8078 73.7355C75.4732 75.0818 75.1284 76.4762 75.1613 76.8996L75.0751 76.9072L75.0726 76.9047Z" fill="black"/>
</g>
<g style="mix-blend-mode:multiply" opacity="0.2">
<path d="M54.7051 88.8258C54.6873 88.7953 54.3019 88.0829 54.3019 87.3324C54.3019 86.582 53.9343 80.4363 53.9216 80.1878L53.0977 78.1595V78.1469C53.1078 78.1139 53.9445 74.7672 55.6533 71.5423C57.3672 68.3122 60.8406 62.6634 62.8486 60.8025L62.9095 60.8659C60.9091 62.7218 57.4433 68.3579 55.7319 71.5828C54.0814 74.6912 53.2498 77.9136 53.1889 78.1519L54.0078 80.1751C54.0129 80.2385 54.3882 86.5896 54.3882 87.3324C54.3882 88.0753 54.7761 88.7776 54.7811 88.7827L54.7051 88.8258Z" fill="black"/>
</g>
<g style="mix-blend-mode:multiply" opacity="0.2">
<path d="M16.0366 87.0309C16.0417 86.7545 16.2394 86.6455 16.4752 86.7875L24.4844 91.5717C24.7202 91.7112 24.9129 92.0534 24.9129 92.3272V93.7116C24.9129 93.9879 24.7202 94.0969 24.4844 93.9575L16.4346 89.1581C16.1989 89.0186 16.0087 88.6763 16.0138 88.4L16.0391 87.0309H16.0366Z" fill="black"/>
</g>
<path d="M24.6759 93.8689C24.643 93.8689 24.6024 93.8537 24.5593 93.8283L16.5096 89.0289C16.322 88.9173 16.1572 88.6258 16.1622 88.4052L16.1876 87.0361C16.1876 86.9753 16.2028 86.8789 16.2788 86.8789C16.3118 86.8789 16.3549 86.8941 16.398 86.9195L24.4072 91.7037C24.5973 91.8178 24.7621 92.1119 24.7621 92.3325V93.7168C24.7621 93.7751 24.752 93.874 24.6759 93.874V93.8689Z" fill="white"/>
<path d="M27.3124 88.8614C27.3657 88.798 27.4189 88.7347 27.4671 88.6687C26.2425 88.0374 24.1432 86.9599 22.9871 86.2627C21.5445 85.3905 18.0533 83.0732 17.1152 82.4875C17.1254 82.594 17.1381 82.7031 17.1507 82.8146C18.3728 83.5955 21.4152 85.6086 22.7361 86.4072C23.9227 87.1247 26.1031 88.2428 27.3124 88.864V88.8614Z" fill="#404B4D"/>
<path d="M27.595 88.4939C27.6432 88.4254 27.6863 88.3544 27.7243 88.286C26.5555 87.6851 24.2306 86.4985 22.9882 85.7455C21.5304 84.8658 17.9809 82.5053 17.0859 81.9526C17.0859 81.9704 17.0859 81.9831 17.0859 82.0008C17.0885 82.0819 17.0935 82.1707 17.0986 82.2645C18.2826 83.02 21.3935 85.0787 22.7347 85.89C24.0227 86.6684 26.4718 87.9133 27.5925 88.4913L27.595 88.4939Z" fill="#404B4D"/>
<path d="M17.1591 81.4861C17.1287 81.5545 17.1084 81.6458 17.0957 81.7498C18.2772 82.5028 21.3931 84.5665 22.7369 85.3779C24.1186 86.2145 26.8416 87.5887 27.8203 88.0958C27.8507 88.0248 27.871 87.9588 27.8811 87.9031C27.8836 87.8853 27.8811 87.8726 27.8811 87.8549C26.7782 87.287 24.2885 86.0218 22.9853 85.2333C21.563 84.3739 18.1529 82.1098 17.154 81.4861H17.1591Z" fill="#404B4D"/>
<path d="M26.9777 89.2036C27.036 89.1529 27.0994 89.0921 27.1628 89.0262C25.9179 88.3847 24.0544 87.4187 22.987 86.7748C21.5774 85.9229 18.2104 83.6892 17.1836 83.0427C17.2013 83.1594 17.2216 83.2734 17.2444 83.385C18.5197 84.2039 21.4455 86.1384 22.736 86.9167C23.8212 87.5734 25.7328 88.5622 26.9802 89.2011L26.9777 89.2036Z" fill="#404B4D"/>
<path d="M26.3343 89.3838C26.4991 89.3889 26.641 89.3686 26.7602 89.3306C25.5432 88.7018 23.9434 87.8651 22.9876 87.2896C21.6286 86.4682 18.4442 84.3588 17.3008 83.6311C17.3363 83.768 17.3743 83.8973 17.4174 84.0114C18.7688 84.8836 21.5019 86.6887 22.7366 87.4341C23.6468 87.9843 25.1401 88.7703 26.3343 89.3864V89.3838Z" fill="#404B4D"/>
<path d="M31.6558 0C33.229 0.202284 34.8105 0.352965 36.3734 0.615109C44.6931 2.00633 51.9474 5.57313 58.1716 11.2144C58.2278 11.2639 58.2673 11.332 58.3526 11.4373C56.9292 13.0638 55.5038 14.6945 54.0242 16.3871C47.003 9.9759 38.7478 6.61551 29.2273 6.60726C19.7006 6.599 11.437 9.93669 4.35964 16.3891C2.8988 14.7213 1.46084 13.0803 0 11.4125C2.54087 9.03879 5.29192 7.04485 8.28436 5.39355C13.8364 2.3242 19.7797 0.5408 26.1287 0.125911C26.3285 0.113527 26.5241 0.0433466 26.7218 0C28.3658 0 30.0097 0 31.6558 0Z" fill="url(#paint40_linear_1364_369)"/>
<path d="M48.9892 22.1314C47.545 23.7807 46.1341 25.3948 44.6775 27.0585C40.3365 22.9406 35.1945 20.7464 29.1992 20.7444C23.1976 20.7444 18.0535 22.9344 13.7021 27.0585C12.2434 25.3907 10.8179 23.76 9.39453 22.1356C20.0991 11.6395 37.9622 11.4063 48.9913 22.1314H48.9892Z" fill="url(#paint41_linear_1364_369)"/>
<path d="M23.0569 37.7486C21.6086 36.0932 20.1665 34.446 18.7285 32.803C24.0995 26.7757 34.186 26.7076 39.6527 32.8009C38.2148 34.444 36.7726 36.0932 35.3243 37.7486C32.0572 33.8743 26.3719 33.8433 23.059 37.7486H23.0569Z" fill="url(#paint42_linear_1364_369)"/>
<circle cx="29" cy="44" r="4" fill="url(#paint43_linear_1364_369)"/>
<defs>
<linearGradient id="paint0_linear_1364_369" x1="45.1946" y1="99.1398" x2="49.5783" y2="88.5927" gradientUnits="userSpaceOnUse">
<stop stop-color="#D0D2D4"/>
<stop offset="1" stop-color="#86898B"/>
</linearGradient>
<linearGradient id="paint1_linear_1364_369" x1="44.969" y1="98.3487" x2="49.0661" y2="88.4887" gradientUnits="userSpaceOnUse">
<stop stop-color="#B6B8BA"/>
<stop offset="1" stop-color="#6C6F71"/>
</linearGradient>
<linearGradient id="paint2_linear_1364_369" x1="46.688" y1="99.4289" x2="45.1921" y2="96.46" gradientUnits="userSpaceOnUse">
<stop stop-color="#D0D2D4"/>
<stop offset="1" stop-color="#86898B"/>
</linearGradient>
<linearGradient id="paint3_linear_1364_369" x1="44.4427" y1="95.6283" x2="45.216" y2="92.2715" gradientUnits="userSpaceOnUse">
<stop stop-color="#F3F5F7"/>
<stop offset="1" stop-color="#86898B"/>
</linearGradient>
<linearGradient id="paint4_linear_1364_369" x1="49.2763" y1="97.9252" x2="49.2763" y2="93.7698" gradientUnits="userSpaceOnUse">
<stop stop-color="#C3C5C7"/>
<stop offset="1" stop-color="#797C7E"/>
</linearGradient>
<linearGradient id="paint5_linear_1364_369" x1="50.359" y1="92.1421" x2="47.4737" y2="95.438" gradientUnits="userSpaceOnUse">
<stop stop-color="white"/>
<stop offset="1" stop-color="#BABDBF"/>
</linearGradient>
<linearGradient id="paint6_linear_1364_369" x1="46.2262" y1="92.4667" x2="48.5131" y2="89.764" gradientUnits="userSpaceOnUse">
<stop stop-color="white"/>
<stop offset="1" stop-color="#BABDBF"/>
</linearGradient>
<linearGradient id="paint7_linear_1364_369" x1="47.4891" y1="93.6102" x2="47.7985" y2="92.9434" gradientUnits="userSpaceOnUse">
<stop stop-color="white"/>
<stop offset="1" stop-color="#BABDBF"/>
</linearGradient>
<linearGradient id="paint8_linear_1364_369" x1="46.3251" y1="93.8916" x2="46.6369" y2="93.2248" gradientUnits="userSpaceOnUse">
<stop stop-color="white"/>
<stop offset="1" stop-color="#BABDBF"/>
</linearGradient>
<linearGradient id="paint9_linear_1364_369" x1="45.5634" y1="95.2911" x2="45.8752" y2="94.6243" gradientUnits="userSpaceOnUse">
<stop stop-color="white"/>
<stop offset="1" stop-color="#BABDBF"/>
</linearGradient>
<linearGradient id="paint10_linear_1364_369" x1="46.3251" y1="96.0543" x2="46.6369" y2="95.3875" gradientUnits="userSpaceOnUse">
<stop stop-color="white"/>
<stop offset="1" stop-color="#BABDBF"/>
</linearGradient>
<linearGradient id="paint11_linear_1364_369" x1="47.4442" y1="94.992" x2="47.7561" y2="94.3252" gradientUnits="userSpaceOnUse">
<stop stop-color="white"/>
<stop offset="1" stop-color="#BABDBF"/>
</linearGradient>
<linearGradient id="paint12_linear_1364_369" x1="46.8678" y1="93.491" x2="46.8399" y2="94.9032" gradientUnits="userSpaceOnUse">
<stop stop-color="#EAECEE"/>
<stop offset="1" stop-color="#A0A3A5"/>
</linearGradient>
<linearGradient id="paint13_linear_1364_369" x1="89.2214" y1="73.6644" x2="93.605" y2="63.1173" gradientUnits="userSpaceOnUse">
<stop stop-color="#D0D2D4"/>
<stop offset="1" stop-color="#86898B"/>
</linearGradient>
<linearGradient id="paint14_linear_1364_369" x1="88.9957" y1="72.8734" x2="93.0929" y2="63.0159" gradientUnits="userSpaceOnUse">
<stop stop-color="#B6B8BA"/>
<stop offset="1" stop-color="#6C6F71"/>
</linearGradient>
<linearGradient id="paint15_linear_1364_369" x1="90.7153" y1="73.9558" x2="89.2195" y2="70.9844" gradientUnits="userSpaceOnUse">
<stop stop-color="#D0D2D4"/>
<stop offset="1" stop-color="#86898B"/>
</linearGradient>
<linearGradient id="paint16_linear_1364_369" x1="88.47" y1="70.153" x2="89.2433" y2="66.7987" gradientUnits="userSpaceOnUse">
<stop stop-color="#F3F5F7"/>
<stop offset="1" stop-color="#86898B"/>
</linearGradient>
<linearGradient id="paint17_linear_1364_369" x1="93.3036" y1="72.4499" x2="93.3036" y2="68.2944" gradientUnits="userSpaceOnUse">
<stop stop-color="#C3C5C7"/>
<stop offset="1" stop-color="#797C7E"/>
</linearGradient>
<linearGradient id="paint18_linear_1364_369" x1="94.3863" y1="66.6667" x2="91.5011" y2="69.9627" gradientUnits="userSpaceOnUse">
<stop stop-color="white"/>
<stop offset="1" stop-color="#BABDBF"/>
</linearGradient>
<linearGradient id="paint19_linear_1364_369" x1="90.2543" y1="66.9912" x2="92.5412" y2="64.2886" gradientUnits="userSpaceOnUse">
<stop stop-color="white"/>
<stop offset="1" stop-color="#BABDBF"/>
</linearGradient>
<linearGradient id="paint20_linear_1364_369" x1="91.5165" y1="68.1346" x2="91.8283" y2="67.4678" gradientUnits="userSpaceOnUse">
<stop stop-color="white"/>
<stop offset="1" stop-color="#BABDBF"/>
</linearGradient>
<linearGradient id="paint21_linear_1364_369" x1="90.3524" y1="68.4161" x2="90.6643" y2="67.7493" gradientUnits="userSpaceOnUse">
<stop stop-color="white"/>
<stop offset="1" stop-color="#BABDBF"/>
</linearGradient>
<linearGradient id="paint22_linear_1364_369" x1="89.5932" y1="69.8181" x2="89.9026" y2="69.1487" gradientUnits="userSpaceOnUse">
<stop stop-color="white"/>
<stop offset="1" stop-color="#BABDBF"/>
</linearGradient>
<linearGradient id="paint23_linear_1364_369" x1="90.3524" y1="70.5787" x2="90.6643" y2="69.9119" gradientUnits="userSpaceOnUse">
<stop stop-color="white"/>
<stop offset="1" stop-color="#BABDBF"/>
</linearGradient>
<linearGradient id="paint24_linear_1364_369" x1="91.4702" y1="69.5165" x2="91.782" y2="68.8497" gradientUnits="userSpaceOnUse">
<stop stop-color="white"/>
<stop offset="1" stop-color="#BABDBF"/>
</linearGradient>
<linearGradient id="paint25_linear_1364_369" x1="90.8957" y1="68.0181" x2="90.8678" y2="69.4303" gradientUnits="userSpaceOnUse">
<stop stop-color="#EAECEE"/>
<stop offset="1" stop-color="#A0A3A5"/>
</linearGradient>
<linearGradient id="paint26_linear_1364_369" x1="43.6569" y1="79.3006" x2="26.3049" y2="89.5942" gradientUnits="userSpaceOnUse">
<stop stop-color="white"/>
<stop offset="1"/>
</linearGradient>
<linearGradient id="paint27_linear_1364_369" x1="82.9035" y1="66.9231" x2="97.3626" y2="66.9231" gradientUnits="userSpaceOnUse">
<stop/>
<stop offset="0.41" stop-color="white"/>
<stop offset="0.79" stop-color="white"/>
<stop offset="1"/>
</linearGradient>
<linearGradient id="paint28_linear_1364_369" x1="37.567" y1="93.7394" x2="54.5894" y2="90.1493" gradientUnits="userSpaceOnUse">
<stop/>
<stop offset="0.41" stop-color="white"/>
<stop offset="0.79" stop-color="white"/>
<stop offset="1"/>
</linearGradient>
<linearGradient id="paint29_linear_1364_369" x1="22.4476" y1="85.2511" x2="20.7743" y2="87.8067" gradientUnits="userSpaceOnUse">
<stop offset="0.17" stop-color="white"/>
<stop offset="1"/>
</linearGradient>
<linearGradient id="paint30_linear_1364_369" x1="28.2232" y1="89.9186" x2="39.6576" y2="89.9186" gradientUnits="userSpaceOnUse">
<stop stop-color="#FAFFFF"/>
<stop offset="1" stop-color="#D4D7D9"/>
</linearGradient>
<linearGradient id="paint31_linear_1364_369" x1="30.832" y1="89.6069" x2="38.93" y2="89.6069" gradientUnits="userSpaceOnUse">
<stop stop-color="#FAFFFF"/>
<stop offset="1" stop-color="#D4D7D9"/>
</linearGradient>
<linearGradient id="paint32_linear_1364_369" x1="33.4096" y1="89.6702" x2="39.6212" y2="89.6702" gradientUnits="userSpaceOnUse">
<stop stop-color="#FAFFFF"/>
<stop offset="1" stop-color="#D4D7D9"/>
</linearGradient>
<linearGradient id="paint33_linear_1364_369" x1="36.9967" y1="89.9034" x2="39.6588" y2="89.9034" gradientUnits="userSpaceOnUse">
<stop stop-color="#FAFFFF"/>
<stop offset="1" stop-color="#D4D7D9"/>
</linearGradient>
<linearGradient id="paint34_linear_1364_369" x1="32.8451" y1="87.8041" x2="35.3424" y2="92.6568" gradientUnits="userSpaceOnUse">
<stop stop-color="white"/>
<stop offset="1" stop-color="white"/>
</linearGradient>
<linearGradient id="paint35_linear_1364_369" x1="12.8418" y1="78.5654" x2="15.8639" y2="78.5654" gradientUnits="userSpaceOnUse">
<stop stop-color="#FAFFFF"/>
<stop offset="1" stop-color="#D4D7D9"/>
</linearGradient>
<linearGradient id="paint36_linear_1364_369" x1="13.7246" y1="77.318" x2="15.8619" y2="77.318" gradientUnits="userSpaceOnUse">
<stop stop-color="#FAFFFF"/>
<stop offset="1" stop-color="#D4D7D9"/>
</linearGradient>
<linearGradient id="paint37_linear_1364_369" x1="14.1205" y1="79.4681" x2="15.8598" y2="79.4681" gradientUnits="userSpaceOnUse">
<stop stop-color="#FAFFFF"/>
<stop offset="1" stop-color="#D4D7D9"/>
</linearGradient>
<linearGradient id="paint38_linear_1364_369" x1="12.8418" y1="78.5654" x2="15.8639" y2="78.5654" gradientUnits="userSpaceOnUse">
<stop stop-color="white"/>
<stop offset="1" stop-color="white"/>
</linearGradient>
<linearGradient id="paint39_linear_1364_369" x1="73.6011" y1="70.4877" x2="73.3679" y2="70.1378" gradientUnits="userSpaceOnUse">
<stop stop-color="white"/>
<stop offset="1"/>
</linearGradient>
<linearGradient id="paint40_linear_1364_369" x1="54.6386" y1="16.3903" x2="35.0305" y2="-13.2842" gradientUnits="userSpaceOnUse">
<stop stop-color="#700005"/>
<stop offset="0.566666" stop-color="#B5070E" stop-opacity="0.9855"/>
<stop offset="1" stop-color="#FF0F18" stop-opacity="0.97"/>
</linearGradient>
<linearGradient id="paint41_linear_1364_369" x1="46.4711" y1="27.0594" x2="30.2965" y2="5.92881" gradientUnits="userSpaceOnUse">
<stop stop-color="#700005"/>
<stop offset="0.566666" stop-color="#B5070E" stop-opacity="0.9855"/>
<stop offset="1" stop-color="#FF0F18" stop-opacity="0.97"/>
</linearGradient>
<linearGradient id="paint42_linear_1364_369" x1="38.3209" y1="37.7493" x2="26.002" y2="26.2064" gradientUnits="userSpaceOnUse">
<stop stop-color="#700005"/>
<stop offset="0.566666" stop-color="#B5070E" stop-opacity="0.9855"/>
<stop offset="1" stop-color="#FF0F18" stop-opacity="0.97"/>
</linearGradient>
<linearGradient id="paint43_linear_1364_369" x1="32.4908" y1="48.0006" x2="24.9992" y2="44.8162" gradientUnits="userSpaceOnUse">
<stop stop-color="#700005"/>
<stop offset="0.566666" stop-color="#B5070E" stop-opacity="0.9855"/>
<stop offset="1" stop-color="#FF0F18" stop-opacity="0.97"/>
</linearGradient>
</defs>
</svg>
