<svg width="106" height="98" viewBox="0 0 106 98" fill="none" xmlns="http://www.w3.org/2000/svg">
<g id="Group 142">
<g id="Group">
<g id="Group_2">
<path id="Vector" d="M102.46 54.4705L102.004 55.7994L101.249 56.9833L95.2656 51.0003L98.0623 49.321L101.415 50.7345L102.46 54.4705Z" fill="#343433"/>
<path id="Vector_2" d="M50.5386 85.2584L49.8349 85.9259L47.5063 85.796L41.4961 81.012L49.4392 78.7046L50.5386 85.2584Z" fill="#343433"/>
<g id="Group_3">
<path id="Vector_3" d="M99.666 52.2294L95.3924 49.7861C94.3444 49.3361 92.9762 49.4871 91.4782 50.3509C88.1892 52.2475 85.5254 56.8685 85.5254 60.6649C85.5254 62.5616 86.1929 63.8965 87.2681 64.5186L91.14 66.7476C91.2155 66.7959 91.294 66.8412 91.3755 66.8835L91.4118 66.9046C92.4749 67.4301 93.8974 67.3063 95.4619 66.4033C98.7509 64.5035 101.415 59.8887 101.415 56.0893C101.415 54.1895 100.747 52.8546 99.669 52.2324L99.666 52.2294Z" fill="#3B4447"/>
<path id="Vector_4" d="M101.415 56.0862C101.415 59.8826 98.7507 64.5005 95.4617 66.4002C92.1727 68.2969 89.5059 66.7596 89.5059 62.9632C89.5059 59.1668 92.1727 54.5489 95.4617 52.6492C98.7507 50.7494 101.415 52.2898 101.415 56.0862Z" fill="#555E61"/>
<path id="Vector_5" d="M100.951 56.3551C100.951 59.8555 98.4927 64.111 95.4634 65.8627C92.4311 67.6144 89.9727 66.1949 89.9727 62.6915C89.9727 59.188 92.4311 54.9325 95.4634 53.1838C98.4927 51.4321 100.951 52.8516 100.951 56.352V56.3551Z" fill="#3B4447"/>
<path id="Vector_6" d="M100.08 57.0316C100.08 59.9189 98.0534 63.4284 95.5527 64.872C93.0519 66.3157 91.0254 65.1469 91.0254 62.2595C91.0254 59.3722 93.0519 55.8627 95.5527 54.4191C98.0534 52.9754 100.08 54.1442 100.08 57.0316Z" fill="#CDCCCB"/>
<path id="Vector_7" d="M99.8764 57.1494C99.8764 59.9069 97.9405 63.2593 95.5515 64.6365C93.1625 66.0168 91.2266 64.8993 91.2266 62.1418C91.2266 59.3844 93.1625 56.0319 95.5515 54.6547C97.9405 53.2745 99.8764 54.395 99.8764 57.1494Z" fill="url(#paint0_linear_1364_370)"/>
<path id="Vector_8" d="M95.5535 54.6546C93.1645 56.0318 91.2285 59.3873 91.2285 62.1417C91.2285 62.6944 91.307 63.1806 91.452 63.5944C92.2433 64.2015 93.4182 64.1985 94.7289 63.4404C97.1179 62.0632 99.0539 58.7077 99.0539 55.9533C99.0539 55.4006 98.9754 54.9143 98.8304 54.5006C98.0391 53.8935 96.8642 53.8965 95.5535 54.6546Z" fill="url(#paint1_linear_1364_370)"/>
<path id="Vector_9" d="M91.2422 61.8548C91.8976 62.5494 92.9758 62.6249 94.199 61.9212C96.1953 60.7675 97.8142 57.9648 97.8142 55.6603C97.8142 55.017 97.6873 54.4794 97.4638 54.0657C96.89 54.0687 96.2406 54.259 95.555 54.6546C93.2506 55.9835 91.3721 59.1547 91.2422 61.8548Z" fill="#343433"/>
<path id="Vector_10" d="M97.117 59.9821C97.7543 59.8644 98.0956 60.2842 98.0956 60.2842C98.0956 60.2842 99.2916 59.3026 99.5694 57.711C99.7053 56.9317 99.2523 56.1646 99.053 55.9683C99.053 55.9683 98.9775 58.4328 96.963 58.2939C96.963 58.2939 97.2107 56.3217 97.3828 55.8263C97.5459 55.3582 97.8449 54.4733 98.452 54.2709C97.86 53.9931 97.114 53.9901 96.2925 54.3011C96.2925 54.8206 96.2049 56.0589 95.4559 56.5874C94.8005 57.0525 94.0817 56.5693 93.6891 56.219C93.2512 56.7143 92.8525 57.267 92.5112 57.8529C92.8434 57.871 93.1998 58.0009 93.1273 58.4932C93.0186 59.2422 92.2394 60.3597 91.3122 61.0936C91.2548 61.4469 91.2246 61.8003 91.2246 62.1416C91.2246 62.945 91.3907 63.6094 91.6837 64.1138C91.7894 63.4554 91.9585 62.6188 92.1911 62.1688C92.6109 61.3503 93.7102 61.0483 93.7102 61.8456C93.7102 62.643 93.5381 64.5608 93.5381 64.5608C93.5381 64.5608 95.0542 64.6665 95.9814 63.851C96.7969 63.1352 95.9754 63.2258 95.7549 63.1413C95.3502 62.9903 94.9062 62.4074 95.1962 61.5889C95.4861 60.7704 96.4798 60.103 97.114 59.9852L97.117 59.9821Z" fill="#D0D2D4"/>
<path id="Vector_11" d="M94.6932 63.0085C94.3187 62.335 94.364 61.5256 93.7388 61.1269C93.4821 60.9608 92.9868 61.1601 92.5156 61.74C93.0109 61.2719 93.7116 61.2054 93.7116 61.8427C93.7116 62.64 93.5395 64.5578 93.5395 64.5578C93.5395 64.5578 94.8623 64.6484 95.7956 63.9931C95.4543 63.8602 95.0103 63.5823 94.6932 63.0055V63.0085Z" fill="url(#paint2_linear_1364_370)"/>
<path id="Vector_12" d="M94.1929 57.6778C94.1234 57.3426 93.3472 57.3909 92.7462 57.4815C92.6677 57.6054 92.5922 57.7292 92.5167 57.853C92.8489 57.8711 93.2053 58.001 93.1328 58.4933C93.0241 59.2423 92.2449 60.3598 91.3177 61.0937C91.3146 61.1179 91.3116 61.142 91.3086 61.1662C93.3533 60.7887 94.3016 58.2064 94.1899 57.6748L94.1929 57.6778Z" fill="url(#paint3_linear_1364_370)"/>
<path id="Vector_13" d="M97.1148 59.982C97.7521 59.8642 98.0934 60.284 98.0934 60.284C98.0934 60.284 99.2894 59.3025 99.5672 57.7108C99.5793 57.6353 99.5884 57.5628 99.5884 57.4873C98.9904 58.6229 97.7793 59.5229 97.2417 59.8159C97.1058 59.8884 96.982 59.9699 96.8672 60.0484C96.9518 60.0182 97.0333 59.9971 97.1118 59.982H97.1148Z" fill="url(#paint4_linear_1364_370)"/>
<path id="Vector_14" d="M96.9679 58.2909C96.9679 58.2909 96.989 59.5322 97.285 59.795C97.8407 59.4809 99.0065 58.5989 99.5924 57.4875C99.6226 56.7898 99.236 56.1435 99.0548 55.9653C99.0548 55.9653 98.9793 58.4298 96.9648 58.2909H96.9679Z" fill="url(#paint5_linear_1364_370)"/>
<path id="Vector_15" d="M97.1409 54.0869C96.8721 54.1201 96.5882 54.1896 96.2982 54.2983C96.2982 54.8178 96.2106 56.0561 95.4616 56.5846C94.8062 57.0497 94.0874 56.5665 93.6948 56.2161C93.6797 56.2342 93.6646 56.2554 93.6465 56.2735C94.0029 56.6299 94.6643 57.1584 95.4133 57.1433C96.4885 57.1222 97.4066 55.3131 97.1409 54.0839V54.0869Z" fill="url(#paint6_linear_1364_370)"/>
<path id="Vector_16" d="M96.7272 57.6536C96.7272 57.9315 96.5309 58.2698 96.2923 58.4087C96.0537 58.5476 95.8574 58.4359 95.8574 58.158C95.8574 57.8801 96.0537 57.5419 96.2923 57.4029C96.5339 57.264 96.7272 57.3758 96.7272 57.6536Z" fill="url(#paint7_linear_1364_370)"/>
<path id="Vector_17" d="M95.8594 58.1095C95.9107 58.1186 95.9741 58.1096 96.0406 58.0703C96.2218 57.9646 96.3698 57.7109 96.3698 57.4995C96.3698 57.4542 96.3607 57.4119 96.3487 57.3787C96.3305 57.3877 96.3124 57.3938 96.2913 57.4028C96.0648 57.5327 95.8805 57.8407 95.8594 58.1095Z" fill="#B7B9BB"/>
<path id="Vector_18" d="M95.3425 57.9889C95.3425 58.2668 95.1462 58.6051 94.9076 58.744C94.666 58.8829 94.4727 58.7712 94.4727 58.4933C94.4727 58.2155 94.669 57.8772 94.9076 57.7383C95.1492 57.5993 95.3425 57.7111 95.3425 57.9889Z" fill="url(#paint8_linear_1364_370)"/>
<path id="Vector_19" d="M94.4746 58.4448C94.526 58.4539 94.5894 58.4418 94.6558 58.4055C94.837 58.2998 94.985 58.0461 94.985 57.8377C94.985 57.7894 94.976 57.7501 94.9609 57.7169C94.9427 57.726 94.9246 57.732 94.9065 57.7441C94.68 57.874 94.4958 58.182 94.4746 58.4508V58.4448Z" fill="#B7B9BB"/>
<path id="Vector_20" d="M94.4343 59.6592C94.4343 59.9371 94.238 60.2754 93.9994 60.4143C93.7577 60.5532 93.5645 60.4415 93.5645 60.1636C93.5645 59.8858 93.7577 59.5475 93.9994 59.4086C94.238 59.2696 94.4343 59.3814 94.4343 59.6592Z" fill="url(#paint9_linear_1364_370)"/>
<path id="Vector_21" d="M93.5664 60.1122C93.6177 60.1213 93.6812 60.1122 93.7476 60.07C93.9288 59.9642 94.0768 59.7105 94.0768 59.5022C94.0768 59.4538 94.0678 59.4146 94.0527 59.3813C94.0345 59.3904 94.0164 59.3964 93.9983 59.4085C93.7718 59.5384 93.5875 59.8465 93.5664 60.1153V60.1122Z" fill="#B7B9BB"/>
<path id="Vector_22" d="M95.3425 60.5654C95.3425 60.8432 95.1462 61.1815 94.9076 61.3204C94.666 61.4593 94.4727 61.3476 94.4727 61.0697C94.4727 60.7919 94.669 60.4536 94.9076 60.3147C95.1492 60.1758 95.3425 60.2875 95.3425 60.5654Z" fill="url(#paint10_linear_1364_370)"/>
<path id="Vector_23" d="M94.4746 61.0213C94.526 61.0304 94.5894 61.0213 94.6558 60.979C94.837 60.8733 94.985 60.6196 94.985 60.4112C94.985 60.3629 94.976 60.3236 94.9609 60.2904C94.9427 60.2995 94.9246 60.3055 94.9065 60.3176C94.68 60.4475 94.4958 60.7555 94.4746 61.0243V61.0213Z" fill="#B7B9BB"/>
<path id="Vector_24" d="M96.6736 59.2997C96.6736 59.5776 96.4773 59.9159 96.2357 60.0548C95.9971 60.1937 95.8008 60.082 95.8008 59.8041C95.8008 59.5263 95.9971 59.188 96.2357 59.0491C96.4743 58.9101 96.6736 59.0219 96.6736 59.2997Z" fill="url(#paint11_linear_1364_370)"/>
<path id="Vector_25" d="M95.778 59.0942C95.778 59.372 95.5847 59.7103 95.3431 59.8492C95.1045 59.9882 94.9082 59.8734 94.9082 59.5986C94.9082 59.3237 95.1045 58.9824 95.3431 58.8435C95.5847 58.7046 95.778 58.8163 95.778 59.0942Z" fill="url(#paint12_linear_1364_370)"/>
<path id="Vector_26" d="M95.8066 59.7558C95.858 59.7648 95.9184 59.7558 95.9879 59.7135C96.1691 59.6078 96.3171 59.3541 96.3171 59.1457C96.3171 59.0974 96.308 59.0581 96.2959 59.0249C96.2778 59.034 96.2597 59.04 96.2416 59.0491C96.015 59.1789 95.8308 59.487 95.8097 59.7558H95.8066Z" fill="#B7B9BB"/>
</g>
<g id="Group_4">
<path id="Vector_27" d="M47.1632 82.4076L42.8896 79.9643C41.8416 79.5113 40.4734 79.6653 38.9754 80.5291C35.6864 82.4258 33.0195 87.0437 33.0195 90.8401C33.0195 92.7398 33.687 94.0747 34.7652 94.6969L38.6371 96.9227C38.7126 96.9711 38.7911 97.0164 38.8727 97.0587L38.9059 97.0768C39.969 97.6023 41.3915 97.4785 42.956 96.5754C46.245 94.6757 48.9119 90.0578 48.9119 86.2614C48.9119 84.3617 48.2444 83.0268 47.1662 82.4046L47.1632 82.4076Z" fill="#3B4447"/>
<path id="Vector_28" d="M48.9106 86.2645C48.9106 90.0609 46.2438 94.6788 42.9548 96.5785C39.6658 98.4752 37.002 96.9379 37.002 93.1415C37.002 89.3451 39.6688 84.7272 42.9548 82.8275C46.2438 80.9278 48.9106 82.4681 48.9106 86.2645Z" fill="#555E61"/>
<path id="Vector_29" d="M48.4483 86.5332C48.4483 90.0336 45.9898 94.2921 42.9575 96.0408C39.9252 97.7895 37.4698 96.373 37.4668 92.8726C37.4668 89.3722 39.9252 85.1137 42.9575 83.365C45.9898 81.6133 48.4483 83.0328 48.4483 86.5332Z" fill="#3B4447"/>
<path id="Vector_30" d="M47.5761 87.2128C47.5761 90.0971 45.5495 93.6096 43.0488 95.0533C40.548 96.4969 38.5215 95.3281 38.5215 92.4408C38.5215 89.5535 40.548 86.041 43.0488 84.6003C45.5495 83.1567 47.5761 84.3285 47.5761 87.2158V87.2128Z" fill="#CDCCCB"/>
<path id="Vector_31" d="M47.3793 87.3275C47.3793 90.085 45.4433 93.4404 43.0543 94.8176C40.6654 96.1979 38.7324 95.0804 38.7324 92.323C38.7324 89.5655 40.6684 86.2131 43.0543 84.8328C45.4433 83.4526 47.3793 84.5731 47.3793 87.3275Z" fill="url(#paint13_linear_1364_370)"/>
<path id="Vector_32" d="M43.0543 84.833C40.6654 86.2132 38.7324 89.5656 38.7324 92.3231C38.7324 92.8758 38.8109 93.359 38.9529 93.7728C39.7472 94.3799 40.9191 94.3768 42.2298 93.6218C44.6188 92.2415 46.5548 88.8891 46.5548 86.1317C46.5548 85.579 46.4762 85.0927 46.3313 84.682C45.54 84.0749 44.3651 84.0779 43.0543 84.836V84.833Z" fill="url(#paint14_linear_1364_370)"/>
<path id="Vector_33" d="M38.7383 92.033C39.3937 92.7277 40.4719 92.8032 41.6951 92.0995C43.6914 90.9457 45.3103 88.143 45.3103 85.8386C45.3103 85.1953 45.1834 84.6577 44.9599 84.2439C44.3831 84.2469 43.7367 84.4372 43.0511 84.8328C40.7467 86.1647 38.8682 89.3329 38.7413 92.033H38.7383Z" fill="#343433"/>
<path id="Vector_34" d="M44.6158 90.1607C45.253 90.0429 45.5943 90.4627 45.5943 90.4627C45.5943 90.4627 46.7903 89.4812 47.0712 87.8895C47.2071 87.1103 46.7541 86.3432 46.5548 86.1438C46.5548 86.1438 46.4793 88.6083 44.4648 88.4694C44.4648 88.4694 44.7124 86.4972 44.8846 86.0019C45.0477 85.5337 45.3467 84.6518 45.9537 84.4465C45.3618 84.1686 44.6158 84.1656 43.7943 84.4767C43.7943 84.9961 43.7067 86.2344 42.9577 86.766C42.3023 87.2311 41.5835 86.7479 41.1939 86.3945C40.756 86.8898 40.3543 87.4425 40.013 88.0284C40.3452 88.0466 40.7016 88.1794 40.6321 88.6687C40.5234 89.4177 39.7442 90.5322 38.817 91.2691C38.7596 91.6255 38.7324 91.9758 38.7324 92.3171C38.7324 93.1205 38.8955 93.785 39.1885 94.2893C39.2942 93.6309 39.4633 92.7943 39.6959 92.3413C40.1157 91.5228 41.215 91.2238 41.215 92.0181C41.215 92.8124 41.0429 94.7303 41.0429 94.7303C41.0429 94.7303 42.559 94.836 43.4862 94.0205C44.3017 93.3017 43.4802 93.3923 43.2567 93.3108C42.852 93.1598 42.408 92.5769 42.698 91.7584C42.9879 90.9399 43.9785 90.2724 44.6158 90.1547V90.1607Z" fill="#D0D2D4"/>
<path id="Vector_35" d="M42.1854 93.1869C41.8139 92.5134 41.8562 91.704 41.234 91.3053C40.9773 91.1392 40.482 91.3385 40.0078 91.9214C40.5031 91.4533 41.2068 91.3869 41.2068 92.0241C41.2068 92.8215 41.0347 94.7363 41.0347 94.7363C41.0347 94.7363 42.3545 94.8269 43.2878 94.1745C42.9465 94.0386 42.5025 93.7638 42.1854 93.1869Z" fill="url(#paint15_linear_1364_370)"/>
<path id="Vector_36" d="M41.686 87.8591C41.6165 87.5239 40.8403 87.5692 40.2393 87.6598C40.1608 87.7836 40.0822 87.9044 40.0098 88.0312C40.342 88.0494 40.6984 88.1823 40.6289 88.6715C40.5202 89.4205 39.741 90.535 38.8137 91.2719C38.8107 91.2991 38.8077 91.3233 38.8047 91.3444C40.8494 90.9669 41.7977 88.3846 41.686 87.8561V87.8591Z" fill="url(#paint16_linear_1364_370)"/>
<path id="Vector_37" d="M44.6166 90.1605C45.2539 90.0427 45.5952 90.4625 45.5952 90.4625C45.5952 90.4625 46.7912 89.4809 47.072 87.8893C47.0841 87.8168 47.0902 87.7413 47.0962 87.6658C46.4952 88.8014 45.2871 89.7014 44.7495 89.9943C44.6136 90.0668 44.4898 90.1484 44.375 90.2269C44.4596 90.1967 44.5411 90.1756 44.6196 90.1605H44.6166Z" fill="url(#paint17_linear_1364_370)"/>
<path id="Vector_38" d="M44.4629 88.4691C44.4629 88.4691 44.484 89.7104 44.783 89.9732C45.3388 89.6621 46.5046 88.7772 47.0935 87.6657C47.1207 86.9681 46.7341 86.3248 46.5529 86.1436C46.5529 86.1436 46.4774 88.608 44.4629 88.4691Z" fill="url(#paint18_linear_1364_370)"/>
<path id="Vector_39" d="M44.6359 84.2651C44.3671 84.2984 44.0832 84.3678 43.7933 84.4766C43.7933 84.996 43.7057 86.2343 42.9567 86.7659C42.3013 87.231 41.5825 86.7478 41.1929 86.3944C41.1778 86.4125 41.1627 86.4337 41.1445 86.4518C41.5009 86.8051 42.1623 87.3367 42.9114 87.3216C43.9865 87.3004 44.9047 85.4944 44.6359 84.2651Z" fill="url(#paint19_linear_1364_370)"/>
<path id="Vector_40" d="M44.2233 87.835C44.2233 88.1129 44.03 88.4511 43.7884 88.5901C43.5468 88.729 43.3535 88.6173 43.3535 88.3394C43.3535 88.0615 43.5468 87.7233 43.7884 87.5843C44.03 87.4454 44.2233 87.5572 44.2233 87.835Z" fill="url(#paint20_linear_1364_370)"/>
<path id="Vector_41" d="M43.3594 88.288C43.4107 88.2971 43.4741 88.285 43.5406 88.2457C43.7218 88.14 43.8698 87.8863 43.8698 87.6779C43.8698 87.6296 43.8607 87.5904 43.8486 87.5571C43.8305 87.5662 43.8124 87.5722 43.7913 87.5813C43.5647 87.7112 43.3805 88.0192 43.3594 88.288Z" fill="#B7B9BB"/>
<path id="Vector_42" d="M42.8386 88.1701C42.8386 88.448 42.6423 88.7862 42.4037 88.9252C42.1651 89.0641 41.9688 88.9523 41.9688 88.6745C41.9688 88.3966 42.1651 88.0584 42.4037 87.9194C42.6453 87.7805 42.8386 87.8923 42.8386 88.1701Z" fill="url(#paint21_linear_1364_370)"/>
<path id="Vector_43" d="M41.9688 88.6232C42.0201 88.6323 42.0835 88.6202 42.15 88.5809C42.3312 88.4752 42.4792 88.2215 42.4792 88.0101C42.4792 87.9618 42.4701 87.9225 42.458 87.8893C42.4399 87.8983 42.4218 87.9044 42.4006 87.9134C42.1741 88.0433 41.9899 88.3514 41.9688 88.6202V88.6232Z" fill="#B7B9BB"/>
<path id="Vector_44" d="M41.9304 89.8373C41.9304 90.1152 41.7341 90.4534 41.4955 90.5924C41.2538 90.7313 41.0605 90.6195 41.0605 90.3387C41.0605 90.0578 41.2538 89.7256 41.4955 89.5836C41.7341 89.4447 41.9304 89.5564 41.9304 89.8343V89.8373Z" fill="url(#paint22_linear_1364_370)"/>
<path id="Vector_45" d="M41.0684 90.2903C41.1197 90.2994 41.1831 90.2903 41.2496 90.248C41.4308 90.1423 41.5788 89.8886 41.5788 89.6772C41.5788 89.6319 41.5697 89.5896 41.5576 89.5564C41.5395 89.5624 41.5214 89.5715 41.5033 89.5806C41.2768 89.7134 41.0925 90.0185 41.0714 90.2873L41.0684 90.2903Z" fill="#B7B9BB"/>
<path id="Vector_46" d="M42.8386 90.7464C42.8386 91.0243 42.6423 91.3625 42.4037 91.5015C42.1651 91.6404 41.9688 91.5286 41.9688 91.2508C41.9688 90.9729 42.1651 90.6347 42.4037 90.4988C42.6453 90.3568 42.8386 90.4716 42.8386 90.7494V90.7464Z" fill="url(#paint23_linear_1364_370)"/>
<path id="Vector_47" d="M41.9688 91.1996C42.0201 91.2087 42.0835 91.1996 42.15 91.1574C42.3312 91.0516 42.4792 90.798 42.4792 90.5896C42.4792 90.5412 42.4701 90.502 42.458 90.4688C42.4399 90.4748 42.4218 90.4838 42.4006 90.4959C42.1741 90.6258 41.9899 90.9339 41.9688 91.1996Z" fill="#B7B9BB"/>
<path id="Vector_48" d="M44.1706 89.4807C44.1706 89.7585 43.9743 90.0968 43.7357 90.2357C43.4941 90.3746 43.3008 90.2599 43.3008 89.985C43.3008 89.7102 43.4941 89.3689 43.7357 89.23C43.9773 89.091 44.1706 89.2028 44.1706 89.4807Z" fill="url(#paint24_linear_1364_370)"/>
<path id="Vector_49" d="M43.278 89.2726C43.278 89.5504 43.0817 89.8887 42.8431 90.0276C42.6045 90.1665 42.4082 90.0548 42.4082 89.7739C42.4082 89.493 42.6045 89.1578 42.8431 89.0189C43.0847 88.8799 43.278 88.9947 43.278 89.2695V89.2726Z" fill="url(#paint25_linear_1364_370)"/>
<path id="Vector_50" d="M43.3027 89.9339C43.3541 89.9429 43.4175 89.9308 43.4839 89.8916C43.6652 89.7889 43.8132 89.5322 43.8132 89.3238C43.8132 89.2755 43.8041 89.2362 43.792 89.2C43.7739 89.209 43.7558 89.2151 43.7346 89.2271C43.5081 89.357 43.3239 89.6651 43.3027 89.9308V89.9339Z" fill="#B7B9BB"/>
</g>
<path id="Vector_51" d="M105.464 44.981C105.295 43.4226 102.407 39.6322 100.598 38.4997L99.6076 37.5392C99.6076 37.5392 99.3509 36.464 97.4301 34.9932C95.5032 33.5224 93.9478 32.3898 92.1658 31.3992C90.3809 30.4085 85.2616 27.6631 82.3471 27.7779C82.3471 27.7779 78.8377 26.2497 76.346 26.0806C73.8543 25.9114 71.3929 25.9114 68.0827 27.0712C64.7726 28.2309 58.7714 30.6381 58.7714 30.6381C58.7714 30.6381 53.6491 30.4961 51.2148 30.6954C48.7806 30.8918 45.4976 32.2508 43.0633 33.3562C40.629 34.4586 33.6131 38.5903 29.5932 41.0276C25.5733 43.4588 20.8195 46.914 17.7932 49.2607C14.764 51.6104 8.05607 58.5418 8.05607 58.5418L5.8483 60.0972C5.8483 60.0972 4.10866 61.2932 3.66167 61.5287C3.21468 61.7643 3.19052 61.9999 3.12407 62.7731C3.05763 63.5462 2.9791 67.7927 2.9791 67.7927C2.9791 67.7927 2.27238 69.1427 2.10022 69.6803C1.93109 70.2179 1.98244 72.3018 2.20593 73.3257C2.42943 74.3495 2.74353 74.5187 2.69218 75.3039C2.63782 76.0892 2.41735 76.6419 3.07273 77.6385C3.72812 78.6352 5.67917 80.8973 12.674 85.2615C19.6688 89.6257 23.2689 90.9395 25.531 91.5979C27.7931 92.2533 30.0553 92.8332 30.7107 93.096C31.3691 93.3587 34.0238 93.2802 34.0238 93.2802C36.4792 88.5717 39.5629 83.7061 44.0117 81.1661C47.2946 79.2906 49.9403 80.8097 49.9403 84.591C49.9403 85.029 49.9041 85.476 49.8346 85.929L87.554 65.3312C87.7231 59.9612 90.3628 54.4977 96.1737 50.9912C99.4113 49.0372 102.102 50.6318 102.102 54.4162C102.102 54.8752 102.063 55.3464 101.988 55.8236C102.746 54.5823 103.836 52.7188 104.44 51.3537C105.431 49.1187 105.63 46.5425 105.458 44.9871L105.464 44.981Z" fill="#EFEFEF"/>
<g id="Vector_52" style="mix-blend-mode:multiply" opacity="0.15">
<path d="M33.1343 91.1419C34.0646 89.4385 35.1367 87.6445 36.3871 85.9411C35.0733 86.6478 32.8172 87.427 29.5886 87.0525C24.1069 86.4183 16.5836 82.4014 12.5244 79.8675C9.01495 77.6718 3.76583 73.9962 2.00203 70.6619C1.98693 71.5136 2.05639 72.6522 2.20438 73.3257C2.42788 74.3495 2.74198 74.5187 2.69063 75.3039C2.68157 75.4398 2.66647 75.5667 2.65439 75.6935C2.65439 75.6935 3.56347 77.6506 7.11524 80.3658C10.667 83.081 20.3891 89.0428 24.4875 90.2237C28.2386 91.305 30.3527 91.6432 33.1343 91.1419Z" fill="black"/>
</g>
<g id="Vector_53" style="mix-blend-mode:multiply" opacity="0.15">
<path d="M105.464 44.9811C105.44 44.7485 105.352 44.4676 105.219 44.1505C105.053 47.1556 102.081 48.3607 102.081 48.3607C102.96 47.2069 103.353 44.8904 103.353 44.8904L102.259 43.782L101.779 43.4015C101.396 44.3529 92.4195 48.9103 92.4195 48.9103L59.5355 66.1195L32.2087 79.3118C31.2573 78.5023 29.4089 77.5087 27.6663 76.6751C25.9236 75.8446 19.859 72.9452 16.4915 71.0364C13.124 69.1306 9.53597 66.8202 6.51275 64.5671C4.70968 63.2231 3.78852 62.308 3.33549 61.7855C3.19354 61.9818 3.16636 62.2566 3.12407 62.7701C3.05763 63.5433 2.9791 67.7897 2.9791 67.7897C2.9791 67.7897 2.27238 69.1397 2.10022 69.6773C1.93109 70.2149 1.98244 72.2988 2.20593 73.3227C2.42943 74.3465 2.74353 74.5157 2.69218 75.3009C2.63782 76.0862 2.41735 76.6389 3.07273 77.6355C3.72812 78.6322 5.67917 80.8943 12.674 85.2585C19.6688 89.6227 23.2689 90.9365 25.531 91.5949C27.7931 92.2503 30.0553 92.8302 30.7106 93.093C30.9674 93.1956 31.5261 93.244 32.112 93.2681C32.1815 93.0084 32.2872 92.7336 32.4352 92.4497C34.1597 89.1455 36.4249 85.2797 39.5236 82.3259L33.9634 84.9384L33.897 84.7964L39.9042 81.9756C40.8918 81.0786 41.9609 80.2722 43.1237 79.6107C44.3318 78.9221 45.5217 78.5748 46.6604 78.5748C48.7322 78.5748 50.8736 79.9611 51.1575 83.0236L85.9019 63.5281C86.6147 57.7173 89.952 52.6554 95.2495 49.457C96.4515 48.7291 97.6505 48.3607 98.8133 48.3607C100.275 48.3607 101.631 49.1097 102.389 50.6077C102.894 50.2513 104.709 48.8499 105.5 46.7116C105.533 46.0623 105.515 45.4703 105.464 44.9811ZM8.82623 70.1515C8.82623 70.1786 8.82623 70.2058 8.82623 70.23C8.82623 70.9065 8.86851 71.9183 8.95307 72.5374C9.08596 73.5281 9.51483 74.57 10.7169 75.467C11.9189 76.364 17.0563 79.3842 18.8322 80.2933C19.5782 80.6769 20.0342 80.6557 20.3121 80.5078C20.1399 80.846 19.6839 81.2507 18.5 80.6437C16.7241 79.7346 11.5897 76.7114 10.3847 75.8144C9.17959 74.9174 8.75374 73.8754 8.62085 72.8848C8.53629 72.2656 8.494 71.2508 8.494 70.5773C8.494 70.3901 8.53931 70.0548 8.82925 70.1515H8.82623ZM23.6373 85.473C19.4815 83.9085 15.2321 81.5588 12.523 79.8675C10.1763 78.3996 7.05336 76.2704 4.7127 74.0234C4.76405 72.8817 5.35299 71.4894 5.35299 71.4894C5.35299 71.4894 5.37715 71.4653 5.41641 71.426C5.41641 71.4773 5.41641 71.5166 5.41641 71.5377C5.41641 71.9576 5.25634 73.2985 6.78155 74.5066C8.30675 75.7147 13.4864 79.1607 16.1412 80.6074C18.7959 82.0541 23.9242 84.6575 24.6853 84.5518C24.4679 84.881 24.0058 85.2283 23.6343 85.473H23.6373Z" fill="black"/>
</g>
<g id="Vector_54" style="mix-blend-mode:multiply" opacity="0.2">
<path d="M27.3406 79.1277C27.2138 79.0824 27.0899 79.0341 26.957 78.9858C15.0816 74.5038 7.38912 68.557 5.57096 67.071C5.50451 68.9073 5.41693 71.2812 5.41693 71.5349C5.41693 71.9547 5.25686 73.2957 6.78206 74.5038C8.30727 75.7119 13.4869 79.1579 16.1417 80.6046C18.7964 82.0513 23.9248 84.6547 24.6859 84.549L25.4198 83.4285L27.6849 80.36L27.3406 79.1247V79.1277ZM18.4974 80.6408C16.7216 79.7318 11.5872 76.7085 10.3821 75.8115C9.17709 74.9145 8.75124 73.8726 8.61835 72.8819C8.53378 72.2628 8.4915 71.248 8.4915 70.5745C8.4915 70.3872 8.5368 70.052 8.82674 70.1486C8.82674 70.1758 8.82674 70.203 8.82674 70.2272C8.82674 70.9037 8.86902 71.9155 8.95359 72.5346C9.08648 73.5252 9.51535 74.5672 10.7174 75.4642C11.9194 76.3612 17.0568 79.3814 18.8327 80.2905C19.5787 80.6741 20.0347 80.6529 20.3126 80.5049C20.1404 80.8432 19.6844 81.2479 18.5005 80.6408H18.4974Z" fill="black"/>
</g>
<g id="Vector_55" style="mix-blend-mode:multiply" opacity="0.08">
<path d="M83.1887 46.5937C78.9423 45.7873 71.5035 44.6064 71.5035 44.6064C71.5035 44.6064 68.6343 43.9782 63.2523 46.4487C57.8703 48.9192 51.7967 52.3744 45.9133 56.1859C40.0299 59.9974 39.2326 61.3383 36.2819 64.4794L27.5293 71.9755L28.4112 73.8511C28.4112 73.8511 30.7972 74.7813 33.5818 74.6786C36.3664 74.5729 37.8977 73.4886 39.5588 72.6883C41.2199 71.8879 80.5974 52.2958 80.5974 52.2958L95.8343 44.4614C95.8343 44.4614 87.4321 47.4031 83.1857 46.5967L83.1887 46.5937Z" fill="black"/>
</g>
<g id="Vector_56" style="mix-blend-mode:multiply" opacity="0.3">
<path d="M32.143 79.2575C31.1735 78.4572 29.3705 77.4877 27.664 76.6722C25.9214 75.8417 19.8568 72.9423 16.4893 71.0335C13.1217 69.1277 9.53374 66.8173 6.51051 64.5642C4.70745 63.2202 3.78628 62.3051 3.33325 61.7826C3.1913 61.9789 3.16412 62.2537 3.12184 62.7672C3.10372 62.9877 3.08257 63.4981 3.06445 64.1082L5.72828 64.8451C5.72828 64.8451 9.80254 68.0676 15.0335 71.0697C20.2676 74.0718 26.5737 76.944 26.5737 76.944L31.4665 83.969L33.9219 84.866C33.9219 84.866 33.9551 81.7341 32.2397 79.3874C32.2064 79.3421 32.1732 79.2998 32.14 79.2545L32.143 79.2575Z" fill="black"/>
</g>
<g id="Vector_57" style="mix-blend-mode:multiply" opacity="0.1">
<path d="M27.338 79.1277L26.8306 77.3126L26.5739 76.9472C26.5739 76.9472 20.2647 74.0749 15.0337 71.0729C9.80269 68.0708 5.72843 64.8482 5.72843 64.8482L5.66501 64.8301L5.64991 64.9116C5.64991 64.9116 5.61366 65.8781 5.56836 67.0741C7.38652 68.56 15.079 74.5068 26.9545 78.9888C27.0843 79.0371 27.2112 79.0855 27.338 79.1308V79.1277Z" fill="black"/>
</g>
<g id="Vector_58" style="mix-blend-mode:multiply" opacity="0.1">
<path d="M20.0995 76.6054C15.4665 74.4883 10.5436 71.2687 8.98518 70.2298C8.92477 70.1905 8.87343 70.1663 8.82812 70.1512C8.82812 70.1784 8.82812 70.2056 8.82812 70.2298C8.82812 70.9063 8.87041 71.9181 8.95497 72.5372C9.08786 73.5278 9.51673 74.5698 10.7188 75.4668C11.9208 76.3638 17.0582 79.384 18.8341 80.2931C19.5801 80.6767 20.0361 80.6555 20.314 80.5075C20.3985 80.3414 20.4167 80.1874 20.4167 80.1874L20.61 77.4994C20.61 76.9316 20.314 76.7021 20.1026 76.6054H20.0995Z" fill="black"/>
</g>
<g id="Vector_59" style="mix-blend-mode:multiply" opacity="0.15">
<path d="M102.457 50.7525C102.868 51.6284 103.079 52.7429 103.01 54.102C103.544 53.1657 104.082 52.169 104.444 51.3506C105.045 49.9915 105.353 48.5115 105.465 47.2098C104.577 49.17 102.91 50.4354 102.457 50.7525Z" fill="black"/>
</g>
<g id="Vector_60" style="mix-blend-mode:multiply" opacity="0.15">
<path d="M85.7658 65.2739C85.7778 64.8964 85.802 64.5219 85.8352 64.1504L51.1874 83.6851C51.1874 84.1714 51.1512 84.6938 51.0605 85.2556L85.8382 66.2676C85.7839 65.9565 85.7567 65.6273 85.7688 65.2739H85.7658Z" fill="black"/>
</g>
<path id="Vector_61" style="mix-blend-mode:screen" opacity="0.3" d="M99.5607 37.4096C99.4973 37.2495 99.3463 36.9445 99.0322 36.5398C96.2415 37.9714 88.4434 43.2054 88.4434 43.2054C97.806 37.6452 99.5577 37.4096 99.5607 37.4096Z" fill="url(#paint26_linear_1364_370)"/>
<g id="Vector_62" style="mix-blend-mode:multiply" opacity="0.15">
<path d="M82.3422 27.778C82.3422 27.778 82.0462 27.6481 81.5721 27.4639C79.2556 27.4518 72.2094 27.5968 67.1445 29.6596C67.1445 29.6596 73.7105 27.3823 82.3422 27.778Z" fill="black"/>
</g>
<path id="Vector_63" style="mix-blend-mode:multiply" opacity="0.3" d="M98.8118 48.3636C97.6521 48.3636 96.4531 48.7321 95.248 49.46C89.9506 52.6584 86.6132 57.7203 85.9005 63.5311H86.9394L85.834 64.1533C85.8008 64.5248 85.7766 64.8993 85.7646 65.2768C85.7525 65.6302 85.7797 65.9594 85.834 66.2705L87.5525 65.3312C87.7216 59.9612 90.3613 54.4977 96.1722 50.9912C99.4098 49.0372 102.101 50.6318 102.101 54.4161C102.101 54.8752 102.062 55.3464 101.986 55.8236C102.288 55.3252 102.648 54.7302 103.004 54.102C103.209 50.2845 101.149 48.3636 98.8088 48.3636H98.8118Z" fill="url(#paint27_linear_1364_370)"/>
<path id="Vector_64" style="mix-blend-mode:multiply" opacity="0.3" d="M50.4662 84.0926L51.1518 83.0235C50.8679 79.961 48.7266 78.5747 46.6547 78.5747C45.5131 78.5747 44.3231 78.925 43.118 79.6106C38.0833 82.4829 34.7641 87.9827 32.4325 92.4495C32.2845 92.7365 32.1788 93.0083 32.1094 93.268C33.0305 93.3043 34.0212 93.2741 34.0212 93.2741C36.4766 88.5656 39.5602 83.7 44.009 81.16C47.292 79.2845 49.9377 80.8036 49.9377 84.5849C49.9377 85.0228 49.9014 85.4698 49.832 85.9229L51.0582 85.2524C51.1488 84.6906 51.188 84.1681 51.185 83.6819L50.4662 84.0866V84.0926Z" fill="url(#paint28_linear_1364_370)"/>
<g id="Vector_65" style="mix-blend-mode:multiply" opacity="0.2">
<path d="M102.836 46.2736C101.924 46.2736 101.498 43.64 101.495 43.6128C101.456 43.3229 101.244 42.8366 101.021 42.3262C100.803 41.8279 100.577 41.3114 100.441 40.8342C100.154 39.8406 100.172 38.4966 100.172 38.4392L100.178 38.0979L100.456 38.2972C101.74 39.2124 103.682 42.2809 103.932 43.5131C104.098 44.3407 103.944 45.2709 103.54 45.8326C103.355 46.0894 103.132 46.2404 102.896 46.2706C102.875 46.2706 102.857 46.2736 102.836 46.2736Z" fill="black"/>
</g>
<path id="Vector_66" d="M100.348 38.4454C100.348 38.4454 100.327 39.8076 100.608 40.7891C100.889 41.7707 101.589 42.9908 101.671 43.5919C101.749 44.1929 102.233 46.1741 102.873 46.0926C103.513 46.0141 103.993 44.7305 103.755 43.5496C103.516 42.3687 101.613 39.3455 100.351 38.4454H100.348Z" fill="#E3E3E4"/>
<g id="Group_5">
<path id="Vector_67" d="M100.344 38.4453C100.344 38.4453 100.323 39.8074 100.604 40.789C100.885 41.7706 101.585 42.9907 101.667 43.5917C101.745 44.1928 102.229 46.174 102.869 46.0925C103.509 46.014 103.99 44.7304 103.751 43.5495C103.512 42.3686 101.61 39.3453 100.347 38.4453H100.344Z" fill="url(#paint29_linear_1364_370)"/>
</g>
<g id="Group_6">
<path id="Vector_68" d="M25.418 83.4316C25.418 83.4316 27.6982 84.6065 29.8939 84.8723C32.0866 85.1381 33.9259 84.8723 33.9259 84.8723C33.9259 84.8723 33.494 80.9913 31.996 79.5779C30.504 78.1704 26.5928 76.8536 26.5928 76.8536L25.418 83.4316Z" fill="#E3E3E4"/>
<path id="Vector_69" d="M32.9776 81.1151C32.7179 80.5081 32.3947 79.9524 31.9961 79.5779C30.5041 78.1704 26.5929 76.8536 26.5929 76.8536L26.1973 79.0674C26.1973 79.0674 29.154 80.5504 30.7095 80.9219C31.4736 81.1061 32.3162 81.1333 32.9776 81.1151Z" fill="#B01120"/>
<path id="Vector_70" d="M30.5987 82.8276C29.2034 82.6404 26.7963 81.7132 25.7966 81.3085L25.416 83.4317C25.416 83.4317 27.6963 84.6065 29.892 84.8723C32.0846 85.1381 33.9239 84.8723 33.9239 84.8723C33.9239 84.8723 33.8243 83.9723 33.5525 82.882C32.5951 82.9273 31.4534 82.9424 30.5987 82.8276Z" fill="#B01120"/>
</g>
<g id="Group_7">
<path id="Vector_71" d="M5.42005 71.5377L5.73113 64.8479C5.73113 64.8479 4.26029 63.4465 3.11865 62.8485C3.05522 63.7908 2.97972 67.7926 2.97972 67.7926C2.97972 67.7926 2.42702 69.1003 5.41703 71.5377H5.42005Z" fill="#E3E3E4"/>
<path id="Vector_72" d="M5.73291 64.8479C5.73291 64.8479 4.26207 63.4465 3.12043 62.8485C3.09325 63.226 3.06908 64.0959 3.04492 65.0019C4.13824 66.062 5.62418 67.1886 5.62418 67.1886L5.73291 64.8479Z" fill="#B01120"/>
<path id="Vector_73" d="M5.41898 71.5377L5.52469 69.2877C5.52469 69.2877 4.14445 68.1641 3.00281 66.7235C2.99073 67.3487 2.98167 67.7927 2.98167 67.7927C2.98167 67.7927 2.42897 69.1004 5.41898 71.5377Z" fill="#B01120"/>
</g>
<path id="Vector_74" d="M82.6311 50.3117C82.0542 49.7771 79.4297 47.7143 75.0383 47.2915C70.6469 46.8717 66.8082 47.4757 63.5736 48.6053C61.843 49.2123 58.8832 50.7043 56.2254 52.311C55.6908 52.6342 55.5247 53.1386 55.7663 53.6943L59.9101 62.4952L57.6932 63.5915L53.4468 55.0685C53.0149 54.3225 52.5045 54.5037 52.1874 54.7121C51.5743 55.1108 51.0397 55.4279 50.6592 55.6786C48.3729 57.1766 44.5855 59.9371 41.9821 64.1714C39.3787 68.4057 38.7354 71.2326 38.4636 72.4588C38.3971 72.7669 38.3548 73.2441 38.9891 72.9511C39.5206 72.7035 53.4196 65.9896 57.8261 63.8603L60.0369 62.77L82.6371 51.2479C82.6371 51.2479 83.2049 50.8432 82.625 50.3087L82.6311 50.3117Z" fill="#141C1E"/>
<path id="Vector_75" d="M26.8749 73.4226C27.7507 73.8514 29.0827 74.3679 30.6441 72.6917C32.2055 71.0155 38.6628 61.9186 38.6628 61.9186C38.6628 61.9186 40.188 60.5232 38.2309 59.3967C36.2707 58.2671 30.5958 55.1805 28.237 53.7187C25.8782 52.2569 22.4261 49.9676 21.8462 49.5539C21.2664 49.1401 19.9224 48.524 18.4123 49.7532C16.9022 50.9824 13.1178 54.7335 11.9732 55.8782C10.8285 57.0228 8.82008 59.2819 8.28852 59.9132C7.75697 60.5444 6.87809 61.5048 8.32174 62.6857C9.7654 63.8636 13.1178 66.2556 16.2558 68.113C19.3908 69.9705 25.999 72.9937 26.8779 73.4256L26.8749 73.4226Z" fill="#141C1E"/>
<path id="Vector_76" d="M28.4074 73.5523C27.891 73.5523 27.4319 73.362 27.0121 73.1566C26.855 73.0781 26.5138 72.918 26.0426 72.6975C23.9285 71.7039 18.9753 69.3753 16.4081 67.8561C13.1886 65.9504 9.85429 63.5493 8.5103 62.453C8.09351 62.1117 7.86699 61.7735 7.83377 61.4473C7.78847 60.964 8.16901 60.517 8.47406 60.1576L8.51634 60.1063C9.06602 59.4539 11.0745 57.2009 12.1859 56.0924C12.6721 55.6062 16.9729 51.3115 18.6038 49.9886C19.1414 49.5537 19.7002 49.3302 20.268 49.3302C20.9234 49.3302 21.4338 49.6262 21.6784 49.8014C22.2945 50.2423 25.7376 52.5226 28.0843 53.9783C29.6548 54.9538 32.6871 56.6391 35.1244 57.9982C36.3596 58.6868 37.4288 59.2818 38.0842 59.6593C38.6036 59.9583 38.8875 60.2935 38.9268 60.653C38.9872 61.2087 38.4677 61.6979 38.4617 61.704L38.4375 61.7251L38.4194 61.7493C38.356 61.8399 31.9562 70.8492 30.4279 72.4922C29.7635 73.2049 29.1021 73.5553 28.4044 73.5553L28.4074 73.5523Z" fill="#303E42"/>
<path id="Vector_77" d="M68.5195 44.1113C68.5195 44.1113 69.0028 44.507 69.5434 44.5311C70.3619 44.5704 78.903 45.7664 79.8514 45.9234C80.7997 46.0805 84.3726 47.0802 84.9253 46.2919C85.478 45.5036 85.9763 43.5042 83.8984 41.532C81.8205 39.5599 78.4047 36.7994 75.1972 35.1685C71.9898 33.5376 65.756 30.8315 63.5241 30.7257C61.2892 30.62 58.7643 30.8586 58.7643 30.8586C58.7643 30.8586 55.4813 30.8224 53.1557 30.8224C50.8302 30.8224 48.9244 31.5472 48.9244 31.5472C48.9244 31.5472 47.7556 31.8281 48.6436 32.1543C49.5315 32.4805 56.188 35.1262 59.2354 36.9897C62.2828 38.8531 67.8883 43.61 68.5195 44.1083V44.1113Z" fill="#141C1E"/>
<path id="Vector_78" d="M40.4661 71.9183C44.0541 70.0971 52.9305 65.9021 57.4306 63.7275L53.1963 55.2226C53.0453 54.9629 52.8852 54.833 52.7161 54.833C52.6134 54.833 52.4926 54.8783 52.3567 54.9659C52.0275 55.1803 51.7194 55.3736 51.4446 55.5427C51.212 55.6877 51.0036 55.8176 50.8284 55.9324C46.9716 58.4573 44.1628 61.2056 42.242 64.3316C40.5446 67.095 39.6929 69.2756 39.2248 70.7525C39.0617 71.2629 38.9862 72.6703 40.4661 71.9183Z" fill="#303E42"/>
<path id="Vector_79" d="M77.8536 48.134C77.017 47.8894 76.0716 47.6931 75.0176 47.5904C74.0994 47.5028 73.1753 47.4575 72.2722 47.4575C69.2883 47.4575 66.3979 47.9377 63.6828 48.8891C61.9794 49.4841 59.0498 50.961 56.392 52.5677C55.9812 52.8154 55.8695 53.1566 56.0507 53.5704L60.1914 62.3653L79.2338 52.6583L77.8596 48.131L77.8536 48.134Z" fill="#303E42"/>
<path id="Vector_80" d="M83.4104 44.8815C83.347 44.7758 83.2715 44.6701 83.1899 44.5584C82.009 42.9275 76.328 38.6962 71.7252 36.0656C68.1372 34.0148 62.8066 31.9732 59.8709 31.0762C59.2246 31.1154 58.7987 31.1547 58.7897 31.1547H58.7746H58.7595C58.7263 31.1547 55.4493 31.1184 53.154 31.1184C50.8586 31.1184 49.0495 31.8161 49.0284 31.8252L49.0102 31.8312H48.9921C48.9287 31.8493 48.8623 31.8705 48.7988 31.8946C49.8166 32.2782 56.3614 34.8847 59.3877 36.736C61.9881 38.3277 66.4278 42.0003 68.098 43.3835C68.3939 43.6282 68.6023 43.8033 68.702 43.8819C68.705 43.8849 69.1188 44.2171 69.5537 44.2352C70.4175 44.2745 79.1096 45.5007 79.8949 45.6336C80.0821 45.6638 80.354 45.7242 80.6952 45.7997C81.3536 45.9447 82.2627 46.1017 83.054 46.2376C83.4618 46.3101 83.803 45.555 83.4044 44.8815H83.4104Z" fill="#303E42"/>
<path id="Vector_81" d="M83.1894 44.5584C82.0085 42.9275 76.3275 38.6962 71.7247 36.0656C68.1367 34.0148 62.806 31.9732 59.8704 31.0762C59.224 31.1154 58.7982 31.1547 58.7891 31.1547H58.774H58.7589C58.7529 31.1547 58.6079 31.1547 58.3633 31.1517C57.6052 31.5715 56.385 32.3567 56.1887 33.1813C56.0468 33.7793 55.9652 34.4256 55.9199 34.9239C57.2337 35.54 58.475 36.1713 59.3932 36.733C61.9936 38.3247 66.4333 41.9972 68.1034 43.3805C68.3994 43.6251 68.6078 43.8003 68.7075 43.8788C68.7105 43.8818 69.1243 44.2141 69.5592 44.2322C70.423 44.2715 79.1151 45.4977 79.9004 45.6306C80.0876 45.6608 80.3594 45.7212 80.7007 45.7967C81.3591 45.9416 82.2682 46.0987 83.0595 46.2346C83.4672 46.3071 83.8085 45.552 83.4098 44.8785C83.3464 44.7728 83.2709 44.6671 83.1894 44.5554V44.5584Z" fill="#39464A"/>
<path id="Vector_82" d="M80.7095 50.1848C80.7095 50.1848 80.5011 49.9099 80.0964 50.0277C79.6947 50.1485 79.6494 50.6106 79.7219 51.2147C79.7974 51.8187 80.3924 52.0211 80.782 51.8187C80.782 51.8187 81.5431 52.3925 82.1169 52.8335C82.6908 53.2744 83.0411 53.3862 83.3703 53.0056C83.6995 52.6251 83.6331 51.6919 83.5636 51.4533C83.4972 51.2147 82.6394 50.4989 82.3404 50.2512C82.0414 50.0036 81.5431 49.7287 81.1626 49.8405C80.782 49.9522 80.7065 50.1848 80.7065 50.1848H80.7095Z" fill="#EFEFEF"/>
<path id="Vector_83" d="M80.7095 50.1848C80.7095 50.1848 80.5011 49.91 80.0964 50.0278C79.6947 50.1486 79.6494 50.6107 79.7219 51.2147C79.7974 51.8187 80.3924 52.0211 80.782 51.8187C80.782 51.8187 80.5797 50.8402 80.7065 50.1848H80.7095Z" fill="#414E52"/>
<g id="Vector_84" style="mix-blend-mode:multiply" opacity="0.15">
<path d="M83.5145 51.3538C83.4722 51.5561 83.3454 51.7887 82.983 51.8491C83.0222 51.9548 83.0071 52.0303 83.0071 52.0303L82.9648 53.2354C83.1128 53.2293 83.2427 53.1568 83.3726 53.0088C83.7018 52.6283 83.6353 51.695 83.5659 51.4564C83.5568 51.4293 83.5387 51.393 83.5115 51.3538H83.5145Z" fill="black"/>
</g>
<g id="Vector_85" style="mix-blend-mode:multiply" opacity="0.25">
<path d="M82.8077 51.6105C82.5631 51.4021 81.2493 50.2816 81.2493 50.2816C81.2493 50.2816 80.9352 50.0581 80.7117 50.185C80.5849 50.8434 80.7872 51.8189 80.7872 51.8189C80.7872 51.8189 81.5483 52.3927 82.1222 52.8337C82.4725 53.1025 82.7413 53.2474 82.9678 53.2323L83.0101 52.0273C83.0101 52.0273 83.0554 51.8189 82.8077 51.6105Z" fill="black"/>
</g>
<path id="Vector_86" d="M80.7861 51.8187C80.7861 51.8187 80.6773 51.2932 80.6713 50.7526C80.33 50.7707 79.9374 50.6741 79.7078 50.6046C79.6897 50.7798 79.7018 50.9882 79.729 51.2147C79.8045 51.8187 80.3995 52.0211 80.7891 51.8187H80.7861Z" fill="#283539"/>
<g id="Vector_87" style="mix-blend-mode:multiply" opacity="0.2">
<path d="M10.2973 71.5437C10.0195 71.3686 9.79297 71.4924 9.79297 71.8216V73.7757C9.79297 74.1049 10.0195 74.5156 10.2973 74.6908L18.6482 79.6681C18.9321 79.8312 19.1647 79.6983 19.1647 79.3691V77.415C19.1647 77.0858 18.9321 76.6841 18.6482 76.521L10.2973 71.5437Z" fill="black"/>
</g>
<path id="Vector_88" d="M18.8762 79.5595C18.849 79.5595 18.8007 79.5505 18.7373 79.5142L10.3894 74.5369C10.169 74.398 9.97266 74.0416 9.97266 73.7758V71.8217C9.97266 71.7704 9.98172 71.6436 10.0633 71.6436C10.0844 71.6436 10.1327 71.6496 10.2022 71.6949L18.5561 76.6752C18.7856 76.8081 18.985 77.1524 18.985 77.4152V79.3692C18.985 79.4629 18.9578 79.5082 18.9457 79.5293C18.9336 79.5444 18.9155 79.5595 18.8762 79.5595Z" fill="white"/>
<path id="Vector_89" d="M82.8087 51.6104C82.5641 51.402 81.2503 50.2815 81.2503 50.2815C81.2503 50.2815 81.1597 50.2181 81.0449 50.1788C81.051 50.4627 81.0691 51.405 81.0963 51.5953C81.1265 51.8188 81.649 52.1329 81.9389 52.3624C82.1775 52.5527 82.7181 52.9302 82.9779 53.0329L83.0111 52.0272C83.0111 52.0272 83.0564 51.8188 82.8087 51.6104Z" fill="url(#paint30_linear_1364_370)"/>
<path id="Vector_90" d="M49.7917 30.9099C49.396 30.8405 48.7286 30.7378 48.2151 30.7378C47.6383 30.7378 47.8074 31.1848 47.9312 31.4143C48.5655 31.212 49.1907 31.0368 49.7887 30.9099H49.7917Z" fill="#5098D9"/>
<path id="Vector_91" d="M49.7917 30.9099C49.396 30.8405 48.7286 30.7378 48.2151 30.7378C47.6383 30.7378 47.8074 31.1848 47.9312 31.4143C48.5655 31.212 49.1907 31.0368 49.7887 30.9099H49.7917Z" fill="#EFEFEF"/>
<path id="Vector_92" d="M64.367 65.4882L61.2773 67.1373V68.6806L62.0233 68.3454L62.0868 67.6719L64.512 66.4124C64.512 66.4124 64.6962 66.3067 64.6328 65.8507C64.5694 65.3946 64.4667 65.4339 64.367 65.4852V65.4882Z" fill="#2E383B"/>
<path id="Vector_93" d="M64.5845 65.6093C64.5241 65.416 64.4425 65.4462 64.367 65.4855L61.2773 67.1345V67.2946L64.367 65.6456C64.4153 65.6184 64.5029 65.5821 64.5845 65.6063V65.6093Z" fill="#485255"/>
<path id="Vector_94" style="mix-blend-mode:screen" opacity="0.3" d="M62.0895 67.6719L62.0352 68.2548L64.3215 67.089L64.403 66.4698L62.0895 67.6719Z" fill="url(#paint31_linear_1364_370)"/>
<g id="Group_8" style="mix-blend-mode:multiply" opacity="0.2">
<path id="Vector_95" d="M60.4874 77.8713C60.4814 77.8351 59.9347 74.1867 59.8622 72.882C59.7928 71.5802 59.4847 66.1771 59.4787 66.1227L59.0256 63.1146C58.8988 62.8367 55.187 54.7909 54.7883 54.1385C54.3715 53.4499 54.6675 52.8187 54.6796 52.7946L54.7732 52.8399C54.7732 52.8399 54.4893 53.4469 54.8789 54.0842C55.2836 54.7516 58.9683 62.7401 59.1223 63.0784V63.0935L59.5814 66.1137C59.5814 66.1741 59.8955 71.5742 59.9649 72.8789C60.0344 74.1806 60.5811 77.823 60.5871 77.8593L60.4844 77.8744L60.4874 77.8713Z" fill="black"/>
</g>
<g id="Group_9" style="mix-blend-mode:multiply" opacity="0.2">
<path id="Vector_96" d="M84.7019 64.2408L84.5992 64.2136C84.6113 64.1773 85.6774 60.3356 85.8677 58.3997C86.0519 56.5121 85.7258 52.773 85.7076 52.5465C85.6049 52.3532 83.9559 49.3058 82.5606 48.4088C81.1803 47.5209 73.6872 44.6638 67.7646 46.3974L67.7344 46.2977C73.6902 44.5551 81.2256 47.4303 82.6149 48.3213C84.0707 49.2575 85.7318 52.3744 85.8043 52.5073L85.8103 52.5284C85.8103 52.5677 86.1607 56.4637 85.9704 58.4118C85.7801 60.3598 84.7079 64.2075 84.6989 64.2468L84.7019 64.2408Z" fill="black"/>
</g>
</g>
</g>
<g id="Group 81">
<g id="Group 79">
<path id="Vector_97" d="M26.0396 0C27.3337 0.166396 28.6346 0.290344 29.9202 0.505979C36.7639 1.65038 42.7311 4.58438 47.8511 9.22478C47.8973 9.26553 47.9298 9.32156 48 9.40816C46.8291 10.7461 45.6566 12.0875 44.4395 13.4798C38.664 8.20603 31.8733 5.44182 24.0419 5.43503C16.2054 5.42824 9.40794 8.17377 3.58618 13.4815C2.38451 12.1095 1.20167 10.7597 0 9.38778C2.09008 7.43518 4.35305 5.79499 6.81459 4.43666C11.3816 1.91185 16.2705 0.444854 21.4931 0.103573C21.6574 0.0933854 21.8183 0.0356563 21.981 0C23.3333 0 24.6856 0 26.0396 0Z" fill="url(#paint32_linear_1364_370)"/>
<path id="Vector_98" d="M40.2985 18.205C39.1106 19.5616 37.95 20.8894 36.7517 22.2579C33.181 18.8706 28.9512 17.0657 24.0195 17.064C19.0827 17.064 14.8512 18.8655 11.2719 22.2579C10.0719 20.886 8.89937 19.5447 7.72852 18.2084C16.5339 9.5745 31.2278 9.38264 40.3002 18.205H40.2985Z" fill="url(#paint33_linear_1364_370)"/>
<path id="Vector_99" d="M18.9668 31.0516C17.7754 29.6898 16.5891 28.3349 15.4062 26.9833C19.8244 22.0254 28.1213 21.9694 32.6182 26.9816C31.4354 28.3332 30.2491 29.6898 29.0577 31.0516C26.3702 27.8646 21.6936 27.8391 18.9685 31.0516H18.9668Z" fill="url(#paint34_linear_1364_370)"/>
</g>
<circle id="Ellipse 68" cx="23.8548" cy="36.1938" r="3.29034" fill="url(#paint35_linear_1364_370)"/>
</g>
</g>
<defs>
<linearGradient id="paint0_linear_1364_370" x1="93.3739" y1="64.8902" x2="98.5959" y2="52.3262" gradientUnits="userSpaceOnUse">
<stop stop-color="#D0D2D4"/>
<stop offset="1" stop-color="#86898B"/>
</linearGradient>
<linearGradient id="paint1_linear_1364_370" x1="93.101" y1="63.9508" x2="97.9847" y2="52.2052" gradientUnits="userSpaceOnUse">
<stop stop-color="#B6B8BA"/>
<stop offset="1" stop-color="#6C6F71"/>
</linearGradient>
<linearGradient id="paint2_linear_1364_370" x1="95.1553" y1="65.2374" x2="93.3703" y2="61.7007" gradientUnits="userSpaceOnUse">
<stop stop-color="#D0D2D4"/>
<stop offset="1" stop-color="#86898B"/>
</linearGradient>
<linearGradient id="paint3_linear_1364_370" x1="92.4835" y1="60.7101" x2="93.4046" y2="56.7114" gradientUnits="userSpaceOnUse">
<stop stop-color="#F3F5F7"/>
<stop offset="1" stop-color="#86898B"/>
</linearGradient>
<linearGradient id="paint4_linear_1364_370" x1="98.2323" y1="63.4462" x2="98.2323" y2="58.4961" gradientUnits="userSpaceOnUse">
<stop stop-color="#C3C5C7"/>
<stop offset="1" stop-color="#797C7E"/>
</linearGradient>
<linearGradient id="paint5_linear_1364_370" x1="99.526" y1="56.5573" x2="96.092" y2="60.4836" gradientUnits="userSpaceOnUse">
<stop stop-color="white"/>
<stop offset="1" stop-color="#BABDBF"/>
</linearGradient>
<linearGradient id="paint6_linear_1364_370" x1="94.6009" y1="56.944" x2="97.3281" y2="53.7214" gradientUnits="userSpaceOnUse">
<stop stop-color="white"/>
<stop offset="1" stop-color="#BABDBF"/>
</linearGradient>
<linearGradient id="paint7_linear_1364_370" x1="96.1081" y1="58.306" x2="96.4766" y2="57.5117" gradientUnits="userSpaceOnUse">
<stop stop-color="white"/>
<stop offset="1" stop-color="#BABDBF"/>
</linearGradient>
<linearGradient id="paint8_linear_1364_370" x1="94.7203" y1="58.6413" x2="95.0888" y2="57.847" gradientUnits="userSpaceOnUse">
<stop stop-color="white"/>
<stop offset="1" stop-color="#BABDBF"/>
</linearGradient>
<linearGradient id="paint9_linear_1364_370" x1="93.8121" y1="60.3086" x2="94.1836" y2="59.5143" gradientUnits="userSpaceOnUse">
<stop stop-color="white"/>
<stop offset="1" stop-color="#BABDBF"/>
</linearGradient>
<linearGradient id="paint10_linear_1364_370" x1="94.7203" y1="61.2177" x2="95.0888" y2="60.4234" gradientUnits="userSpaceOnUse">
<stop stop-color="white"/>
<stop offset="1" stop-color="#BABDBF"/>
</linearGradient>
<linearGradient id="paint11_linear_1364_370" x1="96.0515" y1="59.9521" x2="96.4199" y2="59.1578" gradientUnits="userSpaceOnUse">
<stop stop-color="white"/>
<stop offset="1" stop-color="#BABDBF"/>
</linearGradient>
<linearGradient id="paint12_linear_1364_370" x1="95.3643" y1="58.164" x2="95.331" y2="59.8462" gradientUnits="userSpaceOnUse">
<stop stop-color="#EAECEE"/>
<stop offset="1" stop-color="#A0A3A5"/>
</linearGradient>
<linearGradient id="paint13_linear_1364_370" x1="40.8768" y1="95.0713" x2="46.0987" y2="82.5073" gradientUnits="userSpaceOnUse">
<stop stop-color="#D0D2D4"/>
<stop offset="1" stop-color="#86898B"/>
</linearGradient>
<linearGradient id="paint14_linear_1364_370" x1="40.605" y1="94.1292" x2="45.4886" y2="82.3866" gradientUnits="userSpaceOnUse">
<stop stop-color="#B6B8BA"/>
<stop offset="1" stop-color="#6C6F71"/>
</linearGradient>
<linearGradient id="paint15_linear_1364_370" x1="42.6475" y1="95.4188" x2="40.8625" y2="91.8792" gradientUnits="userSpaceOnUse">
<stop stop-color="#D0D2D4"/>
<stop offset="1" stop-color="#86898B"/>
</linearGradient>
<linearGradient id="paint16_linear_1364_370" x1="39.9765" y1="90.8884" x2="40.8947" y2="86.8896" gradientUnits="userSpaceOnUse">
<stop stop-color="#F3F5F7"/>
<stop offset="1" stop-color="#86898B"/>
</linearGradient>
<linearGradient id="paint17_linear_1364_370" x1="45.7341" y1="93.6246" x2="45.7341" y2="88.6745" gradientUnits="userSpaceOnUse">
<stop stop-color="#C3C5C7"/>
<stop offset="1" stop-color="#797C7E"/>
</linearGradient>
<linearGradient id="paint18_linear_1364_370" x1="47.021" y1="86.7355" x2="43.587" y2="90.6618" gradientUnits="userSpaceOnUse">
<stop stop-color="white"/>
<stop offset="1" stop-color="#BABDBF"/>
</linearGradient>
<linearGradient id="paint19_linear_1364_370" x1="42.0989" y1="87.1223" x2="44.8262" y2="83.9027" gradientUnits="userSpaceOnUse">
<stop stop-color="white"/>
<stop offset="1" stop-color="#BABDBF"/>
</linearGradient>
<linearGradient id="paint20_linear_1364_370" x1="43.6012" y1="88.4844" x2="43.9727" y2="87.6901" gradientUnits="userSpaceOnUse">
<stop stop-color="white"/>
<stop offset="1" stop-color="#BABDBF"/>
</linearGradient>
<linearGradient id="paint21_linear_1364_370" x1="42.2164" y1="88.8195" x2="42.5849" y2="88.0251" gradientUnits="userSpaceOnUse">
<stop stop-color="white"/>
<stop offset="1" stop-color="#BABDBF"/>
</linearGradient>
<linearGradient id="paint22_linear_1364_370" x1="41.3082" y1="90.4867" x2="41.6767" y2="89.6923" gradientUnits="userSpaceOnUse">
<stop stop-color="white"/>
<stop offset="1" stop-color="#BABDBF"/>
</linearGradient>
<linearGradient id="paint23_linear_1364_370" x1="42.2164" y1="91.3958" x2="42.5849" y2="90.6014" gradientUnits="userSpaceOnUse">
<stop stop-color="white"/>
<stop offset="1" stop-color="#BABDBF"/>
</linearGradient>
<linearGradient id="paint24_linear_1364_370" x1="43.5515" y1="90.13" x2="43.9199" y2="89.3357" gradientUnits="userSpaceOnUse">
<stop stop-color="white"/>
<stop offset="1" stop-color="#BABDBF"/>
</linearGradient>
<linearGradient id="paint25_linear_1364_370" x1="42.8643" y1="88.3423" x2="42.831" y2="90.0276" gradientUnits="userSpaceOnUse">
<stop stop-color="#EAECEE"/>
<stop offset="1" stop-color="#A0A3A5"/>
</linearGradient>
<linearGradient id="paint26_linear_1364_370" x1="88.4403" y1="39.8711" x2="99.5607" y2="39.8711" gradientUnits="userSpaceOnUse">
<stop stop-color="white"/>
<stop offset="1"/>
</linearGradient>
<linearGradient id="paint27_linear_1364_370" x1="85.7646" y1="57.3155" x2="103.022" y2="57.3155" gradientUnits="userSpaceOnUse">
<stop/>
<stop offset="0.41" stop-color="white"/>
<stop offset="0.79" stop-color="white"/>
<stop offset="1"/>
</linearGradient>
<linearGradient id="paint28_linear_1364_370" x1="32.1094" y1="85.9319" x2="51.185" y2="85.9319" gradientUnits="userSpaceOnUse">
<stop/>
<stop offset="0.41" stop-color="white"/>
<stop offset="0.79" stop-color="white"/>
<stop offset="1"/>
</linearGradient>
<linearGradient id="paint29_linear_1364_370" x1="100.344" y1="42.2689" x2="103.811" y2="42.2689" gradientUnits="userSpaceOnUse">
<stop stop-color="white"/>
<stop offset="1" stop-color="white"/>
</linearGradient>
<linearGradient id="paint30_linear_1364_370" x1="83.5819" y1="50.5805" x2="79.3929" y2="53.3138" gradientUnits="userSpaceOnUse">
<stop stop-color="white"/>
<stop offset="1"/>
</linearGradient>
<linearGradient id="paint31_linear_1364_370" x1="63.3369" y1="67.5752" x2="63.065" y2="67.086" gradientUnits="userSpaceOnUse">
<stop stop-color="white"/>
<stop offset="1"/>
</linearGradient>
<linearGradient id="paint32_linear_1364_370" x1="44.9449" y1="13.4824" x2="28.8156" y2="-10.9274" gradientUnits="userSpaceOnUse">
<stop stop-color="#700005"/>
<stop offset="0.566666" stop-color="#B5070E" stop-opacity="0.9855"/>
<stop offset="1" stop-color="#FF0F18" stop-opacity="0.97"/>
</linearGradient>
<linearGradient id="paint33_linear_1364_370" x1="38.2271" y1="22.2587" x2="24.9222" y2="4.87697" gradientUnits="userSpaceOnUse">
<stop stop-color="#700005"/>
<stop offset="0.566666" stop-color="#B5070E" stop-opacity="0.9855"/>
<stop offset="1" stop-color="#FF0F18" stop-opacity="0.97"/>
</linearGradient>
<linearGradient id="paint34_linear_1364_370" x1="31.5227" y1="31.0521" x2="21.3893" y2="21.5571" gradientUnits="userSpaceOnUse">
<stop stop-color="#700005"/>
<stop offset="0.566666" stop-color="#B5070E" stop-opacity="0.9855"/>
<stop offset="1" stop-color="#FF0F18" stop-opacity="0.97"/>
</linearGradient>
<linearGradient id="paint35_linear_1364_370" x1="26.7263" y1="39.4846" x2="20.5638" y2="36.8652" gradientUnits="userSpaceOnUse">
<stop stop-color="#700005"/>
<stop offset="0.566666" stop-color="#B5070E" stop-opacity="0.9855"/>
<stop offset="1" stop-color="#FF0F18" stop-opacity="0.97"/>
</linearGradient>
</defs>
</svg>
