<svg width="41" height="40" viewBox="0 0 41 40" fill="none" xmlns="http://www.w3.org/2000/svg">
<g clip-path="url(#clip0_1079_4451)">
<path d="M41.0003 19.6875V20.3125C40.5341 20.8062 40.0775 21.3104 39.5963 21.7896C39.3332 22.0521 38.9793 22.0417 38.7355 21.8156C38.4863 21.5844 38.4831 21.2687 38.7301 20.9781C38.8178 20.874 38.9119 20.774 39.0434 20.626H35.9969C35.3905 22.0552 34.5907 22.5094 32.9909 22.3625C32.9011 22.3542 32.761 22.426 32.7129 22.5021C31.7879 23.9438 30.8725 25.3927 29.9422 26.8615C30.7111 27.6521 31.4682 28.4375 32.2381 29.2115C32.2958 29.2698 32.4637 29.2844 32.5471 29.2479C33.763 28.7052 35.4419 29.174 35.9947 30.8417H39.067C38.9322 30.6979 38.8338 30.5979 38.7419 30.4937C38.4884 30.2073 38.4842 29.8969 38.7258 29.6552C38.9729 29.4094 39.3108 29.3865 39.5781 29.6552C40.0679 30.1458 40.5288 30.6646 41.0014 31.1719V31.7188C40.5149 32.249 40.0433 32.7938 39.5332 33.3021C39.2979 33.5365 38.9151 33.4854 38.7087 33.251C38.4863 32.9979 38.4959 32.7292 38.7034 32.4708C38.805 32.3438 38.9205 32.2281 39.0841 32.0469C38.1077 32.0469 37.2181 32.0583 36.3294 32.0396C36.0674 32.0344 35.969 32.1323 35.876 32.3542C35.2376 33.8865 33.3609 34.3781 32.0349 33.3542C31.8221 33.1896 31.6884 33.1688 31.4553 33.299C29.3487 34.4677 27.2357 35.624 25.1248 36.7854C25.0242 36.8406 24.9301 36.9073 24.866 36.9479C24.8831 37.199 24.9077 37.4052 24.9088 37.6115C24.913 38.2167 24.6949 38.5187 24.2725 38.5115C23.8693 38.5042 23.71 38.2521 23.7121 37.625C23.7143 37.0417 23.2994 36.526 22.7037 36.3729C22.1819 36.2385 21.5927 36.5031 21.3221 36.9917C20.8698 37.8104 21.4676 38.7823 22.4621 38.8219C22.7636 38.8344 23.016 38.8792 23.1518 39.175C23.3282 39.5573 23.078 39.7781 22.831 40.001H21.9509C21.0751 39.6979 20.3843 39.2031 20.0582 38.3083C20.0336 38.2396 19.8678 38.1854 19.7662 38.1844C18.6071 38.176 17.4468 38.176 16.2876 38.1844C16.1935 38.1844 16.0428 38.2552 16.016 38.3271C15.6867 39.224 15.0033 39.7271 14.1062 40.001H13.1459C13.0133 39.9479 12.8818 39.8937 12.7481 39.8438C11.6819 39.4437 10.9869 38.3375 11.1804 37.2667C11.2317 36.9802 11.1398 36.8812 10.9163 36.7604C9.2759 35.8687 7.64193 34.9667 6.00583 34.0677C5.44014 33.7573 4.87338 33.449 4.31197 33.1417C4.19541 33.2375 4.10559 33.3156 4.01149 33.3865C3.08329 34.0812 1.79151 34.0552 0.909298 33.325C0.0131814 32.5833 -0.242394 31.3604 0.290143 30.3531C0.816264 29.3563 2.01608 28.7698 3.08115 29.1313C3.65325 29.325 3.96123 29.1906 4.27348 28.7833C4.36865 28.6594 4.49269 28.5562 4.60177 28.4427C5.11185 27.9156 5.62193 27.3875 6.13201 26.8583C5.20809 25.4 4.30128 23.976 3.40409 22.5458C3.29609 22.374 3.19557 22.3323 2.98705 22.374C1.97865 22.574 0.961696 22.1604 0.423812 21.324C-0.138667 20.449 -0.138667 19.551 0.423812 18.6771C0.961696 17.8396 1.97972 17.4229 2.98705 17.6281C3.22872 17.6771 3.31748 17.5927 3.42441 17.4219C4.04891 16.4229 4.68197 15.4292 5.31182 14.4344C5.68074 13.8521 6.04967 13.2698 6.42501 12.6781C5.66363 11.8948 4.92257 11.1333 4.18579 10.376C2.68121 11.226 1.43435 11.1146 0.57566 10.0719C-0.209244 9.11771 -0.173955 7.76875 0.678318 6.89583C1.72307 5.82604 3.22551 5.86146 4.33871 6.85104C6.57258 5.62396 8.81287 4.39583 11.0457 3.15521C11.1334 3.10625 11.1804 2.93542 11.19 2.81771C11.2136 2.53646 11.1676 2.24688 11.2125 1.96979C11.2874 1.5125 11.5739 1.29583 11.93 1.37083C12.3022 1.44896 12.4658 1.73333 12.3984 2.18542C12.2893 2.91562 12.7951 3.58021 13.5266 3.66771C14.1575 3.74271 14.8226 3.21146 14.9039 2.56667C14.9894 1.89375 14.4291 1.23125 13.6891 1.18542C13.3384 1.16354 13.0454 1.10729 12.9342 0.746875C12.8261 0.395833 13.0496 0.185417 13.3052 0H14.1062C14.9905 0.291667 15.6781 0.790625 16.0139 1.68021C16.0406 1.75104 16.1957 1.81458 16.2919 1.81562C17.4511 1.825 18.6103 1.825 19.7694 1.81562C19.8678 1.81562 20.0293 1.75417 20.055 1.68542C20.3779 0.788542 21.058 0.282292 21.9499 0C22.2696 0 22.5904 0 22.9101 0C22.9305 0.0166667 22.9486 0.040625 22.9711 0.0479167C24.4243 0.526042 25.021 1.41458 24.8884 2.87604C24.8799 2.975 24.9836 3.12812 25.0788 3.18437C25.5685 3.47292 26.0722 3.7375 26.5716 4.01042C28.2975 4.95833 30.0235 5.90625 31.743 6.85C33.4817 5.58021 34.9414 5.91562 35.9498 7.79687C35.9851 7.8625 36.076 7.94375 36.1412 7.94375C37.094 7.95312 38.0479 7.95 39.0809 7.95C38.9087 7.75625 38.7793 7.63125 38.6756 7.48854C38.4767 7.21771 38.4981 6.94167 38.744 6.71562C38.99 6.48854 39.3086 6.46667 39.5375 6.69479C40.0476 7.20208 40.5159 7.74896 41.0014 8.28021V8.82708C40.5181 9.34167 40.0497 9.87083 39.5471 10.3656C39.2958 10.6125 38.9611 10.5729 38.7248 10.3406C38.497 10.1167 38.4916 9.79896 38.7173 9.53229C38.8157 9.41667 38.9247 9.31042 39.0702 9.15729H35.9894C35.7124 9.99792 35.1756 10.5938 34.3062 10.8521C33.4293 11.1125 32.6295 10.9125 31.9066 10.3583C31.1431 11.1448 30.402 11.9073 29.6524 12.6802C30.6811 14.3042 31.6938 15.9073 32.7204 17.501C32.7728 17.5823 32.961 17.6323 33.0743 17.6156C34.1533 17.4562 35.1157 17.7417 35.613 18.6792C35.9755 19.3625 36.4128 19.4802 37.0651 19.4031C37.1967 19.3875 37.3314 19.401 37.4651 19.401C37.9762 19.401 38.4863 19.401 39.083 19.401C38.9183 19.2219 38.8178 19.1219 38.728 19.0146C38.4842 18.726 38.4927 18.4125 38.744 18.1781C38.9857 17.9531 39.3407 17.9479 39.6016 18.2104C40.0807 18.6917 40.5373 19.1938 41.0036 19.6875H41.0003ZM26.3791 24.9177C25.4488 23.9615 24.5591 23.0469 23.6587 22.1208C22.8192 22.5406 21.9873 22.5135 21.3339 22.1885C20.4774 22.9635 19.6892 23.6771 18.7771 24.5021C19.5438 25.1948 20.2731 25.8625 21.0174 26.5146C21.0986 26.5854 21.2869 26.6198 21.3874 26.5802C22.2097 26.25 22.9946 26.2917 23.7645 26.7292C23.8415 26.7729 24.0051 26.7729 24.0714 26.7219C24.836 26.1375 25.5889 25.5385 26.3791 24.9177ZM9.69616 24.9146C10.4832 25.5365 11.2339 26.1375 11.9985 26.7208C12.069 26.775 12.2487 26.7604 12.3385 26.7115C13.0999 26.2906 13.8741 26.2542 14.6793 26.5812C14.7702 26.6177 14.937 26.6271 14.9916 26.574C15.7252 25.8615 16.4448 25.1344 17.1934 24.3865C16.3807 23.6396 15.5968 22.9187 14.7745 22.1625C14.1233 22.4854 13.3587 22.5385 12.5727 22.201C12.4925 22.1667 12.3203 22.2312 12.2476 22.3042C11.405 23.1542 10.572 24.0156 9.69509 24.9167L9.69616 24.9146ZM21.0698 4.45625C20.3063 5.23854 19.5727 5.99062 18.8423 6.73958C18.8658 6.77708 18.8765 6.80208 18.8936 6.81979C19.5716 7.5 20.2592 8.17083 20.9233 8.86354C21.1126 9.06042 21.258 9.07396 21.5039 8.97396C22.5925 8.53333 23.7891 8.88646 24.4746 9.82604C24.5345 9.90729 24.5965 9.98646 24.6585 10.0677C25.2103 9.93229 25.7418 9.80104 26.3085 9.66146C25.283 8.04271 24.2939 6.47396 23.293 4.91146C23.2459 4.8375 23.093 4.76667 23.0107 4.78542C22.3263 4.93437 21.6932 4.81458 21.0698 4.45521V4.45625ZM21.1853 35.3406C21.7445 35.2875 22.3038 35.1844 22.8577 35.2042C23.1326 35.2146 23.2566 35.174 23.3903 34.9594C24.2853 33.5292 25.1921 32.1063 26.0936 30.6802C26.161 30.574 26.2187 30.4625 26.2968 30.3281C25.7183 30.1896 25.1793 30.0604 24.651 29.9344C23.8779 31.1271 22.5284 31.5344 21.3435 30.9719C21.273 30.9385 21.1211 30.9604 21.0666 31.0135C20.3383 31.7281 19.6197 32.4521 18.8626 33.2115C19.6796 33.9604 20.4645 34.6802 21.1842 35.3396L21.1853 35.3406ZM9.76032 30.3333C10.7805 31.9448 11.7654 33.5031 12.7609 35.0552C12.8144 35.1396 12.9769 35.2281 13.0646 35.2094C13.7052 35.0729 14.3029 35.1833 14.72 35.3875C15.5658 34.6135 16.3571 33.8896 17.2768 33.0479C16.5357 32.3833 15.815 31.725 15.0761 31.0875C14.9809 31.0052 14.7831 30.9969 14.6398 31.0125C14.2217 31.0594 13.8035 31.2104 13.3929 31.1875C12.5214 31.1385 11.8851 30.6615 11.4317 29.9302C10.881 30.0625 10.341 30.1927 9.75925 30.3333H9.76032ZM11.4125 10.0656C12.4027 8.80104 13.1437 8.57292 14.7136 9.02187C14.7927 9.04479 14.9189 9.01146 14.9841 8.95833C15.137 8.83437 15.2664 8.68229 15.4033 8.54167C15.9775 7.95208 16.5518 7.3625 17.1581 6.73958C16.3625 6.00521 15.599 5.3 14.8045 4.56667C14.3404 4.8125 13.7704 4.92812 13.1801 4.8C12.9299 4.74583 12.8272 4.81667 12.7075 5.00833C11.8883 6.31667 11.0585 7.61771 10.233 8.92188C10.0801 9.1625 9.92928 9.40417 9.76353 9.66875C10.3431 9.80833 10.8831 9.9375 11.4125 10.0656ZM25.9578 14.751C25.3151 14.2458 24.7312 13.7729 24.1281 13.324C24.0362 13.2552 23.8276 13.2406 23.726 13.2958C22.9754 13.7 22.2161 13.7448 21.4227 13.4323C21.32 13.3917 21.135 13.376 21.0751 13.4333C20.3416 14.1438 19.6251 14.8708 18.868 15.6292C19.6786 16.3719 20.4635 17.0906 21.2248 17.7865C21.6665 17.7229 22.1648 17.5687 22.6471 17.6083C23.0663 17.6427 23.3154 17.526 23.5496 17.2375C23.648 17.1156 23.7699 17.0115 23.879 16.8979C24.5634 16.1917 25.2467 15.4844 25.9578 14.75V14.751ZM10.1175 14.7542C11.0425 15.7073 11.93 16.624 12.8219 17.5344C12.8785 17.5917 12.9876 17.6542 13.0539 17.6385C13.7041 17.4844 14.3136 17.6167 14.7307 17.8135C15.584 17.0333 16.3689 16.3167 17.2832 15.4802C16.5293 14.8021 15.7989 14.1354 15.0525 13.4844C14.9713 13.4135 14.7841 13.3813 14.6836 13.4219C13.8763 13.7438 13.1042 13.7104 12.3396 13.2917C12.2444 13.2396 12.0498 13.2417 11.9675 13.3031C11.3558 13.7635 10.7612 14.2448 10.1164 14.7542H10.1175ZM9.1679 15.5042C7.73497 16.6333 6.32449 17.7406 4.92471 18.8594C4.852 18.9177 4.81778 19.0927 4.84986 19.1854C4.88194 19.276 5.02095 19.3927 5.11399 19.3927C7.08694 19.4042 9.05882 19.4031 11.0318 19.3948C11.1141 19.3948 11.2296 19.3198 11.2735 19.2479C11.4638 18.9271 11.6338 18.5948 11.8263 18.2375C10.9623 17.349 10.0747 16.4365 9.1679 15.5052V15.5042ZM24.2351 18.2521C24.4233 18.5688 24.62 18.8229 24.7312 19.1083C24.8253 19.35 24.9526 19.4083 25.1985 19.4073C27.0646 19.3979 28.9295 19.4031 30.7955 19.4021C30.9773 19.4021 31.1506 19.4354 31.2447 19.1917C31.343 18.9406 31.1698 18.8667 31.0351 18.7594C29.7625 17.751 28.4889 16.7458 27.2143 15.7417C27.1148 15.6635 27.0057 15.5958 26.8924 15.5167C25.9888 16.4469 25.1109 17.351 24.2361 18.2521H24.2351ZM11.5247 21.3094C11.4499 21.1542 11.3643 21.0312 11.3301 20.8958C11.2702 20.6656 11.1419 20.6 10.9024 20.601C9.00963 20.6104 7.11581 20.6073 5.22306 20.6042C5.03806 20.6042 4.84237 20.6042 4.84344 20.8271C4.84344 20.9625 4.92364 21.1396 5.02951 21.2271C5.70213 21.7802 6.39186 22.3135 7.07732 22.8521C7.63338 23.2896 8.19051 23.725 8.75406 24.1688C9.7015 23.1917 10.6158 22.2479 11.5247 21.3104V21.3094ZM27.3287 24.1688C28.6002 23.1656 29.8363 22.1969 31.0607 21.2125C31.1623 21.1313 31.2564 20.9198 31.2158 20.8229C31.1719 20.7177 30.9688 20.6177 30.833 20.6156C29.8331 20.599 28.8333 20.6063 27.8334 20.6063C26.9266 20.6063 26.0198 20.5979 25.1141 20.6167C24.9964 20.6187 24.8114 20.7375 24.7826 20.8375C24.7248 21.0344 24.4297 21.2021 24.6863 21.4615C25.5643 22.35 26.4315 23.2479 27.3287 24.1688ZM11.7311 35.851L11.7889 35.7917C10.7334 34.125 9.68012 32.4573 8.61184 30.7979C8.56264 30.7208 8.36588 30.6792 8.25681 30.7031C7.36283 30.901 6.4742 31.1187 5.58343 31.3292C5.1835 31.4236 4.96499 31.6865 4.92792 32.1177C7.19067 33.3594 9.45983 34.6042 11.7301 35.85L11.7311 35.851ZM4.87659 7.9125C5.05517 8.13646 4.80708 8.50312 5.25942 8.6C6.24429 8.8125 7.22382 9.05521 8.20014 9.30208C8.44716 9.36458 8.57013 9.30625 8.7038 9.09167C9.67905 7.52812 10.6714 5.97396 11.6573 4.41562C11.7023 4.34375 11.7386 4.26771 11.8349 4.09271C9.45876 5.39687 7.18318 6.64583 4.87659 7.91146V7.9125ZM27.5565 9.37292C28.6215 9.11563 29.6588 8.84062 30.7089 8.62396C31.0393 8.55521 31.0768 8.38333 31.1399 8.13333C31.2115 7.84688 30.9976 7.80521 30.834 7.71562C28.7606 6.57396 26.6849 5.43333 24.6093 4.29375C24.5131 4.24167 24.4104 4.20104 24.2254 4.11667C25.3686 5.91979 26.4582 7.63958 27.5565 9.37396V9.37292ZM24.2778 35.8021C24.2992 35.8198 24.3195 35.8385 24.3409 35.8563C26.5545 34.6396 28.768 33.424 30.9752 32.1969C31.0639 32.1479 31.1302 31.9719 31.1185 31.8635C31.1003 31.6927 31.1452 31.475 30.8575 31.4104C29.7593 31.1635 28.6665 30.8969 27.5533 30.6333C26.4561 32.3656 25.3664 34.0844 24.2778 35.8031V35.8021ZM17.8959 7.71146C17.4073 8.21042 16.8704 8.80625 16.2802 9.34688C15.877 9.71667 15.6738 10.0646 16.0353 10.5542C16.0492 10.574 16.0674 10.5906 16.0909 10.6167H20.0026C20.071 10.4562 20.1544 10.3073 20.1961 10.1469C20.2239 10.0417 20.2378 9.87187 20.1769 9.81354C19.4315 9.10938 18.6712 8.42083 17.897 7.71146H17.8959ZM18.0628 32.1875C18.6113 31.6792 19.208 31.1396 19.7876 30.5844C20.3255 30.0698 20.317 30.0625 19.994 29.3948H16.0641C15.9882 29.5729 15.9048 29.725 15.861 29.8865C15.8364 29.9792 15.8364 30.1292 15.8941 30.1844C16.6213 30.8698 17.3602 31.5427 18.0628 32.1875ZM16.0631 11.8073C16.0192 11.9187 16.0021 12.0156 15.9487 12.0854C15.7113 12.3979 15.8513 12.6083 16.1026 12.8375C16.493 13.1917 16.8533 13.576 17.2265 13.949C17.4928 14.2146 17.758 14.4823 17.9687 14.6937C18.606 14.1052 19.2038 13.5667 19.7855 13.0125C20.3212 12.5021 20.3137 12.4948 19.9951 11.8083H16.0631V11.8073ZM20.0047 28.1927C20.0817 28.0125 20.164 27.8615 20.2079 27.699C20.2335 27.6052 20.241 27.4521 20.1844 27.3979C19.4593 26.7104 18.7226 26.0354 18.0125 25.3802C17.4789 25.8781 16.9036 26.4552 16.2802 26.9792C15.8428 27.3469 15.676 27.701 16.1101 28.1927H20.0036H20.0047ZM18.0211 23.3833C18.6894 22.7729 19.3888 22.1115 20.1159 21.4792C20.3907 21.2406 20.1662 21.0698 20.1181 20.8615C20.0646 20.6313 19.9181 20.6 19.7074 20.6021C18.7204 20.6104 17.7313 20.6427 16.7475 20.5906C16.2267 20.5635 15.9198 20.6958 15.8032 21.1938C15.7979 21.2188 15.7947 21.2448 15.7818 21.3302C16.5304 22.0167 17.3067 22.7281 18.0221 23.3823L18.0211 23.3833ZM15.7722 18.6719C15.9576 19.158 16.2919 19.401 16.7753 19.401C17.7462 19.401 18.7172 19.3958 19.6882 19.4052C19.9138 19.4073 20.025 19.3458 20.133 19.1302C20.2849 18.825 20.2635 18.6323 19.9983 18.401C19.3086 17.799 18.6456 17.1687 18.0339 16.6062C17.3057 17.2719 16.5315 17.9802 15.7744 18.6719H15.7722ZM18.0499 34.2198C17.3698 34.8375 16.6095 35.5083 15.8856 36.2156C15.8075 36.2917 15.9155 36.5823 15.9839 36.7562C16.0203 36.8479 16.1561 36.9625 16.2481 36.9635C17.4351 36.9771 18.622 36.9781 19.809 36.9635C19.9106 36.9625 20.0603 36.8323 20.0988 36.7312C20.164 36.5594 20.2507 36.2719 20.1662 36.1896C19.4551 35.4896 18.7076 34.824 18.051 34.2208L18.0499 34.2198ZM18.0745 5.80521C18.7076 5.15625 19.4208 4.43958 20.1084 3.70104C20.1844 3.61979 20.1427 3.39687 20.0967 3.25938C20.0646 3.16563 19.9299 3.04167 19.839 3.04063C18.6413 3.02604 17.4436 3.02604 16.2459 3.04063C16.154 3.04167 16.0182 3.15729 15.9829 3.24896C15.9155 3.42292 15.8075 3.7125 15.8856 3.78854C16.5881 4.47604 17.3281 5.12812 18.0745 5.80729V5.80521ZM27.2153 25.7833C26.5823 26.2823 25.9974 26.7781 25.3761 27.224C24.9301 27.5438 24.5569 27.8427 24.8981 28.4385C24.9216 28.4792 24.8884 28.5531 24.9141 28.5906C24.9718 28.676 25.036 28.7969 25.1216 28.8198C25.6594 28.9646 26.2005 29.101 26.748 29.2062C26.8603 29.2281 27.0571 29.1406 27.1223 29.0438C27.5244 28.4469 27.9072 27.8365 28.2761 27.2198C28.3296 27.1312 28.3178 26.9354 28.2526 26.8604C27.9318 26.4969 27.5821 26.1573 27.2164 25.7833H27.2153ZM8.85779 25.7812C8.49955 26.151 8.14239 26.5 7.81517 26.874C7.75101 26.9469 7.74994 27.1417 7.80341 27.2313C8.17233 27.8458 8.55516 28.4542 8.95831 29.0479C9.02247 29.1437 9.2203 29.2271 9.33365 29.2052C9.86618 29.1021 10.3934 28.9677 10.9163 28.8271C11.0072 28.8021 11.1184 28.7063 11.1441 28.6208C11.2285 28.3385 11.2788 28.0469 11.3451 27.7437C10.5249 27.0969 9.69937 26.4448 8.85779 25.7823V25.7812ZM28.1211 12.526C27.9404 12.2385 27.7703 11.9615 27.5928 11.6885C27.395 11.3833 27.2517 10.925 26.9715 10.8198C26.6721 10.7073 26.2433 10.9698 25.8658 10.9948C25.174 11.0406 24.7922 11.3521 24.7729 12.0406C24.7697 12.1417 24.7826 12.2854 24.8478 12.3385C25.4862 12.8604 26.1385 13.3677 26.8004 13.8896C27.2549 13.4208 27.6826 12.9792 28.1211 12.526ZM11.3515 12.2552C11.2799 11.9552 11.2317 11.6875 11.1483 11.4302C11.1163 11.3313 11.0189 11.2042 10.9248 11.1792C10.3891 11.0323 9.84801 10.9042 9.30478 10.7896C9.21281 10.7698 9.0492 10.8125 9.00429 10.8802C8.64392 11.4208 8.30386 11.974 7.95205 12.5312C8.40224 12.9917 8.83105 13.4292 9.27911 13.8875C9.98381 13.3333 10.6639 12.7969 11.3515 12.2563V12.2552ZM23.7111 2.48021C23.7474 1.81562 23.1882 1.21563 22.4952 1.17396C21.8269 1.13437 21.2045 1.68958 21.1596 2.36354C21.1168 3.01562 21.6879 3.62812 22.3765 3.66979C23.0491 3.70937 23.6736 3.15208 23.71 2.48021H23.7111ZM2.49622 9.77292C3.19129 9.77292 3.77623 9.21146 3.7773 8.53958C3.77944 7.87396 3.18702 7.29792 2.50049 7.29583C1.81183 7.29375 1.22155 7.86562 1.22048 8.53542C1.22048 9.20625 1.80221 9.77187 2.49622 9.77292ZM2.50691 30.226C1.80862 30.2229 1.2269 30.7781 1.22048 31.4531C1.21406 32.1198 1.80114 32.6979 2.49087 32.7031C3.17846 32.7083 3.77195 32.1396 3.77837 31.4698C3.78478 30.8 3.20092 30.2302 2.50798 30.2271L2.50691 30.226ZM34.843 19.9844C34.8366 19.3104 34.2463 18.7406 33.5619 18.749C32.8776 18.7573 32.2926 19.3427 32.3022 20.0094C32.3119 20.6719 32.9225 21.2583 33.5908 21.249C34.2763 21.2396 34.8484 20.6604 34.842 19.9844H34.843ZM34.843 8.54896C34.8494 7.86667 34.2848 7.30208 33.5876 7.29479C32.8979 7.2875 32.3097 7.85 32.3022 8.52604C32.2948 9.20625 32.8637 9.76875 33.563 9.77292C34.2645 9.77708 34.8366 9.23021 34.843 8.55V8.54896ZM14.9092 20.0208C14.9199 19.3542 14.3393 18.7646 13.656 18.749C12.9844 18.7333 12.376 19.3115 12.3599 19.9792C12.3439 20.6396 12.932 21.2344 13.6153 21.249C14.2954 21.2635 14.8986 20.6917 14.9092 20.0208ZM34.843 31.476C34.8494 30.7906 34.2891 30.2313 33.5919 30.226C32.885 30.2198 32.3151 30.7594 32.3022 31.4448C32.2905 32.1156 32.8669 32.6917 33.5598 32.7021C34.2549 32.7125 34.8366 32.1562 34.843 31.476ZM13.6207 38.826C14.3019 38.8375 14.9018 38.2646 14.9092 37.5938C14.9178 36.9271 14.3329 36.3396 13.6517 36.3271C12.9791 36.3146 12.3727 36.8948 12.361 37.5615C12.3492 38.2229 12.9384 38.8146 13.6207 38.826ZM23.7132 19.9833C23.7047 19.3156 23.1122 18.7479 22.4268 18.749C21.736 18.75 21.15 19.3792 21.1703 20.0979C21.1863 20.7 21.814 21.2604 22.4578 21.2479C23.1422 21.2344 23.7218 20.651 23.7132 19.9833ZM2.48018 21.2479C3.15066 21.2594 3.76554 20.676 3.77837 20.0156C3.79013 19.3656 3.18809 18.7615 2.51439 18.749C1.84284 18.7365 1.23331 19.3177 1.22155 19.9813C1.20979 20.6417 1.80007 21.2354 2.48018 21.2479ZM22.4492 12.4396C23.1422 12.4344 23.7196 11.8656 23.7132 11.1969C23.7068 10.5219 23.1294 9.97708 22.4257 9.98125C21.7274 9.98542 21.151 10.551 21.1596 11.2219C21.1682 11.8948 21.751 12.4448 22.4492 12.4406V12.4396ZM13.6356 12.4396C14.3371 12.4417 14.9071 11.8927 14.9103 11.2135C14.9125 10.5333 14.3468 9.98229 13.6431 9.98021C12.9406 9.97812 12.3631 10.5281 12.361 11.2031C12.3578 11.8677 12.9459 12.4375 13.6367 12.4396H13.6356ZM13.6356 30.0177C14.3414 30.0135 14.905 29.4698 14.9103 28.7885C14.9146 28.1219 14.3329 27.5594 13.6378 27.5594C12.9459 27.5594 12.361 28.1229 12.361 28.7906C12.361 29.4625 12.9427 30.0229 13.6367 30.0187L13.6356 30.0177ZM22.4279 27.5583C21.7285 27.5583 21.181 28.126 21.1692 28.8594C21.1596 29.4604 21.7691 30.0167 22.4385 30.0177C23.14 30.0177 23.7175 29.4604 23.7132 28.7854C23.7089 28.1167 23.124 27.5573 22.4279 27.5583ZM31.4147 30.3219C31.4371 30.2729 31.4607 30.2229 31.4831 30.174C30.7581 29.4271 30.0331 28.6802 29.2803 27.9031C28.9188 28.4781 28.5841 29.0104 28.2302 29.5729C29.3423 29.8344 30.3785 30.0781 31.4147 30.3219ZM4.59214 30.1979C4.62529 30.2396 4.65951 30.2812 4.69266 30.3219C5.72352 30.075 6.75437 29.8281 7.84511 29.5667C7.48046 28.9917 7.14469 28.4625 6.78859 27.901C6.03898 28.7052 5.28081 29.4208 4.59214 30.1979ZM5.04234 17.1156C5.0648 17.1375 5.08618 17.1583 5.10864 17.1802C6.17158 16.3406 7.23558 15.501 8.32953 14.6375C7.97664 14.275 7.643 13.9333 7.28905 13.5698C6.51912 14.7854 5.78126 15.95 5.04341 17.1156H5.04234ZM28.7884 13.5708C28.4291 13.9375 28.0997 14.2729 27.7457 14.6344C28.8514 15.5063 29.9272 16.3552 31.0019 17.2031C31.0201 17.1854 31.0372 17.1677 31.0554 17.15C30.31 15.9729 29.5647 14.7958 28.7884 13.5708ZM7.91355 25.0323C6.94686 24.2708 6.02721 23.5458 5.10757 22.8208L5.04234 22.8833C5.6893 23.9031 6.33519 24.9229 6.99925 25.9698C7.31471 25.6469 7.59809 25.3573 7.91462 25.0323H7.91355ZM31.0554 22.85C31.0361 22.8333 31.0158 22.8156 30.9966 22.799C30.0598 23.5385 29.1231 24.2781 28.1681 25.0312C28.4761 25.35 28.7627 25.6469 29.0771 25.9719C29.7583 24.8969 30.4074 23.874 31.0554 22.851V22.85ZM30.7399 9.82917C29.8492 10.0437 29.0621 10.2333 28.2302 10.4344C28.4964 10.8542 28.7306 11.2219 28.9915 11.6302C29.5765 11.0281 30.1218 10.4667 30.7399 9.82917ZM5.33107 9.82917C5.95984 10.475 6.5127 11.0417 7.09015 11.6333C7.36069 11.2 7.59274 10.8292 7.8419 10.4312C6.99925 10.2292 6.22718 10.0437 5.33214 9.82917H5.33107Z" fill="#fff"/>
</g>
<defs>
<clipPath id="clip0_1079_4451">
<rect width="41" height="40" fill="#fff"/>
</clipPath>
</defs>
</svg>
