<svg width="46" height="35" viewBox="0 0 46 35" fill="none" xmlns="http://www.w3.org/2000/svg">
<g clip-path="url(#clip0_1079_4449)">
<path d="M46 28.2867C45.5501 29.1159 44.7497 29.456 43.8978 29.7199C43.5846 29.8161 43.269 29.9052 42.9498 29.9779C42.5479 30.0694 42.2251 29.8829 42.1135 29.5182C42.0055 29.1663 42.1927 28.845 42.5971 28.709C43.1178 28.533 43.6446 28.3724 44.1654 28.1953C44.5289 28.0721 44.6813 27.8446 44.6657 27.4365C44.6285 26.4912 44.6537 25.5424 44.6537 24.5314C42.2419 25.4697 39.7461 25.5858 37.2262 25.7113V29.2238C37.7218 29.2238 38.209 29.2309 38.6961 29.2215C38.9793 29.2156 39.2625 29.1746 39.5469 29.1663C40.0712 29.1511 40.382 29.3915 40.3904 29.7997C40.3976 30.1855 40.1024 30.4471 39.6177 30.4799C38.8281 30.5338 38.0374 30.5878 37.2274 30.6429C37.2154 30.7543 37.1866 30.8552 37.1986 30.9514C37.321 31.9389 36.7847 32.5569 35.9759 33.0073C34.8984 33.6066 33.7153 33.9139 32.5154 34.1637C28.9096 34.9143 25.2535 35.055 21.5829 34.9846C19.1735 34.9377 16.7665 34.7993 14.4014 34.329C13.1787 34.0863 11.9752 33.7274 10.7849 33.3544C10.3277 33.2113 9.90774 32.917 9.51177 32.6355C9.0282 32.2907 8.76542 31.8075 8.81462 31.1953C8.82782 31.0229 8.81702 30.8493 8.81702 30.6476C7.94828 30.589 7.10713 30.5901 6.28639 30.4646C4.84409 30.2442 3.41019 29.9685 1.98229 29.6695C1.58392 29.5862 1.20595 29.3669 0.847171 29.164C0.27601 28.8415 0.00242927 28.37 0.0048291 27.6851C0.0216279 21.3367 0.0276275 14.9871 2.94391e-05 8.63758C-0.00357031 7.79902 0.322807 7.2091 1.06196 6.93819C2.10348 6.55585 3.17621 6.21574 4.26693 6.01636C5.48125 5.7947 6.73036 5.75013 7.96388 5.63051C8.23026 5.60471 8.49904 5.59298 8.81702 5.5707C8.81702 4.97022 8.83981 4.38968 8.81102 3.81032C8.77742 3.14299 9.0762 2.65745 9.59336 2.2716C10.5053 1.58903 11.5876 1.29348 12.6687 1.00497C13.0995 0.890034 13.5399 0.797382 13.9815 0.728187C14.4494 0.655473 14.7674 0.860713 14.8322 1.23249C14.9042 1.6418 14.6762 1.90686 14.2022 2.03704C13.1979 2.31265 12.1912 2.58239 11.2048 2.90843C10.8245 3.03392 10.4945 3.30718 10.0037 3.59452C10.4141 3.86427 10.6829 4.08827 10.9901 4.23487C12.3052 4.86349 13.7271 5.1391 15.1562 5.37484C18.5207 5.9284 21.9153 6.00229 25.3123 5.88735C28.2269 5.78884 31.1331 5.54489 33.9361 4.66998C34.6296 4.45419 35.3268 4.22197 35.9087 3.58983C35.6076 3.38459 35.3616 3.12188 35.0592 3.02688C33.8269 2.63868 32.5982 2.19771 31.3322 1.96667C27.2501 1.21959 23.1224 1.20669 18.9899 1.43304C18.5567 1.4565 18.1248 1.50106 17.694 1.55032C17.1048 1.61835 16.7569 1.4307 16.7053 0.995586C16.6513 0.541711 16.9201 0.247337 17.5152 0.222708C19.7579 0.130056 21.9993 -0.00481622 24.2407 -0.000124997C27.1445 0.00573903 30.0375 0.24851 32.8717 0.911144C33.7813 1.12342 34.668 1.44477 35.5428 1.77198C35.9243 1.91506 36.2723 2.17308 36.5939 2.42875C37.0055 2.75597 37.219 3.19342 37.1998 3.73643C37.1794 4.33456 37.195 4.93269 37.195 5.56718C38.041 5.62347 38.8581 5.661 39.6729 5.73372C41.2376 5.87328 42.7891 6.08673 44.2757 6.61566C44.9909 6.87016 45.6221 7.23608 45.9976 7.91982V28.2867H46ZM10.1609 5.3549C10.1609 5.53317 10.1609 5.65866 10.1609 5.78532C10.1609 7.26305 10.1717 8.74079 10.1537 10.2173C10.1501 10.5551 10.2605 10.792 10.5545 10.9316C11.0633 11.172 11.5672 11.4394 12.1036 11.6059C14.9222 12.4785 17.8404 12.7494 20.7718 12.8198C22.9976 12.8726 25.2271 12.7518 27.4553 12.7037C27.8957 12.6943 28.2197 12.9125 28.2761 13.2854C28.3301 13.6408 28.0493 13.9668 27.6233 14.0372C27.5357 14.0524 27.4445 14.0548 27.3545 14.0559C24.9919 14.0876 22.6281 14.1767 20.2678 14.1322C17.8608 14.0853 15.4634 13.8249 13.1175 13.2631C12.1252 13.0262 11.1581 12.6861 10.1621 12.387C10.1621 13.9398 10.1765 15.5313 10.1525 17.1228C10.1465 17.5028 10.2845 17.7608 10.6049 17.8969C11.2996 18.1936 11.992 18.5185 12.7179 18.7178C15.5737 19.5024 18.5099 19.7124 21.4593 19.7745C25.0843 19.8508 28.6984 19.7382 32.2586 18.9817C33.3529 18.7495 34.44 18.4809 35.4144 17.9039C35.7167 17.7245 35.8703 17.5016 35.8631 17.1228C35.8379 15.6463 35.8535 14.1674 35.8523 12.6908C35.8523 12.57 35.8343 12.4504 35.8211 12.2991C34.2552 13.0415 32.6246 13.3839 30.9699 13.6349C30.4599 13.7123 30.1203 13.5106 30.0459 13.1095C29.9751 12.7295 30.2703 12.407 30.7635 12.3214C31.2627 12.2346 31.775 12.1865 32.2574 12.0422C33.2809 11.7373 34.2948 11.3972 35.2992 11.0383C35.7107 10.8905 35.8763 10.5739 35.8655 10.1059C35.8319 8.65869 35.8535 7.2091 35.8523 5.76186C35.8523 5.64106 35.8355 5.52027 35.8319 5.45928C34.8384 5.75717 33.8857 6.1008 32.9041 6.32833C29.4028 7.14225 25.833 7.28768 22.2549 7.25836C19.7855 7.23842 17.322 7.093 14.8838 6.68486C13.2807 6.41629 11.6968 6.07617 10.1633 5.35725L10.1609 5.3549ZM10.1609 26.1757C10.1609 27.8106 10.1753 29.4021 10.1513 30.9936C10.1453 31.3736 10.2833 31.6304 10.6037 31.7676C11.2984 32.0643 11.9896 32.3892 12.7155 32.5886C15.5545 33.3673 18.4751 33.5831 21.4065 33.6441C25.0435 33.7203 28.6768 33.6347 32.2418 32.8407C33.2929 32.6062 34.3044 32.1875 35.3208 31.8192C35.7131 31.6773 35.8763 31.3712 35.8631 30.9197C35.8271 29.6777 35.8511 28.4345 35.8511 27.1913C35.8511 26.8641 35.8511 26.5369 35.8511 26.1886C35.3508 26.3774 34.9152 26.5651 34.464 26.7082C31.5818 27.6276 28.594 27.9419 25.5906 27.9971C23.0084 28.044 20.4178 27.9736 17.8392 27.8282C15.227 27.6804 12.6531 27.2523 10.1609 26.1769V26.1757ZM10.1609 19.2456C10.1609 20.8828 10.1717 22.4778 10.1525 24.0717C10.1477 24.4294 10.2689 24.6839 10.5785 24.8152C11.2876 25.1155 11.992 25.4521 12.7323 25.655C15.5881 26.4372 18.5255 26.6495 21.4749 26.7093C25.0855 26.782 28.69 26.6976 32.2286 25.9071C33.3085 25.6655 34.344 25.2234 35.388 24.8434C35.7323 24.7179 35.8787 24.4364 35.8643 24.0388C35.8319 23.1475 35.8535 22.2538 35.8535 21.3613C35.8535 20.6659 35.8535 19.9716 35.8535 19.2433C35.4432 19.4051 35.0916 19.5599 34.7292 19.6842C32.339 20.5017 29.8492 20.8078 27.3425 20.9849C24.5635 21.1819 21.7809 21.1948 18.9995 20.9989C15.9985 20.7878 13.0227 20.4571 10.1621 19.2456H10.1609ZM8.79302 25.7253C7.96747 25.6702 7.16113 25.6221 6.35719 25.5588C5.97201 25.5283 5.70203 25.2421 5.70203 24.9044C5.70203 24.5408 5.99361 24.264 6.40038 24.2523C6.57917 24.2464 6.75916 24.257 6.93915 24.2664C7.5475 24.3004 8.15586 24.3391 8.79182 24.3766V20.7914C6.27679 20.6741 3.77257 20.5521 1.35953 19.6185C1.35953 20.7175 1.34754 21.7402 1.37273 22.7628C1.37633 22.9083 1.53352 23.1205 1.67271 23.178C2.20668 23.3973 2.76104 23.5732 3.3118 23.7515C3.77497 23.9016 3.98615 24.1995 3.88296 24.5971C3.78337 24.9818 3.44139 25.1589 2.96262 25.0369C2.43466 24.9032 1.9163 24.739 1.35953 24.5783C1.35953 25.5307 1.39193 26.4525 1.34634 27.3708C1.32354 27.8329 1.48673 28.085 1.9091 28.2246C2.13468 28.2996 2.34947 28.4181 2.57985 28.4662C3.61538 28.6808 4.64731 28.9236 5.69483 29.0655C6.70996 29.2039 7.74069 29.232 8.79422 29.3106V25.7265L8.79302 25.7253ZM1.35953 9.78224C1.35953 10.6759 1.35953 11.4934 1.35953 12.3108C1.35953 13.2748 1.36433 13.2819 2.28347 13.6255C2.38066 13.6619 2.47906 13.7029 2.57985 13.7229C3.64658 13.9293 4.7073 14.1744 5.78243 14.3222C6.76756 14.457 7.76829 14.4864 8.79182 14.5638V10.9609C6.28879 10.8401 3.79417 10.7263 1.35833 9.78224H1.35953ZM8.79902 15.8785C6.26719 15.7565 3.77497 15.6369 1.42313 14.7244C1.38953 14.7866 1.36553 14.8112 1.36553 14.8347C1.36193 15.5513 1.35953 16.2678 1.35953 16.9833C1.35953 18.2464 1.34034 18.3214 2.60505 18.6252C3.94655 18.9477 5.32646 19.1307 6.69676 19.3265C7.38192 19.425 8.08387 19.4157 8.80022 19.4567V15.8773L8.79902 15.8785ZM44.6537 9.78458C42.2335 10.7322 39.7245 10.8307 37.2286 10.9679V14.6189C38.7981 14.4441 40.3316 14.3269 41.8459 14.0841C42.6883 13.9492 43.4994 13.6185 44.3153 13.3487C44.4533 13.303 44.6369 13.1165 44.6405 12.9922C44.6669 11.9449 44.6549 10.8964 44.6549 9.78576L44.6537 9.78458ZM37.2142 19.5353C38.7921 19.3605 40.3256 19.2433 41.8387 19.0017C42.6811 18.8668 43.4934 18.5396 44.3081 18.2651C44.4533 18.2159 44.6357 18.0083 44.6393 17.8699C44.6669 16.8355 44.6549 15.7999 44.6549 14.7022C42.2383 15.6427 39.7305 15.7506 37.2154 15.8808V19.5341L37.2142 19.5353ZM37.2166 24.4294C38.5953 24.2945 39.9393 24.2253 41.2592 24.0142C42.2671 23.8524 43.2462 23.5205 44.2338 23.246C44.5529 23.1569 44.6813 22.9341 44.6657 22.5811C44.6333 21.8516 44.6561 21.1186 44.6561 20.3879C44.6561 20.1498 44.6561 19.9106 44.6561 19.615C42.2215 20.5662 39.7233 20.667 37.2178 20.7996V24.4306L37.2166 24.4294ZM8.78942 9.62977V6.91825C8.07547 6.9593 7.39032 6.98275 6.70756 7.04139C5.14287 7.17509 3.58538 7.35336 2.10468 7.91044C1.8815 7.99488 1.67511 8.12037 1.46033 8.2271C1.46873 8.27166 1.47593 8.31506 1.48433 8.35962C3.78577 9.44447 6.28279 9.46675 8.78822 9.62977H8.78942ZM37.2214 6.9159V9.6286C39.7341 9.46323 42.2395 9.45385 44.5361 8.26228C42.2287 7.12818 39.7401 7.06133 37.2214 6.9159Z" fill="#fff"/>
</g>
<defs>
<clipPath id="clip0_1079_4449">
<rect width="46" height="35" fill="white"/>
</clipPath>
</defs>
</svg>
