<svg width="32" height="37" viewBox="0 0 32 37" fill="none" xmlns="http://www.w3.org/2000/svg">
<g clip-path="url(#clip0_335_5446)">
<path d="M17.8201 37.0001H14.1971C14.0654 36.9798 13.9338 36.947 13.8011 36.9402C11.2601 36.8116 8.75421 36.4499 6.30893 35.7151C4.65568 35.2181 3.06118 34.5808 1.695 33.4718C0.597891 32.5812 -0.00750903 31.4886 7.03163e-05 29.9734C0.0408093 22.2572 0.0275454 14.54 0.00859708 6.82384C0.00575483 5.72733 0.379038 4.84064 1.11044 4.08159C2.20945 2.93964 3.58226 2.26471 5.02802 1.72806C8.16871 0.560961 11.4392 0.132606 14.7561 0.0233415C17.3293 -0.0617493 19.894 0.0842588 22.4359 0.528085C24.5723 0.901324 26.6661 1.43314 28.6112 2.43973C30.1526 3.23745 31.5311 4.216 32.0001 6.06866V30.9413C31.7329 32.0523 31.082 32.8897 30.2066 33.5675C28.8537 34.6157 27.3028 35.2345 25.6941 35.7199C23.5671 36.362 21.3899 36.7149 19.1796 36.8764C18.7258 36.9092 18.2739 36.9586 17.821 37.0001H17.8201ZM16.02 1.46408C13.6524 1.45055 11.3028 1.65264 8.9797 2.12257C7.21371 2.47937 5.48657 2.97541 3.8788 3.82922C3.11802 4.2334 2.39609 4.69753 1.86648 5.40727C1.29803 6.16922 1.28856 6.94277 1.88733 7.67571C2.18292 8.03832 2.5382 8.36708 2.91622 8.63975C4.16208 9.53901 5.58131 10.0563 7.03654 10.4711C9.51215 11.177 12.0446 11.4884 14.6074 11.5802C17.7812 11.6943 20.9257 11.4632 24.0238 10.7245C25.7291 10.3174 27.3861 9.76914 28.8812 8.80317C29.4202 8.4541 29.9148 8.04895 30.2682 7.49296C30.6718 6.85865 30.6945 6.20693 30.2644 5.58905C30.0323 5.25546 29.7518 4.9412 29.4401 4.68593C28.2777 3.73253 26.9115 3.19007 25.5036 2.75398C22.4122 1.79574 19.2355 1.47375 16.02 1.46505V1.46408ZM1.44583 9.32918C1.44583 9.50807 1.44583 9.60186 1.44583 9.69565C1.44583 11.1731 1.4771 12.6516 1.43446 14.1271C1.40888 15.0109 1.76132 15.6578 2.38377 16.2041C3.34635 17.0492 4.47852 17.5753 5.659 18.0017C8.81106 19.1407 12.0863 19.5178 15.4051 19.5865C17.3947 19.6281 19.3767 19.5024 21.3482 19.2162C23.2971 18.9328 25.209 18.4977 27.0384 17.7406C27.9764 17.3519 28.8745 16.8858 29.6438 16.1993C30.2597 15.6491 30.613 15.0022 30.5856 14.1175C30.5391 12.6419 30.5733 11.1635 30.5733 9.68598C30.5733 9.58929 30.5733 9.49356 30.5733 9.35722C28.8234 10.592 28.199 10.9304 26.5865 11.4913C23.3738 12.6071 20.0474 12.991 16.6775 13.0635C14.5325 13.1099 12.3951 12.9678 10.2701 12.6468C8.47757 12.376 6.71727 11.9767 5.01381 11.3424C3.7509 10.8724 2.54957 10.2749 1.44773 9.32918H1.44583ZM1.45909 17.3393C1.45341 17.4476 1.44678 17.5085 1.44678 17.5685C1.44773 19.1939 1.43351 20.8203 1.46573 22.4448C1.47236 22.7851 1.59931 23.1564 1.77174 23.4514C1.95838 23.7714 2.23692 24.0518 2.5202 24.2936C3.44204 25.0797 4.52399 25.5719 5.64479 25.977C8.75611 27.0996 11.9859 27.4854 15.262 27.5609C17.3558 27.6092 19.442 27.4864 21.514 27.1741C23.46 26.8801 25.371 26.4392 27.191 25.654C28.1725 25.2305 29.1133 24.7345 29.875 23.9513C30.3222 23.491 30.5875 22.9611 30.578 22.2794C30.5553 20.7072 30.5723 19.1349 30.5714 17.5617C30.5714 17.4969 30.5505 17.4331 30.5373 17.3548C29.0905 18.4252 28.2426 18.8826 26.7902 19.3989C23.5055 20.5679 20.1005 20.9721 16.6472 21.0417C13.9574 21.0959 11.2829 20.8928 8.64526 20.3407C6.08818 19.805 3.6031 19.0663 1.45909 17.3393ZM30.5666 25.3891C29.8968 25.801 29.2658 26.2545 28.5827 26.5987C25.8797 27.9631 22.9664 28.521 19.9982 28.8275C17.9773 29.0364 15.9499 29.0761 13.9195 28.9687C11.3369 28.8314 8.79022 28.4794 6.30514 27.7349C4.59126 27.2215 2.95033 26.5417 1.54247 25.3756C1.52352 25.3601 1.48941 25.364 1.45151 25.3572C1.45151 27.1112 1.43825 28.8537 1.46478 30.5951C1.46857 30.8726 1.60121 31.1791 1.75658 31.416C1.96217 31.7293 2.22177 32.0185 2.5041 32.2621C3.41551 33.0444 4.48704 33.5366 5.59647 33.9407C8.58368 35.0295 11.6884 35.4318 14.8385 35.5304C17.0773 35.601 19.3103 35.4898 21.5292 35.1523C23.3824 34.8709 25.2042 34.4542 26.9475 33.7386C28.0219 33.2977 29.0574 32.7765 29.8854 31.9189C30.2341 31.5572 30.5515 31.1472 30.5581 30.6251C30.5808 28.873 30.5666 27.1209 30.5666 25.3881V25.3891Z" fill="white"/>
<path d="M24.8982 15.9575C24.4927 15.9594 24.1924 15.6548 24.1914 15.24C24.1905 14.8348 24.5041 14.5051 24.8925 14.5022C25.2677 14.5003 25.6097 14.8484 25.6116 15.2332C25.6135 15.6335 25.2961 15.9555 24.8982 15.9575Z" fill="white"/>
<path d="M22.7553 15.9525C22.76 16.3596 22.454 16.6874 22.0627 16.6961C21.6847 16.7038 21.3417 16.3683 21.3313 15.9796C21.3209 15.589 21.6449 15.2525 22.0371 15.2467C22.4426 15.2409 22.7496 15.5425 22.7553 15.9525Z" fill="white"/>
<path d="M28.4419 14.5167C28.4409 14.9248 28.1216 15.2507 27.7285 15.2439C27.359 15.2371 27.0312 14.9064 27.0217 14.5283C27.0122 14.1396 27.3448 13.7935 27.7322 13.7896C28.1292 13.7848 28.4419 14.1068 28.4409 14.5167H28.4419Z" fill="white"/>
<path d="M22.7532 23.953C22.7494 24.3543 22.4254 24.683 22.0398 24.6772C21.6627 24.6714 21.3264 24.3204 21.3311 23.9375C21.3368 23.542 21.6599 23.2239 22.0559 23.2258C22.4547 23.2278 22.757 23.543 22.7532 23.953Z" fill="white"/>
<path d="M28.4409 22.5047C28.4352 22.9127 28.1207 23.227 27.7256 23.2193C27.3447 23.2125 27.0112 22.8625 27.0207 22.4795C27.0302 22.0889 27.3684 21.7563 27.7502 21.763C28.1434 21.7698 28.4466 22.0947 28.4409 22.5047Z" fill="white"/>
<path d="M24.902 23.9376C24.4965 23.9405 24.1905 23.6321 24.1914 23.2192C24.1914 22.8131 24.5097 22.4911 24.9048 22.4959C25.2828 22.5017 25.6012 22.8208 25.6106 23.2056C25.6211 23.6021 25.2989 23.9347 24.902 23.9376Z" fill="white"/>
<path d="M28.4417 30.4684C28.4436 30.8822 28.1432 31.1945 27.7434 31.1945C27.3484 31.1945 27.0253 30.8726 27.0215 30.4771C27.0187 30.0942 27.3569 29.7441 27.734 29.7403C28.1234 29.7364 28.4398 30.0632 28.4417 30.4684Z" fill="white"/>
<path d="M22.7535 31.942C22.7478 32.3423 22.4209 32.6653 22.0325 32.6546C21.6526 32.644 21.3191 32.2911 21.3314 31.9091C21.3437 31.5185 21.681 31.1917 22.0637 31.2004C22.4588 31.2091 22.7582 31.5311 22.7525 31.942H22.7535Z" fill="white"/>
<path d="M24.8982 31.9207C24.5003 31.9226 24.1895 31.6025 24.1914 31.1926C24.1933 30.7942 24.4889 30.4867 24.8773 30.478C25.2743 30.4683 25.6031 30.7865 25.6106 31.1877C25.6173 31.5832 25.2914 31.9187 24.8982 31.9216V31.9207Z" fill="white"/>
</g>
<defs>
<clipPath id="clip0_335_5446">
<rect width="32" height="37" fill="white"/>
</clipPath>
</defs>
</svg>
