<svg width="39" height="39" viewBox="0 0 39 39" fill="none" xmlns="http://www.w3.org/2000/svg">
<g clip-path="url(#clip0_335_5498)">
<path d="M24.6406 17.6637C24.6406 18.6458 24.6422 19.5324 24.6406 20.4189C24.6356 21.8297 24.1182 22.5351 22.7029 23.0026C22.7029 23.2194 22.7029 23.4589 22.7029 23.6983C22.7029 28.45 22.7029 33.2032 22.7029 37.9549C22.7029 38.1361 22.7639 38.3626 22.6766 38.4904C22.5332 38.7039 22.3042 38.9838 22.0949 38.9984C21.8906 39.0113 21.599 38.767 21.4705 38.5616C21.3568 38.3787 21.3963 38.0924 21.3963 37.8529C21.393 33.1822 21.3947 28.5098 21.3947 23.8391C21.3947 23.598 21.3947 23.357 21.3947 23.0641H17.2755V23.7889C17.2755 28.5001 17.2755 33.2129 17.2755 37.9241C17.2755 38.1053 17.3382 38.3351 17.2508 38.4596C17.0943 38.6845 16.8636 38.966 16.6297 39C16.4468 39.0259 16.1568 38.7476 16.0217 38.5373C15.9162 38.3739 15.9607 38.1069 15.9607 37.8869C15.9574 33.1757 15.9591 28.4629 15.9591 23.7517V23.001C14.4613 22.5901 13.9687 21.5692 14.061 20.1455C14.1137 19.3447 14.0709 18.539 14.0709 17.6653C13.7858 17.6653 13.5667 17.6653 13.3459 17.6653C11.7427 17.6653 10.1395 17.6783 8.53638 17.6605C6.96122 17.6427 5.96274 16.727 6.08961 15.1884C6.28733 12.794 5.2839 10.6875 4.64132 8.49535C3.91965 6.03621 3.12053 3.5981 2.35932 1.15029C2.09899 0.31871 2.32636 0.00161054 3.19303 -7.31228e-06C14.0659 -0.00162517 24.9404 -0.00162517 35.8133 -7.31228e-06C36.6734 -7.31228e-06 36.9008 0.321946 36.6421 1.15514C35.4788 4.89562 34.3041 8.63286 33.1523 12.375C33.0238 12.7908 32.9266 13.2454 32.9497 13.6741C33.1573 17.4372 32.0369 17.777 28.852 17.6686C27.4795 17.6217 26.1053 17.6605 24.6406 17.6605V17.6637ZM3.82408 1.33796C3.84385 1.48195 3.84385 1.58387 3.87351 1.67609C4.93131 5.06873 6.00063 8.45652 7.0436 11.854C7.17541 12.286 7.44563 12.2682 7.7834 12.2682C15.5949 12.2649 23.4048 12.2617 31.2164 12.2747C31.6464 12.2747 31.8507 12.1776 31.9858 11.7375C32.9843 8.47593 34.0174 5.22404 35.0356 1.9673C35.0982 1.76993 35.1279 1.56122 35.1757 1.34605H15.6724C15.6724 1.6049 15.6724 1.82493 15.6724 2.04334C15.6724 4.00418 15.6674 5.96664 15.6757 7.92748C15.6773 8.40313 15.5817 8.82377 15.015 8.82054C14.4432 8.8173 14.3592 8.37077 14.3592 7.9113C14.3592 6.33389 14.3592 4.75648 14.3592 3.17908C14.3592 2.57723 14.3592 1.97539 14.3592 1.34605H11.5071C11.5071 1.60329 11.5071 1.8217 11.5071 2.04011C11.5071 4.00095 11.5038 5.9634 11.5087 7.92424C11.5087 8.38857 11.4428 8.82862 10.8579 8.82054C10.273 8.81245 10.2269 8.36268 10.2285 7.90483C10.2351 5.94399 10.2302 3.98153 10.2302 2.02069C10.2302 1.8039 10.2302 1.58711 10.2302 1.33796H3.82408ZM7.37807 13.59C7.37807 14.1174 7.37807 14.5801 7.37807 15.0428C7.38137 16.1009 7.65323 16.3711 8.71597 16.3711C15.9063 16.3711 23.0951 16.3711 30.2854 16.3711C30.4502 16.3711 30.6578 16.4293 30.7698 16.3516C31.0681 16.1478 31.5096 15.9164 31.5591 15.6382C31.6744 14.9797 31.597 14.2889 31.597 13.5884H7.37807V13.59ZM15.3758 17.6896C15.3758 18.7962 15.3478 19.8414 15.3873 20.8849C15.4071 21.3945 15.7729 21.7003 16.2869 21.7035C18.3185 21.7213 20.3484 21.7181 22.38 21.7051C22.899 21.7019 23.2763 21.3945 23.301 20.9027C23.3521 19.8414 23.3175 18.7768 23.3175 17.6896H15.3758Z" fill="white"/>
<path d="M38.9965 23.9523C38.9965 24.7402 39.0048 25.5298 38.9949 26.3176C38.9801 27.4129 38.3787 28.0051 37.2813 28.0132C36.5003 28.018 35.7194 28.0196 34.9384 28.0132C33.9185 28.0035 33.2528 27.4178 33.2314 26.4163C33.1968 24.7597 33.1984 23.0997 33.2314 21.4431C33.2512 20.4626 33.8641 19.877 34.8708 19.8317C35.6913 19.7961 36.5152 19.7977 37.3357 19.8284C38.4083 19.8673 38.9817 20.4691 38.9949 21.5272C39.0048 22.3361 38.9965 23.145 38.9965 23.954V23.9523ZM37.718 23.907C37.718 23.1596 37.7081 22.4122 37.7213 21.6647C37.7278 21.2586 37.573 21.0758 37.1396 21.0904C36.4624 21.113 35.7836 21.113 35.1064 21.0904C34.6813 21.0774 34.5248 21.2311 34.5297 21.655C34.5479 23.1709 34.5462 24.6852 34.5297 26.2012C34.5248 26.5975 34.6731 26.7464 35.0669 26.7383C35.7655 26.7237 36.4641 26.7189 37.161 26.7399C37.6059 26.7529 37.7278 26.5458 37.7196 26.151C37.7048 25.4036 37.7147 24.6561 37.7147 23.9087L37.718 23.907Z" fill="white"/>
<path d="M0.00499171 23.8908C0.00499171 23.0625 -0.00818953 22.2325 0.00828702 21.4042C0.0264112 20.5354 0.550366 19.9174 1.41868 19.8608C2.37926 19.7993 3.35138 19.7993 4.31196 19.8591C5.2017 19.9142 5.75037 20.5241 5.76849 21.443C5.79815 23.1013 5.80144 24.7596 5.76849 26.4163C5.74707 27.4194 5.08142 28.0034 4.06152 28.0115C3.28053 28.018 2.49954 28.018 1.71855 28.0115C0.622862 28.0034 0.0198206 27.4097 0.00499171 26.316C-0.00489422 25.5071 0.00334406 24.6982 0.00334406 23.8892H0.00663937L0.00499171 23.8908ZM4.46025 23.9167C4.46025 23.1887 4.44048 22.4607 4.46849 21.7342C4.48661 21.2764 4.35315 21.0628 3.84732 21.0871C3.19156 21.1195 2.5325 21.1114 1.87673 21.0887C1.45987 21.0742 1.27369 21.223 1.27698 21.6436C1.28687 23.1596 1.28687 24.6739 1.27698 26.1898C1.27533 26.5684 1.41209 26.7464 1.81577 26.7366C2.51437 26.7205 3.21298 26.7172 3.90993 26.7366C4.34492 26.7496 4.48167 26.57 4.46849 26.1558C4.44378 25.4084 4.4619 24.6609 4.4619 23.9135L4.46025 23.9167Z" fill="white"/>
<path d="M13.1002 34.656C13.1002 35.4844 13.1167 36.3143 13.0953 37.1427C13.0705 38.0891 12.4675 38.678 11.4987 38.6991C10.6567 38.7185 9.81313 38.7169 8.97118 38.6991C8.01225 38.6796 7.36801 38.1134 7.3433 37.1572C7.30046 35.4601 7.29881 33.7614 7.3433 32.0642C7.36966 31.1097 8.00401 30.5596 8.98271 30.5337C9.82467 30.5111 10.6683 30.5095 11.5102 30.5354C12.479 30.5661 13.0722 31.1599 13.0936 32.1063C13.1134 32.9557 13.0986 33.8051 13.0969 34.6528L13.1002 34.656ZM11.8266 34.6221C11.8266 33.8568 11.8216 33.09 11.8282 32.3247C11.8315 31.9461 11.6717 31.773 11.2763 31.7795C10.5793 31.7924 9.88233 31.7908 9.18702 31.7795C8.80477 31.773 8.63176 31.9122 8.63506 32.3102C8.64824 33.8423 8.64989 35.3744 8.63506 36.9065C8.63176 37.3012 8.78994 37.4533 9.17549 37.4468C9.85103 37.4371 10.5282 37.4258 11.2038 37.4517C11.6981 37.4711 11.8496 37.2543 11.8348 36.7981C11.8117 36.0733 11.8282 35.3469 11.8282 34.6221H11.8266Z" fill="white"/>
<path d="M31.6746 34.6173C31.6746 35.4052 31.691 36.1947 31.6713 36.9826C31.6433 38.1038 31.0336 38.691 29.9 38.704C29.0993 38.7137 28.2969 38.7185 27.4961 38.6991C26.5339 38.6765 25.916 38.0811 25.9045 37.1379C25.8847 35.4602 25.8847 33.7825 25.9045 32.1047C25.9144 31.1599 26.5207 30.5678 27.4912 30.537C28.3117 30.5112 29.1355 30.516 29.9561 30.5338C31.0303 30.5565 31.6301 31.1324 31.6663 32.1905C31.6943 32.9978 31.6713 33.8067 31.6729 34.6157L31.6746 34.6173ZM30.3597 34.6755C30.3597 33.8892 30.3466 33.103 30.3647 32.3167C30.3746 31.9219 30.2049 31.7731 29.8193 31.7796C29.1223 31.7909 28.4254 31.7925 27.7301 31.7796C27.3396 31.7715 27.1699 31.9349 27.1715 32.3183C27.1781 33.8504 27.1798 35.3825 27.1715 36.9146C27.1699 37.3061 27.3462 37.455 27.7301 37.4485C28.4056 37.4372 29.0828 37.4323 29.7583 37.4501C30.1999 37.4631 30.3877 37.3094 30.3696 36.8515C30.34 36.1267 30.3614 35.4003 30.3614 34.6755H30.3597Z" fill="white"/>
<path d="M10.5216 21.0953C10.0356 21.0953 9.64839 21.1098 9.26119 21.092C8.87893 21.0742 8.59389 20.851 8.66803 20.4837C8.71582 20.2475 8.98274 19.898 9.18375 19.8754C9.87082 19.7994 10.5793 19.7929 11.2647 19.8754C11.4806 19.9013 11.8118 20.2944 11.8167 20.5258C11.8579 22.7859 11.8447 25.0461 11.8398 27.3062C11.8398 27.7268 11.6239 28.0181 11.1708 28.0051C10.6732 27.9922 10.5266 27.6379 10.5249 27.2124C10.5216 25.4165 10.5233 23.6207 10.5233 21.8233C10.5233 21.6049 10.5233 21.3881 10.5233 21.0953H10.5216Z" fill="white"/>
<path d="M1.89102 31.7812C1.43956 31.7812 1.05566 31.786 0.67011 31.7812C0.253253 31.7763 0.0126953 31.5708 0.0126953 31.1518C0.0126953 30.7587 0.24831 30.5532 0.628918 30.5435C1.26327 30.5273 1.90091 30.5257 2.53526 30.5435C3.02131 30.5565 3.21079 30.8558 3.21079 31.3055C3.21079 33.5252 3.21079 35.7433 3.21079 37.963C3.21079 38.3788 3.03944 38.6829 2.57809 38.6959C2.07556 38.7104 1.89926 38.3755 1.89597 37.9452C1.88608 36.4115 1.89102 34.8794 1.89102 33.3456C1.89102 32.8473 1.89102 32.349 1.89102 31.786V31.7812Z" fill="white"/>
<path d="M37.0592 31.781C36.6028 31.781 36.2189 31.7859 35.835 31.781C35.4198 31.7746 35.1133 31.5497 35.199 31.1566C35.2501 30.9203 35.5664 30.5984 35.7987 30.5677C36.4232 30.4851 37.0658 30.5272 37.7018 30.5418C38.15 30.5515 38.3674 30.8039 38.3674 31.2407C38.3674 33.4992 38.3691 35.7593 38.3658 38.0179C38.3658 38.4159 38.173 38.6747 37.7463 38.6958C37.308 38.7168 37.1268 38.4434 37.074 38.0632C37.0526 37.9046 37.0625 37.7412 37.0625 37.5794C37.0625 35.8855 37.0625 34.1916 37.0625 32.4961C37.0625 32.281 37.0625 32.0642 37.0625 31.7827L37.0592 31.781Z" fill="white"/>
<path d="M28.1333 21.0953C27.6588 21.0953 27.2699 21.0969 26.8811 21.0953C26.4543 21.0921 26.1676 20.8316 26.2303 20.4644C26.2714 20.2265 26.6026 19.8916 26.8399 19.8593C27.4643 19.7735 28.1102 19.8124 28.7462 19.8334C29.1894 19.848 29.4135 20.1246 29.4152 20.5501C29.4201 22.7941 29.4218 25.0364 29.4152 27.2804C29.4152 27.6865 29.2438 28.0117 28.7726 28.0052C28.2733 27.9971 28.1284 27.6719 28.13 27.227C28.1366 25.4279 28.1316 23.6289 28.1316 21.8314C28.1316 21.613 28.1316 21.3946 28.1316 21.0969L28.1333 21.0953Z" fill="white"/>
</g>
<defs>
<clipPath id="clip0_335_5498">
<rect width="39" height="39" fill="white"/>
</clipPath>
</defs>
</svg>
