<?xml version="1.0" encoding="utf-8"?>
<!-- Generator: Adobe Illustrator 16.0.0, SVG Export Plug-In . SVG Version: 6.00 Build 0)  -->
<!DOCTYPE svg PUBLIC "-//W3C//DTD SVG 1.1//EN" "http://www.w3.org/Graphics/SVG/1.1/DTD/svg11.dtd">
<svg version="1.1" id="레이어_1" xmlns="http://www.w3.org/2000/svg" xmlns:xlink="http://www.w3.org/1999/xlink" x="0px"
	 y="0px" width="297.669px" height="61.201px" viewBox="0 0 297.669 61.201" enable-background="new 0 0 297.669 61.201"
	 xml:space="preserve">
<path fill="#DCDDDD" d="M41.735,57.225H4.617c0,0,48.779-76.265,106.852-44.907C111.469,12.318,73.432-2.393,41.735,57.225z"/>
<path fill="#9FA0A0" d="M38.667,43.676H0c0,0,53.04-58.07,108.399-35.229C108.399,8.447,64.945,7.285,38.667,43.676z"/>
<path fill="#AD191F" d="M38.715,32.449H0c0,0,43.359-49.359,105.689-26.325C105.689,6.125,63.105,3.416,38.715,32.449z"/>
<path fill="#FFFFFF" d="M115.371,38.111c0,4.977-1.417,9.277-4.25,12.912c-3.083,3.949-7.031,5.924-11.848,5.924
	c-0.921,0-2.307-0.039-4.158-0.106c-1.851-0.071-3.237-0.107-4.158-0.107c-0.832,0-2.084,0.036-3.758,0.107
	c-1.674,0.067-2.926,0.106-3.759,0.106c-0.443,0-0.664-0.223-0.664-0.666c0-1.928,0.074-4.845,0.226-8.737
	c0.15-3.896,0.227-6.821,0.227-8.771c0-2.051-0.071-5.14-0.214-9.27c-0.141-4.126-0.211-7.215-0.211-9.271
	c0-0.374,0.229-0.557,0.691-0.557c0.654,0,1.634,0.009,2.934,0.027c1.301,0.017,2.281,0.026,2.938,0.026
	c0.601,0,1.521-0.009,2.762-0.026c1.238-0.018,2.177-0.027,2.815-0.027c6.144,0,10.723,1.159,13.732,3.479
	c2.162,1.668,3.836,3.905,5.022,6.721C114.813,32.497,115.371,35.24,115.371,38.111z M108.862,38.111
	c0-3.824-1.089-6.945-3.268-9.35c-2.267-2.498-5.295-3.744-9.084-3.744c-3.135,0-4.401-0.02-3.798-0.055
	c-2.074,0.105-3.108,0.484-3.108,1.141c0,1.363-0.032,3.406-0.094,6.123c-0.06,2.719-0.091,4.759-0.091,6.125
	c0,1.345,0.031,3.364,0.091,6.055c0.063,2.694,0.094,4.713,0.094,6.061c0,0.672,1.063,1.059,3.187,1.165
	c-0.283-0.014,1.01-0.024,3.88-0.024c2.035,0,3.656-0.213,4.86-0.641c1.488-0.53,2.825-1.512,4.013-2.947
	C107.755,45.329,108.862,42.023,108.862,38.111z"/>
<path fill="#FFFFFF" d="M143.738,32.907c0,0.069-0.026,0.229-0.078,0.476c-0.691,4.057-1.035,7.554-1.035,10.494
	c0,0.177,0.219,4.152,0.661,11.928l0.028,0.373c0.018,0.51-0.218,0.77-0.703,0.77c-0.49,0-1.225,0.055-2.209,0.173
	c-0.98,0.115-1.711,0.169-2.19,0.169c-0.335,0-0.593-0.616-0.771-1.857c-0.174-1.237-0.344-1.857-0.503-1.857
	c-0.106,0-0.584,0.34-1.435,1.033c-1.043,0.85-2.019,1.5-2.922,1.939c-1.397,0.711-2.797,1.063-4.196,1.063
	c-3.436,0-6.331-1.369-8.687-4.117c-2.232-2.62-3.347-5.676-3.347-9.164c0-3.93,1.124-7.182,3.373-9.75
	c2.356-2.674,5.456-4.013,9.298-4.013c2.709,0,5.074,0.941,7.093,2.817c0.301,0.354,0.77,0.87,1.407,1.542
	c0.054,0.052,0.106,0.077,0.161,0.077c0.105,0,0.255-0.555,0.45-1.672c0.195-1.117,0.444-1.674,0.744-1.674
	c0.479,0,1.373,0.131,2.684,0.398C143.014,32.374,143.738,32.656,143.738,32.907z M136.965,44.009c0-2.181-0.646-4.046-1.939-5.608
	c-1.364-1.678-3.108-2.52-5.233-2.52c-2.125,0-3.895,0.83-5.313,2.497c-1.365,1.594-2.047,3.47-2.047,5.631
	c0,2.143,0.682,4.003,2.047,5.579c1.417,1.648,3.187,2.469,5.313,2.469c2.071,0,3.807-0.842,5.207-2.52
	C136.309,47.959,136.965,46.113,136.965,44.009z"/>
<path fill="#FFFFFF" d="M162.129,32.001c0,1.948-0.132,3.72-0.398,5.312c-0.055,0.41-0.229,0.613-0.531,0.613
	c-0.371,0-0.934-0.041-1.686-0.121c-0.753-0.076-1.326-0.117-1.715-0.117c-2.232,0-3.657,0.627-4.275,1.887
	c-0.373,0.76-0.559,2.343-0.559,4.754v2.922c0,0.99,0.039,2.496,0.119,4.514c0.08,2.021,0.121,3.527,0.121,4.518
	c0,0.477-0.205,0.721-0.611,0.721c-0.55,0-1.383-0.01-2.498-0.028c-1.116-0.016-1.949-0.026-2.498-0.026
	c-0.408,0-0.611-0.223-0.611-0.666c0-1.432,0.022-3.594,0.065-6.48c0.046-2.889,0.068-5.055,0.068-6.508
	c0-4.376-0.409-7.89-1.223-10.546c-0.037-0.141-0.054-0.25-0.054-0.319c0-0.215,0.115-0.365,0.346-0.453
	c0.656-0.07,1.575-0.177,2.763-0.318c1.912-0.354,2.799-0.533,2.657-0.533c0.283,0,0.47,0.525,0.559,1.569
	c0.088,1.045,0.248,1.565,0.476,1.565c0.038,0,0.081-0.016,0.134-0.053c0.726-0.459,1.453-0.921,2.18-1.382
	c0.796-0.476,1.611-0.833,2.441-1.06c0.692-0.214,1.578-0.318,2.659-0.318C161.439,31.445,162.129,31.63,162.129,32.001z"/>
<path fill="#FFFFFF" d="M185.848,42.678c0,1.313-0.564,2.192-1.7,2.633c-0.761,0.287-6.242,0.803-16.44,1.566
	c0.227,1.559,1.088,2.887,2.574,3.984c1.418,1.047,2.938,1.568,4.569,1.568c2.799,0,5.366-0.904,7.706-2.711
	c0.282-0.227,0.564-0.457,0.849-0.688c0.142,0,0.234,0.019,0.278,0.054s0.376,0.65,0.998,1.844c0.618,1.197,0.928,1.838,0.928,1.927
	c0,0.106-0.143,0.31-0.424,0.612c-2.604,2.766-5.941,4.143-10.015,4.143c-4.11,0-7.387-1.226-9.831-3.68
	c-2.443-2.449-3.664-5.723-3.664-9.814c0-3.648,1.168-6.826,3.504-9.537c2.463-2.814,5.484-4.224,9.061-4.224
	c3.329,0,6.109,1.225,8.342,3.667C184.759,36.395,185.848,39.283,185.848,42.678z M179.527,41.063c0-1.473-0.583-2.771-1.742-3.904
	c-1.158-1.139-2.465-1.702-3.917-1.702c-1.628,0-3.077,0.654-4.344,1.964c-1.267,1.311-1.899,2.78-1.899,4.408
	c0,0.373,0.32,0.559,0.958,0.559c2.62,0,5.755-0.263,9.402-0.794C179.014,41.45,179.527,41.275,179.527,41.063z"/>
<path fill="#FFFFFF" d="M211.501,42.678c0,1.313-0.566,2.192-1.702,2.633c-0.759,0.287-6.241,0.803-16.442,1.566
	c0.229,1.559,1.091,2.887,2.579,3.984c1.415,1.047,2.936,1.568,4.566,1.568c2.799,0,5.367-0.904,7.704-2.711
	c0.286-0.227,0.567-0.457,0.849-0.688c0.144,0,0.236,0.019,0.281,0.054c0.043,0.035,0.375,0.65,0.998,1.844
	c0.615,1.197,0.928,1.838,0.928,1.927c0,0.106-0.142,0.31-0.426,0.612c-2.602,2.766-5.941,4.143-10.015,4.143
	c-4.108,0-7.384-1.226-9.827-3.68c-2.444-2.449-3.667-5.723-3.667-9.814c0-3.648,1.169-6.826,3.505-9.537
	c2.463-2.814,5.482-4.224,9.061-4.224c3.331,0,6.111,1.225,8.342,3.667C210.412,36.395,211.501,39.283,211.501,42.678z
	 M205.177,41.063c0-1.473-0.579-2.771-1.736-3.904c-1.162-1.139-2.47-1.702-3.92-1.702c-1.629,0-3.077,0.654-4.345,1.964
	c-1.265,1.311-1.898,2.78-1.898,4.408c0,0.373,0.32,0.559,0.956,0.559c2.621,0,5.756-0.263,9.405-0.794
	C204.665,41.45,205.177,41.275,205.177,41.063z"/>
<path fill="#AD191F" d="M236.549,44.35c0,4.457-1.876,8.274-5.627,11.457c-3.29,2.807-7.296,4.594-12.01,5.359
	c-0.18,0.024-0.32,0.035-0.429,0.035c-0.509,0-1.626-1.541-3.358-4.625c-1.732-3.082-2.598-4.958-2.598-5.644
	c0-0.239,0.164-0.393,0.491-0.458c3.181-0.725,5.287-1.342,6.317-1.844c2.283-1.138,3.426-2.83,3.426-5.068
	c0-1.427-0.748-3.015-2.238-4.771c-2.592-2.983-3.993-4.638-4.214-4.97c-1.513-2.28-2.271-4.803-2.271-7.57
	c0-4.014,1.855-7.35,5.563-10.002c3.029-2.192,6.747-3.621,11.154-4.277c0.242-0.024,0.432-0.034,0.561-0.034
	c0.33,0,0.592,0.264,0.79,0.791c0.568,1.604,1.896,4.497,3.981,8.688c0.068,0.129,0.099,0.24,0.099,0.327
	c0,0.375-0.196,0.56-0.593,0.56c-0.177,0-0.472-0.03-0.891-0.099c-0.412-0.063-0.732-0.098-0.951-0.098
	c-1.58,0-2.963,0.361-4.148,1.086c-1.424,0.834-2.137,1.998-2.137,3.488c0,1.338,0.789,2.982,2.366,4.936
	c2.788,3.512,4.249,5.354,4.378,5.529C235.768,39.56,236.549,41.963,236.549,44.35z"/>
<path fill="#FFFFFF" d="M264.078,44.088c0,3.781-1.239,7.013-3.719,9.693c-2.533,2.77-5.672,4.152-9.42,4.152
	c-3.765,0-6.914-1.375-9.449-4.125c-2.478-2.66-3.719-5.883-3.719-9.666c0-3.782,1.241-7.004,3.719-9.663
	c2.554-2.716,5.7-4.071,9.449-4.071c3.728,0,6.86,1.355,9.393,4.071C262.83,37.121,264.078,40.321,264.078,44.088z M258.351,44.143
	c0-2.21-0.679-4.092-2.036-5.646c-1.412-1.647-3.205-2.471-5.375-2.471c-2.172,0-3.973,0.813-5.402,2.441
	c-1.359,1.574-2.036,3.466-2.036,5.676c0,2.169,0.688,4.055,2.062,5.646c1.45,1.684,3.24,2.525,5.377,2.525
	c2.151,0,3.944-0.842,5.375-2.525C257.672,48.197,258.351,46.312,258.351,44.143z"/>
<path fill="#FFFFFF" d="M279.645,22.504c0,0.216-0.16,0.347-0.488,0.381c-0.887,0.094-1.766,0.172-2.635,0.244
	c-1.03,0.146-1.817,0.506-2.361,1.086c-0.886,0.96-1.328,3.395-1.328,7.305c0.596,0,1.537,0.018,2.822,0.054
	c1.285,0.037,2.253,0.052,2.904,0.052c0.436,0,0.652,0.162,0.652,0.49c0,0.506,0.018,1.262,0.054,2.268
	c0.036,1.004,0.056,1.75,0.056,2.24c0,0.342-0.18,0.516-0.543,0.516c-0.634,0-1.596-0.033-2.878-0.098
	c-1.288-0.061-2.235-0.094-2.851-0.094v8.119c0,1.266,0.045,3.183,0.137,5.754c0.089,2.57,0.134,4.488,0.134,5.754
	c0,0.493-0.181,0.733-0.544,0.733h-4.966c-0.472,0-0.706-0.28-0.706-0.84V37.789c0-0.488-0.553-0.724-1.658-0.705
	c-1.193,0.02-1.83-0.031-1.9-0.137c-0.055-0.053-0.082-0.389-0.082-1.004c0-0.398-0.018-0.994-0.052-1.779
	c-0.036-0.787-0.056-1.381-0.056-1.776c0-0.382,1.15-0.633,3.45-0.763c-0.054-1.158-0.085-2.098-0.085-2.822
	c0-3.204,0.57-5.549,1.713-7.029c1.012-1.342,2.497-2.391,4.451-3.15c1.756-0.689,3.576-1.032,5.459-1.032
	c0.18,0,0.305,0.099,0.379,0.297c0.019,0.038,0.176,0.799,0.473,2.294C279.496,21.679,279.645,22.448,279.645,22.504z"/>
<path fill="#FFFFFF" d="M297.669,52.314c0,0.397-0.036,0.94-0.108,1.629c-0.088,0.852-0.146,1.403-0.163,1.659
	c-0.02,0.323-0.045,0.521-0.08,0.596c-0.074,0.127-0.244,0.251-0.515,0.376c-1.485,0.707-3.82,1.059-7.007,1.059
	c-4.236,0-6.352-1.916-6.352-5.754c0-1.536,0.037-3.85,0.107-6.936c0.072-3.086,0.109-5.399,0.109-6.934
	c0-0.742-0.371-1.145-1.113-1.2c-0.669,0-1.332-0.005-1.984-0.024c-0.378-0.091-0.569-0.832-0.569-2.229
	c0-0.52,0.037-1.076,0.107-1.652c0.055-0.435,0.348-0.697,0.872-0.789c0.453,0,0.896-0.008,1.329-0.027
	c0.833-0.036,1.249-0.407,1.249-1.112c0-0.724-0.024-1.828-0.067-3.311c-0.045-1.487-0.067-2.6-0.067-3.342
	c0-1.32,0.252-1.981,0.76-1.981c0.16,0,1.863,0.281,5.104,0.842c0.415,0.053,0.624,0.254,0.624,0.598
	c0,0.794-0.059,1.992-0.178,3.581c-0.115,1.597-0.176,2.789-0.176,3.585c0,0.527,0.244,0.791,0.735,0.791h6.516
	c0.305,0,0.46,0.105,0.46,0.32c0,0.22-0.031,0.568-0.095,1.047s-0.095,0.836-0.095,1.074c0,0.271,0.007,0.688,0.027,1.25
	c0.018,0.557,0.025,0.975,0.025,1.246c0,0.346-0.252,0.518-0.759,0.518c-0.724,0-1.819-0.049-3.286-0.152
	c-1.466-0.098-2.562-0.146-3.285-0.146c-0.145,0-0.252,0.513-0.323,1.547c-0.093,1.285-0.14,3.085-0.14,5.401v4.044
	c0,1.558,0.146,2.646,0.436,3.262c0.435,0.939,1.33,1.41,2.688,1.41c0.56,0,1.387-0.121,2.469-0.369
	c1.089-0.242,1.892-0.363,2.417-0.363C297.561,51.826,297.669,51.99,297.669,52.314z"/>
</svg>
