<svg width="1511" height="198" viewBox="0 0 1511 198" fill="none" xmlns="http://www.w3.org/2000/svg">
<path d="M1433.37 0.045105H1433.9V17.3758L1464.89 45.1156V86.4433L1491.13 109.937V128.538L1472.63 145.094V166.934H1472.11V144.899L1490.6 128.342V110.132L1464.36 86.6387V45.311L1433.37 17.5637V0.045105Z" fill="#024B9B" fill-opacity="0.2"/>
<path d="M964.15 0.045105H964.679V34.3534L1015.89 80.2129V114.95L994.874 133.776V156.743H994.345V133.58L1015.37 114.754V80.4083L964.15 34.5488V0.045105Z" fill="#024B9B" fill-opacity="0.2"/>
<path d="M1266.75 0.045105H1267.27V24.3577L1224.9 62.296V96.6343L1248.38 117.655L1248.01 117.986L1224.37 96.8297V62.1006L1266.75 24.1699V0.045105Z" fill="#024B9B" fill-opacity="0.2"/>
<path d="M1110.99 0.045105H1111.52V46.8141L1139.34 71.7204V104.563L1169.69 131.739V131.837L1169.51 168.234L1168.99 168.227L1169.16 131.935L1138.81 104.759V71.9158L1110.99 47.0095V0.045105Z" fill="#024B9B" fill-opacity="0.2"/>
<path d="M1209.43 0.045105H1209.96V19.8334L1187.19 40.2155V79.6493L1217.94 107.179L1217.57 107.517L1186.66 79.8447V40.0201L1209.43 19.638V0.045105Z" fill="#024B9B" fill-opacity="0.2"/>
<path d="M1034.16 -0.120178L1055.98 19.4201V60.4021L1091.28 91.9973V122.871L1075.96 136.587L1075.59 136.249L1090.75 122.676V92.1927L1055.46 60.5975V19.6155L1033.79 0.218019L1034.16 -0.120178Z" fill="#024B9B" fill-opacity="0.2"/>
<path d="M883.279 -1.94647L883.657 -1.61579L852.111 26.6275V71.7205L890.054 105.691V151.648H889.525V105.886L851.582 71.9159V26.4321L883.279 -1.94647Z" fill="#024B9B" fill-opacity="0.2"/>
<path d="M1401.83 -0.120178L1402.21 0.218019L1352.71 44.5219V87.7736L1323.11 114.273V149.949H1322.59V114.078L1352.18 87.5782V44.3265L1401.83 -0.120178Z" fill="#024B9B" fill-opacity="0.2"/>
<path d="M1343.65 -0.120178L1344.02 0.218019L1297.69 41.6961V74.8995L1312.17 87.8563V125.141L1301.82 134.407L1301.44 134.077L1311.64 124.945V88.0517L1297.17 75.0949V41.5007L1343.65 -0.120178Z" fill="#024B9B" fill-opacity="0.2"/>
<path d="M1419.46 0.045105H1419.99V43.6125L1395.32 65.693V109.937L1419.83 131.882V155.616H1419.31V132.077L1394.8 110.132V65.4976L1419.46 43.4171V0.045105Z" fill="#024B9B" fill-opacity="0.2"/>
<path d="M1488.21 -0.120178L1518.25 26.7778V83.2417L1518.18 83.3094L1501.37 98.3554V137.113L1520.64 154.368L1520.27 154.699L1500.84 137.308V98.16L1517.72 83.0463V26.9732L1487.84 0.218019L1488.21 -0.120178Z" fill="#024B9B" fill-opacity="0.2"/>
<path d="M1091.89 0.045105H1092.42V50.2111L1129.09 83.0463V127.403L1098.03 155.218L1097.66 154.879L1128.56 127.207V83.2417L1091.89 50.4065V0.045105Z" fill="#024B9B" fill-opacity="0.2"/>
<path d="M997.031 0.045105H997.56V34.3534L1043.72 75.6886V119.474L1025.7 135.61V154.436L1037.45 164.958L1037.08 165.288L1025.17 154.631V135.414L1043.19 119.279V75.884L997.031 34.5488V0.045105Z" fill="#024B9B" fill-opacity="0.2"/>
<path d="M932.605 -0.120178L932.983 0.218019L912.576 18.4807V64.9265L944.315 93.3501V121.548L968.407 143.118V161.275H967.878V143.313L943.795 121.744V93.5455L912.047 65.1219V18.2853L932.605 -0.120178Z" fill="#024B9B" fill-opacity="0.2"/>
<path d="M795.121 -0.120178L826.433 27.9126V91.1706L802.811 112.312V149.949H802.282V112.116L825.904 90.9752V28.108L794.752 0.218019L795.121 -0.120178Z" fill="#024B9B" fill-opacity="0.2"/>
<path d="M854.193 -0.120178L854.562 0.218019L838.587 14.52V92.1025L870.646 120.804V170.429L858.13 181.642L857.752 181.304L870.117 170.234V121L838.059 92.2979V14.3246L854.193 -0.120178Z" fill="#024B9B" fill-opacity="0.2"/>
<path d="M908.58 -0.120178L908.949 0.218019L891.078 16.2185V74.8995L926.099 106.262V136.519L926.024 136.587L906.624 153.955V168.069H906.095V153.76L925.57 136.324V106.457L890.549 75.0949V16.0231L908.58 -0.120178Z" fill="#024B9B" fill-opacity="0.2"/>
<path d="M1162.71 0.045105H1163.24V28.6942L1169.86 34.6239V85.594L1190.71 104.255V115.025H1190.18V104.45L1169.34 85.7894V34.8193L1162.71 28.8896V0.045105Z" fill="#024B9B" fill-opacity="0.2"/>
<path d="M1302.21 -0.120178L1302.58 0.218019L1281.75 18.8715V73.8098L1265.23 88.6003V102.294L1281.61 116.956V146.913H1281.08V117.152L1264.71 102.489V88.4049L1281.22 73.6144V18.6761L1302.21 -0.120178Z" fill="#024B9B" fill-opacity="0.2"/>
<path d="M781.21 -0.120178L802.398 18.8489V59.0343L771.044 87.1047V156.743H770.516V86.9093L801.869 58.8389V19.0443L780.832 0.218019L781.21 -0.120178Z" fill="#024B9B" fill-opacity="0.2"/>
<path d="M851.851 178.831C856.61 178.831 860.489 182.303 860.489 186.565C860.489 190.826 856.61 194.298 851.851 194.298C847.091 194.298 843.213 190.826 843.213 186.565C843.213 182.303 847.091 178.831 851.851 178.831ZM851.851 193.825C856.325 193.825 859.96 190.571 859.96 186.565C859.96 182.559 856.325 179.305 851.851 179.305C847.377 179.305 843.742 182.559 843.742 186.565C843.742 190.571 847.377 193.825 851.851 193.825Z" fill="#024B9B" fill-opacity="0.2"/>
<path d="M889.794 151.415C894.554 151.415 898.432 154.887 898.432 159.148C898.432 163.41 894.554 166.882 889.794 166.882C885.034 166.882 881.156 163.41 881.156 159.148C881.156 154.887 885.034 151.415 889.794 151.415ZM889.794 166.408C894.268 166.408 897.903 163.146 897.903 159.148C897.903 155.15 894.268 151.888 889.794 151.888C885.32 151.888 881.685 155.15 881.685 159.148C881.685 163.146 885.32 166.408 889.794 166.408Z" fill="#024B9B" fill-opacity="0.2"/>
<path d="M906.364 167.836C911.124 167.836 915.002 171.308 915.002 175.57C915.002 179.831 911.124 183.303 906.364 183.303C901.605 183.303 897.727 179.831 897.727 175.57C897.727 171.308 901.605 167.836 906.364 167.836ZM906.364 182.83C910.839 182.83 914.473 179.575 914.473 175.57C914.473 171.564 910.83 168.31 906.364 168.31C901.899 168.31 898.255 171.571 898.255 175.57C898.255 179.568 901.89 182.83 906.364 182.83Z" fill="#024B9B" fill-opacity="0.2"/>
<path d="M968.146 161.042C972.905 161.042 976.784 164.514 976.784 168.776C976.784 173.037 972.905 176.509 968.146 176.509C963.386 176.509 959.508 173.037 959.508 168.776C959.508 164.514 963.386 161.042 968.146 161.042ZM968.146 176.036C972.62 176.036 976.255 172.781 976.255 168.776C976.255 164.77 972.612 161.516 968.146 161.516C963.68 161.516 960.037 164.77 960.037 168.776C960.037 172.781 963.68 176.036 968.146 176.036Z" fill="#024B9B" fill-opacity="0.2"/>
<path d="M994.624 156.51C999.384 156.51 1003.26 159.982 1003.26 164.244C1003.26 168.505 999.384 171.977 994.624 171.977C989.864 171.977 985.986 168.505 985.986 164.244C985.986 159.982 989.864 156.51 994.624 156.51ZM994.624 171.504C999.098 171.504 1002.73 168.249 1002.73 164.244C1002.73 160.238 999.098 156.984 994.624 156.984C990.15 156.984 986.515 160.238 986.515 164.244C986.515 168.249 990.15 171.504 994.624 171.504Z" fill="#024B9B" fill-opacity="0.2"/>
<path d="M1037.29 164.905C1042.05 164.905 1045.93 168.377 1045.93 172.638C1045.93 176.9 1042.05 180.372 1037.29 180.372C1032.53 180.372 1028.65 176.9 1028.65 172.638C1028.65 168.377 1032.53 164.905 1037.29 164.905ZM1037.29 179.898C1041.77 179.898 1045.4 176.644 1045.4 172.638C1045.4 168.633 1041.77 165.379 1037.29 165.379C1032.82 165.379 1029.18 168.633 1029.18 172.638C1029.18 176.644 1032.82 179.898 1037.29 179.898Z" fill="#024B9B" fill-opacity="0.2"/>
<path d="M1070.12 134.212C1074.88 134.212 1078.76 137.684 1078.76 141.945C1078.76 146.207 1074.88 149.679 1070.12 149.679C1065.36 149.679 1061.48 146.207 1061.48 141.945C1061.48 137.684 1065.36 134.212 1070.12 134.212ZM1070.12 149.205C1074.6 149.205 1078.23 145.951 1078.23 141.945C1078.23 137.94 1074.6 134.685 1070.12 134.685C1065.65 134.685 1062.01 137.94 1062.01 141.945C1062.01 145.951 1065.65 149.205 1070.12 149.205Z" fill="#024B9B" fill-opacity="0.2"/>
<path d="M1092.04 152.662C1096.8 152.662 1100.68 156.135 1100.68 160.396C1100.68 164.657 1096.8 168.129 1092.04 168.129C1087.28 168.129 1083.4 164.657 1083.4 160.396C1083.4 156.135 1087.28 152.662 1092.04 152.662ZM1092.04 167.656C1096.51 167.656 1100.15 164.402 1100.15 160.396C1100.15 156.39 1096.51 153.136 1092.04 153.136C1087.57 153.136 1083.93 156.39 1083.93 160.396C1083.93 164.402 1087.57 167.656 1092.04 167.656Z" fill="#024B9B" fill-opacity="0.2"/>
<path d="M802.45 149.716C807.21 149.716 811.088 153.188 811.088 157.45C811.088 161.711 807.21 165.183 802.45 165.183C797.691 165.183 793.812 161.711 793.812 157.45C793.812 153.188 797.691 149.716 802.45 149.716ZM802.45 164.71C806.925 164.71 810.559 161.456 810.559 157.45C810.559 153.444 806.916 150.19 802.45 150.19C797.985 150.19 794.341 153.444 794.341 157.45C794.341 161.456 797.976 164.71 802.45 164.71Z" fill="#024B9B" fill-opacity="0.2"/>
<path d="M770.786 156.533C775.546 156.533 779.424 160.005 779.424 164.266C779.424 168.528 775.546 172 770.786 172C766.027 172 762.148 168.528 762.148 164.266C762.148 160.005 766.027 156.533 770.786 156.533ZM770.786 171.526C775.261 171.526 778.895 168.272 778.895 164.266C778.895 160.261 775.261 157.006 770.786 157.006C766.312 157.006 762.677 160.261 762.677 164.266C762.677 168.272 766.312 171.526 770.786 171.526Z" fill="#024B9B" fill-opacity="0.2"/>
<path d="M1169.18 168.009C1173.94 168.009 1177.82 171.481 1177.82 175.742C1177.82 180.004 1173.94 183.476 1169.18 183.476C1164.42 183.476 1160.54 180.004 1160.54 175.742C1160.54 171.481 1164.42 168.009 1169.18 168.009ZM1169.18 183.002C1173.66 183.002 1177.29 179.748 1177.29 175.742C1177.29 171.737 1173.66 168.483 1169.18 168.483C1164.71 168.483 1161.07 171.737 1161.07 175.742C1161.07 179.748 1164.71 183.002 1169.18 183.002Z" fill="#024B9B" fill-opacity="0.2"/>
<path d="M1190.22 114.792C1194.98 114.792 1198.86 118.264 1198.86 122.525C1198.86 126.786 1194.98 130.259 1190.22 130.259C1185.46 130.259 1181.59 126.786 1181.59 122.525C1181.59 118.264 1185.46 114.792 1190.22 114.792ZM1190.22 129.785C1194.7 129.785 1198.33 126.531 1198.33 122.525C1198.33 118.519 1194.69 115.265 1190.22 115.265C1185.76 115.265 1182.11 118.527 1182.11 122.525C1182.11 126.523 1185.76 129.785 1190.22 129.785Z" fill="#024B9B" fill-opacity="0.2"/>
<path d="M1223.09 105.458C1227.84 105.458 1231.72 108.93 1231.72 113.191C1231.72 117.452 1227.84 120.924 1223.09 120.924C1218.33 120.924 1214.45 117.452 1214.45 113.191C1214.45 108.93 1218.33 105.458 1223.09 105.458ZM1223.09 120.451C1227.56 120.451 1231.19 117.197 1231.19 113.191C1231.19 109.185 1227.55 105.931 1223.09 105.931C1218.62 105.931 1214.98 109.185 1214.98 113.191C1214.98 117.197 1218.61 120.451 1223.09 120.451Z" fill="#024B9B" fill-opacity="0.2"/>
<path d="M1281.35 146.673C1286.11 146.673 1289.99 150.145 1289.99 154.406C1289.99 158.667 1286.11 162.14 1281.35 162.14C1276.59 162.14 1272.71 158.667 1272.71 154.406C1272.71 150.145 1276.59 146.673 1281.35 146.673ZM1281.35 161.666C1285.83 161.666 1289.46 158.412 1289.46 154.406C1289.46 150.4 1285.82 147.146 1281.35 147.146C1276.89 147.146 1273.24 150.4 1273.24 154.406C1273.24 158.412 1276.88 161.666 1281.35 161.666Z" fill="#024B9B" fill-opacity="0.2"/>
<path d="M1322.88 149.716C1327.66 149.716 1331.56 153.173 1331.56 157.42C1331.56 161.666 1327.66 165.123 1322.88 165.123C1318.09 165.123 1314.2 161.666 1314.2 157.42C1314.2 153.173 1318.09 149.716 1322.88 149.716ZM1322.88 164.657C1327.38 164.657 1331.03 161.41 1331.03 157.42C1331.03 153.429 1327.37 150.182 1322.88 150.182C1318.39 150.182 1314.73 153.429 1314.73 157.42C1314.73 161.41 1318.39 164.657 1322.88 164.657Z" fill="#024B9B" fill-opacity="0.2"/>
<path d="M1419.55 155.375C1424.33 155.375 1428.23 158.833 1428.23 163.079C1428.23 167.325 1424.33 170.782 1419.55 170.782C1414.76 170.782 1410.87 167.325 1410.87 163.079C1410.87 158.833 1414.76 155.375 1419.55 155.375ZM1419.55 170.316C1424.05 170.316 1427.7 167.07 1427.7 163.079C1427.7 159.088 1424.04 155.841 1419.55 155.841C1415.06 155.841 1411.4 159.088 1411.4 163.079C1411.4 167.07 1415.06 170.316 1419.55 170.316Z" fill="#024B9B" fill-opacity="0.2"/>
<path d="M1472.35 166.701C1477.13 166.701 1481.03 170.159 1481.03 174.405C1481.03 178.651 1477.13 182.108 1472.35 182.108C1467.56 182.108 1463.67 178.651 1463.67 174.405C1463.67 170.159 1467.56 166.701 1472.35 166.701ZM1472.35 181.642C1476.85 181.642 1480.5 178.396 1480.5 174.405C1480.5 170.414 1476.84 167.167 1472.35 167.167C1467.86 167.167 1464.2 170.414 1464.2 174.405C1464.2 178.396 1467.86 181.642 1472.35 181.642Z" fill="#024B9B" fill-opacity="0.2"/>
<path d="M1296.01 132.062C1300.77 132.062 1304.64 135.535 1304.64 139.796C1304.64 144.057 1300.77 147.529 1296.01 147.529C1291.25 147.529 1287.37 144.057 1287.37 139.796C1287.37 135.535 1291.25 132.062 1296.01 132.062ZM1296.01 147.056C1300.48 147.056 1304.12 143.794 1304.12 139.796C1304.12 135.798 1300.48 132.536 1296.01 132.536C1291.53 132.536 1287.9 135.798 1287.9 139.796C1287.9 143.794 1291.53 147.056 1296.01 147.056Z" fill="#024B9B" fill-opacity="0.2"/>
<path d="M1253.57 115.866C1258.33 115.866 1262.21 119.339 1262.21 123.6C1262.21 127.861 1258.33 131.333 1253.57 131.333C1248.81 131.333 1244.93 127.861 1244.93 123.6C1244.93 119.339 1248.81 115.866 1253.57 115.866ZM1253.57 130.86C1258.05 130.86 1261.68 127.606 1261.68 123.6C1261.68 119.594 1258.05 116.34 1253.57 116.34C1249.1 116.34 1245.46 119.594 1245.46 123.6C1245.46 127.606 1249.1 130.86 1253.57 130.86Z" fill="#024B9B" fill-opacity="0.2"/>
<path d="M77.6391 0.045105H77.1103V17.3758L46.1264 45.1156V86.4433L19.877 109.937V128.538L38.3783 145.094V166.934H38.8988V144.899L20.4058 128.342V110.132L46.6468 86.6387V45.311L77.6391 17.5637V0.045105Z" fill="#024B9B" fill-opacity="0.2"/>
<path d="M546.861 0.045105H546.332V34.3534L495.109 80.2129V114.95L516.137 133.776V156.743H516.658V133.58L495.638 114.754V80.4083L546.861 34.5488V0.045105Z" fill="#024B9B" fill-opacity="0.2"/>
<path d="M244.269 0.045105H243.74V24.3577L286.107 62.296V96.6343L262.628 117.655L263.005 117.986L286.636 96.8297V62.1006L244.269 24.1699V0.045105Z" fill="#024B9B" fill-opacity="0.2"/>
<path d="M400.027 0.045105H399.498V46.8141L371.671 71.7204V104.563L341.316 131.739V131.837L341.501 168.234L342.022 168.227L341.845 131.935L372.2 104.759V71.9158L400.027 47.0095V0.045105Z" fill="#024B9B" fill-opacity="0.2"/>
<path d="M301.576 0.045105H301.048V19.8334L323.813 40.2155V79.6493L293.064 107.179L293.434 107.517L324.342 79.8447V40.0201L301.576 19.638V0.045105Z" fill="#024B9B" fill-opacity="0.2"/>
<path d="M476.844 -0.120178L455.027 19.4201V60.4021L419.736 91.9973V122.871L435.048 136.587L435.426 136.249L420.265 122.676V92.1927L455.555 60.5975V19.6155L477.221 0.218019L476.844 -0.120178Z" fill="#024B9B" fill-opacity="0.2"/>
<path d="M627.727 -1.94647L627.358 -1.61579L658.896 26.6275V71.7205L620.953 105.691V151.648H621.482V105.886L659.425 71.9159V26.4321L627.727 -1.94647Z" fill="#024B9B" fill-opacity="0.2"/>
<path d="M109.178 -0.120178L108.809 0.218019L158.294 44.5219V87.7736L187.901 114.273V149.949H188.422V114.078L158.823 87.5782V44.3265L109.178 -0.120178Z" fill="#024B9B" fill-opacity="0.2"/>
<path d="M167.358 -0.120178L166.98 0.218019L213.309 41.6961V74.8995L198.837 87.8563V125.141L209.196 134.407L209.565 134.077L199.366 124.945V88.0517L213.838 75.0949V41.5007L167.358 -0.120178Z" fill="#024B9B" fill-opacity="0.2"/>
<path d="M91.5484 0.045105H91.0195V43.6125L115.682 65.693V109.937L91.179 131.882V155.616H91.7079V132.077L116.211 110.132V65.4976L91.5484 43.4171V0.045105Z" fill="#024B9B" fill-opacity="0.2"/>
<path d="M22.8014 -0.120178L-7.23395 26.7778V83.2417L-7.15841 83.3094L9.63888 98.3554V137.113L-9.63477 154.368L-9.25702 154.699L10.1677 137.308V98.16L-6.7135 83.0463V26.9732L23.1791 0.218019L22.8014 -0.120178Z" fill="#024B9B" fill-opacity="0.2"/>
<path d="M419.118 0.045105H418.598V50.2111L381.914 83.0463V127.403L412.982 155.218L413.351 154.879L382.443 127.207V83.2417L419.118 50.4065V0.045105Z" fill="#024B9B" fill-opacity="0.2"/>
<path d="M513.977 0.045105H513.457V34.3534L467.287 75.6886V119.474L485.31 135.61V154.436L473.558 164.958L473.935 165.288L485.839 154.631V135.414L467.816 119.279V75.884L513.977 34.5488V0.045105Z" fill="#024B9B" fill-opacity="0.2"/>
<path d="M578.4 -0.120178L578.031 0.218019L598.429 18.4807V64.9265L566.69 93.3501V121.548L542.598 143.118V161.275H543.127V143.313L567.219 121.744V93.5455L598.958 65.1219V18.2853L578.4 -0.120178Z" fill="#024B9B" fill-opacity="0.2"/>
<path d="M715.887 -0.120178L684.584 27.9126V91.1706L708.198 112.312V149.949H708.726V112.116L685.113 90.9752V28.108L716.265 0.218019L715.887 -0.120178Z" fill="#024B9B" fill-opacity="0.2"/>
<path d="M656.814 -0.120178L656.445 0.218019L672.42 14.52V92.1025L640.361 120.804V170.429L652.886 181.642L653.255 181.304L640.89 170.234V121L672.949 92.2979V14.3246L656.814 -0.120178Z" fill="#024B9B" fill-opacity="0.2"/>
<path d="M602.436 -0.120178L602.058 0.218019L619.938 16.2185V74.8995L584.908 106.262V136.519L584.984 136.587L604.383 153.955V168.069H604.912V153.76L585.437 136.324V106.457L620.459 75.0949V16.0231L602.436 -0.120178Z" fill="#024B9B" fill-opacity="0.2"/>
<path d="M348.292 0.045105H347.764V28.6942L341.149 34.6239V85.594L320.297 104.255V115.025H320.826V104.45L341.669 85.7894V34.8193L348.292 28.8896V0.045105Z" fill="#024B9B" fill-opacity="0.2"/>
<path d="M208.793 -0.120178L208.424 0.218019L229.259 18.8715V73.8098L245.771 88.6003V102.294L229.402 116.956V146.913H229.922V117.152L246.3 102.489V88.4049L229.788 73.6144V18.6761L208.793 -0.120178Z" fill="#024B9B" fill-opacity="0.2"/>
<path d="M729.801 -0.120178L708.605 18.8489V59.0343L739.959 87.1047V156.743H740.488V86.9093L709.134 58.8389V19.0443L730.171 0.218019L729.801 -0.120178Z" fill="#024B9B" fill-opacity="0.2"/>
<path d="M667.803 186.565C667.803 190.826 663.925 194.298 659.165 194.298C654.406 194.298 650.527 190.826 650.527 186.565C650.527 182.303 654.406 178.831 659.165 178.831C663.925 178.831 667.803 182.303 667.803 186.565ZM667.274 186.565C667.274 182.559 663.639 179.305 659.165 179.305C654.691 179.305 651.056 182.559 651.056 186.565C651.056 190.571 654.691 193.825 659.165 193.825C663.639 193.825 667.274 190.571 667.274 186.565Z" fill="#024B9B" fill-opacity="0.2"/>
<path d="M629.86 159.148C629.86 163.41 625.982 166.882 621.222 166.882C616.462 166.882 612.584 163.41 612.584 159.148C612.584 154.887 616.462 151.415 621.222 151.415C625.982 151.415 629.86 154.887 629.86 159.148ZM629.331 159.148C629.331 155.142 625.696 151.888 621.222 151.888C616.748 151.888 613.113 155.15 613.113 159.148C613.113 163.146 616.748 166.408 621.222 166.408C625.696 166.408 629.331 163.146 629.331 159.148Z" fill="#024B9B" fill-opacity="0.2"/>
<path d="M613.28 175.57C613.28 179.831 609.401 183.303 604.642 183.303C599.882 183.303 596.004 179.831 596.004 175.57C596.004 171.308 599.882 167.836 604.642 167.836C609.401 167.836 613.28 171.308 613.28 175.57ZM612.751 175.57C612.751 171.564 609.116 168.31 604.642 168.31C600.168 168.31 596.533 171.571 596.533 175.57C596.533 179.568 600.168 182.83 604.642 182.83C609.116 182.83 612.751 179.575 612.751 175.57Z" fill="#024B9B" fill-opacity="0.2"/>
<path d="M551.504 168.776C551.504 173.037 547.626 176.509 542.866 176.509C538.107 176.509 534.229 173.037 534.229 168.776C534.229 164.514 538.107 161.042 542.866 161.042C547.626 161.042 551.504 164.514 551.504 168.776ZM550.975 168.776C550.975 164.77 547.341 161.516 542.866 161.516C538.392 161.516 534.757 164.77 534.757 168.776C534.757 172.781 538.401 176.036 542.866 176.036C547.332 176.036 550.975 172.781 550.975 168.776Z" fill="#024B9B" fill-opacity="0.2"/>
<path d="M525.03 164.244C525.03 168.505 521.151 171.977 516.392 171.977C511.632 171.977 507.754 168.505 507.754 164.244C507.754 159.982 511.632 156.51 516.392 156.51C521.151 156.51 525.03 159.982 525.03 164.244ZM524.501 164.244C524.501 160.238 520.866 156.984 516.392 156.984C511.918 156.984 508.283 160.238 508.283 164.244C508.283 168.249 511.918 171.504 516.392 171.504C520.866 171.504 524.501 168.249 524.501 164.244Z" fill="#024B9B" fill-opacity="0.2"/>
<path d="M482.35 172.646C482.35 176.907 478.472 180.379 473.712 180.379C468.952 180.379 465.074 176.907 465.074 172.646C465.074 168.385 468.952 164.913 473.712 164.913C478.472 164.913 482.35 168.385 482.35 172.646ZM481.821 172.646C481.821 168.64 478.186 165.386 473.712 165.386C469.238 165.386 465.603 168.64 465.603 172.646C465.603 176.652 469.238 179.906 473.712 179.906C478.186 179.906 481.821 176.652 481.821 172.646Z" fill="#024B9B" fill-opacity="0.2"/>
<path d="M449.522 141.945C449.522 146.207 445.644 149.679 440.884 149.679C436.124 149.679 432.246 146.207 432.246 141.945C432.246 137.684 436.124 134.212 440.884 134.212C445.644 134.212 449.522 137.684 449.522 141.945ZM448.993 141.945C448.993 137.94 445.358 134.685 440.884 134.685C436.41 134.685 432.775 137.94 432.775 141.945C432.775 145.951 436.41 149.205 440.884 149.205C445.358 149.205 448.993 145.951 448.993 141.945Z" fill="#024B9B" fill-opacity="0.2"/>
<path d="M427.604 160.396C427.604 164.657 423.726 168.129 418.966 168.129C414.206 168.129 410.328 164.657 410.328 160.396C410.328 156.135 414.206 152.662 418.966 152.662C423.726 152.662 427.604 156.135 427.604 160.396ZM427.075 160.396C427.075 156.39 423.44 153.136 418.966 153.136C414.492 153.136 410.857 156.39 410.857 160.396C410.857 164.402 414.492 167.656 418.966 167.656C423.44 167.656 427.075 164.402 427.075 160.396Z" fill="#024B9B" fill-opacity="0.2"/>
<path d="M717.194 157.45C717.194 161.711 713.315 165.183 708.556 165.183C703.796 165.183 699.918 161.711 699.918 157.45C699.918 153.188 703.796 149.716 708.556 149.716C713.315 149.716 717.194 153.188 717.194 157.45ZM716.665 157.45C716.665 153.444 713.03 150.19 708.556 150.19C704.082 150.19 700.447 153.444 700.447 157.45C700.447 161.456 704.082 164.71 708.556 164.71C713.03 164.71 716.665 161.456 716.665 157.45Z" fill="#024B9B" fill-opacity="0.2"/>
<path d="M748.868 164.266C748.868 168.528 744.989 172 740.23 172C735.47 172 731.592 168.528 731.592 164.266C731.592 160.005 735.47 156.533 740.23 156.533C744.989 156.533 748.868 160.005 748.868 164.266ZM748.339 164.266C748.339 160.261 744.704 157.006 740.23 157.006C735.755 157.006 732.121 160.261 732.121 164.266C732.121 168.272 735.755 171.526 740.23 171.526C744.704 171.526 748.339 168.272 748.339 164.266Z" fill="#024B9B" fill-opacity="0.2"/>
<path d="M350.459 175.742C350.459 180.004 346.581 183.476 341.821 183.476C337.062 183.476 333.184 180.004 333.184 175.742C333.184 171.481 337.062 168.009 341.821 168.009C346.581 168.009 350.459 171.481 350.459 175.742ZM349.93 175.742C349.93 171.737 346.296 168.483 341.821 168.483C337.347 168.483 333.712 171.737 333.712 175.742C333.712 179.748 337.347 183.002 341.821 183.002C346.296 183.002 349.93 179.748 349.93 175.742Z" fill="#024B9B" fill-opacity="0.2"/>
<path d="M329.43 122.525C329.43 126.786 325.552 130.259 320.792 130.259C316.033 130.259 312.154 126.786 312.154 122.525C312.154 118.264 316.033 114.792 320.792 114.792C325.552 114.792 329.43 118.264 329.43 122.525ZM328.901 122.525C328.901 118.519 325.258 115.265 320.792 115.265C316.326 115.265 312.683 118.527 312.683 122.525C312.683 126.523 316.326 129.785 320.792 129.785C325.258 129.785 328.901 126.531 328.901 122.525Z" fill="#024B9B" fill-opacity="0.2"/>
<path d="M296.557 113.191C296.557 117.452 292.679 120.924 287.919 120.924C283.159 120.924 279.281 117.452 279.281 113.191C279.281 108.93 283.159 105.458 287.919 105.458C292.679 105.458 296.557 108.93 296.557 113.191ZM296.028 113.191C296.028 109.185 292.385 105.931 287.919 105.931C283.453 105.931 279.81 109.185 279.81 113.191C279.81 117.197 283.453 120.451 287.919 120.451C292.385 120.451 296.028 117.197 296.028 113.191Z" fill="#024B9B" fill-opacity="0.2"/>
<path d="M238.301 154.406C238.301 158.667 234.423 162.14 229.663 162.14C224.904 162.14 221.025 158.667 221.025 154.406C221.025 150.145 224.904 146.673 229.663 146.673C234.423 146.673 238.301 150.145 238.301 154.406ZM237.772 154.406C237.772 150.4 234.137 147.146 229.663 147.146C225.189 147.146 221.554 150.4 221.554 154.406C221.554 158.412 225.197 161.666 229.663 161.666C234.129 161.666 237.772 158.412 237.772 154.406Z" fill="#024B9B" fill-opacity="0.2"/>
<path d="M196.817 157.42C196.817 161.666 192.922 165.123 188.137 165.123C183.352 165.123 179.457 161.666 179.457 157.42C179.457 153.173 183.352 149.716 188.137 149.716C192.922 149.716 196.817 153.173 196.817 157.42ZM196.288 157.42C196.288 153.429 192.628 150.182 188.137 150.182C183.646 150.182 179.986 153.429 179.986 157.42C179.986 161.41 183.646 164.657 188.137 164.657C192.628 164.657 196.288 161.41 196.288 157.42Z" fill="#024B9B" fill-opacity="0.2"/>
<path d="M100.135 163.086C100.135 167.333 96.2401 170.79 91.4552 170.79C86.6704 170.79 82.7754 167.333 82.7754 163.086C82.7754 158.84 86.6704 155.383 91.4552 155.383C96.2401 155.383 100.135 158.84 100.135 163.086ZM99.6062 163.086C99.6062 159.096 95.9463 155.849 91.4552 155.849C86.9642 155.849 83.3042 159.096 83.3042 163.086C83.3042 167.077 86.9642 170.324 91.4552 170.324C95.9463 170.324 99.6062 167.077 99.6062 163.086Z" fill="#024B9B" fill-opacity="0.2"/>
<path d="M47.3441 174.405C47.3441 178.651 43.4491 182.108 38.6642 182.108C33.8794 182.108 29.9844 178.651 29.9844 174.405C29.9844 170.159 33.8794 166.701 38.6642 166.701C43.4491 166.701 47.3441 170.159 47.3441 174.405ZM46.8152 174.405C46.8152 170.414 43.1553 167.167 38.6642 167.167C34.1732 167.167 30.5132 170.414 30.5132 174.405C30.5132 178.396 34.1732 181.642 38.6642 181.642C43.1553 181.642 46.8152 178.396 46.8152 174.405Z" fill="#024B9B" fill-opacity="0.2"/>
<path d="M223.635 139.796C223.635 144.057 219.757 147.529 214.997 147.529C210.238 147.529 206.359 144.057 206.359 139.796C206.359 135.535 210.238 132.062 214.997 132.062C219.757 132.062 223.635 135.535 223.635 139.796ZM223.106 139.796C223.106 135.79 219.471 132.536 214.997 132.536C210.523 132.536 206.888 135.798 206.888 139.796C206.888 143.794 210.531 147.056 214.997 147.056C219.463 147.056 223.106 143.794 223.106 139.796Z" fill="#024B9B" fill-opacity="0.2"/>
<path d="M266.075 123.6C266.075 127.861 262.196 131.333 257.437 131.333C252.677 131.333 248.799 127.861 248.799 123.6C248.799 119.339 252.677 115.866 257.437 115.866C262.196 115.866 266.075 119.339 266.075 123.6ZM265.546 123.6C265.546 119.594 261.911 116.34 257.437 116.34C252.962 116.34 249.328 119.594 249.328 123.6C249.328 127.606 252.971 130.86 257.437 130.86C261.903 130.86 265.546 127.606 265.546 123.6Z" fill="#024B9B" fill-opacity="0.2"/>
</svg>
