<svg width="31" height="32" viewBox="0 0 31 32" fill="none" xmlns="http://www.w3.org/2000/svg">
<g clip-path="url(#clip0_335_5460)">
<path d="M30.9983 16.0024C30.9983 19.5099 31.001 23.0184 30.9974 26.5259C30.9947 29.1024 29.2948 31.2529 26.7738 31.8461C26.3308 31.9506 25.8628 31.9926 25.4063 31.9926C18.8019 32.0015 12.1983 32.0015 5.5938 31.998C2.83557 31.9962 0.652346 30.2478 0.102496 27.5935C0.0243314 27.2147 0.00366713 26.818 0.00366713 26.4294C-0.000825104 19.4805 7.33426e-05 12.5316 7.33426e-05 5.58354C0.00187024 2.42804 2.32435 0.0319224 5.49048 0.0185213C12.1614 -0.00917428 18.8333 -0.00381385 25.5052 0.0167345C28.2203 0.0256685 30.3541 1.7964 30.895 4.41497C30.9713 4.78305 30.9938 5.16811 30.9947 5.54602C31.0019 9.0312 30.9992 12.5173 30.9992 16.0024H30.9983ZM29.0495 16.0042C29.0495 12.5512 29.0522 9.0991 29.0451 5.64608C29.0451 5.31374 29.0109 4.97603 28.9435 4.65083C28.6713 3.32948 27.4054 1.9456 25.3578 1.95364C18.7857 1.97865 12.2136 1.96257 5.64232 1.96525C5.3629 1.96525 5.0763 1.96972 4.80407 2.02422C3.07186 2.37086 1.9506 3.76814 1.9506 5.57818C1.94791 12.528 1.9488 19.4787 1.95419 26.4285C1.95419 26.7385 1.99013 27.0539 2.05392 27.3576C2.32705 28.6656 3.57859 30.0655 5.67466 30.0566C12.2243 30.0289 18.774 30.0477 25.3228 30.0441C25.6139 30.0441 25.9113 30.0387 26.1943 29.9825C27.931 29.634 29.0469 28.243 29.0487 26.4303C29.0522 22.9549 29.0495 19.4805 29.0495 16.0051V16.0042Z" fill="white"/>
<path d="M11.2329 8.59986C9.6498 8.59986 8.06674 8.60165 6.48368 8.59897C5.89699 8.59808 5.53222 8.35328 5.39656 7.88782C5.23664 7.33927 5.58254 6.78089 6.14766 6.68172C6.27973 6.65849 6.4154 6.64866 6.54927 6.64866C9.69293 6.64688 12.8366 6.64598 15.9794 6.64866C16.6316 6.64866 16.9865 6.87291 17.133 7.3625C17.2866 7.87442 16.9721 8.43279 16.4483 8.55608C16.2866 8.59361 16.115 8.59897 15.947 8.59986C14.3756 8.60254 12.8034 8.60165 11.232 8.60165L11.2329 8.59986Z" fill="white"/>
<path d="M19.7573 8.59986C18.1742 8.59986 16.5912 8.60165 15.0081 8.59897C14.4214 8.59808 14.0566 8.35328 13.921 7.88782C13.761 7.33927 14.107 6.78089 14.6721 6.68172C14.8041 6.65849 14.9398 6.64866 15.0737 6.64866C18.2173 6.64688 21.361 6.64598 24.5038 6.64866C25.156 6.64866 25.5109 6.87291 25.6574 7.3625C25.811 7.87442 25.4966 8.43279 24.9728 8.55608C24.811 8.59361 24.6394 8.59897 24.4714 8.59986C22.9 8.60254 21.3278 8.60165 19.7564 8.60165L19.7573 8.59986Z" fill="white"/>
<path d="M11.3369 24.289C9.79789 24.289 8.25975 24.2961 6.72071 24.2818C6.47274 24.2791 6.2032 24.222 5.98308 24.1112C5.63448 23.9361 5.46827 23.5001 5.54464 23.1374C5.6282 22.7362 5.93367 22.4351 6.33527 22.3681C6.46735 22.3458 6.60301 22.3378 6.73688 22.3378C9.81406 22.336 12.8912 22.336 15.9684 22.3378C16.591 22.3378 16.9459 22.5397 17.1112 22.9783C17.3143 23.5188 16.9891 24.1273 16.4203 24.2488C16.2577 24.2836 16.0861 24.2881 15.9181 24.2881C14.3907 24.2907 12.8634 24.2899 11.336 24.2899L11.3369 24.289Z" fill="white"/>
<path d="M11.3654 14.7322C12.9386 14.7322 14.5109 14.7322 16.084 14.7322C16.7381 14.7322 17.1819 15.1262 17.1792 15.698C17.1766 16.2689 16.7273 16.6691 16.0778 16.6691C12.9206 16.6709 9.76437 16.6709 6.60723 16.6691C6.02234 16.6691 5.60636 16.3279 5.53628 15.8088C5.47608 15.3612 5.76269 14.9145 6.2164 14.7778C6.35207 14.7367 6.50301 14.734 6.64766 14.7331C8.22084 14.7305 9.79312 14.7313 11.3663 14.7313L11.3654 14.7322Z" fill="white"/>
<path d="M21.9768 15.3899C22.629 14.8691 23.24 14.3607 23.8725 13.881C24.4744 13.4235 25.2642 13.6987 25.4394 14.4099C25.5346 14.7949 25.4061 15.1273 25.1096 15.3703C24.2175 16.1002 23.319 16.8238 22.4089 17.5323C21.9642 17.8781 21.4197 17.8057 21.0585 17.3724C20.6938 16.9346 20.3407 16.4852 20.0002 16.0287C19.6588 15.5713 19.7459 14.9924 20.1844 14.6618C20.6129 14.3393 21.1637 14.4099 21.5347 14.8423C21.6794 15.0102 21.8141 15.1871 21.9776 15.3908L21.9768 15.3899Z" fill="white"/>
<path d="M21.9801 23.0052C22.6171 22.4942 23.2217 21.9957 23.8408 21.5168C24.4544 21.0424 25.2567 21.3024 25.4391 22.0243C25.5289 22.3807 25.4328 22.7068 25.157 22.9347C24.2334 23.6958 23.3026 24.4508 22.3538 25.1816C21.9594 25.4853 21.4365 25.4147 21.1086 25.0359C20.7061 24.5723 20.3242 24.088 19.9613 23.5922C19.6639 23.1848 19.7672 22.6032 20.1517 22.2985C20.5426 21.9876 21.1104 22.018 21.4635 22.3843C21.6405 22.5684 21.7914 22.7765 21.9801 23.0043V23.0052Z" fill="white"/>
</g>
<defs>
<clipPath id="clip0_335_5460">
<rect width="31" height="32" fill="white"/>
</clipPath>
</defs>
</svg>
