<svg width="30" height="44" viewBox="0 0 30 44" fill="none" xmlns="http://www.w3.org/2000/svg">
<g clip-path="url(#clip0_703_1050)">
<path d="M29.998 21.9828C29.998 25.5981 30.0003 29.2146 29.998 32.8299C29.9945 38.3177 26.3009 42.8168 20.977 43.8067C20.4522 43.9045 19.9111 43.9528 19.377 43.954C16.3292 43.961 13.2745 44.0801 10.2361 43.9068C5.95027 43.6617 2.87812 41.4098 0.994098 37.5164C0.279591 36.0422 0.0037957 34.4597 0.0037957 32.8217C0.00728678 25.6052 -0.0101686 18.3876 0.00961417 11.1711C0.0247422 5.73516 3.48673 1.40221 8.71287 0.241494C9.34592 0.101265 10.0046 0.0258482 10.6527 0.0199563C13.5271 -0.0036116 16.4002 -0.00950356 19.2745 0.0128859C24.4658 0.0517729 28.96 3.93458 29.8223 9.12068C29.9328 9.78294 29.9863 10.4629 29.9898 11.1346C30.0061 14.7499 29.9968 18.3663 29.9968 21.9817L29.998 21.9828ZM1.49798 22.0111C1.49798 25.5687 1.49216 29.1262 1.5038 32.6838C1.50612 33.3131 1.52241 33.9529 1.63064 34.5704C2.46268 39.3571 6.59146 42.5293 10.9984 42.4609C13.669 42.4185 16.3409 42.4574 19.0116 42.4492C19.4747 42.448 19.9413 42.4291 20.3987 42.362C25.1198 41.6702 28.5154 37.7214 28.5201 32.9054C28.5271 25.6288 28.5236 18.351 28.5178 11.0745C28.5178 10.5772 28.4922 10.0716 28.4107 9.58143C27.6194 4.81248 23.7501 1.50944 18.9685 1.50591C16.3118 1.50355 13.6551 1.49177 10.9984 1.51534C10.3211 1.52123 9.62986 1.57779 8.97005 1.72391C4.50263 2.71376 1.51543 6.47872 1.5003 11.1181C1.48867 14.7487 1.49798 18.3805 1.49798 22.0111Z" fill="white"/>
<path d="M10.9727 12.009C11.0122 11.1005 10.961 10.2355 11.1042 9.40593C11.4451 7.42858 13.2488 6.00627 15.141 6.12646C17.2741 6.26198 18.9172 7.85752 18.9928 9.98216C19.0452 11.4457 19.0557 12.9246 18.9149 14.3799C18.7287 16.2972 17.0239 17.7171 15.063 17.7654C13.1941 17.8114 11.4381 16.4421 11.1181 14.5826C10.9703 13.7236 11.0134 12.8303 10.9727 12.009ZM12.4517 11.8322C12.4633 11.8322 12.4761 11.8322 12.4878 11.8334C12.4878 12.4497 12.4773 13.066 12.4901 13.6823C12.5157 14.9562 13.5421 16.0603 14.7709 16.1463C16.1267 16.2418 17.3578 15.3462 17.4521 14.0158C17.5545 12.5723 17.5417 11.1122 17.4568 9.66753C17.3858 8.46675 16.314 7.54878 15.148 7.49693C13.9063 7.44273 12.788 8.24757 12.5809 9.4672C12.4494 10.2402 12.4889 11.0427 12.4517 11.8322Z" fill="white"/>
<path d="M15.7467 35.8903C16.8336 34.9276 17.8263 34.0508 18.8166 33.1694C19.3856 32.6627 19.7871 32.6038 20.1339 32.9867C20.483 33.3721 20.3689 33.8057 19.7917 34.3171C18.3837 35.5651 16.9768 36.8165 15.5699 38.0656C15.2126 38.3826 14.7902 38.3873 14.4376 38.0703C12.983 36.7647 11.5284 35.4578 10.0761 34.1486C9.65597 33.7692 9.58964 33.352 9.88289 32.9973C10.1831 32.6344 10.6358 32.6379 11.0675 33.0186C11.9985 33.8387 12.9248 34.6624 13.8534 35.4838C13.9581 35.5768 14.0687 35.6641 14.2537 35.8172V35.2705C14.2537 33.1246 14.2526 30.9799 14.256 28.8341C14.256 28.6597 14.2642 28.4782 14.3154 28.3144C14.4294 27.9456 14.7017 27.7653 15.0788 27.8018C15.4337 27.836 15.6653 28.0457 15.7211 28.411C15.7479 28.5843 15.7467 28.7622 15.7467 28.9378C15.7479 31.0542 15.7467 33.1706 15.7467 35.2858C15.7467 35.4437 15.7467 35.6016 15.7467 35.8903Z" fill="white"/>
<path d="M15.7537 23.1601C15.7455 23.3204 15.7479 23.483 15.7269 23.6421C15.6734 24.0262 15.4441 24.249 15.0671 24.2784C14.6912 24.3079 14.3933 24.1382 14.3189 23.7599C14.2525 23.4217 14.2444 23.0611 14.2746 22.7159C14.313 22.2881 14.647 22.0348 15.052 22.0548C15.436 22.0748 15.6955 22.3388 15.7374 22.7642C15.7502 22.895 15.7397 23.027 15.7397 23.1589C15.7455 23.1589 15.7502 23.1589 15.756 23.1589L15.7537 23.1601Z" fill="white"/>
</g>
<defs>
<clipPath id="clip0_703_1050">
<rect width="30" height="44" fill="white"/>
</clipPath>
</defs>
</svg>
