<svg width="38" height="38" viewBox="0 0 38 38" fill="none" xmlns="http://www.w3.org/2000/svg">
<g clip-path="url(#clip0_1079_4453)">
<path d="M21.5316 34.199C21.5316 34.8693 21.5348 35.4762 21.5316 36.0831C21.5242 37.1668 20.712 37.9968 19.6365 37.9979C13.726 38.0021 7.81658 38.0011 1.90607 37.9979C0.8274 37.9979 0.00253158 37.1711 0.00253158 36.0937C-0.00064099 24.6958 -0.00064099 13.2979 0.00147406 1.90002C0.00147406 0.822613 0.828458 0.00319214 1.91136 0.00213482C7.80812 -0.00103713 13.7049 -0.00103713 19.6027 0.00213482C20.711 0.00213482 21.5274 0.817327 21.5316 1.92222C21.5369 3.37286 21.5327 4.8235 21.5327 6.33547H22.0033C26.6468 6.33547 31.2904 6.33547 35.934 6.33547C37.2305 6.33547 38.0004 7.10202 38.0004 8.39618C38.0004 16.3113 38.0004 24.2263 38.0004 32.1414C38.0004 33.4303 37.2263 34.2 35.9298 34.2C31.2989 34.2 26.6691 34.2 22.0382 34.2C21.8827 34.2 21.7283 34.2 21.5327 34.2L21.5316 34.199ZM5.06384 12.6836C5.06384 12.8433 5.06384 12.9733 5.06384 13.1034C5.06384 19.3976 5.06384 25.6907 5.06384 31.9849C5.06384 32.7504 5.25208 32.9365 6.02513 32.9365C15.9341 32.9365 25.8442 32.9365 35.7532 32.9365C36.5548 32.9365 36.7356 32.7578 36.7356 31.967C36.7356 25.6865 36.7356 19.406 36.7356 13.1256V12.6847H5.06384V12.6836ZM20.2668 34.2H19.7507C15.1188 34.2 10.4879 34.2 5.85593 34.2C4.56998 34.2 3.79904 33.4229 3.79904 32.1287C3.79904 24.2115 3.79904 16.2954 3.79904 8.37821C3.79904 7.11048 4.57526 6.33547 5.84429 6.33547C10.4889 6.33547 15.1336 6.33547 19.7782 6.33547H20.2636C20.2636 4.82456 20.2721 3.36229 20.2583 1.90002C20.2552 1.5289 19.995 1.28678 19.6217 1.27197C19.1628 1.25294 18.7017 1.26774 18.2374 1.26774C18.0672 1.9328 17.8948 2.56613 17.7446 3.20475C17.6484 3.61499 17.4168 3.80213 16.9927 3.80213C12.8366 3.7979 8.67951 3.7979 4.52345 3.80213C4.11947 3.80213 3.8847 3.62768 3.78952 3.23435C3.63195 2.58516 3.46063 1.93914 3.28932 1.26669C2.92235 1.26669 2.56808 1.26669 2.21276 1.26669C1.44711 1.26669 1.26204 1.45383 1.26204 2.22779C1.26204 13.4036 1.26204 24.5795 1.26204 35.7553C1.26204 36.5578 1.43971 36.7376 2.23179 36.7376C7.91916 36.7376 13.6065 36.7376 19.2928 36.7376C19.3848 36.7376 19.4779 36.7418 19.5699 36.7365C20.0045 36.7111 20.2531 36.4733 20.2626 36.0355C20.2753 35.4434 20.2657 34.8503 20.2657 34.2011L20.2668 34.2ZM5.0649 11.3736H36.7356C36.7356 10.4368 36.7356 9.52751 36.7356 8.61822C36.7356 7.7639 36.5706 7.59791 35.7246 7.59791C25.8421 7.59791 15.9585 7.59791 6.07589 7.59791C5.95745 7.59791 5.83795 7.59156 5.71951 7.60108C5.32716 7.6328 5.07547 7.86541 5.07019 8.26084C5.05644 9.28856 5.06596 10.3163 5.06596 11.3736H5.0649ZM4.92848 2.51326H16.6057C16.7061 2.09457 16.8013 1.69596 16.8996 1.28149H4.62708C4.73178 1.70865 4.83013 2.11043 4.92848 2.51326Z" fill="white"/>
<path d="M13.931 29.1195H15.2011V28.6829C15.2011 25.7668 15.2011 22.8507 15.2011 19.9346C15.2011 19.149 15.3523 19.001 16.1539 19.001C16.8403 19.001 17.5266 19 18.2119 19.001C18.7882 19.0031 18.9976 19.2104 18.9976 19.7855C18.9987 22.7672 18.9976 25.7499 18.9976 28.7315C18.9976 28.8489 18.9976 28.9652 18.9976 29.1079H20.2677C20.2677 28.9472 20.2677 28.7939 20.2677 28.6395C20.2677 24.4441 20.2677 20.2476 20.2677 16.0521C20.2677 15.3892 20.4528 15.201 21.1042 15.201C21.8296 15.201 22.5551 15.1989 23.2816 15.201C23.8559 15.2021 24.0642 15.4104 24.0642 15.9877C24.0642 20.1968 24.0642 24.406 24.0642 28.6152C24.0642 28.7717 24.0642 28.9271 24.0642 29.128H34.1784V30.3989H33.7606C25.329 30.3989 16.8974 30.3989 8.46572 30.3989C7.78045 30.3989 7.59961 30.2192 7.59961 29.5361C7.59961 24.4821 7.59961 19.4292 7.59961 14.3752C7.59961 14.2452 7.59961 14.1151 7.59961 13.9597H8.85383V29.1058H10.1324V28.685C10.1324 26.5735 10.1324 24.4631 10.1324 22.3516C10.1324 21.7268 10.328 21.5343 10.9636 21.5343C11.6891 21.5343 12.4145 21.5333 13.141 21.5343C13.7195 21.5354 13.9289 21.7426 13.9299 22.3157C13.931 24.4272 13.9299 26.5376 13.9299 28.649C13.9299 28.7928 13.9299 28.9356 13.9299 29.1185L13.931 29.1195ZM22.773 29.1174V16.4973H21.5526V29.1174H22.773ZM16.4923 20.2835V29.1037H17.7138V20.2835H16.4923ZM11.413 29.1164H12.6451V22.8253H11.413V29.1164Z" fill="white"/>
<path d="M25.3348 15.8089C25.3348 15.3998 25.3274 14.9906 25.3369 14.5814C25.3464 14.1786 25.578 13.9417 25.9799 13.9364C26.8111 13.9269 27.6423 13.928 28.4735 13.9364C28.8944 13.9407 29.126 14.1786 29.1292 14.6089C29.1366 15.4273 29.1366 16.2446 29.1292 17.0629C29.1249 17.489 28.8902 17.7248 28.4661 17.729C27.6476 17.7375 26.8301 17.7364 26.0116 17.729C25.5674 17.7248 25.3422 17.489 25.3358 17.0365C25.3295 16.6273 25.3348 16.2181 25.3348 15.8089ZM26.6154 16.4391H27.8358V15.22H26.6154V16.4391Z" fill="white"/>
<path d="M27.1938 22.7989C26.7983 22.7989 26.4018 22.8052 26.0062 22.7967C25.5779 22.7883 25.3411 22.5599 25.3368 22.137C25.3284 21.3059 25.3273 20.4749 25.3368 19.6428C25.3411 19.242 25.5801 19.0084 25.984 19.0041C26.8152 18.9957 27.6465 18.9957 28.4777 19.0041C28.8816 19.0084 29.1217 19.2431 29.127 19.6428C29.1365 20.4876 29.1376 21.3313 29.127 22.1761C29.1217 22.5525 28.8785 22.7851 28.4999 22.7957C28.0652 22.8073 27.6295 22.7989 27.1938 22.7989ZM27.8484 20.2888H26.6259V21.5047H27.8484V20.2888Z" fill="white"/>
<path d="M27.2339 27.8655C26.8246 27.8655 26.4153 27.8719 26.0071 27.8634C25.5788 27.8549 25.343 27.6266 25.3388 27.2036C25.3303 26.3726 25.3293 25.5415 25.3388 24.7094C25.343 24.3087 25.582 24.075 25.987 24.0708C26.8183 24.0623 27.6495 24.0623 28.4807 24.0708C28.8847 24.075 29.1247 24.3098 29.13 24.7094C29.1395 25.5542 29.1406 26.398 29.13 27.2428C29.1247 27.6192 28.8815 27.8518 28.5018 27.8623C28.0799 27.874 27.6579 27.8655 27.2349 27.8655H27.2339ZM27.8515 25.3533H26.6237V26.5735H27.8515V25.3533Z" fill="white"/>
<path d="M34.1824 16.4963V17.7112H30.4219V16.4963H34.1824Z" fill="white"/>
<path d="M34.1824 19.0295V20.2433H30.4219V19.0295H34.1824Z" fill="white"/>
<path d="M34.1804 21.5618V22.7787H30.4336V21.5618H34.1804Z" fill="white"/>
<path d="M30.4219 25.3111V24.0962H34.175V25.3111H30.4219Z" fill="white"/>
<path d="M31.6377 15.182H30.4258V13.9534H31.6377V15.182Z" fill="white"/>
<path d="M32.9609 13.9419H34.1686V15.1705H32.9609V13.9419Z" fill="white"/>
<path d="M30.4336 26.6169H31.6434V27.8455H30.4336V26.6169Z" fill="white"/>
<path d="M34.1688 27.8509H32.959V26.6223H34.1688V27.8509Z" fill="white"/>
<path d="M6.36328 8.88257H7.57309V10.1112H6.36328V8.88257Z" fill="white"/>
<path d="M10.106 10.1237H8.90039V8.89722H10.106V10.1237Z" fill="white"/>
<path d="M12.6335 10.1175H11.4258V8.88892H12.6335V10.1175Z" fill="white"/>
<path d="M34.2207 10.1027V8.88892H35.4358V10.1027H34.2207Z" fill="white"/>
</g>
<defs>
<clipPath id="clip0_1079_4453">
<rect width="38" height="38" fill="white"/>
</clipPath>
</defs>
</svg>
