<svg width="28" height="30" viewBox="0 0 28 30" fill="none" xmlns="http://www.w3.org/2000/svg">
<g clip-path="url(#clip0_335_5474)">
<path d="M24.6218 1.93129C23.699 1.93129 22.8569 1.93528 22.0147 1.92809C21.8243 1.9265 21.6225 1.91612 21.4475 1.85225C20.9911 1.68618 20.7486 1.22392 20.8438 0.768842C20.9374 0.324941 21.3377 0.0087822 21.843 0.00399191C22.6567 -0.00319353 23.4704 0.00159676 24.2841 0.00159676C25.1588 0.00159676 26.0335 0 26.9082 0C27.5706 0 27.9896 0.380828 27.9937 1.02752C28.0035 2.69135 28.0027 4.35517 27.9937 6.019C27.9905 6.61938 27.5445 7.0545 26.9937 7.03774C26.4387 7.02097 26.0319 6.57707 26.0294 5.97509C26.0262 5.20785 26.0286 4.4406 26.0286 3.67336C26.0286 3.57675 26.0286 3.47935 26.0286 3.32127C25.9074 3.42985 25.8268 3.49691 25.752 3.56957C23.6518 5.6262 21.5525 7.68363 19.4516 9.74026C18.5166 10.6552 17.506 10.7845 16.3579 10.1418C14.0397 8.84288 11.7215 7.54391 9.40244 6.24574C8.96467 6.00064 8.94108 6.00543 8.59363 6.34554C6.34214 8.55067 4.09146 10.755 1.83998 12.9601C1.30294 13.4863 0.726029 13.5501 0.291517 13.1342C-0.149505 12.7118 -0.085223 12.133 0.462393 11.5957C2.72771 9.3762 4.99222 7.1567 7.25836 4.93799C8.17458 4.04141 9.17705 3.90728 10.2983 4.53401C12.6531 5.85054 15.008 7.16468 17.3579 8.4884C17.6175 8.6345 17.8055 8.63769 18.0284 8.41894C20.166 6.3144 22.3117 4.21705 24.4541 2.11731C24.4956 2.07659 24.5331 2.03029 24.6234 1.92969L24.6218 1.93129Z" fill="white"/>
<path d="M11.4978 20.7587C11.4978 23.4884 11.4986 26.2173 11.497 28.9469C11.497 29.4819 11.2439 29.8268 10.7728 29.9561C10.1975 30.1142 9.59622 29.7046 9.54577 29.1186C9.54007 29.0491 9.54251 28.9789 9.54251 28.9094C9.54251 23.4605 9.54251 18.0123 9.54251 12.5633C9.54251 12.0236 9.78499 11.6684 10.2415 11.5318C10.8469 11.3514 11.4742 11.7721 11.4905 12.3917C11.5084 13.0488 11.497 13.7066 11.4978 14.3637C11.4978 16.4954 11.4978 18.6271 11.4978 20.7587Z" fill="white"/>
<path d="M25.399 20.7508C25.399 23.4701 25.399 26.1894 25.399 28.9087C25.399 29.4668 25.1304 29.834 24.6414 29.961C24.1125 30.0983 23.5462 29.7446 23.455 29.2153C23.4363 29.1075 23.4306 28.9973 23.4306 28.8879C23.4298 23.4597 23.429 18.0307 23.4306 12.6025C23.4306 12.0533 23.6463 11.702 24.0645 11.5487C24.7 11.3156 25.3623 11.7571 25.3965 12.4437C25.4087 12.6824 25.3998 12.9219 25.3998 13.1606C25.3998 15.6907 25.3998 18.2208 25.3998 20.7508H25.399Z" fill="white"/>
<path d="M16.4933 22.6532C16.4933 20.5415 16.4901 18.4305 16.495 16.3188C16.4966 15.6107 17.1109 15.1564 17.766 15.3624C18.1525 15.4837 18.4275 15.8302 18.4454 16.2294C18.4535 16.4082 18.4478 16.5879 18.4478 16.7675C18.4478 20.8313 18.447 24.895 18.4495 28.9588C18.4495 29.3764 18.2835 29.6933 17.9059 29.8873C17.5585 30.0662 17.2159 30.0286 16.8994 29.8099C16.591 29.5967 16.4876 29.2933 16.4893 28.9285C16.4966 26.8367 16.4925 24.7449 16.4925 22.654L16.4933 22.6532Z" fill="white"/>
<path d="M2.59177 22.6548C2.59177 20.563 2.59096 18.4721 2.59177 16.3803C2.59177 15.8398 2.85785 15.4789 3.33711 15.3496C3.88066 15.2035 4.45106 15.5628 4.53731 16.1097C4.5544 16.2174 4.5601 16.3276 4.5601 16.437C4.56091 20.5806 4.56172 24.7234 4.5601 28.867C4.5601 29.4291 4.33633 29.7899 3.90833 29.9376C3.26958 30.1588 2.61211 29.7077 2.59503 29.0195C2.57957 28.4119 2.59096 27.8044 2.59096 27.1968C2.59096 25.6831 2.59096 24.1693 2.59096 22.6548H2.59177Z" fill="white"/>
</g>
<defs>
<clipPath id="clip0_335_5474">
<rect width="28" height="30" fill="white"/>
</clipPath>
</defs>
</svg>
