<svg width="31" height="26" viewBox="0 0 31 26" fill="none" xmlns="http://www.w3.org/2000/svg">
<g clip-path="url(#clip0_335_5468)">
<path d="M0 16.1161C0.203713 15.1208 0.8868 14.4394 1.60303 13.7675C3.82771 11.6805 6.25368 9.87144 9.08707 8.62234C11.2317 7.6771 13.4718 7.13517 15.8411 7.19547C18.2073 7.25499 20.4215 7.89324 22.5257 8.91132C25.4286 10.3147 27.9168 12.2592 30.135 14.5326C31.3274 15.7551 31.27 17.5289 30.0663 18.7396C27.8101 21.0068 25.313 22.9646 22.3761 24.3531C19.9655 25.4926 17.4385 26.123 14.7369 25.9813C12.741 25.8763 10.8534 25.3571 9.04503 24.5536C6.1114 23.2497 3.61672 21.3537 1.33869 19.1625C0.71138 18.5587 0.189162 17.9134 0 17.0567V16.1169L0 16.1161ZM15.4903 23.9976C16.7401 24.0038 17.9591 23.8073 19.1442 23.4361C22.9194 22.2528 25.9492 19.9817 28.6573 17.2509C29.0494 16.8554 29.0178 16.2963 28.6201 15.9C26.7455 14.0346 24.6841 12.3986 22.3236 11.1385C20.3341 10.0766 18.2315 9.34987 15.9414 9.25746C13.6965 9.1674 11.5971 9.73517 9.59474 10.6741C6.83895 11.9663 4.48978 13.7949 2.36291 15.9078C1.93366 16.3338 1.95306 16.893 2.40172 17.348C4.37984 19.3544 6.58269 21.0788 9.13638 22.3546C11.1299 23.3507 13.2252 23.9866 15.4903 23.996V23.9976Z" fill="white"/>
<path d="M5.15625 3.00719C5.19667 2.56472 5.46586 2.19822 5.88218 2.05569C6.2888 1.91707 6.77868 2.02984 7.02201 2.37912C7.75602 3.43087 8.48114 4.48888 9.18282 5.56099C9.48193 6.01834 9.29357 6.61274 8.82309 6.88996C8.37201 7.15623 7.73743 7.01527 7.41326 6.55165C6.80859 5.68629 6.21847 4.81153 5.62269 3.94069C5.52811 3.80207 5.41736 3.67129 5.3438 3.52328C5.26296 3.3596 5.21769 3.18027 5.15706 3.00719H5.15625Z" fill="white"/>
<path d="M26.8704 3.0698C26.7872 3.26402 26.7322 3.47703 26.615 3.64932C25.9602 4.61022 25.2949 5.56408 24.6239 6.51402C24.2593 7.0301 23.6741 7.14992 23.1809 6.8304C22.6991 6.51793 22.5844 5.9157 22.9271 5.41058C23.5916 4.43323 24.2609 3.45823 24.9368 2.48871C25.2157 2.08932 25.6805 1.94444 26.1283 2.08932C26.5479 2.22558 26.8316 2.61637 26.8712 3.07058L26.8704 3.0698Z" fill="white"/>
<path d="M14.4641 2.51846C14.4641 2.01961 14.4609 1.52075 14.4649 1.0219C14.4706 0.439246 14.9015 0.00930593 15.4811 -9.16622e-05C16.0574 -0.00948925 16.5166 0.416535 16.5223 0.993704C16.5312 2.0016 16.5312 3.0087 16.5223 4.01659C16.5166 4.59611 16.0623 5.01744 15.4811 5.01039C14.9087 5.00256 14.4706 4.56479 14.4657 3.98605C14.4617 3.4966 14.4649 3.00792 14.4649 2.51846H14.4641Z" fill="white"/>
<path d="M15.4759 22.6004C11.9829 22.5432 9.25052 19.8492 9.30953 16.5186C9.36935 13.1253 12.1639 10.53 15.6885 10.5942C19.032 10.6553 21.7409 13.4166 21.6738 16.6971C21.6067 19.9926 18.8113 22.6552 15.4759 22.6012V22.6004ZM15.5018 20.5909C17.7911 20.5877 19.6124 18.8045 19.6092 16.5687C19.6059 14.3963 17.7321 12.588 15.4961 12.599C13.2084 12.6108 11.3701 14.4033 11.3733 16.6196C11.3774 18.821 13.2197 20.594 15.501 20.5909H15.5018Z" fill="white"/>
</g>
<defs>
<clipPath id="clip0_335_5468">
<rect width="31" height="26" fill="white"/>
</clipPath>
</defs>
</svg>
