<svg width="37" height="37" viewBox="0 0 37 37" fill="none" xmlns="http://www.w3.org/2000/svg">
<g clip-path="url(#clip0_1079_4202)">
<path d="M19.0218 34.0025C19.0218 34.8005 19.0228 35.5604 19.0218 36.3204C19.0218 36.7659 18.8477 36.9942 18.5095 37.0002C18.1563 37.0062 17.9773 36.7739 17.9763 36.3033C17.9753 35.5444 17.9763 34.7845 17.9763 34.0275C10.0244 33.8153 3.32213 27.2361 2.98496 19.0118C2.63279 19.0118 2.27762 19.0118 1.92145 19.0118C1.45922 19.0118 0.997998 19.0189 0.535773 19.0088C0.199609 19.0018 -0.0204979 18.7776 0.00151278 18.4692C0.024524 18.1448 0.212615 17.9706 0.536773 17.9675C1.2111 17.9615 1.88443 17.9655 2.55876 17.9655C2.69382 17.9655 2.82889 17.9655 2.99297 17.9655C3.20607 13.9005 4.68279 10.4011 7.54618 7.53458C10.4106 4.66801 13.9073 3.18817 17.9773 2.97391C17.9773 2.15489 17.9602 1.3579 17.9903 0.561908C17.9973 0.382685 18.1253 0.1534 18.2714 0.0522747C18.3865 -0.0278249 18.6616 -0.0098025 18.7776 0.0793083C18.9097 0.179433 19.0068 0.405714 19.0128 0.580932C19.0368 1.36491 19.0238 2.14988 19.0238 2.92985C19.8492 3.04399 20.6516 3.1311 21.4439 3.26927C23.0277 3.54462 24.5174 4.10131 25.9231 4.87627C26.1572 5.00543 26.2773 4.9814 26.4584 4.79918C27.8891 3.35138 29.3318 1.91559 30.7705 0.475801C31.3017 -0.0558598 31.6599 0.0262423 31.908 0.733121C32.2512 1.70833 32.5844 2.68655 32.9475 3.65475C33.0066 3.81095 33.1746 3.97715 33.3317 4.03623C34.2982 4.39868 35.2767 4.73209 36.2511 5.07552C36.9545 5.32283 37.0345 5.68328 36.5013 6.21694C35.0626 7.65673 33.6249 9.09652 32.1842 10.5343C32.0461 10.6725 31.941 10.7736 32.0701 11.0039C33.2557 13.1185 33.865 15.3994 33.9991 17.8134C34.001 17.8494 34.0111 17.8854 34.0261 17.9675C34.7024 17.9675 35.3857 17.9675 36.0691 17.9675C36.1941 17.9675 36.3192 17.9635 36.4432 17.9685C36.7884 17.9816 37.0005 18.1808 37.0025 18.4882C37.0035 18.7956 36.7914 19.0078 36.4482 19.0118C35.7869 19.0199 35.1256 19.0138 34.4633 19.0148C34.3272 19.0148 34.1911 19.0148 34.0091 19.0148C33.799 23.0629 32.3262 26.5642 29.4688 29.4308C26.6075 32.3014 23.1138 33.7912 19.0248 34.0055L19.0218 34.0025ZM19.0218 32.9021C27.2408 32.6578 32.9225 25.57 32.8705 19.0108C32.7735 19.0108 32.6744 19.0108 32.5764 19.0108C31.877 19.0108 31.1777 19.0148 30.4793 19.0088C30.1542 19.0058 29.9671 18.8316 29.9481 18.5042C29.9301 18.1888 30.1402 17.9826 30.4843 17.9665C30.6214 17.9605 30.7585 17.9655 30.8965 17.9655C31.5669 17.9655 32.2362 17.9655 32.9385 17.9655C32.8925 17.4559 32.8685 16.9943 32.8065 16.5388C32.5814 14.8687 32.0771 13.2847 31.2927 11.7919C31.2467 11.7038 31.1277 11.6287 31.0276 11.5996C30.8285 11.5436 30.6084 11.5536 30.4163 11.4845C29.4919 11.1501 28.5744 10.7946 27.651 10.4562C27.5469 10.4182 27.3718 10.3871 27.3128 10.4422C26.8706 10.8557 26.4504 11.2912 26.0172 11.7258C26.1022 11.8179 26.1512 11.873 26.2023 11.927C26.7795 12.5308 26.8015 13.0715 26.2643 13.7103C25.8311 14.2249 25.709 14.7896 25.9781 15.4144C26.2473 16.0401 26.7505 16.3325 27.4138 16.3846C28.1502 16.4427 28.5744 16.8842 28.5884 17.6201C28.5994 18.2068 28.6024 18.7946 28.5884 19.3813C28.5704 20.0972 28.1402 20.5427 27.4299 20.5938C26.7495 20.6439 26.2393 20.9412 25.9701 21.585C25.701 22.2298 25.8541 22.7976 26.3033 23.3142C26.7845 23.8669 26.7685 24.4646 26.2643 24.9863C25.8481 25.4168 25.4239 25.8413 24.9937 26.2579C24.4724 26.7635 23.8751 26.7805 23.3229 26.2989C22.8066 25.8493 22.2403 25.6952 21.595 25.9635C20.9517 26.2318 20.6526 26.7415 20.6025 27.4223C20.5505 28.1342 20.1043 28.5657 19.3919 28.5807C18.8057 28.5928 18.2184 28.5908 17.6321 28.5807C16.8967 28.5687 16.4525 28.1452 16.3955 27.4083C16.3425 26.7274 16.0383 26.2198 15.393 25.9565C14.7617 25.6982 14.2024 25.8433 13.6962 26.2809C13.1099 26.7875 12.5276 26.7665 11.9703 26.2218C11.5591 25.8203 11.1529 25.4138 10.7517 25.0033C10.2335 24.4716 10.2135 23.8699 10.7047 23.3012C11.1529 22.7815 11.296 22.2118 11.0229 21.57C10.7487 20.9282 10.2335 20.6389 9.55416 20.5918C8.86883 20.5448 8.43261 20.0962 8.4126 19.4023C8.3956 18.7906 8.3946 18.1778 8.4126 17.566C8.43361 16.8742 8.87083 16.4346 9.56216 16.3846C10.2425 16.3365 10.7547 16.0412 11.0259 15.3984C11.297 14.7546 11.1479 14.1868 10.6997 13.6682C10.2095 13.1015 10.2355 12.5008 10.7587 11.9671C11.1609 11.5566 11.5671 11.1511 11.9773 10.7486C12.5116 10.2239 13.1189 10.1939 13.6772 10.6785C14.1934 11.128 14.7597 11.2822 15.405 11.0139C16.0483 10.7456 16.3465 10.2349 16.3975 9.55509C16.4515 8.82618 16.9057 8.40566 17.6461 8.39565C18.1453 8.38864 18.6446 8.39364 19.1438 8.39465C20.1363 8.39465 20.4915 8.70503 20.6135 9.68024C20.6926 10.314 21.0087 10.7756 21.607 11.0199C22.1913 11.2582 22.7306 11.1591 23.2168 10.7656C23.9502 10.1739 24.4334 10.1899 25.1127 10.8347C25.1557 10.8757 25.2088 10.9078 25.2928 10.9708C25.674 10.5794 26.0382 10.1859 26.4244 9.81541C26.5984 9.6482 26.6075 9.50503 26.5244 9.29076C26.1712 8.38564 25.8331 7.4755 25.4969 6.56437C25.4379 6.40317 25.3588 6.21794 25.3879 6.06275C25.4359 5.80843 25.3018 5.73834 25.1257 5.64823C23.9452 5.03847 22.7066 4.58591 21.4039 4.3376C20.6295 4.19042 19.8412 4.12033 19.0228 4.0102C19.0228 4.20344 19.0228 4.30156 19.0228 4.39968C19.0228 5.09955 19.0288 5.79842 19.0198 6.49829C19.0148 6.84071 18.7967 7.05198 18.4815 7.03295C18.1543 7.01293 17.9883 6.8247 17.9783 6.49929C17.9743 6.36212 17.9773 6.22495 17.9773 6.08678C17.9773 5.41594 17.9773 4.74611 17.9773 4.07528C9.80728 4.31858 4.0865 11.3413 4.12652 17.9555C4.19855 17.9585 4.27259 17.9655 4.34563 17.9655C5.06998 17.9655 5.79333 17.9625 6.51768 17.9685C6.84284 17.9706 7.03093 18.1438 7.05094 18.4712C7.06995 18.7856 6.85885 18.9948 6.51668 19.0108C6.36761 19.0179 6.21754 19.0128 6.06746 19.0128C5.41014 19.0128 4.75282 19.0128 4.0955 19.0128C4.34763 27.2711 11.4441 32.9141 17.9783 32.8721C17.9783 32.1121 17.9763 31.3522 17.9783 30.5922C17.9793 30.1717 18.1513 29.9545 18.4825 29.9444C18.8327 29.9344 19.0218 30.1577 19.0228 30.5932C19.0248 31.3532 19.0228 32.1131 19.0228 32.9041L19.0218 32.9021ZM17.463 9.49602C17.403 10.6595 16.9157 11.5105 15.8742 11.9661C14.8567 12.4106 13.8993 12.2615 13.0509 11.5345C12.8798 11.3884 12.7787 11.4354 12.6467 11.5726C12.3435 11.887 12.0454 12.2094 11.7172 12.4957C11.4501 12.728 11.4221 12.8842 11.6622 13.1866C12.8017 14.6214 12.1174 16.7741 10.3666 17.3117C10.0974 17.3948 9.81129 17.4229 9.51614 17.4799V19.4974C9.55416 19.5175 9.56516 19.5285 9.57517 19.5285C12.0494 19.5996 12.9898 22.4521 11.5411 23.953C11.3981 24.1012 11.4461 24.2063 11.5731 24.3295C11.9133 24.6609 12.2595 24.9863 12.5756 25.3387C12.7807 25.567 12.9158 25.554 13.1519 25.3637C14.7067 24.1112 16.9778 24.9372 17.388 26.8926C17.428 27.0839 17.449 27.2781 17.479 27.4704H19.535C19.591 26.3219 20.0783 25.4699 21.1188 25.0123C22.1343 24.5668 23.0927 24.7109 23.9422 25.4378C24.1082 25.58 24.2113 25.55 24.3474 25.4088C24.6585 25.0844 24.9657 24.753 25.3038 24.4596C25.571 24.2283 25.5559 24.0691 25.3388 23.7968C24.1983 22.364 24.8746 20.2083 26.6245 19.6687C26.8936 19.5856 27.1797 19.5565 27.4839 19.4985V17.4549C27.3878 17.4469 27.3158 17.4409 27.2438 17.4339C26.2003 17.3308 25.4329 16.8201 25.0127 15.8549C24.5955 14.8947 24.6945 13.9676 25.3628 13.1516C25.609 12.8512 25.5579 12.69 25.2938 12.5408C24.3714 13.466 23.4579 14.3811 22.5405 15.3012C24.5384 18.0156 23.4779 21.0934 21.7021 22.4842C19.7131 24.0421 16.9077 23.971 15.0738 22.2929C13.1889 20.5688 12.8298 17.7973 14.2204 15.6867C14.9138 14.6334 15.8662 13.9085 17.0748 13.5731C18.7656 13.1035 20.3264 13.4409 21.7411 14.5133C22.2203 14.0276 22.6735 13.5651 23.1308 13.1055C23.586 12.6489 24.0452 12.1964 24.5004 11.7448C24.2743 11.5018 24.0472 11.4691 23.8191 11.6467C22.2803 12.8472 20.0233 12.0282 19.6151 10.1188C19.572 9.91654 19.547 9.70928 19.513 9.49802H17.462L17.463 9.49602ZM20.9117 15.2742C19.6341 14.1488 17.1669 14.0287 15.5811 15.6717C14.0453 17.2627 14.0724 19.8148 15.6461 21.3708C17.2239 22.9307 19.7631 22.9357 21.3419 21.3798C22.9697 19.7758 22.8176 17.3197 21.7361 16.1072C21.3529 16.4897 20.9687 16.8732 20.5715 17.2697C21.1338 18.6063 20.8757 19.7648 19.8282 20.4727C18.8827 21.1115 17.6171 20.9873 16.8077 20.1763C15.9983 19.3663 15.8772 18.0967 16.5175 17.1535C17.2279 16.1062 18.3855 15.8489 19.7501 16.4246C20.1343 16.0442 20.5145 15.6687 20.9117 15.2742ZM31.1287 1.71734C31.0816 1.72435 31.0346 1.71734 31.0146 1.73737C29.5469 3.19919 28.0812 4.66301 26.6205 6.13283C26.5694 6.1849 26.5474 6.31506 26.5734 6.38715C26.8546 7.16612 27.1487 7.94108 27.4389 8.71705C27.4909 8.69902 27.5209 8.69802 27.5369 8.68301C28.9856 7.23721 30.4353 5.79341 31.876 4.3386C31.939 4.27553 31.9541 4.11032 31.923 4.0162C31.6689 3.24925 31.3978 2.4873 31.1297 1.71734H31.1287ZM28.2082 9.51904C29.0006 9.81942 29.735 10.0878 30.4613 10.3771C30.6824 10.4652 30.8105 10.4172 30.9726 10.253C32.3322 8.87725 33.7039 7.51255 35.0706 6.14285C35.1456 6.06775 35.2106 5.98265 35.3077 5.87151C34.5313 5.59617 33.792 5.34485 33.0616 5.06951C32.8255 4.9804 32.6844 5.03447 32.5143 5.20869C31.6499 6.09178 30.7725 6.96186 29.8991 7.83495C29.3528 8.38063 28.8045 8.92531 28.2102 9.51804L28.2082 9.51904ZM19.0108 17.2577C18.2154 17.0674 17.6461 17.2917 17.3369 17.8484C17.0438 18.3791 17.1509 19.0439 17.5971 19.4584C18.0363 19.8659 18.6826 19.931 19.1888 19.6196C19.7241 19.2902 19.9302 18.7025 19.7331 18.0717C19.7101 18.0767 19.6791 18.0747 19.6641 18.0887C19.431 18.314 19.2019 18.5443 18.9687 18.7685C18.6606 19.0649 18.3534 19.0929 18.1203 18.8486C17.8962 18.6144 17.9232 18.32 18.2104 18.0276C18.4535 17.7813 18.7086 17.547 19.0098 17.2577H19.0108Z" fill="white"/>
</g>
<defs>
<clipPath id="clip0_1079_4202">
<rect width="37" height="37" fill="white"/>
</clipPath>
</defs>
</svg>
