<svg width="40" height="31" viewBox="0 0 40 31" fill="none" xmlns="http://www.w3.org/2000/svg">
<g clip-path="url(#clip0_1079_4182)">
<path d="M40 25.0539C39.6087 25.7884 38.9128 26.0896 38.172 26.3233C37.8997 26.4085 37.6252 26.4874 37.3477 26.5519C36.9981 26.6329 36.7175 26.4677 36.6204 26.1447C36.5265 25.833 36.6893 25.5484 37.0409 25.4279C37.4938 25.2721 37.9518 25.1298 38.4047 24.9729C38.7208 24.8638 38.8533 24.6623 38.8398 24.3008C38.8074 23.4636 38.8293 22.6232 38.8293 21.7278C36.7321 22.5588 34.5618 22.6617 32.3706 22.7728V25.8839C32.8016 25.8839 33.2252 25.8902 33.6488 25.8818C33.8951 25.8767 34.1413 25.8403 34.3886 25.833C34.8446 25.8195 35.1148 26.0325 35.1221 26.394C35.1284 26.7357 34.8717 26.9674 34.4502 26.9964C33.7636 27.0442 33.076 27.092 32.3717 27.1408C32.3613 27.2395 32.3362 27.3288 32.3466 27.414C32.4531 28.2887 31.9867 28.8361 31.2834 29.235C30.3464 29.7658 29.3176 30.038 28.2742 30.2592C25.1388 30.924 21.9595 31.0487 18.7678 30.9864C16.6726 30.9448 14.5795 30.8222 12.523 30.4057C11.4598 30.1907 10.4132 29.8728 9.37816 29.5425C8.98062 29.4157 8.61543 29.155 8.2711 28.9057C7.85061 28.6003 7.6221 28.1723 7.66488 27.6301C7.67636 27.4774 7.66697 27.3237 7.66697 27.145C6.91155 27.093 6.18012 27.0941 5.46643 26.9829C4.21225 26.7877 2.96538 26.5435 1.72373 26.2787C1.37732 26.2049 1.04865 26.0107 0.73667 25.8309C0.240009 25.5453 0.00211241 25.1277 0.00419922 24.5211C0.0188069 18.8982 0.0240239 13.2743 2.55992e-05 7.6504C-0.00310462 6.90768 0.280702 6.38518 0.92344 6.14522C1.82912 5.80658 2.76192 5.50534 3.71038 5.32875C4.7663 5.13242 5.85249 5.09295 6.92511 4.98699C7.15675 4.96414 7.39047 4.95375 7.66697 4.93402C7.66697 4.40217 7.6868 3.88798 7.66175 3.37482C7.63254 2.78376 7.89235 2.35371 8.34205 2.01196C9.13504 1.40739 10.0762 1.14562 11.0163 0.890087C11.3909 0.788287 11.7738 0.706225 12.1578 0.644937C12.5647 0.580534 12.8412 0.762318 12.8976 1.09161C12.9602 1.45414 12.7619 1.6889 12.3498 1.8042C11.4764 2.04832 10.601 2.28723 9.74335 2.57601C9.41259 2.68716 9.12565 2.92919 8.6989 3.18369C9.05574 3.42261 9.28947 3.62101 9.55658 3.75086C10.7002 4.30764 11.9366 4.55175 13.1793 4.76054C16.105 5.25084 19.0568 5.31628 22.0107 5.21448C24.5451 5.12723 27.0722 4.91116 29.5096 4.13624C30.1127 3.94511 30.7189 3.73943 31.225 3.17954C30.9631 2.99775 30.7492 2.76507 30.4863 2.68093C29.4147 2.33709 28.3462 1.94652 27.2454 1.74188C23.6958 1.08018 20.1065 1.06876 16.513 1.26924C16.1363 1.29001 15.7607 1.32949 15.3861 1.37311C14.8738 1.43336 14.5712 1.26716 14.5263 0.881777C14.4794 0.479773 14.7131 0.219042 15.2306 0.197228C17.1807 0.115165 19.1298 -0.00429369 21.0789 -0.000138614C23.6039 0.00505523 26.1196 0.22008 28.5841 0.806985C29.375 0.995003 30.1461 1.27963 30.9067 1.56944C31.2385 1.69617 31.5411 1.9247 31.8208 2.15115C32.1787 2.44097 32.3644 2.82843 32.3477 3.30938C32.3299 3.83915 32.3435 4.36893 32.3435 4.9309C33.0791 4.98076 33.7897 5.014 34.4981 5.07841C35.8587 5.20202 37.2079 5.39108 38.5007 5.85956C39.1225 6.08497 39.6714 6.40907 39.9979 7.01467V25.0539H40ZM8.83558 4.74288C8.83558 4.90078 8.83558 5.01192 8.83558 5.12411C8.83558 6.43296 8.84498 7.74181 8.82932 9.04962C8.82619 9.34879 8.92219 9.55862 9.17782 9.68223C9.62023 9.89518 10.0585 10.132 10.5249 10.2795C12.9758 11.0524 15.5134 11.2923 18.0624 11.3547C19.9979 11.4014 21.9366 11.2944 23.8742 11.2518C24.2571 11.2435 24.5388 11.4367 24.5879 11.767C24.6348 12.0818 24.3907 12.3706 24.0203 12.4329C23.9441 12.4464 23.8648 12.4485 23.7865 12.4495C21.7321 12.4776 19.6766 12.5565 17.6242 12.517C15.5311 12.4755 13.4464 12.2449 11.4065 11.7473C10.5436 11.5375 9.70265 11.2362 8.83663 10.9713C8.83663 12.3467 8.84915 13.7563 8.82828 15.1659C8.82306 15.5025 8.94306 15.731 9.22164 15.8515C9.82578 16.1143 10.4278 16.402 11.0591 16.5786C13.5424 17.2736 16.0956 17.4595 18.6603 17.5146C21.8124 17.5821 24.9552 17.4824 28.0509 16.8123C29.0025 16.6067 29.9479 16.3688 30.7951 15.8577C31.058 15.6988 31.1916 15.5014 31.1853 15.1659C31.1634 13.8581 31.177 12.5482 31.1759 11.2404C31.1759 11.1334 31.1603 11.0274 31.1488 10.8934C29.7872 11.551 28.3692 11.8543 26.9303 12.0766C26.4869 12.1452 26.1916 11.9665 26.1269 11.6112C26.0653 11.2747 26.322 10.989 26.7509 10.9132C27.1849 10.8363 27.6304 10.7937 28.0499 10.6659C28.9399 10.3959 29.8216 10.0946 30.6949 9.77676C31.0528 9.64588 31.1968 9.36541 31.1874 8.95094C31.1582 7.6691 31.177 6.38518 31.1759 5.10334C31.1759 4.99634 31.1613 4.88935 31.1582 4.83533C30.2943 5.09918 29.4658 5.40354 28.6123 5.60506C25.5676 6.32597 22.4635 6.45478 19.3521 6.42881C17.2047 6.41115 15.0626 6.28234 12.9424 5.92085C11.5484 5.68297 10.1711 5.38173 8.83767 4.74496L8.83558 4.74288ZM8.83558 23.1842C8.83558 24.6322 8.84811 26.0418 8.82724 27.4514C8.82202 27.788 8.94201 28.0155 9.2206 28.137C9.82473 28.3998 10.4257 28.6876 11.057 28.8641C13.5257 29.5539 16.0653 29.745 18.6144 29.799C21.7769 29.8666 24.9364 29.7907 28.0363 29.0875C28.9504 28.8797 29.8299 28.5089 30.7137 28.1827C31.0549 28.057 31.1968 27.7859 31.1853 27.386C31.154 26.2859 31.1749 25.1848 31.1749 24.0837C31.1749 23.7939 31.1749 23.5041 31.1749 23.1956C30.7398 23.3628 30.361 23.529 29.9687 23.6558C27.4625 24.4702 24.8644 24.7485 22.2527 24.7974C20.0073 24.8389 17.7546 24.7766 15.5123 24.6478C13.2408 24.5169 11.0027 24.1378 8.83558 23.1852V23.1842ZM8.83558 17.0461C8.83558 18.4962 8.84498 19.9089 8.82828 21.3206C8.82411 21.6374 8.92949 21.8628 9.19869 21.9792C9.81534 22.2451 10.4278 22.5432 11.0716 22.7229C13.5549 23.4158 16.1092 23.6038 18.6739 23.6568C21.8135 23.7212 24.9479 23.6464 28.0249 22.9463C28.9639 22.7323 29.8644 22.3407 30.7721 22.0041C31.0716 21.893 31.1989 21.6437 31.1864 21.2915C31.1582 20.5021 31.177 19.7105 31.177 18.92C31.177 18.304 31.177 17.6891 31.177 17.044C30.8201 17.1873 30.5144 17.3245 30.1993 17.4346C28.1209 18.1586 25.9558 18.4297 23.7761 18.5866C21.3596 18.7611 18.9399 18.7725 16.5213 18.599C13.9118 18.4121 11.3241 18.1191 8.83663 17.0461H8.83558ZM7.6461 22.7853C6.92824 22.7365 6.22707 22.6939 5.52799 22.6378C5.19306 22.6108 4.95829 22.3573 4.95829 22.0581C4.95829 21.7361 5.21184 21.491 5.56555 21.4806C5.72102 21.4754 5.87753 21.4847 6.03404 21.493C6.56305 21.5232 7.09205 21.5574 7.64506 21.5907V18.4152C5.45808 18.3113 3.28049 18.2033 1.1822 17.3764C1.1822 18.3497 1.17177 19.2555 1.19368 20.1613C1.19681 20.2901 1.3335 20.4782 1.45453 20.5291C1.91885 20.7233 2.4009 20.8791 2.87983 21.037C3.28258 21.17 3.46622 21.4338 3.37649 21.786C3.28988 22.1267 2.99251 22.2835 2.57619 22.1755C2.1171 22.0571 1.66634 21.9117 1.1822 21.7694C1.1822 22.6128 1.21038 23.4293 1.17073 24.2427C1.1509 24.6519 1.29281 24.8753 1.66008 24.9989C1.85624 25.0654 2.04301 25.1703 2.24335 25.2129C3.14381 25.403 4.04114 25.618 4.95203 25.7437C5.83475 25.8663 6.73104 25.8912 7.64715 25.9608V22.7863L7.6461 22.7853ZM1.1822 8.66424C1.1822 9.45578 1.1822 10.1798 1.1822 10.9038C1.1822 11.7577 1.18638 11.7639 1.98563 12.0683C2.07014 12.1005 2.1557 12.1368 2.24335 12.1545C3.17094 12.3373 4.09331 12.5544 5.0282 12.6853C5.88483 12.8048 6.75503 12.8307 7.64506 12.8993V9.7082C5.46851 9.60121 3.29927 9.50045 1.18116 8.66424H1.1822ZM7.65132 14.0638C5.44973 13.9557 3.28258 13.8498 1.2375 13.0416C1.20829 13.0967 1.18742 13.1185 1.18742 13.1393C1.18429 13.7739 1.1822 14.4086 1.1822 15.0423C1.1822 16.161 1.16551 16.2275 2.26526 16.4966C3.43179 16.7822 4.6317 16.9443 5.82327 17.1177C6.41906 17.205 7.02945 17.1967 7.65236 17.233V14.0627L7.65132 14.0638ZM38.8293 8.66632C36.7248 9.50564 34.543 9.5929 32.3727 9.71443V12.9481C33.7375 12.7933 35.071 12.6895 36.3878 12.4744C37.1202 12.355 37.8256 12.0621 38.5351 11.8231C38.6551 11.7826 38.8147 11.6175 38.8178 11.5073C38.8408 10.5797 38.8304 9.65107 38.8304 8.66735L38.8293 8.66632ZM32.3602 17.3026C33.7323 17.1479 35.0658 17.044 36.3815 16.83C37.114 16.7105 37.8204 16.4207 38.5288 16.1777C38.6551 16.134 38.8137 15.9502 38.8168 15.8276C38.8408 14.9114 38.8304 13.9942 38.8304 13.0219C36.7289 13.855 34.5482 13.9505 32.3613 14.0658V17.3016L32.3602 17.3026ZM32.3623 21.6374C33.5612 21.518 34.7298 21.4567 35.8775 21.2697C36.754 21.1264 37.6054 20.8324 38.4641 20.5893C38.7417 20.5104 38.8533 20.313 38.8398 20.0003C38.8116 19.3542 38.8314 18.705 38.8314 18.0578C38.8314 17.847 38.8314 17.6351 38.8314 17.3733C36.7143 18.2157 34.542 18.3051 32.3633 18.4224V21.6385L32.3623 21.6374ZM7.64297 8.5292V6.12756C7.02215 6.16392 6.42636 6.1847 5.83266 6.23663C4.47206 6.35505 3.11772 6.51295 1.83016 7.00636C1.63609 7.08115 1.45662 7.1923 1.26985 7.28683C1.27715 7.3263 1.28341 7.36474 1.29072 7.40421C3.29197 8.36507 5.4633 8.38481 7.64193 8.5292H7.64297ZM32.3665 6.12549V8.52816C34.5514 8.38169 36.73 8.37338 38.7271 7.31799C36.7206 6.3135 34.5566 6.25429 32.3665 6.12549Z" fill="white"/>
</g>
<defs>
<clipPath id="clip0_1079_4182">
<rect width="40" height="31" fill="white"/>
</clipPath>
</defs>
</svg>
