<svg width="35" height="35" viewBox="0 0 35 35" fill="none" xmlns="http://www.w3.org/2000/svg">
<g clip-path="url(#clip0_1079_4222)">
<path d="M12.9046 23.0337C13.1894 23.031 13.4085 22.7964 13.4012 22.5015C13.3939 22.2175 13.1894 22.0166 12.9037 22.013C12.6144 22.0093 12.3789 22.2376 12.3789 22.5206C12.3789 22.7964 12.6244 23.0365 12.9056 23.0337H12.9046ZM14.9127 22.9488C14.9127 22.6631 14.6754 22.4275 14.3952 22.4339C14.1213 22.4403 13.8776 22.6968 13.8877 22.9698C13.8977 23.2383 14.1222 23.4519 14.3988 23.4565C14.6991 23.461 14.9136 23.2492 14.9127 22.9497V22.9488ZM16.426 23.1908C16.4233 22.8977 16.1987 22.685 15.8994 22.6923C15.6255 22.6987 15.4037 22.9178 15.3983 23.189C15.3919 23.462 15.6374 23.7121 15.9149 23.7149C16.1933 23.7176 16.4297 23.4757 16.4269 23.1908H16.426Z" fill="white"/>
<path d="M32.804 35C32.312 34.8256 31.8785 34.5754 31.6037 34.1079C31.0798 33.2186 31.4002 32.071 32.3138 31.5798C32.4234 31.5213 32.5375 31.472 32.6634 31.4127C32.6634 30.6275 32.6753 29.8423 32.6525 29.0589C32.6479 28.9146 32.5274 28.7494 32.4161 28.6371C30.45 26.6595 28.4767 24.6891 26.5052 22.717C26.4248 22.6367 26.3345 22.5627 26.2697 22.4714C26.1063 22.2395 26.099 21.9975 26.3034 21.7894C26.5061 21.5821 26.7443 21.5684 26.9798 21.7428C27.0701 21.8104 27.1486 21.8953 27.229 21.9756C29.2096 23.9551 31.1848 25.94 33.1727 27.9112C33.5369 28.2719 33.7195 28.6654 33.6985 29.184C33.672 29.8541 33.6839 30.527 33.7003 31.1981C33.703 31.3013 33.7888 31.451 33.8783 31.4976C34.6696 31.9084 35.0703 32.5266 34.9818 33.3602C34.896 34.1755 34.4287 34.706 33.6382 34.9434C33.6081 34.9525 33.5844 34.9817 33.5579 35.0018H32.8058L32.804 35ZM32.3905 33.1785C32.3887 33.5994 32.741 33.9628 33.16 33.9719C33.5816 33.9819 33.9705 33.5939 33.9632 33.1712C33.9559 32.7566 33.5853 32.3969 33.17 32.3997C32.7456 32.4015 32.3923 32.7548 32.3914 33.1785H32.3905Z" fill="white"/>
<path d="M0 1.44276C0.225447 0.82008 0.581417 0.315176 1.24133 0.094223C2.14221 -0.208902 3.12797 0.24396 3.4958 1.12594C3.86364 2.00884 3.50037 3.02595 2.63143 3.44047C2.38134 3.56008 2.31471 3.69247 2.32293 3.94903C2.34118 4.5288 2.34483 5.1104 2.32293 5.69017C2.31106 5.99969 2.40508 6.21881 2.62596 6.43794C4.58927 8.38543 6.54162 10.3439 8.49671 12.2996C8.58525 12.3881 8.682 12.4721 8.74863 12.5762C8.88554 12.7899 8.8828 13.0163 8.70573 13.2035C8.52318 13.3979 8.29591 13.4473 8.06042 13.293C7.95728 13.2254 7.86784 13.1341 7.7793 13.0464C5.76762 11.035 3.75776 9.0209 1.74334 7.01223C1.44396 6.71367 1.29153 6.37768 1.29883 5.94856C1.31344 5.16427 1.30248 4.37906 1.30248 3.58016C0.608799 3.35464 0.221796 2.85065 0 2.19419V1.44276ZM1.81727 2.60779C2.24352 2.60779 2.59584 2.25901 2.59949 1.83263C2.60405 1.39803 2.228 1.02277 1.79993 1.03464C1.38554 1.0456 1.02136 1.42268 1.02775 1.83263C1.03414 2.25171 1.3965 2.60687 1.81727 2.60687V2.60779Z" fill="white"/>
<path d="M0 32.8125C0.220884 32.1551 0.609712 31.6511 1.30157 31.4265C1.30157 30.6258 1.3107 29.8406 1.29792 29.0554C1.29062 28.6408 1.42935 28.3076 1.72052 28.0172C3.7678 25.9748 5.81143 23.9278 7.85688 21.8835C8.17087 21.5694 8.44378 21.5393 8.68748 21.7794C8.9184 22.0068 8.88554 22.3181 8.58981 22.6149C6.59456 24.6126 4.59931 26.6112 2.59675 28.6016C2.40416 28.7933 2.31745 28.9841 2.32384 29.2581C2.34118 29.9748 2.32932 30.6915 2.32932 31.411C2.40142 31.4457 2.46258 31.4749 2.52282 31.5041C3.2877 31.862 3.67196 32.4993 3.62541 33.3329C3.58525 34.0615 3.08872 34.675 2.33753 34.9289C2.28551 34.9462 2.23804 34.9763 2.18784 35.0001H1.43574C0.712851 34.7654 0.234575 34.287 0 33.5648V32.8134V32.8125ZM1.8264 32.3989C1.40471 32.3943 1.04053 32.744 1.02866 33.164C1.01679 33.5867 1.40288 33.9775 1.8264 33.9711C2.24535 33.9647 2.6004 33.6022 2.60131 33.1813C2.60131 32.754 2.25447 32.4034 1.82731 32.3989H1.8264Z" fill="white"/>
<path d="M0 17.3668C0.0392479 17.2755 0.081234 17.1841 0.117744 17.0919C0.407996 16.3515 0.952903 15.9233 1.74242 15.8959C2.49361 15.8703 3.08872 16.2118 3.43282 16.8938C3.54874 17.1239 3.67287 17.1924 3.92114 17.1896C5.30851 17.1768 6.69587 17.1814 8.08324 17.1869C8.23841 17.1869 8.43465 17.1869 8.53779 17.2745C8.66831 17.385 8.79883 17.5914 8.78697 17.7457C8.7751 17.899 8.61172 18.0734 8.46933 18.1739C8.36437 18.2487 8.18638 18.2341 8.04034 18.235C6.64202 18.2387 5.24279 18.2387 3.84447 18.235C3.6747 18.235 3.56243 18.2542 3.47572 18.4432C3.14531 19.1645 2.56024 19.5525 1.77163 19.5169C0.949252 19.4795 0.368748 19.0458 0.0784958 18.256C0.060241 18.2067 0.0273823 18.1638 0.000912742 18.1182C0.000912742 17.868 0.000912742 17.6169 0.000912742 17.3668H0ZM1.79993 18.4834C2.23257 18.4907 2.59036 18.151 2.6004 17.7265C2.60953 17.2965 2.26999 16.9468 1.83461 16.9376C1.39923 16.9294 1.04874 17.259 1.0314 17.6936C1.01406 18.1127 1.3682 18.4761 1.79993 18.4834Z" fill="white"/>
<path d="M17.0844 35C16.9959 34.9571 16.9091 34.9105 16.8188 34.8712C16.1023 34.5608 15.7016 34.0048 15.6751 33.236C15.6496 32.48 16.0055 31.8948 16.6901 31.5569C16.9119 31.4474 16.9749 31.3278 16.9712 31.0959C16.9593 30.1627 16.9639 29.2296 16.9685 28.2965C16.9685 28.1623 16.9539 27.9888 17.0269 27.9021C17.1474 27.7597 17.3336 27.5862 17.4924 27.5862C17.6512 27.5862 17.8383 27.7587 17.9588 27.9012C18.0318 27.9879 18.0181 28.1614 18.0181 28.2956C18.0227 29.2515 18.0236 30.2075 18.0181 31.1634C18.0172 31.3406 18.0546 31.4419 18.2363 31.5259C18.9564 31.8601 19.3233 32.4499 19.316 33.236C19.3087 34.013 18.8095 34.6384 18.0428 34.9224C17.9935 34.9406 17.9506 34.9735 17.904 35H17.0844ZM18.2682 33.1894C18.2719 32.7521 17.9323 32.4033 17.5006 32.3997C17.0689 32.396 16.7229 32.7393 16.7202 33.1757C16.7175 33.6094 17.0616 33.9664 17.4869 33.9719C17.9122 33.9765 18.2646 33.624 18.2682 33.1894Z" fill="white"/>
<path d="M12.0058 20.9083C12.0058 21.5784 11.9784 22.2623 12.0241 22.9416C12.0359 23.1242 12.2331 23.3397 12.4029 23.4593C13.0555 23.9204 13.8185 24.1167 14.5898 24.2728C16.0967 24.5777 17.6164 24.6042 19.1435 24.4718C19.5861 24.4335 19.8125 24.5978 19.8289 24.9375C19.8454 25.2735 19.6272 25.4615 19.2037 25.4981C17.2979 25.6606 15.4085 25.6003 13.552 25.0881C12.8583 24.8964 12.192 24.6416 11.6206 24.1851C11.1652 23.8208 10.9443 23.3579 10.9461 22.7645C10.9543 19.2803 10.958 15.7953 10.9434 12.3112C10.9406 11.6182 11.1989 11.0914 11.7603 10.7216C12.0898 10.5043 12.4512 10.3281 12.8136 10.1692C13.1321 10.0286 13.4123 10.1492 13.5274 10.4249C13.6442 10.7043 13.5255 10.9627 13.2143 11.1197C12.9313 11.2621 12.6347 11.3863 12.3727 11.5625C11.8853 11.8903 11.8643 12.2199 12.3727 12.4929C12.9468 12.8015 13.5584 13.0891 14.1891 13.2343C16.5312 13.7748 18.8842 13.7702 21.209 13.1238C21.7256 12.9805 22.2221 12.7239 22.6858 12.4472C23.102 12.1989 23.0865 11.9067 22.6931 11.6137C22.0204 11.1124 21.2263 10.8997 20.4231 10.739C18.688 10.3911 16.9428 10.3802 15.1931 10.6258C14.8225 10.6778 14.5469 10.508 14.5012 10.1939C14.4611 9.91634 14.6592 9.65064 14.995 9.60864C17.4576 9.2973 19.8965 9.32287 22.2623 10.2021C22.527 10.3007 22.7807 10.4358 23.0244 10.5801C23.7145 10.9873 24.0586 11.5607 24.0522 12.4016C24.0266 15.8291 24.0321 19.2566 24.0485 22.6841C24.0522 23.3926 23.7948 23.9477 23.2079 24.292C22.6739 24.6051 22.0907 24.8398 21.512 25.0671C21.2072 25.1876 20.9187 25.0096 20.8293 24.7284C20.7398 24.449 20.895 24.2098 21.2199 24.0737C21.6891 23.8784 22.1592 23.6793 22.6146 23.4538C22.8884 23.3178 23.0053 23.0767 22.9943 22.7508C22.9733 22.1281 22.9879 21.5045 22.9879 20.9101C19.3187 22.3061 15.6842 22.3079 12.0086 20.9101L12.0058 20.9083ZM12.0031 17.2616C12.0031 17.8752 12.0159 18.5006 11.9976 19.1251C11.9894 19.4237 12.0962 19.6492 12.3435 19.777C12.7643 19.9962 13.1851 20.239 13.636 20.3723C15.8959 21.0416 18.1915 21.0626 20.4852 20.5933C21.1761 20.4518 21.8379 20.1495 22.4932 19.8729C22.6885 19.7907 22.9386 19.5543 22.9523 19.3726C23.0053 18.665 22.9742 17.9519 22.9742 17.2726C19.3114 18.6467 15.6869 18.6531 12.0031 17.2616ZM12.0031 13.6141C12.0031 14.1957 12.0222 14.8092 11.9958 15.421C11.9803 15.7771 12.1144 16.0345 12.4083 16.177C12.8966 16.4134 13.3886 16.6709 13.908 16.8097C16.0201 17.3758 18.1604 17.373 20.3026 17.0014C21.0766 16.8672 21.8388 16.6609 22.506 16.2235C22.694 16.1003 22.9423 15.8958 22.956 15.7131C23.0089 15.0056 22.977 14.2916 22.977 13.6214C19.3059 15.0092 15.6705 15.0092 12.0031 13.615V13.6141Z" fill="white"/>
<path d="M32.6616 3.63493C32.406 3.46784 32.1586 3.34367 31.956 3.16746C31.3563 2.64521 31.1866 1.80248 31.5088 1.08119C31.8383 0.344377 32.6187 -0.0874854 33.4301 0.0165997C34.184 0.113381 34.8284 0.736978 34.9708 1.50666C35.1104 2.26447 34.7353 3.08437 34.0225 3.4158C33.7203 3.55641 33.6774 3.72988 33.6838 4.01018C33.6975 4.6703 33.6811 5.33042 33.6911 5.99054C33.6966 6.37949 33.5597 6.69814 33.2886 6.96931C31.2276 9.0291 29.1685 11.0916 27.1057 13.1505C26.8145 13.4418 26.5343 13.4591 26.2988 13.2226C26.0743 12.998 26.1008 12.6949 26.381 12.4137C28.3835 10.4078 30.3861 8.40093 32.396 6.40323C32.5895 6.21058 32.6734 6.01793 32.667 5.74585C32.6506 5.02912 32.6616 4.3124 32.6616 3.63493ZM32.3896 1.81709C32.385 2.24347 32.73 2.59864 33.1563 2.60686C33.5898 2.61508 33.9686 2.24256 33.9622 1.81435C33.9558 1.40258 33.5816 1.0328 33.1709 1.03371C32.7547 1.03463 32.3941 1.39618 32.3896 1.81618V1.81709Z" fill="white"/>
<path d="M29.0021 17.184C29.7076 17.184 30.4141 17.1776 31.1196 17.1885C31.325 17.1913 31.4345 17.1402 31.5304 16.9375C31.9265 16.0984 32.8319 15.7021 33.6954 15.9605C34.5397 16.2134 35.0773 17.0379 34.9833 17.9354C34.8938 18.7882 34.1481 19.5003 33.25 19.5295C32.4778 19.5542 31.8854 19.199 31.5431 18.5006C31.4391 18.2887 31.3268 18.2321 31.1078 18.2331C29.7414 18.2422 28.3759 18.2376 27.0095 18.2376C26.9183 18.2376 26.827 18.2422 26.7366 18.234C26.3944 18.2029 26.178 17.9929 26.1817 17.7017C26.1853 17.4086 26.4035 17.1931 26.7485 17.1876C27.4997 17.1767 28.2509 17.184 29.0021 17.184ZM33.2016 16.9356C32.7607 16.9229 32.4057 17.2488 32.3902 17.6798C32.3746 18.1134 32.7087 18.4686 33.1441 18.4814C33.5813 18.4951 33.9409 18.1673 33.961 17.7373C33.9811 17.3155 33.6324 16.9484 33.2016 16.9356Z" fill="white"/>
<path d="M16.9678 5.29746C16.9678 4.84277 16.9523 4.38717 16.9742 3.93248C16.9861 3.68414 16.9149 3.55449 16.6812 3.4431C16.0204 3.12902 15.6142 2.40682 15.669 1.72478C15.732 0.950537 16.2385 0.304113 16.956 0.0831604C17.8523 -0.192574 18.8134 0.258462 19.1785 1.12584C19.5427 1.99139 19.1922 2.99389 18.3406 3.4221C18.0868 3.54993 18.0111 3.69236 18.0166 3.96261C18.033 4.88386 18.0303 5.8051 18.0166 6.72635C18.0138 6.90804 17.9737 7.13721 17.8596 7.25682C17.7519 7.37003 17.5136 7.42938 17.3503 7.40382C17.0828 7.36273 16.976 7.12717 16.9724 6.86604C16.966 6.34288 16.9706 5.81971 16.9706 5.29655H16.9696L16.9678 5.29746ZM18.2685 1.83526C18.273 1.39975 17.9326 1.04275 17.5063 1.03545C17.0837 1.02814 16.7259 1.3824 16.7214 1.81335C16.7168 2.25069 17.0536 2.6022 17.4844 2.60768C17.9152 2.61407 18.2648 2.26986 18.2694 1.83526H18.2685Z" fill="white"/>
<path d="M12.9056 23.034C12.6244 23.0367 12.3789 22.7975 12.3789 22.5209C12.3789 22.2378 12.6153 22.0105 12.9037 22.0132C13.1894 22.0169 13.3948 22.2177 13.4012 22.5017C13.4085 22.7957 13.1894 23.0303 12.9046 23.034H12.9056Z" fill="white"/>
<path d="M14.914 22.9481C14.914 23.2485 14.7004 23.4603 14.4001 23.4548C14.1226 23.4503 13.899 23.2366 13.889 22.9682C13.8789 22.6952 14.1217 22.4386 14.3965 22.4323C14.6767 22.4259 14.9131 22.6614 14.914 22.9472V22.9481Z" fill="white"/>
<path d="M16.4272 23.1899C16.43 23.4747 16.1945 23.7158 15.9152 23.7139C15.6377 23.7112 15.3922 23.4619 15.3986 23.188C15.4049 22.9169 15.6258 22.6986 15.8997 22.6913C16.199 22.684 16.4236 22.8968 16.4263 23.1899H16.4272Z" fill="white"/>
<path d="M16.4298 19.5032C16.4371 19.7945 16.2126 20.0273 15.9251 20.0291C15.6394 20.0309 15.3966 19.7954 15.3984 19.5178C15.4003 19.2503 15.623 19.0211 15.8932 19.0092C16.1843 18.9974 16.4225 19.2165 16.4298 19.5032Z" fill="white"/>
<path d="M13.406 18.8439C13.4033 19.1389 13.1788 19.3552 12.8858 19.347C12.6119 19.3397 12.3874 19.1197 12.381 18.8522C12.3737 18.5755 12.6138 18.3299 12.894 18.3272C13.1824 18.3244 13.4097 18.5536 13.406 18.843V18.8439Z" fill="white"/>
<path d="M14.4116 19.7827C14.1314 19.7827 13.8831 19.5407 13.8868 19.2695C13.8913 18.9993 14.1505 18.7464 14.418 18.7546C14.6836 18.7619 14.9081 18.9911 14.9145 19.2595C14.9209 19.5562 14.7037 19.7827 14.4116 19.7836V19.7827Z" fill="white"/>
<path d="M13.403 15.2659C13.4085 15.5572 13.1858 15.7881 12.8983 15.7891C12.6181 15.79 12.3762 15.5489 12.3789 15.2695C12.3817 15.002 12.6044 14.7793 12.8773 14.7701C13.1748 14.7601 13.3966 14.9692 13.403 15.2659Z" fill="white"/>
<path d="M14.4143 16.2135C14.1259 16.2154 13.884 15.9825 13.8867 15.7068C13.8895 15.4356 14.1469 15.1846 14.4161 15.19C14.6799 15.1955 14.909 15.4256 14.9154 15.6913C14.9227 15.9898 14.71 16.2117 14.4143 16.2135Z" fill="white"/>
<path d="M15.9124 16.471C15.6395 16.4692 15.3922 16.2144 15.3986 15.9414C15.4049 15.6593 15.6459 15.4411 15.9398 15.4502C16.2219 15.4594 16.4272 15.6694 16.43 15.9515C16.4327 16.2318 16.1926 16.4728 15.9124 16.471Z" fill="white"/>
</g>
<defs>
<clipPath id="clip0_1079_4222">
<rect width="35" height="35" fill="white"/>
</clipPath>
</defs>
</svg>
