<svg width="35" height="35" viewBox="0 0 35 35" fill="none" xmlns="http://www.w3.org/2000/svg">
<g clip-path="url(#clip0_1079_4242)">
<path d="M21.2248 0C22.2232 0.332983 22.612 1.03832 22.5513 2.03042C22.5328 2.33602 22.4475 2.71437 22.5935 2.93179C22.7351 3.14236 23.1336 3.19201 23.4204 3.30843C24.965 3.93331 26.3874 4.75421 27.6558 5.81821C27.8247 5.96031 27.9549 5.98513 28.1458 5.86529C28.4396 5.67954 28.7466 5.51348 29.0545 5.34912C29.9623 4.86292 30.8947 5.08548 31.4163 5.95003C32.5396 7.8144 33.6515 9.68561 34.7484 11.5645C35.2498 12.4231 34.9841 13.3065 34.1106 13.8278C33.7913 14.0178 33.4535 14.1787 33.1457 14.3833C33.0498 14.4475 32.9592 14.6247 32.9794 14.73C33.3295 16.5755 33.3322 18.4185 32.9636 20.2606C32.9258 20.4481 32.99 20.5533 33.1606 20.6415C33.4905 20.8119 33.8151 20.995 34.1326 21.1868C34.9841 21.7021 35.2454 22.5829 34.7528 23.4286C33.6515 25.3187 32.5352 27.2002 31.404 29.0731C30.9 29.9068 29.9746 30.1277 29.094 29.6697C28.7536 29.4925 28.4317 29.2828 28.0851 29.1202C27.9839 29.0722 27.7851 29.0885 27.7016 29.157C26.2255 30.3596 24.5947 31.2995 22.7765 31.921C22.5794 31.9886 22.5442 32.0939 22.5451 32.2736C22.5469 32.7171 22.5689 33.1656 22.5091 33.603C22.3929 34.4547 21.7262 34.9957 20.8395 34.9974C18.6263 35.0017 16.4132 35.0009 14.2009 34.9974C13.1814 34.9957 12.4908 34.3349 12.4583 33.3325C12.4469 32.9687 12.446 32.6032 12.4601 32.2394C12.4671 32.0597 12.3958 31.9809 12.2278 31.9227C10.4123 31.297 8.77084 30.3742 7.30976 29.1518C7.15758 29.0243 7.03795 29.026 6.8761 29.1244C6.5691 29.311 6.25507 29.4882 5.93664 29.6577C5.03413 30.1388 4.10171 29.9068 3.58009 29.0397C2.46382 27.1847 1.359 25.323 0.265604 23.4543C-0.246347 22.5786 0.0149063 21.6927 0.905102 21.1654C1.21474 20.9822 1.52789 20.8033 1.84808 20.6389C2.02225 20.5499 2.07063 20.4412 2.03368 20.2546C1.67039 18.4236 1.67215 16.5909 2.0372 14.76C2.07766 14.5588 2.01609 14.4467 1.83048 14.3525C1.49886 14.1847 1.17515 14.0007 0.858481 13.8072C0.0237028 13.2979 -0.240189 12.4205 0.241853 11.5902C1.34756 9.68988 2.46998 7.79813 3.60824 5.91579C4.10435 5.09575 5.02446 4.8749 5.89002 5.32088C6.241 5.50149 6.57438 5.71549 6.93064 5.88669C7.02476 5.93206 7.21124 5.92093 7.28777 5.85844C8.76996 4.64378 10.4105 3.70047 12.2401 3.07474C12.4161 3.01482 12.468 2.92066 12.4583 2.74861C12.4442 2.50978 12.468 2.26925 12.453 2.03128C12.3888 1.03918 12.7802 0.333839 13.7786 0.000855997H21.2265L21.2248 0ZM17.5189 1.02548C16.4413 1.02548 15.3646 1.02206 14.2871 1.0272C13.7558 1.02976 13.5438 1.23606 13.535 1.75223C13.5271 2.24186 13.5288 2.73234 13.5341 3.22197C13.5376 3.57379 13.3872 3.79121 13.0301 3.9042C11.0113 4.54363 9.2133 5.55713 7.64315 6.94898C7.36958 7.19123 7.10041 7.21092 6.7855 7.02345C6.34743 6.76152 5.89882 6.5167 5.44844 6.2736C5.0139 6.03906 4.72538 6.10839 4.4782 6.52184C3.38569 8.35111 2.29669 10.1829 1.21298 12.0173C0.971075 12.4265 1.05992 12.721 1.47863 12.9624C1.94132 13.2294 2.41017 13.4854 2.8755 13.7473C3.13763 13.8945 3.23615 14.1025 3.18337 14.4056C3.0699 15.0553 2.95554 15.7058 2.88781 16.3615C2.74531 17.7422 2.86406 19.111 3.15522 20.4686C3.25902 20.9522 3.18513 21.0781 2.74267 21.328C2.3178 21.5677 1.88854 21.8005 1.46719 22.0462C1.06168 22.2825 0.971075 22.5709 1.2033 22.9647C2.29141 24.8094 3.38569 26.6515 4.48436 28.4901C4.72274 28.889 5.0139 28.9609 5.42909 28.7392C5.86979 28.5038 6.30169 28.253 6.738 28.0099C7.17078 27.7694 7.30888 27.7737 7.67569 28.0947C9.22826 29.4531 10.999 30.4427 12.9773 31.0855C13.4435 31.237 13.5262 31.3543 13.5306 31.8311C13.535 32.3096 13.5244 32.7881 13.5341 33.2666C13.5438 33.7631 13.7575 33.9728 14.2686 33.9737C16.4228 33.9779 18.5779 33.9779 20.7322 33.9737C21.2424 33.9728 21.4561 33.7622 21.4658 33.2649C21.4755 32.7641 21.4711 32.2625 21.4684 31.7609C21.4667 31.4236 21.6145 31.2096 21.9558 31.1018C23.9869 30.4606 25.7936 29.4403 27.3726 28.0399C27.6347 27.8079 27.8986 27.7908 28.2012 27.9688C28.641 28.2282 29.0888 28.4756 29.5374 28.7196C29.9886 28.9652 30.2754 28.8959 30.5331 28.4645C31.6186 26.6446 32.7006 24.8222 33.779 22.9981C34.0323 22.5692 33.9461 22.2833 33.5063 22.0291C33.1043 21.7971 32.6962 21.5737 32.2915 21.346C31.791 21.0644 31.755 20.9608 31.8429 20.4087C31.9573 19.6905 32.0751 18.9706 32.1385 18.2473C32.2449 17.0369 32.1156 15.8377 31.8658 14.6504C31.7391 14.0469 31.7822 13.9408 32.3329 13.6309C32.7278 13.4092 33.1263 13.1926 33.5178 12.9658C33.9391 12.7218 34.0306 12.4282 33.7904 12.0216C32.7067 10.1872 31.6186 8.35538 30.5261 6.52612C30.2789 6.11182 29.9869 6.03991 29.5559 6.27274C29.116 6.50986 28.6841 6.75981 28.247 7.0012C27.8291 7.23232 27.6893 7.22804 27.3383 6.91988C25.769 5.54429 23.9781 4.54106 21.9716 3.90591C21.6145 3.79292 21.4632 3.57635 21.4676 3.22454C21.4728 2.75717 21.4711 2.29065 21.4676 1.82327C21.4632 1.22236 21.2626 1.02891 20.6442 1.02805C19.6019 1.02634 18.5604 1.02805 17.518 1.02805L17.5189 1.02548Z" fill="white"/>
<path d="M17.4938 27.8832C11.6257 27.8746 6.80883 23.1786 6.82818 17.4845C6.84754 11.7682 11.6776 7.08675 17.5255 7.11586C23.3936 7.14496 28.1709 11.8033 28.1735 17.4974C28.1762 23.2 23.3522 27.8918 17.4938 27.8832ZM27.0757 17.1088C26.9148 12.037 22.338 7.69194 16.5737 8.2064C11.675 8.64381 7.44217 12.8519 7.95236 18.4013C8.39042 23.1684 12.7244 27.29 18.428 26.7884C23.4763 26.3441 27.3203 22.0607 27.0757 17.1088Z" fill="white"/>
<path d="M24.8799 6.57403C24.9397 6.60143 25.0655 6.63909 25.1666 6.70928C27.8126 8.53084 29.5912 10.955 30.4928 13.9853C30.5993 14.3431 30.4612 14.6136 30.1551 14.7C29.8366 14.789 29.5763 14.635 29.4601 14.2446C28.9719 12.5925 28.2075 11.0706 27.0315 9.79087C26.311 9.00678 25.4499 8.3468 24.6538 7.62777C24.5359 7.52162 24.3961 7.4189 24.3257 7.28451C24.155 6.95752 24.4383 6.56119 24.879 6.57403H24.8799Z" fill="white"/>
<path d="M16.2323 30.5566C14.7034 30.4188 13.223 30.0284 11.8121 29.3907C10.497 28.7966 9.31476 28.0083 8.2548 27.047C8.20378 27.0008 8.14924 26.9563 8.10526 26.9032C7.90822 26.6669 7.90822 26.3862 8.11757 26.1953C8.33397 25.9984 8.58114 25.9761 8.81513 26.1593C9.15203 26.4238 9.46606 26.7149 9.80648 26.9751C11.7215 28.4388 13.8994 29.2674 16.3132 29.5405C16.5032 29.5619 16.7451 29.7023 16.8383 29.8581C17.0512 30.2159 16.7319 30.5728 16.2314 30.5557L16.2323 30.5566Z" fill="white"/>
<path d="M7.3429 24.7357C7.27693 24.8144 7.1916 25.0036 7.04822 25.0644C6.90484 25.1252 6.61104 25.1226 6.5433 25.0336C6.20288 24.5816 5.89061 24.1048 5.62936 23.6058C5.57306 23.4979 5.7226 23.1906 5.86158 23.1101C6.00233 23.028 6.34978 23.0357 6.42543 23.135C6.76146 23.5767 7.03238 24.0646 7.32443 24.5371C7.34026 24.5628 7.33146 24.6039 7.3429 24.7348V24.7357Z" fill="white"/>
<path d="M21.4711 4.93579C21.9514 5.12753 22.4458 5.29274 22.9058 5.52215C23.1275 5.63257 23.16 5.89536 23.0386 6.12563C22.9199 6.3499 22.7158 6.47402 22.4625 6.39612C22.0429 6.26687 21.6286 6.11535 21.2231 5.94844C20.9671 5.84315 20.8703 5.62401 20.9398 5.35951C21.0058 5.10956 21.1835 4.98544 21.472 4.93579H21.4711Z" fill="white"/>
<path d="M18.0434 18.5313C18.0434 18.9371 18.0495 19.2435 18.0416 19.5491C18.0311 19.9651 17.8191 20.2134 17.4919 20.2065C17.1752 20.2005 16.9641 19.9634 16.9623 19.5654C16.9553 18.1898 16.9553 16.8134 16.9623 15.4378C16.9641 15.0235 17.1435 14.7966 17.5226 14.7915C18.2809 14.7812 19.0444 14.7667 19.7965 14.8394C20.7193 14.9285 21.4335 15.7947 21.4168 16.6952C21.3992 17.618 20.6937 18.4303 19.7613 18.5219C19.2098 18.5759 18.6477 18.5322 18.0425 18.5322L18.0434 18.5313ZM18.0663 15.8546V17.5059C18.5993 17.5059 19.1121 17.5281 19.6223 17.499C20.0164 17.4768 20.3278 17.0916 20.334 16.6944C20.3401 16.2929 20.049 15.8915 19.6566 15.8632C19.1368 15.8264 18.6116 15.8538 18.0671 15.8538L18.0663 15.8546Z" fill="white"/>
<path d="M16.3391 19.6682C16.3162 19.9412 16.1957 20.1159 15.9354 20.1843C15.6679 20.2554 15.47 20.145 15.3495 19.9275C15.2457 19.7392 15.2035 19.5184 15.0962 19.3326C15.0416 19.2393 14.9044 19.1357 14.8015 19.1323C14.1594 19.1143 13.5155 19.1143 12.8733 19.1323C12.7722 19.1349 12.6429 19.247 12.5839 19.3412C12.4889 19.4944 12.4502 19.6793 12.3728 19.8436C12.2286 20.1518 11.9814 20.2665 11.6981 20.1689C11.4061 20.0679 11.2689 19.7983 11.3894 19.4764C11.7923 18.4004 12.2092 17.3287 12.6218 16.2562C12.7519 15.9163 12.8892 15.5782 13.0106 15.2358C13.139 14.8746 13.4108 14.7727 13.7758 14.7744C14.155 14.7761 14.4989 14.7907 14.6599 15.2153C15.1894 16.6088 15.7304 17.9981 16.2643 19.39C16.3004 19.485 16.3171 19.5868 16.3382 19.6665L16.3391 19.6682ZM14.6089 18.0538C14.3503 17.3861 14.1119 16.7681 13.8392 16.0636C13.5621 16.7843 13.3228 17.4058 13.0739 18.0538H14.6089Z" fill="white"/>
<path d="M23.1108 17.507C23.1108 18.1669 23.1143 18.8269 23.1081 19.4869C23.1072 19.6213 23.1169 19.795 23.0404 19.8798C22.9137 20.0193 22.7105 20.1957 22.5566 20.1811C22.3842 20.1648 22.2065 19.9731 22.0781 19.8207C22.0103 19.7403 22.0332 19.5802 22.0323 19.4561C22.0297 18.1473 22.0306 16.8384 22.0306 15.5305C22.0306 15.474 22.0297 15.4166 22.035 15.3601C22.0693 15.0083 22.2707 14.7943 22.5671 14.7935C22.875 14.7926 23.1011 15.0246 23.1064 15.3909C23.1169 16.0963 23.1099 16.8016 23.1099 17.5078L23.1108 17.507Z" fill="white"/>
</g>
<defs>
<clipPath id="clip0_1079_4242">
<rect width="35" height="35" fill="white"/>
</clipPath>
</defs>
</svg>
