<svg width="39" height="38" viewBox="0 0 39 38" fill="none" xmlns="http://www.w3.org/2000/svg">
<g clip-path="url(#clip0_1079_4204)">
<path d="M29.5757 26.4614V31.3137C29.7261 31.3137 29.8658 31.3137 30.0056 31.3137C31.6699 31.3137 33.3353 31.3137 34.9997 31.3137C35.5704 31.3137 35.6688 31.408 35.6614 31.9696C35.6477 33.0151 35.7207 34.073 35.5831 35.1029C35.348 36.8592 33.9039 37.9969 32.085 37.9969C24.7394 37.999 17.3938 38 10.0482 37.9928C9.58977 37.9928 9.11757 37.9814 8.67502 37.8777C7.11866 37.514 6.10226 36.1909 6.1012 34.5765C6.09909 25.993 6.1012 17.4095 6.1012 8.82598C6.1012 8.66124 6.1012 8.49545 6.1012 8.28615C5.92651 8.28615 5.7857 8.28615 5.64488 8.28615C3.98053 8.28615 2.31512 8.28615 0.650774 8.28615C0.1214 8.28615 0.00282073 8.16906 0.00282073 7.64787C0.00176198 6.26461 -0.00353175 4.88134 0.00387947 3.49807C0.0144669 1.42679 1.53059 -0.00310341 3.65232 5.05817e-06C11.0773 0.00933047 18.5012 0.00311353 25.9262 0.00518584C27.7981 0.00518584 29.1988 1.13874 29.5249 2.91368C29.5662 3.1406 29.562 3.37684 29.562 3.60894C29.5641 6.72466 29.563 9.83935 29.563 12.9551V13.439C29.6986 13.382 29.8108 13.3571 29.8965 13.296C30.4047 12.9281 30.9203 12.5696 31.4053 12.1738C31.7832 11.865 31.9082 11.8391 32.2745 12.178C33.4296 13.2452 34.7763 13.9477 36.3602 14.1342C37.0367 14.214 37.7291 14.1871 38.4131 14.1726C38.8175 14.1643 38.988 14.2627 38.988 14.6575C38.9922 16.4676 39.0134 18.2778 38.9764 20.0869C38.9541 21.1987 38.4216 22.1468 37.7662 23.0224C36.4534 24.7766 34.7678 26.1443 32.9595 27.3722C31.7303 28.2063 32.1125 28.1897 30.8727 27.3753C30.4481 27.0965 30.0416 26.7919 29.5726 26.4614H29.5757ZM5.73911 0.831003C5.83016 0.936691 5.85875 0.975028 5.89263 1.00922C6.6147 1.73142 6.92808 2.60283 6.92067 3.60687C6.90797 5.20876 6.9175 6.81066 6.9175 8.41256C6.9175 17.0469 6.9175 25.6801 6.91856 34.3144C6.91856 34.5206 6.92703 34.7278 6.95032 34.933C7.0869 36.1629 8.14458 37.1504 9.33567 37.1649C10.7967 37.1835 11.9158 36.3308 12.0439 34.9952C12.1371 34.0212 12.0979 33.0337 12.1096 32.0525C12.1181 31.3458 12.1445 31.3127 12.8793 31.3127C18.0174 31.3127 23.1566 31.3085 28.2947 31.3199C28.6557 31.3199 28.7637 31.2308 28.7594 30.8702C28.7393 29.3067 28.7446 27.7421 28.7563 26.1785C28.7584 25.8946 28.6747 25.706 28.4524 25.5154C27.4477 24.6522 26.5085 23.7259 25.7833 22.6162C25.2804 21.8463 24.8749 21.0298 24.8622 20.0963C24.8389 18.2747 24.8421 16.4521 24.8463 14.6295C24.8474 14.2575 25.0305 14.1373 25.4127 14.1757C26.408 14.2731 27.3862 14.1974 28.3539 13.9384C28.662 13.8555 28.7594 13.7198 28.7573 13.4017C28.7436 10.1574 28.751 6.91324 28.7446 3.66903C28.7446 3.37373 28.7245 3.07014 28.6515 2.78623C28.3434 1.58429 27.3185 0.831003 25.9972 0.829966C19.3662 0.826858 12.7353 0.82893 6.10438 0.82893C6.01227 0.82893 5.92122 0.82893 5.73699 0.82893L5.73911 0.831003ZM25.6764 15.0336V15.4957C25.6764 16.7754 25.7219 18.0561 25.6637 19.3326C25.6076 20.5646 26.0183 21.6111 26.7489 22.5696C28.1178 24.3652 29.8828 25.734 31.7557 26.9815C31.8383 27.0364 32.0373 27.0147 32.1263 26.9535C32.7827 26.4987 33.4444 26.0469 34.0691 25.5516C35.3967 24.4989 36.6704 23.3819 37.5121 21.9002C37.8117 21.3728 38.0838 20.7563 38.1135 20.1688C38.1961 18.5058 38.1463 16.8365 38.1463 15.1704C38.1463 15.1362 38.1219 15.1009 38.0965 15.0336C35.7302 15.1538 33.636 14.4596 31.8425 12.8991C30.1009 14.4616 28.0511 15.1155 25.6774 15.0336H25.6764ZM11.7867 37.1493C11.9497 37.1607 12.0376 37.1732 12.1255 37.1732C18.822 37.1732 25.5197 37.1763 32.2163 37.1711C33.4349 37.1711 34.5042 36.425 34.7064 35.25C34.8811 34.2346 34.8208 33.1808 34.8652 32.1323H12.9195C12.9195 32.8752 12.8994 33.5963 12.9238 34.3165C12.9598 35.3941 12.6294 36.3235 11.7856 37.1493H11.7867ZM6.09273 7.45411C6.09273 6.01697 6.15732 4.62023 6.07579 3.23281C5.97733 1.55424 4.29286 0.454878 2.68039 0.924257C1.58141 1.24443 0.864641 2.19355 0.84876 3.40378C0.83182 4.65546 0.842407 5.90817 0.844525 7.15985C0.844525 7.25724 0.867817 7.35464 0.879463 7.45308H6.09273V7.45411Z" fill="white"/>
<path d="M17.8334 4.55914C15.4428 4.55914 13.0521 4.55914 10.6625 4.55914C10.5567 4.55914 10.4508 4.56536 10.346 4.55499C10.0908 4.53013 9.87907 4.39128 9.93201 4.1426C9.96483 3.98822 10.1734 3.85352 10.329 3.74576C10.4 3.69706 10.5344 3.73436 10.6403 3.73436C15.4343 3.73436 20.2283 3.73436 25.0223 3.73436C25.1017 3.73436 25.1811 3.73229 25.2605 3.73436C25.5295 3.74368 25.7412 3.85144 25.7454 4.13535C25.7497 4.44205 25.5305 4.55603 25.2436 4.55707C23.9752 4.55914 22.7079 4.55707 21.4395 4.5581C20.2378 4.5581 19.0362 4.5581 17.8345 4.5581L17.8334 4.55914Z" fill="white"/>
<path d="M17.8513 6.44073C20.2547 6.44073 22.658 6.44073 25.0614 6.44073C25.1927 6.44073 25.3536 6.41069 25.4478 6.47182C25.576 6.55367 25.7379 6.71739 25.7295 6.83447C25.7189 6.97228 25.5632 7.12874 25.4298 7.21992C25.3367 7.28313 25.1757 7.2593 25.0445 7.2593C20.2378 7.26033 15.431 7.26033 10.6233 7.26033C10.5576 7.26033 10.4909 7.26241 10.4253 7.2593C10.1458 7.24583 9.90968 7.14946 9.92026 6.83862C9.92979 6.53606 10.1532 6.43763 10.4422 6.43763C11.5518 6.44073 12.6603 6.43866 13.7699 6.43866C15.1304 6.43866 16.4898 6.43866 17.8503 6.43866L17.8513 6.44073Z" fill="white"/>
<path d="M9.99219 12.3313C9.99113 11.062 11.0668 10.0103 12.3617 10.0134C13.6523 10.0176 14.7386 11.09 14.7227 12.3448C14.7078 13.5965 13.6396 14.6378 12.367 14.6451C11.0742 14.6513 9.99325 13.5985 9.99219 12.3303V12.3313ZM12.3617 10.8393C11.4935 10.8372 10.835 11.4765 10.8318 12.323C10.8286 13.1696 11.485 13.8172 12.349 13.8192C13.2129 13.8213 13.8778 13.1768 13.8799 12.3355C13.882 11.491 13.2224 10.8413 12.3617 10.8393Z" fill="white"/>
<path d="M12.3175 21.7104C11.0237 21.6938 9.97236 20.6276 9.99247 19.3532C10.0126 18.1077 11.101 17.0684 12.3715 17.0819C13.6642 17.0954 14.7462 18.174 14.723 19.4257C14.6986 20.6991 13.6155 21.728 12.3175 21.7104ZM13.8802 19.3905C13.8781 18.5522 13.2079 17.9036 12.3471 17.9057C11.4874 17.9088 10.8289 18.5595 10.8321 19.405C10.8352 20.2494 11.498 20.8919 12.363 20.8888C13.2248 20.8856 13.8823 20.237 13.8802 19.3915V19.3905Z" fill="white"/>
<path d="M12.3574 28.7731C11.0488 28.7731 9.99007 27.738 9.99219 26.4614C9.99537 25.1932 11.0827 24.1384 12.3712 24.156C13.6576 24.1726 14.7131 25.2056 14.7227 26.4562C14.7322 27.7235 13.6607 28.7731 12.3564 28.7731H12.3574ZM13.8799 26.4521C13.8757 25.6201 13.1928 24.9642 12.3384 24.9704C11.4871 24.9766 10.8244 25.6429 10.8307 26.4832C10.8371 27.3183 11.5231 27.9794 12.3712 27.967C13.2256 27.9545 13.8841 27.2935 13.8789 26.4511L13.8799 26.4521Z" fill="white"/>
<path d="M21.3051 11.6267C20.0124 11.6267 18.7186 11.6247 17.4259 11.6278C17.1379 11.6278 16.9124 11.5283 16.9007 11.2278C16.8902 10.9211 17.121 10.8154 17.4036 10.8061C17.5095 10.803 17.6143 10.8051 17.7202 10.8051C20.0156 10.8051 22.312 10.8051 24.6074 10.8051C24.818 10.8051 25.0298 10.8009 25.2405 10.8071C25.5211 10.8144 25.754 10.9159 25.7445 11.2268C25.7349 11.5304 25.5105 11.6288 25.2225 11.6278C23.916 11.6257 22.6095 11.6278 21.3041 11.6278L21.3051 11.6267Z" fill="white"/>
<path d="M20.8506 25.6717C19.7145 25.6717 18.5785 25.6675 17.4425 25.6748C17.1365 25.6769 16.8951 25.5909 16.9025 25.2614C16.9099 24.9516 17.1534 24.8811 17.4372 24.8811C19.7357 24.8842 22.0343 24.8852 24.3328 24.8811C24.624 24.8811 24.8548 24.9733 24.8537 25.2759C24.8537 25.5743 24.6345 25.6769 24.337 25.6748C23.1745 25.6665 22.012 25.6717 20.8495 25.6717H20.8506Z" fill="white"/>
<path d="M20.1726 13.9342C19.3288 13.9342 18.485 13.9342 17.6401 13.9342C17.5342 13.9342 17.4283 13.9404 17.3235 13.928C17.0726 13.8979 16.8873 13.7736 16.899 13.5094C16.9106 13.2534 17.0874 13.1156 17.3479 13.1156C19.207 13.1125 21.0672 13.1125 22.9264 13.1156C23.2017 13.1156 23.388 13.2441 23.3838 13.5332C23.3795 13.8316 23.1625 13.929 22.9021 13.9311C21.9926 13.9373 21.0821 13.9331 20.1726 13.9331V13.9342Z" fill="white"/>
<path d="M19.7201 28.0694C18.9684 28.0694 18.2157 28.0653 17.464 28.0715C17.1665 28.0736 16.9113 27.9959 16.9007 27.6716C16.8901 27.3421 17.1474 27.2457 17.4407 27.2457C18.9441 27.2436 20.4486 27.2436 21.952 27.2457C22.2431 27.2457 22.5025 27.3327 22.4941 27.6684C22.4856 27.999 22.2326 28.0736 21.9361 28.0725C21.1971 28.0674 20.4581 28.0715 19.7201 28.0715V28.0694Z" fill="white"/>
<path d="M19.6976 21.004C18.9586 21.004 18.2196 21.002 17.4806 21.004C17.1725 21.0051 16.8951 20.9305 16.9025 20.5771C16.9088 20.2528 17.1714 20.1741 17.4657 20.1741C18.9565 20.1761 20.4472 20.1761 21.9379 20.1741C22.2312 20.1741 22.4927 20.2507 22.4948 20.5813C22.4969 20.9398 22.2174 21.003 21.9125 21.003C21.1735 21.0009 20.4345 21.003 19.6955 21.003L19.6976 21.004Z" fill="white"/>
<path d="M19.6018 18.6891C18.8777 18.6891 18.1524 18.6839 17.4282 18.6912C17.1381 18.6943 16.9137 18.6 16.901 18.3006C16.8872 17.9918 17.117 17.8851 17.4018 17.8851C18.8777 17.884 20.3525 17.884 21.8284 17.8851C22.11 17.8851 22.344 17.9804 22.3355 18.2933C22.3271 18.5969 22.1058 18.6933 21.8157 18.6912C21.0777 18.686 20.3398 18.6891 19.6029 18.6891H19.6018Z" fill="white"/>
<path d="M30.6549 20.8598C31.7295 19.8071 32.7364 18.8207 33.7432 17.8353C34.135 17.4519 34.3711 17.3846 34.568 17.625C34.8571 17.9783 34.5542 18.1876 34.334 18.4031C33.2795 19.4372 32.2239 20.4702 31.1673 21.5023C30.7671 21.8929 30.6464 21.8939 30.2557 21.5147C29.9741 21.2411 29.6967 20.9655 29.4151 20.692C29.2182 20.5013 29.161 20.2868 29.3611 20.0786C29.5665 19.8641 29.7941 19.919 29.9826 20.1148C30.2081 20.349 30.4198 20.5967 30.6559 20.8598H30.6549Z" fill="white"/>
<path d="M27.343 17.1029C27.2043 16.9402 26.9862 16.7983 26.9883 16.6584C26.9904 16.5102 27.1768 16.2729 27.326 16.2346C28.047 16.046 28.7797 15.8927 29.5155 15.7735C29.669 15.7486 29.9316 15.8823 30.0089 16.017C30.1296 16.2284 30.0142 16.4563 29.7485 16.5227C28.9745 16.7175 28.1974 16.8967 27.343 17.1019V17.1029Z" fill="white"/>
<path d="M31.9146 14.4658C32.0766 14.6088 32.2492 14.6896 32.2788 14.8057C32.3117 14.9393 32.2672 15.1559 32.1687 15.2419C31.9771 15.4098 31.7378 15.5476 31.4932 15.6274C31.3673 15.6688 31.146 15.6014 31.0475 15.5051C30.9671 15.4253 30.9374 15.1559 31.002 15.101C31.2699 14.871 31.5822 14.6896 31.9146 14.4669V14.4658Z" fill="white"/>
<path d="M25.9873 34.3466C25.1573 34.3466 24.3272 34.3445 23.4972 34.3466C23.1933 34.3466 22.9127 34.2917 22.918 33.928C22.9233 33.5653 23.2103 33.5208 23.5099 33.5208C25.17 33.5228 26.8301 33.5228 28.4902 33.5208C28.7962 33.5208 29.0778 33.5871 29.0725 33.9404C29.0672 34.2948 28.7814 34.3486 28.4775 34.3466C27.6475 34.3424 26.8174 34.3455 25.9873 34.3455V34.3466Z" fill="white"/>
<path d="M31.412 34.3433C31.2543 34.3433 31.0711 34.3931 30.9462 34.3309C30.7831 34.249 30.5629 34.0812 30.5587 33.9444C30.5544 33.8097 30.7715 33.5766 30.9218 33.5476C31.2511 33.4864 31.6079 33.4864 31.9361 33.5476C32.0875 33.5755 32.3035 33.8076 32.3003 33.9434C32.2971 34.0801 32.079 34.2532 31.9149 34.3299C31.7762 34.3941 31.5803 34.3433 31.4099 34.3433H31.412Z" fill="white"/>
</g>
<defs>
<clipPath id="clip0_1079_4204">
<rect width="39" height="38" fill="white"/>
</clipPath>
</defs>
</svg>
