<svg width="30" height="30" viewBox="0 0 30 30" fill="none" xmlns="http://www.w3.org/2000/svg">
<circle cx="15" cy="15" r="15" fill="#AD191F"/>
<path d="M21 14.9959C20.9958 14.5572 20.8141 14.1377 20.4943 13.8284L16.8171 10.2425C16.6565 10.0872 16.4393 10 16.2129 10C15.9864 10 15.7692 10.0872 15.6086 10.2425C15.5282 10.32 15.4645 10.4123 15.421 10.5139C15.3774 10.6155 15.355 10.7245 15.355 10.8346C15.355 10.9447 15.3774 11.0537 15.421 11.1553C15.4645 11.2569 15.5282 11.3492 15.6086 11.4267L18.4286 14.162H9.85714C9.62981 14.162 9.4118 14.2499 9.25105 14.4062C9.09031 14.5626 9 14.7748 9 14.9959C9 15.2171 9.09031 15.4292 9.25105 15.5856C9.4118 15.742 9.62981 15.8299 9.85714 15.8299H18.4286L15.6086 18.5735C15.4472 18.7294 15.356 18.9414 15.3552 19.1626C15.3544 19.3839 15.444 19.5965 15.6043 19.7535C15.7646 19.9106 15.9824 19.9992 16.2098 20C16.4373 20.0008 16.6557 19.9136 16.8171 19.7577L20.4943 16.1718C20.8162 15.8604 20.9981 15.4376 21 14.9959Z" fill="white"/>
</svg>
