<svg width="15" height="15" viewBox="0 0 15 15" fill="none" xmlns="http://www.w3.org/2000/svg">
<path d="M4.93441 10.0657C4.56808 9.69998 4.56808 9.10546 4.93441 8.73975C5.30075 8.37341 5.89401 8.37341 6.26034 8.73975C7.08928 9.5687 8.53586 9.56932 9.3648 8.73975L12.4836 5.62088C13.3395 4.76505 13.3395 3.37221 12.4836 2.51638C11.6278 1.66055 10.235 1.66055 9.37918 2.51638C9.01285 2.88272 8.41959 2.88272 8.05325 2.51638C7.68692 2.15067 7.68692 1.55615 8.05325 1.19044C9.63986 -0.396814 12.223 -0.396814 13.8096 1.19044C15.3968 2.7777 15.3968 5.35956 13.8096 6.94682L10.6907 10.0657C9.8968 10.8596 8.85468 11.256 7.81257 11.256C6.77046 11.256 5.72772 10.859 4.93441 10.0657ZM4.06921 15C5.11133 15 6.15344 14.603 6.94737 13.8097C7.31371 13.444 7.31371 12.8495 6.94737 12.4838C6.58104 12.1174 5.98778 12.1174 5.62144 12.4838C4.765 13.3402 3.37218 13.3396 2.51698 12.4838C1.66116 11.6279 1.66116 10.2351 2.51698 9.37928L5.61832 6.27791C6.47476 5.42145 7.86758 5.42145 8.72278 6.27791C9.08911 6.64425 9.68237 6.64425 10.0487 6.27791C10.415 5.9122 10.415 5.31768 10.0487 4.95197C8.46147 3.36471 5.87963 3.36471 4.29239 4.95197L1.19043 8.05334C-0.39681 9.64059 -0.39681 12.2225 1.19043 13.8097C1.98436 14.6037 3.0271 15 4.06921 15Z" fill="#8D8D8D"/>
</svg>
