<svg width="9" height="15" viewBox="0 0 9 15" fill="none" xmlns="http://www.w3.org/2000/svg">
<g clip-path="url(#clip0_1587_240)">
<path d="M2.51435 8.47117C2.41832 8.47117 2.34547 8.47117 2.27263 8.47117C1.6755 8.47117 1.07726 8.47315 0.480132 8.47117C0.124724 8.46918 0.00551876 8.3699 0.00331126 8.05913C-0.00110375 7.30754 -0.00110375 6.55596 0.00331126 5.80536C0.00551876 5.50254 0.125828 5.40425 0.466887 5.40326C1.13907 5.40226 1.81015 5.40326 2.51435 5.40326C2.51435 5.32879 2.51435 5.26426 2.51435 5.19972C2.51656 4.60103 2.49007 4.00135 2.52759 3.40465C2.60596 2.15762 3.12804 1.1191 4.3819 0.471762C5.03201 0.135186 5.74503 0.00115059 6.49007 0.000157742C7.16887 0.000157742 7.84768 -0.00182796 8.52649 0.000157742C8.90176 0.00115059 8.99669 0.0875287 8.99779 0.42212C9 1.11215 9 1.80218 8.99779 2.49321C8.99669 2.78709 8.88631 2.89035 8.5585 2.89531C8.04967 2.90326 7.53973 2.90028 7.0309 2.90623C6.88962 2.90822 6.74503 2.91815 6.60596 2.94098C6.30684 2.99162 6.0883 3.16438 6.07616 3.42748C6.04746 4.06588 6.06622 4.70627 6.06622 5.36255C6.13797 5.36255 6.21082 5.36255 6.28366 5.36255C7.00331 5.36255 7.72296 5.36156 8.4426 5.36255C8.79249 5.36354 8.9128 5.46878 8.91391 5.77756C8.91611 6.53511 8.91611 7.29265 8.91391 8.0502C8.91391 8.34805 8.82229 8.43741 8.49448 8.43939C7.76159 8.44436 7.02759 8.44237 6.2947 8.44337C6.22185 8.44337 6.1479 8.44337 6.05519 8.44337C6.05077 8.53669 6.04305 8.61314 6.04305 8.69059C6.04305 10.5899 6.04305 12.4902 6.04305 14.3896C6.04305 14.9416 5.98013 14.9982 5.36976 14.9982C4.5894 14.9982 3.80795 14.9982 3.02759 14.9982C2.61479 14.9982 2.51324 14.9078 2.51324 14.5315C2.51324 12.5885 2.51324 10.6465 2.51324 8.70349C2.51324 8.63201 2.51324 8.56052 2.51324 8.46918L2.51435 8.47117Z" fill="#8D8D8D"/>
</g>
<defs>
<clipPath id="clip0_1587_240">
<rect width="9" height="15" fill="white"/>
</clipPath>
</defs>
</svg>
