<svg width="15" height="15" viewBox="0 0 15 15" fill="none" xmlns="http://www.w3.org/2000/svg">
<g clip-path="url(#clip0_1587_236)">
<path d="M5.33173 15C5.17087 14.9264 5.12038 14.8029 5.1211 14.6268C5.12543 11.4769 5.12399 8.32701 5.12399 5.17713C5.12399 4.88402 5.2055 4.80244 5.49619 4.80244C6.37982 4.80244 7.26272 4.80244 8.14635 4.80244C8.43704 4.80244 8.52216 4.88763 8.52288 5.17641C8.52288 5.29336 8.52288 5.41032 8.52288 5.53233C8.54236 5.53161 8.55967 5.53594 8.5676 5.52944C9.13962 5.04862 9.81406 4.82337 10.5448 4.73457C11.2805 4.64505 12.0047 4.68837 12.7123 4.91723C13.5981 5.20384 14.2012 5.79873 14.5618 6.64775C14.8879 7.41518 14.9874 8.2281 14.9932 9.05112C15.0054 10.9217 14.9961 12.7916 15.0011 14.6621C15.0011 14.8419 14.9275 14.9459 14.7645 15H11.6888C11.5287 14.9256 11.4796 14.8015 11.4803 14.6253C11.4861 13.1208 11.4897 11.6169 11.4803 10.1124C11.4774 9.66984 11.4507 9.22439 11.3938 8.78545C11.3151 8.17684 11.0064 7.80359 10.3789 7.74367C9.49307 7.6592 8.88427 7.96964 8.73062 8.90746C8.6722 9.26699 8.64767 9.63518 8.64551 9.99977C8.63613 11.5433 8.63974 13.0861 8.64406 14.6296C8.64406 14.8145 8.58852 14.9408 8.40819 15H5.33173Z" fill="#8D8D8D"/>
<path d="M0.468813 15C0.291367 14.9386 0.23366 14.8123 0.234382 14.6289C0.237988 11.4747 0.236546 8.3205 0.236546 5.16629C0.236546 4.89556 0.327433 4.80315 0.594324 4.80315C1.53133 4.80315 2.46833 4.80315 3.40534 4.80315C3.6679 4.80315 3.75879 4.89122 3.75879 5.15329C3.75879 8.31761 3.75879 11.4812 3.76167 14.6455C3.76167 14.8173 3.70036 14.9329 3.54527 15.0007H0.468813V15Z" fill="#8D8D8D"/>
<path d="M0 1.75181C0.105314 1.47675 0.174561 1.18075 0.322433 0.930953C0.751623 0.202503 1.65617 -0.147644 2.47704 0.0595564C3.31089 0.270366 3.9233 0.987987 3.9875 1.83195C4.08127 3.06288 3.10964 4.06278 1.87617 4.0043C0.981727 3.96171 0.17384 3.24264 0.0302957 2.36186C0.0238038 2.32432 0.0100986 2.2875 0 2.25068C0 2.08463 0 1.91858 0 1.75253L0 1.75181Z" fill="#8D8D8D"/>
</g>
<defs>
<clipPath id="clip0_1587_236">
<rect width="15" height="15" fill="white"/>
</clipPath>
</defs>
</svg>
