<svg width="15" height="15" viewBox="0 0 15 15" fill="none" xmlns="http://www.w3.org/2000/svg">
<path d="M12.781 12.7816H10.5583V9.3007C10.5583 8.47058 10.5435 7.40243 9.40226 7.40243C8.24471 7.40243 8.06731 8.30647 8.06731 9.24082V12.7816H5.84537V5.62318H7.97935V6.60114H8.00892C8.44429 5.85751 9.25294 5.41325 10.1141 5.44504C12.3671 5.44504 12.7817 6.92713 12.7817 8.85422L12.781 12.7816ZM3.33736 4.64448C2.6248 4.64448 2.0475 4.06717 2.0475 3.35458C2.0475 2.642 2.6248 2.06468 3.33736 2.06468C4.04992 2.06468 4.62721 2.642 4.62721 3.35458C4.62721 4.06717 4.04992 4.64448 3.33736 4.64448ZM4.44833 12.7816H2.22343V5.62318H4.44833V12.7816ZM13.889 0.000840167H1.10654C0.502636 -0.00581262 0.00739171 0.478362 0 1.08229V13.9177C0.00739171 14.5224 0.502636 15.0066 1.10654 14.9999H13.889C14.4944 15.0073 14.9919 14.5231 15 13.9177V1.08155C14.9911 0.476145 14.4937 -0.00803025 13.889 0.000100934" fill="#8D8D8D"/>
</svg>
