<svg width="16" height="16" viewBox="0 0 16 16" fill="none" xmlns="http://www.w3.org/2000/svg">
<g clip-path="url(#clip0_1587_242)">
<path d="M15.9693 3.69466L10.3573 9.30666C9.73158 9.93083 8.88383 10.2814 8 10.2814C7.11617 10.2814 6.26842 9.93083 5.64267 9.30666L0.0306667 3.69466C0.0213333 3.8 0 3.89533 0 4V12C0.00105857 12.8837 0.352588 13.731 0.97748 14.3559C1.60237 14.9807 2.4496 15.3323 3.33333 15.3333H12.6667C13.5504 15.3323 14.3976 14.9807 15.0225 14.3559C15.6474 13.731 15.9989 12.8837 16 12V4C16 3.89533 15.9787 3.8 15.9693 3.69466Z" fill="#8D8D8D"/>
<path d="M9.41476 8.364L15.5041 2.274C15.2091 1.78488 14.7931 1.38002 14.2961 1.09848C13.7991 0.816946 13.2379 0.668225 12.6668 0.666664H3.33343C2.76224 0.668225 2.20109 0.816946 1.70411 1.09848C1.20713 1.38002 0.791079 1.78488 0.496094 2.274L6.58543 8.364C6.96114 8.73821 7.46982 8.94831 8.00009 8.94831C8.53037 8.94831 9.03905 8.73821 9.41476 8.364Z" fill="#8D8D8D"/>
</g>
<defs>
<clipPath id="clip0_1587_242">
<rect width="16" height="16" fill="white"/>
</clipPath>
</defs>
</svg>
