<svg width="12" height="10" viewBox="0 0 12 10" fill="none" xmlns="http://www.w3.org/2000/svg">
<path d="M12 4.99593C11.9958 4.55719 11.8141 4.13772 11.4943 3.82842L7.81714 0.242502C7.65655 0.0871811 7.4393 0 7.21286 0C6.98641 0 6.76917 0.0871811 6.60857 0.242502C6.52823 0.320027 6.46447 0.412261 6.42095 0.513884C6.37743 0.615506 6.35503 0.724506 6.35503 0.834595C6.35503 0.944684 6.37743 1.05368 6.42095 1.15531C6.46447 1.25693 6.52823 1.34916 6.60857 1.42669L9.42857 4.16199H0.857143C0.629814 4.16199 0.411797 4.24985 0.251052 4.40625C0.090306 4.56264 0 4.77475 0 4.99593C0 5.2171 0.090306 5.42921 0.251052 5.58561C0.411797 5.742 0.629814 5.82986 0.857143 5.82986H9.42857L6.60857 8.5735C6.44717 8.72943 6.35604 8.94135 6.35524 9.16265C6.35443 9.38394 6.44402 9.59649 6.60429 9.75352C6.76455 9.91055 6.98237 9.99921 7.20983 9.99999C7.43728 10.0008 7.65574 9.91362 7.81714 9.75769L11.4943 6.17177C11.8162 5.86042 11.9981 5.43756 12 4.99593Z" fill="#495057"/>
</svg>
