<svg width="12" height="10" viewBox="0 0 12 10" fill="none" xmlns="http://www.w3.org/2000/svg">
<path d="M0 4.99593C0.00417137 4.55719 0.185866 4.13772 0.505714 3.82842L4.18286 0.242502C4.34345 0.0871811 4.5607 0 4.78714 0C5.01359 0 5.23083 0.0871811 5.39143 0.242502C5.47177 0.320027 5.53553 0.412261 5.57905 0.513884C5.62257 0.615506 5.64497 0.724506 5.64497 0.834595C5.64497 0.944684 5.62257 1.05368 5.57905 1.15531C5.53553 1.25693 5.47177 1.34916 5.39143 1.42669L2.57143 4.16199H11.1429C11.3702 4.16199 11.5882 4.24985 11.7489 4.40625C11.9097 4.56264 12 4.77475 12 4.99593C12 5.2171 11.9097 5.42921 11.7489 5.58561C11.5882 5.742 11.3702 5.82986 11.1429 5.82986H2.57143L5.39143 8.5735C5.55283 8.72943 5.64396 8.94135 5.64476 9.16265C5.64557 9.38394 5.55598 9.59649 5.39571 9.75352C5.23545 9.91055 5.01763 9.99921 4.79017 9.99999C4.56272 10.0008 4.34426 9.91362 4.18286 9.75769L0.505714 6.17177C0.183782 5.86042 0.00191402 5.43756 0 4.99593Z" fill="#495057"/>
</svg>
